<svg xmlns="http://www.w3.org/2000/svg" viewBox="0 0 500 500" onclick="run()">
<path id="chipmunk" stroke-width="3" fill="none" stroke="#000" d="M 246,188 l3,12h2l5-6c0,4,1,6,5,7,3-5,8-2,13-1l-2-9c9-2,0-9,0-14l-42-3v-2c11-4,22-17,23-29,18,9,34,3,52,1,2,12,31,21,40,15l14,5,10,10,18-2v-2l-7-3,12-3c-3-5-10-4-15-4v-1l6-5c-8-6-23,3-32-2-7-4-8-25-1-23l-1-4h1l2,2-1,4c2,0,3,2,6,2,5,0,9-2,14-2,11-1,18,1,29-1,6-1,16-5,19-10,4-6-5-20.4-8-25.1-11-17.8-26-23.6-42-35.4-7-4.5-11-11.5-19-13.6-7,8.7-18,2-18,16-12-4.8-23-7-34-10.8-7-2.2-12-6.7-19-8.8-25-7.6-48-6.8-72,2.5-7,2.9-14,4.2-20,9.5-8,6.8-13,15.8-18,24.6-6,9.3-11,17.5-14,28.1-3,11,4,20,4,31l2,3,2-1,7,15c-13-6-29-15-38-27-10-12-11-27-19-40.1-9-16-22.4-29.6-34.7-43.3-6.1-6.9-13.1-12.9-19.1-19.8-4.7-5.3-8.5-12.5-16.3-13.7-3.4-0.5-6.7,0-10,0.5-23.3,3.3-14.7,21.7-8.6,37.3,11.6,29.6,29.7,56.1,48.4,81.1,4.2,5,6.2,12,10.7,18,15.2,18,45.6,31,69.6,31,13,0,25-5,38-4,19,2,36,11,55,13z"/>

<script>
var current = 0, frames = 200, handle = null;
var path = document.getElementById('chipmunk');
var length = path.getTotalLength();
path.style.strokeDasharray = length + ' ' + length;
path.style.strokeDashoffset = length;

var draw = function() {
   var progress = current++/frames;
   if (progress &gt; 1) {
       window.cancelAnimationFrame(handle);
       handle = null; current = 0;
   } else {
       path.style.strokeDashoffset = Math.floor(length * (1 - progress));
       handle = window.requestAnimationFrame(draw);
   }
};
function run() {
    if (!handle) draw();
}
draw();
</script>
</svg>