<?xml version="1.0" encoding="UTF-8" standalone="no"?>
<!-- Created with Inkscape (http://www.inkscape.org/) -->
<svg opacity="0.15" xmlns:dc="http://purl.org/dc/elements/1.1/" xmlns:cc="http://creativecommons.org/ns#" xmlns:rdf="http://www.w3.org/1999/02/22-rdf-syntax-ns#" xmlns:svg="http://www.w3.org/2000/svg" xmlns="http://www.w3.org/2000/svg" xmlns:sodipodi="http://sodipodi.sourceforge.net/DTD/sodipodi-0.dtd" xmlns:inkscape="http://www.inkscape.org/namespaces/inkscape" viewBox="0 0 906 1018" sodipodi:version="0.32" inkscape:version="0.46" version="1.0" sodipodi:docname="award.svg" inkscape:output_extension="org.inkscape.output.svg.inkscape">
  <defs id="defs6431">
    <filter inkscape:collect="always" id="filter4502">
      <feGaussianBlur inkscape:collect="always" stdDeviation="2.1779186" id="feGaussianBlur4504"/>
    </filter>
    <inkscape:perspective sodipodi:type="inkscape:persp3d" inkscape:vp_x="0 : 526.18109 : 1" inkscape:vp_y="0 : 1000 : 0" inkscape:vp_z="744.09448 : 526.18109 : 1" inkscape:persp3d-origin="372.04724 : 350.78739 : 1" id="perspective6437"/>
    <filter inkscape:collect="always" id="filter7229">
      <feGaussianBlur inkscape:collect="always" stdDeviation="13.061929" id="feGaussianBlur7231"/>
    </filter>
  </defs>
  <sodipodi:namedview id="base" pagecolor="#ffffff" bordercolor="#666666" borderopacity="1.0" gridtolerance="10000" guidetolerance="10" objecttolerance="10" inkscape:pageopacity="0.0" inkscape:pageshadow="2" inkscape:zoom="0.35" inkscape:cx="-44.983202" inkscape:cy="636.60603" inkscape:document-units="px" inkscape:current-layer="layer1" showgrid="false"/>
  <metadata id="metadata6434">
    <rdf:RDF>
      <cc:Work rdf:about="">
        <dc:format>image/svg+xml</dc:format>
        <dc:type rdf:resource="http://purl.org/dc/dcmitype/StillImage"/>
      </cc:Work>
    </rdf:RDF>
  </metadata>
  <g inkscape:label="Layer 1" inkscape:groupmode="layer" id="layer1" transform="translate(161.9523,-40.947807)">
    <path sodipodi:type="star" style="opacity:1;fill:#ffcc00;fill-opacity:1;stroke:none;stroke-width:2;stroke-miterlimit:4;stroke-dasharray:none" id="path6455" sodipodi:sides="30" sodipodi:cx="-794.28571" sodipodi:cy="-127.63782" sodipodi:r1="436.12393" sodipodi:r2="218.06197" sodipodi:arg1="1.0191413" sodipodi:arg2="1.1238611" inkscape:flatsided="false" inkscape:rounded="0" inkscape:randomized="0" d="M -565.71426,243.79075 L -700.03849,69.005217 L -647.93343,283.19682 L -742.9824,84.303193 L -736.54891,304.64744 L -788.16852,90.33833 L -827.68775,307.20513 L -833.62198,86.846864 L -917.36677,290.75809 L -877.35626,73.981387 L -1001.6666,256.02514 L -917.45996,52.304184 L -1076.9028,204.52428 L -952.18035,22.762652 L -1139.7873,138.50635 L -979.99999,-13.352103 L -1187.5718,60.856634 L -999.70303,-54.461691 L -1218.1677,-25.031192 L -1010.4283,-98.769427 L -1230.238,-115.40342 L -1011.7072,-144.33885 L -1223.2551,-206.31035 L -1003.4837,-189.17836 L -1197.5241,-293.77891 L -986.11718,-231.32825 L -1154.1697,-373.98631 L -960.36675,-268.94637 L -1095.0867,-443.4271 L -927.35778,-300.38863 L -1022.8572,-499.06638 L -888.53292,-324.28085 L -940.63798,-538.47245 L -845.58901,-339.57883 L -852.02251,-559.92308 L -800.40289,-345.61397 L -760.88366,-562.48076 L -754.94943,-342.1225 L -671.20464,-546.03373 L -711.21515,-329.25702 L -586.90486,-511.30078 L -671.11145,-307.57982 L -511.66861,-459.79992 L -636.39106,-278.03829 L -448.78409,-393.78198 L -608.57142,-241.92353 L -400.99964,-316.13227 L -588.86839,-200.81394 L -370.40369,-230.24444 L -578.14307,-156.50621 L -358.33341,-139.87221 L -576.86423,-110.93678 L -365.31634,-48.965285 L -585.08775,-66.097276 L -391.04729,38.503277 L -602.45423,-23.947384 L -434.40169,118.71068 L -628.20466,13.670737 L -493.48475,188.15147 L -661.21363,45.112997 L -565.71426,243.79075 z" transform="translate(1068.2857,603.42857)"/>
    <g id="g4519" transform="matrix(7.2960758,0,0,7.2960758,-102.46912,-5.3460914)" inkscape:export-filename="C:\Documents and Settings\sheikht\Desktop\awards-tbl-bkg.png" inkscape:export-xdpi="87.675339" inkscape:export-ydpi="87.675339">
      <path id="path3612" d="M 55.093748,51.812502 C 55.013668,51.812502 51.737008,57.429172 47.874998,64.093752 C 40.440218,62.114602 34.119048,60.443452 34.062498,60.500002 C 34.005948,60.556552 35.646458,66.877082 37.624998,74.3125 C 30.960508,78.173564 25.374998,81.451175 25.374998,81.53125 C 25.374988,81.61099 30.992678,84.905769 37.624998,88.75 C 35.645418,96.185112 34.005938,102.50595 34.062498,102.5625 C 34.100538,102.60054 37.398548,101.74222 41.531248,100.65625 C 42.118018,106.17837 42.624998,111.87192 42.624998,115.5625 C 42.624998,124.75254 39.593748,145.875 39.593748,145.875 L 39.718748,145.875 C 45.437458,135.87273 56.455558,132.625 56.593748,132.625 C 56.696488,132.625 61.334018,134.43669 66.062498,139.46875 C 66.304258,139.72608 66.539618,139.97552 66.781248,140.25 C 66.854828,140.33347 66.926508,140.41491 66.999998,140.5 C 67.391268,140.95329 67.770368,141.40624 68.156248,141.90625 C 68.202188,141.96564 68.235428,142.03369 68.281248,142.09375 C 68.691948,142.63311 69.102088,143.1865 69.499998,143.78125 C 69.940958,144.44035 70.395258,145.14522 70.812498,145.875 L 70.906248,145.875 C 70.906248,145.875 71.088598,144.72379 71.374998,142.84375 C 71.515528,141.92217 71.654128,140.9195 71.843748,139.625 C 72.339468,136.25938 72.903038,132.23779 73.437498,127.8125 C 73.511188,127.20004 73.586468,126.60949 73.656248,126 C 73.794558,124.79704 73.914848,123.62743 74.031248,122.46875 C 74.156828,121.21862 74.254278,120.05212 74.343748,118.90625 C 74.377788,118.47034 74.441038,118.0091 74.468748,117.59375 C 74.481228,117.40738 74.488858,117.24432 74.499998,117.0625 C 74.519518,117.08195 74.543168,117.10567 74.562498,117.125 C 81.060838,123.62333 93.843748,140.6875 93.843748,140.6875 L 93.937498,140.625 C 90.908548,129.50859 96.402308,119.4102 96.499998,119.3125 C 96.597728,119.21478 104.78983,115.59607 115.90625,118.625 L 116,118.5625 C 115.99999,118.5625 102.24833,99.592111 95.749998,93.09375 C 92.757728,90.101494 87.664608,86.120278 82.999998,82.65625 C 84.055648,82.027049 84.812498,81.557641 84.812498,81.53125 C 84.771818,81.42857 79.137248,78.140991 72.531248,74.3125 C 74.510138,66.875802 76.150308,60.556562 76.093748,60.500002 C 76.037198,60.443442 69.748568,62.114252 62.312498,64.093752 C 58.469098,57.462752 55.173498,51.812502 55.093748,51.812502 z" style="fill:#b3b3b3;fill-opacity:1;stroke:none;stroke-width:2;stroke-miterlimit:4;stroke-dasharray:none;stroke-dashoffset:0;stroke-opacity:1;filter:url(#filter4502)"/>
      <g id="g4506">
        <g id="g2871" transform="matrix(0.1603805,0,0,0.1603805,-286.2554,-109.49159)">
          <g id="g2867">
            <path style="fill:#80b3ff;fill-opacity:1;stroke:none;stroke-width:2;stroke-miterlimit:4;stroke-dasharray:none;stroke-dashoffset:0;stroke-opacity:1" d="M 2019.3122,1179.915 C 2019.3122,1179.915 2038.2029,1315.7146 2038.2029,1373.0161 C 2038.2029,1430.3176 2019.3122,1561.9248 2019.3122,1561.9248 L 2019.9943,1561.9248 C 2055.6515,1499.5589 2124.4664,1479.3306 2125.328,1479.3306 C 2126.1896,1479.3306 2178.1938,1499.5589 2213.8509,1561.9248 L 2214.5331,1561.9248 C 2214.5331,1561.9248 2237.6216,1417.7239 2237.6216,1360.4224 C 2237.6216,1303.1209 2214.5331,1179.915 2214.5331,1179.915 L 2019.3122,1179.915 z" id="rect2805" sodipodi:nodetypes="czccscczcc"/>
            <path style="fill:#5599ff;fill-opacity:1;stroke:none;stroke-width:2;stroke-miterlimit:4;stroke-dasharray:none;stroke-dashoffset:0;stroke-opacity:1" d="M 2037.1562,1179.9062 C 2120.1448,1218.7191 2180.875,1342.6175 2180.875,1489.3438 C 2180.875,1498.8478 2180.6242,1508.2668 2180.125,1517.5625 C 2191.6383,1529.1302 2203.4375,1543.7364 2213.8438,1561.9375 L 2214.5312,1561.9375 C 2214.5311,1561.9375 2237.625,1417.739 2237.625,1360.4375 C 2237.625,1303.136 2214.5312,1179.9062 2214.5312,1179.9062 L 2037.1562,1179.9062 z" id="path2862"/>
          </g>
          <path style="fill:#aaccff;fill-opacity:1;stroke:none;stroke-width:2;stroke-miterlimit:4;stroke-dasharray:none;stroke-dashoffset:0;stroke-opacity:1" d="M 2087.4478,1259.5919 C 2087.4478,1259.5919 2196.8303,1342.259 2237.3487,1382.7773 C 2277.8669,1423.2955 2357.5696,1529.7136 2357.5696,1529.7136 L 2358.0519,1529.2312 C 2339.1659,1459.9185 2373.5219,1396.9554 2374.131,1396.3462 C 2374.7403,1395.7369 2425.8163,1373.268 2495.1291,1392.1539 L 2495.6115,1391.6715 C 2495.6115,1391.6715 2409.9721,1273.3801 2369.4539,1232.8617 C 2328.9356,1192.3435 2225.4898,1121.5499 2225.4898,1121.5499 L 2087.4478,1259.5919 z" id="path2812" sodipodi:nodetypes="czccscczcc"/>
        </g>
        <g id="g2877" transform="matrix(0.1603805,0,0,0.1603805,-286.2554,-109.49159)">
          <g transform="matrix(0.6063347,0,0,0.6063347,699.07601,574.99532)" id="g2820">
            <path style="opacity:1;fill:#ff7f2a;fill-opacity:1;stroke:none;stroke-width:2;stroke-miterlimit:4;stroke-dasharray:none;stroke-dashoffset:0;stroke-opacity:1" d="M 2336.6562,660.40625 C 2335.8327,660.40625 2302.027,718.12186 2262.3125,786.65625 C 2185.8577,766.30386 2121.0816,749.35597 2120.5,749.9375 C 2119.9184,750.51907 2136.8415,815.32001 2157.1875,891.78125 C 2088.654,931.48604 2030.9375,965.27031 2030.9375,966.09375 C 2030.9375,966.91375 2089.0161,1000.9058 2157.2188,1040.4375 C 2136.862,1116.8956 2119.9184,1181.6997 2120.5,1182.2812 C 2121.0817,1182.863 2185.8974,1165.9164 2262.375,1145.5625 C 2301.8853,1213.7481 2335.8367,1271.8125 2336.6562,1271.8125 C 2337.4796,1271.8125 2371.2638,1214.1075 2410.9688,1145.5938 C 2487.4298,1165.9432 2552.231,1182.863 2552.8125,1182.2812 C 2553.394,1181.6998 2536.4772,1116.9101 2516.125,1040.4688 C 2584.644,1000.7445 2642.3438,966.91723 2642.3438,966.09375 C 2641.9253,965.03785 2584.0571,931.18234 2516.125,891.8125 C 2536.4746,815.33814 2553.3942,750.51914 2552.8125,749.9375 C 2552.231,749.3559 2487.4367,766.30028 2410.9688,786.65625 C 2371.4456,718.46709 2337.4763,660.40625 2336.6562,660.40625 z" id="path2784"/>
            <path id="path2798" d="M 2336.6546,690.97656 C 2335.9135,690.97656 2305.4884,742.92061 2269.7453,804.60156 C 2200.936,786.28441 2142.6375,771.03131 2142.1141,771.55469 C 2141.5906,772.0781 2156.8214,830.39895 2175.1328,899.21406 C 2113.4527,934.94837 2061.5078,965.35422 2061.5078,966.09531 C 2061.5078,966.83331 2113.7786,997.42616 2175.161,1033.0047 C 2156.8399,1101.817 2141.5906,1160.1407 2142.1141,1160.664 C 2142.6376,1161.1876 2200.9717,1145.9357 2269.8016,1127.6172 C 2305.3608,1188.9842 2335.9171,1241.2422 2336.6546,1241.2422 C 2337.3957,1241.2422 2367.8015,1189.3077 2403.536,1127.6454 C 2472.3509,1145.9598 2530.672,1161.1876 2531.1953,1160.664 C 2531.7187,1160.1408 2516.4935,1101.83 2498.1766,1033.0329 C 2559.8437,997.28099 2611.7735,966.83644 2611.7735,966.09531 C 2611.3968,965.145 2559.3155,934.67504 2498.1766,899.24219 C 2516.4912,830.41526 2531.7188,772.07816 2531.1953,771.55469 C 2530.672,771.03125 2472.3571,786.28119 2403.536,804.60156 C 2367.9651,743.23132 2337.3927,690.97656 2336.6546,690.97656 z" style="opacity:1;fill:#ffe6d5;fill-opacity:1;stroke:none;stroke-width:2;stroke-miterlimit:4;stroke-dasharray:none;stroke-dashoffset:0;stroke-opacity:1"/>
            <path style="opacity:1;fill:#ffccaa;fill-opacity:1;stroke:none;stroke-width:2;stroke-miterlimit:4;stroke-dasharray:none;stroke-dashoffset:0;stroke-opacity:1" d="M 2423.1875,855.71875 C 2305.6344,855.71875 2203.5991,922.44208 2152.8125,1020.0312 C 2160.2775,1024.3681 2167.3026,1028.4478 2175.1562,1033 C 2156.8353,1101.8122 2141.6015,1160.1329 2142.125,1160.6562 C 2142.6486,1161.1799 2200.9826,1145.9435 2269.8125,1127.625 C 2305.3718,1188.992 2335.9188,1241.25 2336.6562,1241.25 C 2337.3974,1241.25 2367.7967,1189.3185 2403.5312,1127.6562 C 2472.3463,1145.9707 2530.6642,1161.1798 2531.1875,1160.6562 C 2531.7109,1160.1331 2516.5044,1101.8284 2498.1875,1033.0312 C 2559.8547,997.27928 2611.7812,966.83488 2611.7812,966.09375 C 2611.4046,965.14341 2559.3264,934.68285 2498.1875,899.25 C 2501.1773,888.01437 2503.8549,877.78318 2506.625,867.3125 C 2480.1074,859.76924 2452.1135,855.71875 2423.1875,855.71875 z" id="path3603"/>
          </g>
          <path id="text2833" d="M 2087.3372,1079.4944 L 2169.4529,1221.7228 L 2133.9618,1242.2137 L 2089.9369,1165.9603 C 2083.5797,1154.9502 2079.4955,1148.484 2077.6833,1146.563 C 2075.8714,1144.6418 2073.4497,1143.7949 2070.4184,1144.0222 C 2067.3871,1144.2495 2061.7721,1146.7302 2053.5724,1151.4638 L 2050.0585,1153.4926 L 2040.4726,1136.8892 C 2055.5023,1123.2924 2064.1544,1108.1845 2066.4291,1091.5657 L 2087.3372,1079.4944 z" style="font-size:72px;font-style:normal;font-variant:normal;font-weight:normal;font-stretch:normal;text-align:start;line-height:125%;writing-mode:lr-tb;text-anchor:start;fill:#ff6600;fill-opacity:1;stroke:none;stroke-width:1px;stroke-linecap:butt;stroke-linejoin:miter;stroke-opacity:1;font-family:Impact;-inkscape-font-specification:Impact"/>
        </g>
      </g>
    </g>
  </g>
</svg>