<svg xmlns="http://www.w3.org/2000/svg" xmlns:xlink="http://www.w3.org/1999/xlink" width="511.3" height="256.2"><title>back to the future</title><metadata id="metadata7">image/svg+xml</metadata><defs><filter id="filter3430" x="-0.2" width="1.5" y="-0.2" height="1.5"><feGaussianBlur stdDeviation="8" id="feGaussianBlur3432"/></filter><filter id="filter3480" x="-0.1" width="1.3" y="-0.1" height="1.3"><feGaussianBlur stdDeviation="4.6" id="feGaussianBlur3482"/></filter><filter id="filter4199" x="-0.6" width="2.1" y="-1.5" height="3.9"><feGaussianBlur stdDeviation="40" id="feGaussianBlur4201"/></filter><linearGradient id="linearGradient4249"><stop offset="0" id="stop4251" stop-color="#4d4d4d"/><stop id="stop4257" offset="0.4" stop-color="#1a1a1a"/><stop offset="1" id="stop4253" stop-color="#000000"/></linearGradient><linearGradient id="linearGradient3431"><stop offset="0" id="stop3433" stop-color="#bbbbbb"/><stop id="stop3439" offset="0.5" stop-opacity="0.3" stop-color="#393939"/><stop offset="1" id="stop3435" stop-opacity="0" stop-color="#000000"/></linearGradient><linearGradient id="linearGradient3415"><stop offset="0" id="stop3417" stop-color="#000000"/><stop offset="1" id="stop3419" stop-opacity="0" stop-color="#000000"/></linearGradient><linearGradient xlink:href="#linearGradient3415" id="linearGradient3757" x1="-0.8" y1="0.8" x2="-0.8" y2="-0.1"/><linearGradient xlink:href="#linearGradient4249" id="linearGradient3764" x1="0.5" y1="0.9" x2="0.5" y2="0"/><linearGradient xlink:href="#linearGradient3431" id="linearGradient3767" x1="0.5" y1="1" x2="0.4" y2="0.4"/></defs><title>Layer 1</title><path d="m594.4-440.7c5.3 12.6 0 2.1 0 0z" id="path2515" stroke-width="1" stroke="#000000" fill-rule="evenodd" fill="none"/><rect id="rect3395" width="53.9" height="81.6" x="-2.4" y="-110.6" stroke-miterlimit="4" stroke-width="2" fill-opacity="0" fill="#000000"/><g id="g3576"><g id="g3525"><path d="m89.8 1014.9l9.4 0 5.7-13.1 118-12.7 55.1-24.1 70.2-0.8 -0.8-4.5 13.1 0.4 2.4 5.7c31.6 5.2 63.1 9.4 94.7 18.8l7.3 22.4c2.3 4.5 5 9 2 13.5l-3.3 0.4c0.1 3.9-0.8 7.9-2.9 11.8l-11.4 0.8 -8.2 2.9 -2.4-3.7 -13.9 6.1c-0.5-15.7-1.9-31.1-32.2-35.1 -23.6 2.9-26.8 17.7-32.7 31l-0.8 11.8 -159.6-1.6c-6.6-13.7 0-33.1-31.4-35.9 -16.7-1.8-26.8 7.6-29.4 29.8l-0.8 4.1 -32.2 0 -1.2-4.9 0.4-4.1 -6.9-4.1 -7.8 0 -0.4-15.1zM222.9 989.6" id="path3441" stroke-width="1" stroke="#000000" fill-rule="evenodd" fill="none"/><path d="m222.9 989.6l17.1 45.7 74.7 0c14.9-13.9 28-28.5 34.3-45.7l-3.3-24.1" id="path3443" stroke-width="1" stroke="#000000" fill-rule="evenodd" fill="none"/><path d="m359.6 960.2c2.1 18 5.7 30.6 14.3 26.9l47.3 1.6c23.5-0.5 23.6 13.8 27.3 25.7l1.6 18.8 -8.6 3.3 -4.5-27.3c-3.6-11.6-14.2-9.2-22.9-10.6l-36.7 0.4c-10.2-2.8-22-2.6-24.9-18.8l-4.5-16.3" id="path3445" stroke-width="1" stroke="#000000" fill-rule="evenodd" fill="none"/><path d="m364.1 971.2l69.8 10.2c2.3 2.2 5.4 4.4 2.4 6.5l-62.9-2.4c-4.6-2.2-11-0.9-9.4-14.3z" id="path3447" stroke-width="1" stroke="#000000" fill-rule="evenodd" fill="none"/><path d="m98.4 1014.1l35.1 0 0 16.3 -35.5-0.4 0.4-15.9 0 0z" id="path3451" stroke-width="1" stroke="#000000" fill-rule="evenodd" fill="none"/><path d="m453.5 1010.4l-0.8 12.7 14.3-2 0.4-10.6 -13.9 0z" id="path3455" stroke-width="1" stroke="#000000" fill-rule="evenodd" fill="none"/><path d="m449 983.5c4.7 18.8 4.1 25.3 4.1 25.3l12.2 0.4 -8.2-23.7 -8.2-2z" id="path3457" stroke-width="1" stroke="#000000" fill-rule="evenodd" fill="none"/><path d="m132.2 1012.9c11.4-8.6 22.9-6.8 34.3-10.2 19.9 0.8 24.7 14.1 33.5 24.1 3.4 12.3 11.6 15.2 19.2 19.2l38 0.4 -0.4-6.5 -35.5 0.4c-11.3-5.5-19.1-15.9-24.9-29 -8.6-7.5-17.6-13.9-29.4-13.9 -9.1 0.9-18.2 1.9-27.3 4.9 -6.3 0.3-10.6 6.8-15.9 10.2l8.6 0.4z" id="path3461" stroke-width="1" stroke="#000000" fill-rule="evenodd" fill="#000000"/><path d="m258 1045.1l64.9 0.4 0-6.1 -64.5 1.2 -0.4 4.5z" id="path3463" stroke-width="1" fill-rule="evenodd" fill="#cccccc"/><path d="m322.9 1045.5l31.4 0.4c3.7-3.3 3.9-6.5 4.5-9.8 -1.1-9.3 7.2-24.1 16.7-37.6l-6.5-0.8c-9.5 12.8-13.7 24.6-18 36.3 -0.7 2.8-1.4 5.8-2 6.5l-25.7 0.4 -0.4 4.5z" id="path3467" stroke-width="1" stroke="#000000" fill-rule="evenodd" fill="#000000"/><path d="m338 969.2l0.4 18.4 -102.9 3.7 49-23.3c18.4-0.3 38.1-2.4 53.5 1.2z" id="path3469" stroke-width="1" stroke="#000000" fill-rule="evenodd" fill="none"/><path d="m113.9 1001l-0.4 12.2 -13.5 0.8 5.3-12.2 8.6-0.8z" id="path3471" stroke-width="1" stroke="#000000" fill-rule="evenodd" fill="none"/><path d="m133.9 1016.9l13.8-0.3" id="path3473" stroke-miterlimit="4" stroke-width="2.1" stroke="#000000" fill-rule="evenodd" fill="none"/><path d="m196.4 1015.3l37.1-0.4" id="path3475" stroke-miterlimit="4" stroke-width="2" stroke="#000000" fill-rule="evenodd" fill="none"/><path d="m233.9 1014.5l100.8 0 23.3-1.2" id="path3477" stroke-miterlimit="4" stroke-width="2" stroke="#000000" fill-rule="evenodd" fill="none"/><path d="m418.4 1012.9l18-1.2" id="path3479" stroke-miterlimit="4" stroke-width="2" stroke="#000000" fill-rule="evenodd" fill="none"/><path d="m448.2 1011.6l4.9-0.8" id="path3481" stroke-width="1" stroke="#000000" fill-rule="evenodd" fill="none"/></g><path id="path3548" d="m358 1013.2l0-1.2 -4.4 0.3c-9.6 0.6-16.8 0.8-16.8 0.5 0-0.2 0.7-1.2 1.6-2.4 3.9-5.3 7.4-11.5 10-17.5l1.3-3.1 -1.6-12.3c-1.5-11.1-1.7-12.3-2.4-12.3 -0.6 0-0.7 0.2-0.5 1.1 0.1 0.6 0.9 6.1 1.7 12.1l1.5 11 -1.7 3.9c-1.9 4.5-5.6 10.8-9.4 16.2l-2.6 3.7 -50.5 0.1c-27.8 0-50.7 0.1-51 0.1 -0.4 0-9.6-23.8-9.3-24 0.1-0.1 12.4-5.4 27.3-12l27.2-11.8 34.7-0.4c19.1-0.2 34.7-0.4 34.8-0.4 0 0 1.1 3.8 2.3 8.4 1.3 4.6 2.6 9.4 2.9 10.6 1.9 6.4 6.3 10.6 13.7 13l1.5 0.5 -2.5 3.7c-1.4 2-3.7 5.8-5.1 8.4 -2.1 3.8-2.6 4.5-2.6 3.6l0 0zm-67.9-23.3c26.8-1 48.7-1.8 48.8-1.9 0.1-0.1 0-4.5-0.1-9.7l-0.2-9.6 -2.2-0.5c-7.5-1.7-18.8-2.1-40.2-1.3l-12 0.4 -24.4 11.6c-14.7 7-24.4 11.8-24.5 12.2 -0.2 0.8-1.6 0.9 54.9-1.2l0 0zM239.7 1032.5" stroke-miterlimit="4" stroke-width="2" fill="#bcbcbc"/><path id="path3550" d="m239.7 1032.5c-4.7-12.5-6.2-16.5-6.2-16.7 0-0.1 22.2-0.1 49.4-0.1l49.4 0.1 -1.8 2.1c-1 1.2-5 5.4-8.9 9.4l-7.1 7.2 -37.1 0 -37.1 0 -0.8-2.1z" stroke-miterlimit="4" stroke-width="2" fill="#bcbcbc"/><path id="path3552" d="m257.6 1042.2l-0.2-2.9 -18 0.1 -18 0.1 -2.2-1.3c-4.2-2.5-7.7-5.4-11.4-9.6 -3.1-3.5-7.8-10.8-7.8-12 0-0.3 5.1-0.4 16-0.4l16 0 3.7 9.8 3.7 9.8 38 0 38 0 6.7-6.8c3.7-3.8 7.9-8.2 9.3-9.9 1.4-1.7 2.7-3.1 2.7-3.2 0.2-0.2 17.9-1.2 21.4-1.2l2.3 0 -1.9 4.4c-2.6 6.3-5.7 14.6-6.5 17.7 -0.4 1.5-0.8 2.8-0.9 2.9 -0.2 0.1-6 0.4-13 0.6 -11.8 0.3-12.8 0.2-12.8-0.4 0-0.6-0.4-0.7-3.4-0.5 -1.9 0.1-16.2 0.4-31.9 0.7 -15.7 0.2-28.8 0.5-29.1 0.6 -0.3 0.1-0.5 1.1-0.6 2.3 -0.1 2.1-0.1 2.1-0.3-0.7l0 0z" stroke-miterlimit="4" stroke-width="2" fill="#bcbcbc"/><path id="path3554" d="m199.4 1042.9c-0.6-1.5-1.6-5.4-3.5-13.2 -2.9-12.6-9.5-18.4-23.5-20.6 -4.6-0.8-12-0.8-14.8 0 -3.3 0.9-6.2 2.4-8.8 4.4l-2.3 1.9 -6.2 0.2 -6.2 0.2 0-1.1c0-0.7-0.2-1.1-0.7-1.2 -1.1-0.2 4.4-3.4 8.5-4.8 2.3-0.8 6.7-1.8 12.8-2.9 5.2-0.9 9.9-1.7 10.6-1.9 1.6-0.4 6.3 0.1 9.8 1.2 4.1 1.2 7.6 3.3 11.1 6.6 3.9 3.7 12.8 15.3 13.9 18 2.4 6.3 5.9 10.2 12 13.7l2.2 1.3 -7.2 0 -7.2 0 -0.6-1.5z" stroke-miterlimit="4" stroke-width="2" fill="#bcbcbc"/><path id="path3556" d="m197.8 1012.5c-1-2.3-8.3-8.1-14.1-11.3 -3.9-2.2-8.1-3.6-12.3-4.2 -5.5-0.8-16.8 0.6-29 3.7 -7.2 1.8-8.5 2.4-12 5.3 -1.3 1.1-3.8 3.1-5.4 4.4l-3 2.3 1.5 0.2c0.8 0.1-0.9 0.3-3.9 0.3l-5.4 0.1 0-5.9 0-5.9 1.7-0.2c3-0.4 104.4-11.2 105.3-11.2 0.8 0 1.4 1.2 5.3 11.7 2.4 6.4 4.3 11.7 4.3 11.8 -0.1 0.1-7.4 0.2-16.3 0.2l-16.2 0.1 -0.7-1.5z" stroke-miterlimit="4" stroke-width="2" fill="#bcbcbc"/><path id="path3558" d="m101.5 1012.5c0.1-0.5 1.2-2.9 2.3-5.5l2-4.6 2.5-0.3c1.4-0.1 3-0.3 3.7-0.3l1.2 0 0 2.8c0 1.5-0.1 3.9-0.3 5.3l-0.3 2.5 -2.5 0.2c-8.5 0.7-8.9 0.7-8.6-0.2l0 0z" stroke-miterlimit="4" stroke-width="2" fill="#bcbcbc"/><path id="path3560" d="m105.8 1040.5c-0.3-1.1-0.4-3-0.4-4.4l0.1-2.5 -2.5-1.4 -2.5-1.4 16.9 0.1 16.9 0.1 0-6.3c0-5.4 0.1-6.3 0.6-6.6 0.4-0.1 2.7-0.2 5.3-0.2l4.6 0 -1.4 2.3c-2 3.4-4.1 10.1-5.1 16.5l-0.9 5.6 -15.6 0 -15.6 0 -0.5-1.9z" stroke-miterlimit="4" stroke-width="2" fill="#bcbcbc"/><path id="path3562" d="m425.4 1035.4c0-3-1-9.5-1.8-12.2 -0.7-2.3-2.5-5.9-3.8-7.5 -0.5-0.7-1-1.4-1-1.5 0-0.1 0.7-0.3 1.5-0.3 0.8 0 4.8-0.2 8.8-0.5l7.2-0.5 0-1.2c0-1-0.2-1.2-1.1-1.2 -0.8 0-15.9 1.1-17.1 1.2 -0.1 0-0.1 0.4-0.1 0.8 0 0.7-0.4 0.5-2.4-1.2 -4.5-3.6-11-6.2-19.2-7.6 -3.7-0.6-5.3-0.6-9.6 0.5 -8 1.9-14.2 5.9-18.4 11.8 -2.1 2.9-4.1 6.8-7 13.7 -1.2 2.8-2.2 4.9-2.2 4.6 0-0.3 0.3-1.8 0.6-3.5 1.3-6.6 5-14.5 11.8-25.1l4-6.2 17-0.1c22.1-0.1 21.9-0.1 27.9 0.4 6.4 0.6 10.1 1.7 12.3 3.7 2.9 2.6 3.4 4.2 5.6 17.6 1.1 6.7 2.1 12.4 2.1 12.5 0 0.2-0.3-0.1-0.8-0.7l-0.8-0.9 -6.3 2.8c-3.5 1.5-6.5 2.9-6.8 3 -0.4 0.1-0.5-0.5-0.5-2.4z" stroke-miterlimit="4" stroke-width="2" fill="#bcbcbc"/><path id="path3564" d="m450 1023.3c-0.5-5.3-1-10-1.1-10.4 -0.2-0.6 0-0.7 1.6-1 1-0.2 2-0.2 2.1-0.1 0.1 0.1 0 2.7-0.2 5.8 -0.2 3.1-0.3 5.7-0.2 5.9 0.1 0.1 2.5-0.1 5.3-0.5 2.8-0.4 5.2-0.6 5.4-0.5 0.4 0.4-0.6 5.4-1.5 7.5l-0.9 2.1 -2.7 0.2c-1.5 0.1-3.6 0.3-4.8 0.4l-2.1 0.2 -0.8-9.7z" stroke-miterlimit="4" stroke-width="2" fill="#bcbcbc"/><path id="path3566" d="m447 1006.4c-3.2-10.5-6.9-14.8-14.9-17.1l-2.4-0.7 3.8 0c3.3 0 3.8-0.1 4.2-0.8 0.7-1.3 0.5-3-0.5-4.1 -2.7-3 0-2.4-37.9-7.9 -19.2-2.8-35.2-5.1-35.4-5.1 -0.2 0-0.4 1.3-0.4 3 0 3.6-0.4 2.8-1.6-4.1 -0.9-5.1-0.9-7 0-4.5 0.4 1 0.9 1.6 1.4 1.7 0.5 0.1 11 1.8 23.4 3.9 23.9 3.9 32.9 5.6 44.8 8.2 7.7 1.7 16.5 3.9 16.7 4.1 0.3 0.3 2.7 11.8 3.5 16.5 0.4 2.7 0.8 6 0.8 7.4l0 2.6 1.3 0c0.8 0 1 0.1 0.5 0.2 -0.4 0.1-1.3 0.3-1.8 0.5 -0.6 0.2-1.7 0.5-2.5 0.6l-1.5 0.2 -1.4-4.6z" stroke-miterlimit="4" stroke-width="2" fill="#bcbcbc"/></g><path id="path3568" stroke-miterlimit="4" stroke-width="2" fill="#bcbcbc"/><path id="path3608" stroke-miterlimit="4" stroke-width="2" fill="#b2b2b2"/><path id="path3610" stroke-miterlimit="4" stroke-width="2" fill="#b2b2b2"/><path id="path3622" stroke-miterlimit="4" stroke-width="2" fill="#b2b2b2"/><rect id="rect3785" width="148" height="119" x="-69" y="422.8" ry="1.1" stroke-miterlimit="4" stroke-width="5" stroke="#ff0000" fill="#808080" opacity="0"/><path d="m504 295.2l5 2M427.5 28.3" id="path3416" stroke-width="1" stroke="#000000" fill-rule="evenodd" fill="none"/><path d="m427.5 28.3c57.3-98.2-5.3 102.4-46.8 136.4l0.4-0.1" id="path3801" stroke-miterlimit="4" stroke-width="3" stroke="#000000" fill-rule="evenodd" fill="none"/><path d="m401 125.8l35-75 7 3 -35 76 -7-4z" id="path3793" stroke-width="1" stroke="#000000" fill-rule="evenodd" fill="#28170b"/><g id="g2486" transform="matrix(0.990226, 0, 0, 0.990226, -37.1454, -589.15)" fill="#000000"><g id="g2440" fill="#000000"><g id="g2431" fill="#000000"><g id="g2423" fill="#000000"><g id="g2416" fill="#000000"><g id="g2410" fill="#000000"><path id="path2392" d="m423.8 852.7c-7.4-0.4-15.5-1.2-18-1.8 -4.9-1.2-217.1-0.9-245.5 0.4 -16.6 0.7-43.1-0.7-51.6-2.9 -3.2-0.8-14.5-1.6-27.4-2 -22.6-0.7-36.6-2.3-37.2-4.1 -0.6-1.7 17.7-9.9 36.7-16.4 6.3-2.2 11.3-4 11-4 -7.7-0.8-30.4-4.2-31.1-4.6 -1.2-0.8-1.1-3.8 0.2-5.1 3.6-3.6-4.2-10.5-13.3-11.9l-4.7-0.7 0.2-4.6c0.1-2.5-0.2-6.7-0.6-9.3 -0.8-4.6-0.8-4.7 2.4-5.7 1.8-0.6 4.7-1.1 6.6-1.1 3.3 0 3.5-0.3 6.8-7.5 2.5-5.5 4.1-7.8 6-8.5 4-1.5 8.2-1.2 8.9 0.7 0.6 1.5 0.7 1.5 1.9 0 0.9-1.3 5.3-2.1 19.6-3.7 10.1-1.1 22.5-2 27.5-2 5 0 14-0.6 20-1.4 11.7-1.5 13.6-1.3 13.6 1.3 0 1.4 0.2 1.4 0.9 0.2 0.8-1.2 1.9-1 7.2 1.4 7.2 3.2 16.6 10 18 13 0.5 1.1 2.2 3 3.6 4.1 2.5 2 3.5 2.1 23.9 1.6 22.4-0.5 22.8-0.6 20.2-5 -0.6-1-2.9-7.4-5.2-14.2l-4.2-12.5 -3.7 0.3c-3.8 0.3-4.7-0.5-2.6-2.6 1.7-1.7 4.7-1.5 5.4 0.3 0.3 0.8 1.2 1.5 1.9 1.5 0.7 0 2.5 3.3 4 7.3 1.5 4 3.8 9.7 5.1 12.6 1.3 3 2.4 6.1 2.4 7 0 4.1-0.3 4.1 70.5 4.1 60 0 68.3-0.2 70.3-1.6 1.2-0.9 2.2-2.1 2.2-2.7 0-0.6 2.2-4.3 4.8-8.2 10.5-15.3 10.5-15.4 9.7-26.9 -0.8-11.7-2.5-22.7-3.8-24.2 -0.5-0.5-3.4-1.5-6.6-2 -4.8-0.8-5.8-1.4-6-3.3 -0.4-3 1.4-5.2 4.3-5.2 1.2 0 2.8-0.7 3.5-1.5 1.1-1.3 1.4-1.3 2.4 0 1.1 1.4 6 2.1 10 1.4 2.9-0.5 3.1 2 0.3 3.1l-2.4 0.9 1.4 7.8c0.8 4.3 1.9 8.3 2.4 8.8 0.5 0.5 0.9 2.9 0.9 5.3 0 5.4 2.8 11.1 8.7 17.4 6.1 6.6 13 9.2 24.3 9.3 4.7 0.1 8.9 0.4 9.5 0.7 0.5 0.3 11.6 0.5 24.5 0.5 23.5-0.1 23.5-0.1 23.8-2.3 0.3-2.1 0.9-2.2 10-2.5l9.7-0.3 -3.5-1.8c-1.9-1-7-2.2-11.2-2.7 -4.3-0.5-8.8-1.5-10-2.2 -3-1.7-42-2.3-46-0.6 -2.2 0.9-3.1 0.8-4.5-0.4 -0.9-0.8-3.7-1.8-6.1-2.2 -7.3-1.2-10.9-3.2-13.7-7.7 -1.5-2.3-3-5.3-3.3-6.7 -0.8-2.9 0.6-6.7 2.7-7.5 1.6-0.6 20.7 2.1 44.3 6.3 9.1 1.6 21.4 3.7 27.5 4.6 20.5 3 22.8 3.5 24.7 5.3 4.5 4.1 4.5 7.7 0 8.8 -2.6 0.6-2.6 0.7-0.7 2.1 1.1 0.8 3.5 1.4 5.3 1.4 2.8 0 3.5 0.5 4.4 3 1.3 3.8 4.1 5.4 6.8 4 1.1-0.6 2-1.5 2-2 0-1.9 1.7-0.9 2.8 1.6 1.4 3.2 3.2 2.3 3.2-1.6 0-4.7-2.1-13.1-3.3-13.4 -0.6-0.2-4.8-1.5-9.2-2.9 -9.9-3.2-24.5-6.8-39-9.6 -6.1-1.2-11.6-2.4-12.4-2.6 -4-1.4 7-5.3 15.8-5.5l3.7-0.1 -3.8-0.7c-6.2-1.2-6.4-2.4-1-5.8 4.5-2.8 14.3-7.2 16.2-7.2 0.5 0 1.4 1.3 2.1 3 0.7 1.7 1.7 3 2.4 3 0.6 0 3.8-1.7 7.1-3.7 5.2-3.2 7-3.8 13.3-4.1 7.2-0.4 7.2-0.4 8.3 2.5 0.6 1.6 1.9 4.7 2.9 6.9 5.4 12 6.3 15.5 6.3 23.7 0 6.6 0.6 9.8 2.8 15.8 1.5 4.1 3.1 9.3 3.5 11.5 0.4 2.2 2 5.7 3.6 7.7 4.5 5.7 3.4 13.7-2.6 18.3 -2.3 1.8-3.5 3.5-3.5 5.1 0 3.7-2.6 9.1-4.9 10.4 -1.2 0.6-4.9 1-8.3 0.8l-6.2-0.3 0.2-6.5c0.2-7.4-0.2-8.4-4.1-9.4 -2.6-0.6-2.8-0.5-2.9 3.1 -0.3 6 0.3 11.7 1.2 12.1 1 0.4-3.4 5.2-4.7 5.2 -0.6 0-1.6-0.7-2.3-1.5 -1.4-1.7-2.8-1.5-11.1 2.2 -4.4 1.9-6.1 2.3-7.6 1.4 -1.8-0.9-2-0.7-2.6 2.7 -1.3 8.1-1.1 8.9 4 10.1 5 1.3 38.3 13.6 39.3 14.6 1.1 1.1-2.2 2.5-5.9 2.5 -1.9 0-5.1 0.5-7 1.1 -1.9 0.6-9.3 1.5-16.5 2 -16.6 1.1-20.7 1.8-22.2 3.6 -0.7 0.8-3.3 1.9-5.9 2.4 -4.8 0.9-34.2 3-37.9 2.7 -1.1-0.1-8.1-0.5-15.5-0.9zm-284.5-18c-0.3-0.5-1.3-1-2.1-1 -0.8 0-1.2 0.5-0.9 1 0.3 0.5 1.3 1 2.1 1 0.8 0 1.2-0.5 0.9-1zm-5.5-3c0-0.5-0.5-1-1.1-1 -0.6 0-0.8 0.5-0.4 1 0.3 0.5 0.8 1 1.1 1 0.2 0 0.4-0.5 0.4-1zm10-7.4c0-0.2-0.4-0.7-1-1.1 -0.6-0.3-1-0.1-1 0.4 0 0.6 0.4 1.1 1 1.1 0.6 0 1-0.2 1-0.4zm-33.2-5.3c0.4-2.7-0.1-2.8-5-0.5 -5 2.3-4.9 3.4 0.4 3.1 3.5-0.3 4.3-0.7 4.6-2.6zm339.2-0.2c0-1.5-0.7-2-2.5-2 -2.7 0-3.2 0.9-1.3 2.8 1.8 1.8 3.8 1.4 3.8-0.8zm-101.1-1.4c0.8-1 0.9-1.6 0.1-2.1 -1.3-0.8-67.3-0.7-69.5 0.1 -0.8 0.3-1.5 1.2-1.5 2 0 2.1 69.2 2.1 70.9 0zm6.5-1.7c-0.9-1.5-2.4-1.1-1.8 0.6 0.3 0.8 1 1.2 1.5 0.9 0.5-0.3 0.7-1 0.3-1.5zm-114.5-11.7c0-0.4-2.1-5.4-4.7-11l-4.7-10.2 -13 0.5c-7.2 0.3-13.2 0.7-13.5 1 -0.2 0.2 1.1 0.5 3 0.5 1.9 0 4 0.4 4.8 0.9 0.9 0.6-2 1.1-7.8 1.6l-9.1 0.7 2.8 5.1c1.5 2.8 4.2 6.6 5.9 8.4l3.1 3.3 16.6 0c9.1 0 16.6-0.3 16.6-0.7zm109.7-4.1c6-5 16.9-16.9 16.1-17.7 -0.2-0.2-1.8 0-3.4 0.5 -1.6 0.5-2.6 0.9-2.1 1 0.4 0 0.5 0.6 0.1 1.2 -0.4 0.7-1.3 0.4-2.4-0.7 -1.6-1.7-4.9-1.8-61.3-1.8 -32.8 0-59.9 0.3-60.2 0.6 -0.7 0.7 5 17.9 6.4 19.4 1 1 34.2 2 79.7 2.4l21.2 0.2 5.8-4.8zm43.3 2.6c0.5-1.2 1.9-5.8 3.2-10.2 1.7-6 2-8 1-8.4 -0.9-0.3-0.7-0.8 0.5-1.8 1.6-1.2 0.1-1.4-10.6-1.4l-12.4 0 -11.7 12 -11.7 12 20.4 0c20.2 0 20.4 0 21.3-2.2zm-219-24.9c0-1.6-6.9-7.7-11.5-10.2 -4.3-2.3-16-3-21.9-1.4 -3.9 1.1-1.6 2.6 4 2.7 6.1 0 17.6 3.4 23.6 6.8 6.3 3.6 5.8 3.5 5.8 2.1zm231.9-5c1-1.7 2.8-3.7 4-4.6 3-2.1 2.7-3-1.8-5.3 -3.9-2-8.7-8.7-12.7-17.9l-1.6-3.6 -1.8 5.7c-1.9 6.3-6.3 14.6-11.6 22.1 -1.9 2.6-3.1 5.2-2.8 5.8 0.3 0.5 6.4 1 13.5 1l13 0 1.9-3.1zm16.8-0.3c10.9-7.8 29.2-11.1 44.3-8 1.6 0.3 2.1 0.2 1.5-0.5 -2.9-2.8-18.5-3.9-28-2.1 -2.7 0.5-7.3 1.1-10.1 1.3 -7.8 0.5-10.5 2.7-12.9 10.4 -0.9 3-0.4 2.9 5.2-1.1zm72.3-52.1c-0.7-0.8-2.4-1.5-3.9-1.5l-2.6 0 2.5 1.4c3.5 2 5.7 2 4 0zm-293 50.5c0-1.2 1.7-1.2 4.5 0 1.7 0.7 1.5 0.9-1.2 0.9 -1.8 0-3.2-0.4-3.2-0.9zm51.6-2.2c-0.2-0.7-0.7-4.8-1-9.1 -0.3-4.3-0.8-8.2-1.1-8.7 -0.3-0.5-2.8-0.9-5.6-0.9 -2.8 0-5.9-0.5-6.9-1 -2.1-1.1-2.6-4.9-0.9-8 1.2-2.2 13.9-8.9 16.9-8.9 1.1 0 2.3-0.5 2.7-1.1 0.4-0.7 2.4-0.9 5.4-0.5 4 0.5 6 0.1 12.6-2.7 10.9-4.7 22.7-8.4 30.4-9.7 3.6-0.6 20.5-1.3 37.5-1.7 29.1-0.6 31.1-0.5 32.5 1.2 1.1 1.3 1.6 4.9 1.8 12.5 0.4 13.7 0.2 14-11.2 14.1 -4.5 0-15.4 0.2-24.2 0.4 -8.8 0.2-29.7 0.7-46.5 1 -18.3 0.4-31 1-31.7 1.6 -0.8 0.7-1.3 4.8-1.5 11.7l-0.3 10.7 -4.3 0.3c-2.9 0.2-4.4-0.1-4.7-1zm30.1-29.5c-0.4-2.6-0.9-4.9-1.1-5.2 -0.9-0.9-14 5.5-14.3 7.1 -0.4 1.9 1.8 2.4 10.2 2.6l5.9 0.1 -0.6-4.7zm48.9 2.8l15-0.6 0.8-5.4c0.4-3 0.5-5.7 0.2-6 -1-1-15.4-1.2-23.9-0.4 -7.9 0.8-8 0.8-8.9 4 -0.8 2.6-1.7 3.4-4.9 4.3 -5 1.3-12.1-0.7-12.6-3.6 -0.2-1.1-0.5-3-0.8-4.3l-0.5-2.4 -1.9 3.1c-1 1.7-2.3 3.4-2.9 3.7 -1.2 0.7-1.5 7.8-0.4 8.9 0.4 0.4 6.4 0.4 13.3 0.1 6.9-0.4 19.3-0.9 27.5-1.3zm7.4-23.8c0.2-0.2-4.2-0.4-9.8-0.4 -6.5 0-10 0.4-9.6 1 0.6 0.9 18.3 0.3 19.4-0.6zm31.8 43c-0.9-0.9 0.2-2.4 1.9-2.4 0.8 0 1.4 0.7 1.4 1.5 0 1.5-2.1 2.1-3.3 0.9zm78-41.5c-1-0.6-2.7-0.8-3.8-0.5 -2.3 0.6-4.8-0.1-4.8-1.4 0-0.4 2-2.1 4.5-3.6 4.5-2.9 6-4.8 5-6.4 -0.3-0.5-1.2-0.9-2-0.9 -0.8 0-1.4-0.5-1.4-1 0-1.3 3.6-1.3 6.1 0 2.2 1.2 2.5 4.1 0.7 6.9 -0.7 1.1-0.9 2.3-0.4 2.7 0.4 0.4 4.4 1 8.8 1.2 5.4 0.2 7.8 0.7 7.6 1.5 -0.7 2.2-16.8 3.4-20 1.5zm-26.2-3.6c-1.1-0.3-2.3-0.8-2.8-1.2 -1.9-1.8 7.8-7 13.3-7 2 0 2.2 0.2 1 0.9 -0.8 0.5-1.5 2.4-1.5 4.2 0 3.1-0.2 3.3-4 3.4 -2.2 0.1-4.9-0.1-6-0.3zm-134.5-1.3c0-0.5 0.7-1 1.5-1 0.8 0 1.5 0.2 1.5 0.4 0 0.2-0.7 0.7-1.5 1 -0.8 0.3-1.5 0.1-1.5-0.4zm93-16.9c-0.8-0.5-3.7-1.9-6.5-3.1 -4.8-2.2-4.9-2.3-2.5-3.2 1.5-0.6 3.2-0.6 4.5 0 1.1 0.5 3.6 1.2 5.5 1.6 2.9 0.5 3.8 0.2 5.2-1.7 1.5-1.9 2-2.1 3.5-1 1 0.7 2.6 1.5 3.5 1.9 1 0.3 1.8 1 1.8 1.4 0 1.5-4.5 3.9-7.1 3.8 -1.3 0-3.3 0.2-4.4 0.5 -1.1 0.3-2.7 0.2-3.5-0.3zM416 851.8" fill="#000000"/><path id="path2390" d="m416 851.8c-4-0.5-8-1.1-9-1.5 -1-0.4-52.6-0.9-114.7-1.1 -84.8-0.3-113.9-0.1-116.5 0.8 -8 2.7-57.2 0.7-67.5-2.7 -2.6-0.9-11.3-1.5-24.5-1.8 -18.9-0.4-31-1.8-31-3.5 0-1 6.8-4 12.5-5.6 2.8-0.8 6.4-1.9 8-2.4 9.1-3.3 18.2-5.4 27.5-6.5l10.5-1.2 0.3-3.8c0.5-5.9-1-6.9-6.6-4.4 -5.7 2.6-14.5 2.8-31.5 0.8 -13.1-1.6-15-2.6-12.3-6.6 0.9-1.4 1.4-3.4 1.1-4.4 -0.8-2.5-10.7-8-14.4-8 -3.4 0-5.4-1.9-4.1-4 1-1.6 0.2-9.9-1.2-11.6 -1.2-1.5 1.1-3.2 5.2-3.9 1.9-0.3 4.4-0.8 5.5-1 1.5-0.3 3-2.5 5.4-8 3.5-7.9 4.8-9 10.6-8.3 2.8 0.3 2.9 0.4 2.9 7.1 0 3.7 0.3 6.8 0.6 6.8 0.3 0 1.1-2.8 1.7-6.2 0.6-3.4 1.5-6.5 2-7 0.5-0.5 6.4-1.1 13.3-1.5 6.8-0.4 14.2-1.3 16.3-2 2.1-0.7 7.7-1.3 12.3-1.3 7.8 0 8.5 0.2 9 2.1l0.6 2.1 1.7-2.3c1.5-1.9 3.4-2.5 12.1-3.6 5.7-0.7 10.9-1.1 11.6-0.9 0.7 0.3 1.3 1.5 1.3 2.7 0 2.1 0.1 2.1 1.9 0.5 1.8-1.6 2.3-1.5 10.3 2.3 4.6 2.2 9.9 5.6 11.8 7.6 3.4 3.5 3.4 3.6 1.6 5.6 -2 2.2-1.3 4.2 0.7 2.2 1.7-1.7 3.5-1.5 5.5 0.6 1.6 1.6 3.2 1.7 16.8 1 8.2-0.4 17.4-0.5 20.3-0.2 3.9 0.4 5.8 0.2 7-0.9 1.3-1.2 2.9-1.3 7.4-0.7 3.2 0.4 34 0.9 68.5 0.9 60.1 0.1 62.9 0 66.5-1.8 2.1-1.1 3.8-1.5 3.8-1 0 0.5 6.4 0.9 14.1 0.9l14.1 0 3.8-4.2c2.1-2.3 3.8-4.9 3.9-5.7 0-0.8-1.9-2.7-4.3-4.1 -3.6-2.2-5.1-4.2-9.2-12.2 -2.7-5.3-5.4-9.6-6.1-9.6 -2 0-2.6-3.9-1.8-13.5 0.4-5.9 0.3-10-0.4-11.2 -0.7-1.3-3.3-2.6-7.8-3.8 -8-2.1-8.7-2.6-7.8-5.4 0.8-2.7 3.5-2.7 3.5-0.1 0 2.4 0.9 2.6 2.5 0.4 1-1.4 1.6-1.5 4.9-0.3 4.9 1.8 5.4 2.5 6.7 9.5 0.6 3.2 1.7 7.3 2.4 8.9 0.8 1.7 1.1 4 0.8 5.2 -0.8 3.1 3 10.4 8.8 16.8 4.1 4.5 6.1 5.8 11.1 7.3 9.5 2.9 14.4 3.5 17.7 2.1 2-0.8 3.3-0.9 4.2-0.2 0.7 0.6 11.1 1.2 25.2 1.5 20.9 0.4 24.4 0.3 26.8-1.2 2.6-1.5 2.9-1.5 4.2 0.2 1.6 2.2 8.6 4 10 2.6 0.5-0.5 2.2-1 3.8-1 3.2 0 3.8-2.3 1.2-5.1 -2.1-2.4-1.3-3.4 3-3.7 3.3-0.2 3.6 0 3.6 2.4 0 2.9 6 11.8 8.7 12.9 1.1 0.4 2.2 0 3-1.1 0.7-1 2-1.7 2.7-1.5 3.2 0.7 3-18.4-0.2-22 -0.9-1-2.2-1.7-3.1-1.7 -0.8 0-5.8-1.4-11.1-3.1 -5.3-1.7-17.8-4.8-27.9-6.9 -21.7-4.5-23-5.1-14.5-7.1 7.1-1.6 15.5-1.1 20.6 1.5 4.1 2 4.7 2.1 4.7 0.7 0-2.9-1.8-4.5-5.2-4.7 -5.7-0.3-12.8-1.6-12.8-2.5 0-1.8 14.3-10 17.3-10 0.8 0 2 1.4 2.7 3 0.7 1.7 1.6 3.3 2.1 3.6 0.5 0.3 2.9-0.9 5.4-2.6 6.5-4.5 10.7-6 16.8-6l5.4 0 2.8 6.3c4 8.9 5.6 13.5 6.6 19.8 1.1 6.6 1.1 7.6 0.3 11.5 -0.4 2.1 0.2 4.7 1.9 8.7 1.4 3.1 3.3 8.5 4.2 12 0.9 3.5 2.7 7.8 4 9.5 3.3 4.4 3 14.8-0.5 16.1 -3.2 1.1-6.1 4.6-6.1 7.4 0 7.4-5.4 11.7-13.1 10.4 -3.7-0.6-3.8-0.7-2.4-2.8 0.8-1.2 1.5-3.2 1.5-4.4 0-1.3 0.6-2.5 1.3-2.7 5.1-1.5 5.3-1.8 2-2.6 -5.9-1.3-7.6-3.9-4.7-7.1 2.2-2.4 1-7.9-1.7-7.9 -1.4 0-1.9 0.7-1.9 2.5l0 2.5 -4.2-1.7c-2.3-0.9-4.9-2.1-5.7-2.7 -1.2-0.9-1.3-0.4-0.7 2.9 0.4 2.2 1.3 5.3 2 7 2 4.5 1.9 18.9-0.1 20.6 -1.3 1.1-1.8 1-2.9-0.5 -1.6-2.2-5.9-1.7-11.8 1.5 -2.2 1.2-5.2 1.9-6.9 1.7l-3.1-0.3 -1.2 8.5c-0.7 4.7-1.5 9.5-1.9 10.6 -0.7 2.3-0.3 2.5 9.5 5 9.4 2.4 14.3 3.2 20.5 3.4 4.5 0.1 5.4 0.3 3.4 0.9 -1.4 0.4-3.6 1.3-4.9 2 -2 1.1-15.2 2.4-31.5 3.3 -3.3 0.2-4 0.6-4 2.2 0 1.7-1.1 2.2-7 3.3 -8.3 1.6-47.9 2.4-58.3 1.2zm47.5-16.8c3.5-2.5 6.9-6.2 5.6-6.2 -1.5 0-6.3 2.4-6.3 3.2 0 0.4-1.9 1-4.3 1.4 -2.3 0.4-4.7 1-5.2 1.3 -2.4 1.4-14.5-1-14.5-2.9 0-0.5-0.7-0.9-1.5-0.9 -1.8 0-2-2.1-0.2-3.9 1-1.1 0.8-1.2-1.5-0.7 -2.7 0.6-3.8-0.6-1.7-1.9 1.7-1.1 1.1-2.5-1.1-2.5 -1.8 0-1.9-0.2-0.8-1.6 1.1-1.4 1.1-1.8-0.4-2.9 -1.6-1.1-1.6-1.4-0.2-2.6 1-0.9 1.2-1.5 0.5-2 -1.4-0.9 0.9-11 2.7-11.7 0.7-0.3 1.3-1.1 1.3-1.9 0-0.8 0.7-1.7 1.5-2 0.8-0.3 1.5-1.3 1.5-2.1 0-0.9 0.6-1.3 1.5-0.9 0.9 0.3 1.9-0.2 2.6-1.4 0.6-1.1 1.6-1.7 2.2-1.3 0.6 0.4 1.7-0.1 2.4-1.1 1-1.4 1.6-1.5 2.7-0.7 1.5 1.3 2.7 0.6 2.7-1.6 0-2-6.3-0.7-12.4 2.6 -8.3 4.5-12.9 12.5-12.8 22.6 0.1 7.3 1.8 11.8 6.6 16.8 4.8 4.9 8.8 6.9 15.5 7.7 6.3 0.7 9.8 0 13.7-2.8zm-312 2.2c1.2-0.3 2.3-1 2.3-1.6 0-0.5-0.7-0.7-1.6-0.4 -1.7 0.7-9.7-1.1-12.9-2.8 -6.5-3.5-10.6-6.8-10.2-8.1 0.3-0.8-0.3-1.6-1.4-2 -2.6-0.8-2.5-2.1 0.3-2.9l2.3-0.6 -2.5-2c-2-1.5-2.1-2-0.8-2 2.3 0 3.2-1.8 1.9-3.4 -0.8-1-0.7-1.5 0.5-2 1.1-0.4 1.4-1.3 1-2.6 -0.5-1.4-0.2-2 0.9-2 0.9 0 1.6-0.9 1.6-2 0-1.1 0.4-2 1-2 0.6 0 1-0.7 1-1.5 0-0.8 0.9-1.5 2-1.5 1.2 0 2-0.7 2-1.6 0-1.1 0.6-1.5 2-1.1 1.2 0.3 2.4-0.1 2.9-1.1 0.7-1.3 1.2-1.4 2.4-0.3 0.9 0.7 2.4 1 3.5 0.7 1.1-0.3 2.3-0.2 2.6 0.4 0.4 0.6 1.5 1 2.5 1 1 0 2.1 0.7 2.4 1.5 0.3 0.8 1.5 1.5 2.6 1.5 1.1 0 2 0.6 2 1.4 0 0.8 0.9 1.7 2 2.1 1.1 0.4 1.7 1.1 1.4 1.6 -0.3 0.5 0.1 1.8 1 2.8 0.9 1 1.4 2.5 1 3.3 -0.3 0.8-0.1 1.9 0.5 2.2 0.8 0.5 0.8 1.1-0.1 2.1 -1.6 1.9 0.5 4.4 2.2 2.7 1.6-1.6-0.7-11.7-3.6-16.4 -7.4-11.7-25.5-13.6-35.9-3.6 -6.7 6.5-8.4 15.8-4.6 25.9 2.1 5.6 7.7 11.9 12 13.6 2.8 1.1 10.4 1.4 13.8 0.5zm7.3-3.3c0-0.5-0.4-1.2-1-1.6 -0.6-0.3-1 0.1-1 0.9 0 0.9 0.4 1.6 1 1.6 0.6 0 1-0.4 1-0.9zm159-3c41.1 0 68-2.1 68-5.2 0-0.5-15.2-0.9-33.7-0.9 -18.6 0-55.3-0.2-81.7-0.4 -26.4-0.2-52.4-0.1-57.7 0.2l-9.7 0.5 3.4 2.3c3.9 2.6 7 2.8 63.1 4.1 15.9 0.4 29.1 0.8 29.3 0.9 0.2 0.1 2-0.1 4-0.6 2-0.5 8.9-0.8 15.2-0.8zm-154 0c0-1.1-4.2-4.2-4.9-3.5 -0.6 0.6 2.9 4.5 4 4.5 0.5 0 0.8-0.4 0.8-0.9zm-11.9-4.6c5.9-2.7 6.4-3.1 7.6-5.6 1-2 0.9-3.7-0.2-8.6 -1.9-8.3-4.4-10.7-11.1-10.7 -6.2 0-11.9 3.8-13.2 8.8 -0.9 3.5 0.8 11.7 2.9 14.4 2.9 3.5 8.7 4.2 14 1.8zm-9.6-7.4c-0.3-0.5-0.1-1.8 0.6-2.8 1.8-2.9 0.3-7.5-2.2-6.9 -2.3 0.6-2.5-1-0.6-3.6 1.9-2.4 4.9-2.3 4.1 0.1 -0.4 1.3 0.2 2.5 2.2 4 4.8 3.6 5.3 4.2 4.7 5.2 -0.3 0.6 0.2 1.6 1.2 2.4 2.6 1.9 0.9 3.1-2.2 1.5 -1.9-1-2.8-1.1-3.7-0.2 -1.4 1.4-3.4 1.5-4.3 0.2zm9.9-8.1c-1-1.5 0.4-2.5 1.6-1.2 0.7 0.7 0.7 1.3 0.1 1.7 -0.6 0.3-1.3 0.1-1.7-0.5zm15.3 15.3c0.4-1.2-3.5-2.8-4.5-1.9 -0.8 0.8 1.8 3.7 3.1 3.3 0.6-0.2 1.2-0.8 1.4-1.4zm294.2-2c1.3-1.2 2.6-3.2 2.7-4.5 1.7-11.8 1.7-11.4-1.8-15 -8-8.1-12.9-9-18.3-3.3 -4.2 4.5-6.5 9.3-6.5 13.6 0 3.9 1.5 6.2 6.2 9.4 4.5 3.1 14.1 3 17.7-0.2zm-12.9-9c-2.7-0.5-5.2-2.3-3.2-2.3 0.7 0 2.1-0.9 3.2-2 2.9-2.9 7-2.7 7 0.3 0 2.5-1.7 4.8-3.5 4.6 -0.6-0.1-2.2-0.3-3.5-0.6zm23.5 10.7c0.3-0.5 0.1-1-0.4-1 -0.6 0-1.1 0.5-1.1 1 0 0.5 0.2 1 0.4 1 0.2 0 0.7-0.5 1.1-1zm-302.8-4.5c0.8-2.1-0.1-2.8-2.6-2 -1.7 0.5-1.9 1-1 2.1 1.5 1.8 2.8 1.8 3.6-0.1zm305.3-0.3c0-1.1-2.5-2.1-4.8-2.1 -1.4 0-1.4 0.2 0.3 1.5 2.2 1.6 4.6 1.9 4.6 0.6zm-120.2-1.6c0.7-0.3 1.2-1.5 1-2.7l-0.3-2.3 -39.5-0.1c-33.2-0.1-40.2 0.2-43.8 1.5 -5 1.8-5 3.4-0.2 4.1 4.2 0.6 80.9 0.1 82.7-0.5zm12.2-1.5c0-0.5-0.5-1-1-1 -0.6 0-1 0.5-1 1 0 0.5 0.4 1 1 1 0.5 0 1-0.5 1-1zm109.2-11.8c-1.4-6.7-4.4-11.4-9.6-14.8 -4.2-2.8-12.5-4.6-11.2-2.5 0.4 0.7 1.6 0.9 2.7 0.6 1.2-0.4 2.1-0.1 2.5 0.9 0.3 0.8 1.2 1.3 1.9 1 0.7-0.3 2.5 0.6 4 2.1 2.4 2.2 2.6 2.8 1.4 4.2 -1.2 1.5-1.1 1.6 0.9 0.9 2.3-0.7 3.2 0.7 1.2 1.9 -1.7 1.1-1.1 2.5 1.1 2.5 2 0 2 0.1 0.3 1.8 -1.7 1.7-1.6 1.8 1.2 2.3l2.9 0.6 -2.8 1.2c-3 1.2-2.8 3.2 0.4 3.2 2.7 0 2.4 1.8-0.3 2.2 -2.9 0.4-2.6 2.1 0.4 2.9 3.3 0.8 4.5-3.6 3-10.9zm-368.3-4c0.1-2-0.2-2.2-2.7-1.6 -1.5 0.4-3.3 1.1-4 1.7 -0.7 0.6-5.1 1-9.7 0.9 -4.8-0.1-8.5 0.3-8.5 0.8 0 0.5 0.3 1 0.8 1 0.4 0 4.8 0.7 9.8 1.4 8.9 1.4 9 1.4 10.7-0.8l1.7-2.2 0.1 3c0.1 2.9 0.1 3 0.9 0.5 0.4-1.4 0.8-3.5 0.9-4.8zm83.6 2.8c0.9-1.5-8.1-17.8-9.2-16.7 -0.2 0.2 0.7 2.6 2 5.3 1.3 2.7 3 6.5 3.6 8.6 1.2 3.7 2.4 4.6 3.5 2.8zm50.1-0.2c0.5-0.8 7-1 23.8-0.5 12.7 0.4 35.4 0.9 50.4 1.2l27.3 0.6 4.2-2.5c4.8-2.8 22.5-20.3 21.5-21.2 -0.7-0.7-131.7-0.6-132.9 0.2 -0.5 0.3-0.5 1.3 0 2.2 0.5 0.9 1.2 3 1.5 4.7 0.5 2.4 0.1 1.9-2.1-2l-2.8-5 -18 0.3c-9.9 0.2-18.8 0.5-19.7 0.8 -2.1 0.6-1.3 2.8 4.5 12.1 6.4 10.3 6.3 10.3 25.3 10.3 11.1 0 16.5-0.4 17-1.1zm151.8-0.1c1-0.7 2.6-4.4 3.6-8.2 1-3.8 2.5-8.9 3.4-11.1 0.8-2.3 1.3-4.4 0.9-4.7 -0.3-0.3-6.4-0.6-13.5-0.6l-12.9 0 -11.7 12.1c-6.4 6.7-11.8 12.5-12 13 -0.6 1.5 40.1 1.1 42.2-0.4zm21-20c3.8-6.4 12.5-14 19-16.5 18.9-7.2 41.2-4.2 51.2 6.9 4.5 5 9.1 14.5 10.5 21.8 0.6 3 1.2 5.6 1.5 5.9 2.8 2.8 0-13.1-3.7-20.7 -1.2-2.5-5-7.3-8.4-10.7 -6.9-6.9-10.9-8.6-23.5-10.5 -8.3-1.2-22.5-0.5-23.5 1.2 -0.3 0.5-2.5 0.9-4.9 0.9 -9 0-10 0.9-17 15.1 -6.1 12.4-9.6 21.5-9.5 25.5 0 1 1.3-1.8 2.9-6.3 1.6-4.5 4-10.2 5.5-12.6zm-329.3 13.3c0-0.5-0.2-1-0.4-1 -0.2 0-0.7 0.5-1.1 1 -0.3 0.5-0.1 1 0.4 1 0.6 0 1.1-0.5 1.1-1zm6.5 0c0.3-0.5-0.1-1-0.9-1 -0.8 0-1.8 0.5-2.1 1 -0.3 0.5 0.1 1 0.9 1 0.8 0 1.8-0.5 2.1-1zm416.9 0.1c0.3-0.5-0.1-2.7-0.9-5 -0.8-2.2-1.2-5.6-0.9-7.5 0.6-3.9-1.4-5.4-4.8-3.6 -1.5 0.8-1.8 1.6-1.3 3.2 0.4 1.2 1.3 4.6 2 7.7 0.7 3 1.4 5.6 1.4 5.8 0.2 0.7 4 0.1 4.5-0.6zm-447.9-3.2c0.4-0.6 1.7-0.9 3-0.6 2.3 0.4 2.3 0.4 0.6-2.5 -1.2-2-1.8-2.5-2-1.4 -0.2 0.8-1.9 2.1-3.8 2.8 -2.9 1-3.2 1.4-1.7 2 2.6 1 3.1 1 3.9-0.2zm15.4-0.8c0-0.5-0.5-1.2-1-1.6 -0.6-0.3-1 0.1-1 0.9 0 0.9 0.4 1.6 1 1.6 0.5 0 1-0.4 1-0.9zm8.2-4.2c-1.4-1.4-2.6 0.8-1.7 3 0.6 1.6 0.7 1.6 1.7-0.1 0.7-1.2 0.7-2.2 0-2.8zm10.8 2.2c0-0.5-0.2-1-0.4-1 -0.2 0-0.7 0.5-1.1 1 -0.3 0.5-0.1 1 0.4 1 0.6 0 1.1-0.5 1.1-1zm-5-5.3c0-2.8-0.7-3.7-2.6-3 -1.7 0.7-1.8 2.5-0.2 4.1 1.8 1.8 2.8 1.4 2.8-1.1zm87-6.5c-2.3-4.7-8.8-10.7-14.3-13.2 -7.7-3.5-26.6-1.8-31.1 2.7 -0.9 0.9-1.4 1.8-1.2 1.9 0.2 0.2 3.7 0 7.8-0.5 14.4-1.6 27.9 2 36.9 9.8 1.9 1.7 3.6 3.1 3.7 3.1 0.1 0-0.7-1.7-1.7-3.8zm236-6.2c0-0.5-0.5-1-1.1-1 -0.6 0-0.8 0.5-0.4 1 0.3 0.5 0.8 1 1.1 1 0.2 0 0.4-0.5 0.4-1zm113.6-0.5c0.8-0.8 2.8-1.5 4.4-1.5 5.1 0 5-3.8-0.1-4.4 -1.3-0.2-3-0.5-3.7-0.7 -1.9-0.5-5.2 5.2-3.9 6.9 1.3 1.6 1.6 1.6 3.4-0.2zm-25.2-0.4c1.4-2.3-6.8-5.9-9.2-3.9 -1.1 0.9-0.8 1.5 1.4 3 2.9 1.9 6.8 2.4 7.7 1zm3.1-46.1c0.3-0.5-0.3-1-1.5-1 -1.2 0-1.8 0.5-1.5 1 0.3 0.5 1 1 1.5 1 0.5 0 1.2-0.5 1.5-1zm-275 43.8c-4.5-12.7-7.5-22.1-7.1-22.5 0.3-0.3 0.8 0.3 1.2 1.4 0.6 1.7 7.5 19.7 8.2 21.6 0.2 0.4-0.2 0.8-0.8 0.8 -0.6 0-1.3-0.6-1.6-1.2zm150.1-2.2c3-5.1 8.7-13.5 9.1-13.5 0.9 0-5.3 10.3-8.1 13.3l-2.9 3.2 1.8-3zm-123.7-1.7c-0.7-1.2-1.5-5.4-1.8-9.2l-0.6-7 -6.3-0.7c-9-1-11.2-3.5-7.6-8.6 1.8-2.6 12.4-8.2 15.4-8.2 1.1 0 3.2-0.7 4.6-1.6 2.1-1.4 2.9-1.5 5-0.3 2.2 1.2 3.7 0.8 15.2-3.8 7-2.8 15.2-5.8 18.3-6.6 7.7-2.1 19.6-3.1 20.4-1.7 0.9 1.5 24.8 1.4 30.1-0.1 2.2-0.6 9.2-1.3 15.6-1.5 9.5-0.3 11.8-0.1 12.8 1.1 0.7 0.9 1.5 5.6 1.8 11.3 0.7 13.7 1.1 13.3-16.1 14l-13.8 0.6 0.6-2.9c1-4.9 1.1-9.9 0.3-11.2 -1-1.6-28.8-1.7-31.7-0.2 -1.1 0.6-1.9 2.1-1.9 3.5 0 3.2-3.8 4.8-9.7 4.2 -5.5-0.6-7.3-2.2-7.3-6.3 0-2.3-0.5-3.4-1.5-3.4 -0.8 0-1.5 0.7-1.5 1.5 0 0.8-1.1 2.5-2.5 3.7 -2.1 1.8-2.4 2.9-2.1 6.5 0.3 3.3 0 4.6-1.3 5.2 -3.1 1.6-4.6-0.1-4.9-5.9 -0.2-3-0.5-5.6-0.7-5.8 -0.2-0.2-3.9 1.1-8.2 3 -6 2.6-7.8 3.8-7.8 5.3 0 1.4 0.8 2.1 2.5 2.4 2 0.3 1.7 0.6-2 1.5l-4.5 1.1 -1.1 11c-0.6 6-1.2 11.1-1.2 11.3 -0.1 0.1-1.2 0.3-2.6 0.3 -1.5 0-2.9-0.9-3.7-2.2zm-41.3-21.7c0.3-0.5 1.3-1 2.1-1 0.8 0 1.4 0.5 1.4 1 0 0.5-0.9 1-2.1 1 -1.1 0-1.8-0.5-1.4-1zm272.6-0.9c-2.3-2-3.6-2.1-25.7-2.1 -14.4 0-23.5 0.4-23.9 1 -0.9 1.5-4.5 1.2-5.1-0.4 -0.3-0.8-2.8-1.7-6.2-2.1 -3.1-0.4-6.8-1.3-8.3-2 -2.7-1.4-7.4-7.8-8.1-11 -0.5-2.4 1.8-7.4 3.6-7.4 4.5 0 28.4 3.9 58.6 9.6 6.1 1.1 29.6 4.4 32.2 4.4 1.7 0 6.8 5.4 6.8 7.1 0 2.3-5.8 4.1-12.7 3.8 -2.6-0.1-5.7 0.1-6.8 0.5 -1.4 0.5-2.8 0-4.4-1.4zm-153.3-0.8c2.3-0.2 6.2-0.2 8.5 0 2.3 0.2 0.4 0.4-4.2 0.4 -4.7 0-6.6-0.2-4.2-0.4zm116.8-24.2c-0.4-0.7-2-0.8-4.1-0.4 -4.7 0.9-4.3-0.6 1.1-4.4 2.8-2 4.5-3.9 4.5-5.2 0-2.3 2.5-2.8 3.3-0.6 0.3 0.8-0.1 2.6-0.9 4.2 -1.5 2.9-1.1 4 1.9 4.6 1 0.2 1.9 0.8 2 1.3 0.3 1.4-7 1.9-7.8 0.5zm13.1 0.1c-0.7-1.1 1.6-2.2 4.6-2.2 1.2 0 1.8 0.5 1.6 1.3 -0.5 1.5-5.3 2.2-6.2 0.9zm-38.6-3.6l-3.5-1.3 3.5-2.1c1.9-1.2 4.2-2.1 5-2.1 1.6 0 4.3 4.7 3.4 6.1 -0.7 1.2-4.2 1-8.4-0.6zm-42-18.6c-0.8-0.4-3-1.4-4.7-2 -1.8-0.7-3.2-1.6-3.2-2.2 0-0.6 0.8-0.7 1.8-0.3 1 0.4 3.8 1.1 6.3 1.6 3.9 0.8 4.7 0.7 6.2-1.1 2-2.5 2.4-2.5 5.4-0.1 1.8 1.4 2.1 2.1 1.2 2.9 -1.7 1.3-10.9 2.2-12.7 1.2z" fill="#000000"/><path id="path2388" d="m425.8 851.8c-7.4-0.4-15.3-1.2-17.5-1.8 -6.3-1.7-226.6-1.9-235.9-0.1 -5 0.9-12.4 1.1-25.5 0.7 -22.8-0.7-34.3-2.2-39.5-4.8 -3.1-1.6-5.1-1.9-8.7-1.5 -2.6 0.3-4.8 0.4-4.8 0.2 0-0.2 3-1.8 6.7-3.6 4.7-2.3 8.1-3.2 11.5-3.2 2.7 0 4.8-0.4 4.8-0.8 0-0.5-0.9-3-1.9-5.7 -1.1-2.7-2.2-7-2.6-9.5 -0.4-2.6-1.1-5-1.6-5.3 -0.5-0.3-3.4 0.4-6.4 1.5 -6.3 2.3-12.8 2.6-27.3 1 -15.5-1.7-16.2-1.8-16.2-3.9 0-1 0.4-2.2 1-2.5 0.5-0.3 1-1.9 1-3.5 0-2.4-0.7-3.3-3.9-4.9 -2.1-1.1-4.1-2.5-4.3-3 -0.2-0.6-2.7-1.3-5.6-1.7 -2.9-0.3-5.2-1-5.2-1.4 0-1.3 2.9-3.2 4-2.5 0.6 0.4 1.5 0.4 2.1 0 1.5-0.9-0.5-4-2.7-4 -1.2 0-1.9-0.9-2.1-2.8 -0.3-2.2 0.1-2.7 1.8-2.7 2.2 0 2.8-1.6 0.9-2.2 -2.1-0.7 0.2-2.8 3.1-2.8 3.6 0 5.9-2.6 9.1-10.3 2.3-5.4 3-6.2 6-6.9 5.7-1.2 6.2-0.6 5.7 7.2 -0.4 6.6-0.3 7 1.6 6.7 1.3-0.2 2.1-1.2 2.3-2.8 0.8-7.3 1.4-9.2 2.5-8.1 0.6 0.6 2.8 1.1 4.8 1.1 3.2 0 3.6 0.3 3.2 2 -0.3 1.1-0.2 2 0.1 2 0.8 0 12.7-6.3 18.1-9.6 3.4-2.1 5.3-2.4 13.1-2.4 9 0 9.1 0 10.1 2.7l1 2.8 1.1-2.7c1.3-3.1 2.2-3.4 11.7-4.8 10.4-1.5 12.5-1.4 12.5 0.8 0 2.8 1.1 3.3 3.1 1.5 1.7-1.5 2.3-1.4 9.3 1.7 7.6 3.3 16.4 10.7 13.8 11.7 -0.7 0.3-1.2 1.1-1.2 1.8 0 2.9-1.9 2.3-6.3-2 -7.7-7.4-11.7-9-22.2-9 -12 0-18.5 2.1-27.1 8.7 -7.8 6-11.5 10.8-14.6 19.1 -1.5 3.9-2.9 6.1-4.4 6.7 -1.2 0.5-2.5 1.3-2.9 1.9 -0.4 0.6-2.9 1.1-5.7 1.1 -3.1 0-4.8-0.4-4.4-1 0.3-0.5 1.5-1 2.6-1 3 0 3.4-2.5 1.8-10.4l-1.4-7.1 -6.7-0.3 -6.7-0.3 0 8.3c0 4.6 0.4 9 1 9.8 0.8 1.2 0.3 1.6-2.1 2 -1.7 0.3-3 1-3 1.5 0 0.9 12 3.5 26.8 5.8l4.1 0.7 1.1-7.6c1.6-10.7 4.4-16.6 10.7-22.3 6.6-6.1 14.2-8.5 26.5-8.5 12.5 0 20.4 2.9 28.4 10.4 6.4 6 10.5 12.4 12.7 19.7 1.4 4.6 3.2 6 5 3.8 0.9-1.1 0.4-2.7-2.3-7.7 -1.9-3.5-5.1-8.3-7.1-10.8 -4.2-5.3-4.4-6.9-1-9.4 2.5-1.8 2.6-1.8 4.4 0.2 1.8 1.9 2.7 2 23.7 1.5 12-0.3 22-0.8 22.3-1.2 0.3-0.3 24.8-0.4 54.5-0.1 29.7 0.3 61.6 0.2 71-0.1 9.4-0.3 24-0.7 32.6-0.7 15.5-0.1 15.6-0.1 17.2-2.5l1.6-2.5 3.1 2.9 3.1 2.9 -3.2 6.3c-3.7 7.3-6.9 16.3-6.9 19.6 0 4.1 1.8 2.3 3.5-3.4 2.5-8.5 8-18.8 12.5-23.3 12.3-12.3 38.4-15.8 55.1-7.5 8.7 4.4 15.7 15 18.2 27.6 0.7 3.4 1.8 6.3 2.4 6.6 2.2 0.7 3.4-3.4 2.4-7.9 -1.3-5.7-0.6-6 1.2-0.6 1.3 3.9 1.8 4.3 4.9 4.6 4.9 0.4 6-1.3 4.3-6.3 -0.8-2.2-1.1-5.4-0.8-7.1 1.1-5.8-0.6-7.2-9.4-7.6 -6.4-0.2-7.8-0.6-8.1-2 -0.3-1.5 0.4-1.8 4.5-1.8 2.7 0 5.4-0.4 6.2-0.9 3.5-2.2-5.1-8.1-9.8-6.6 -1.1 0.3-2.8 0.2-3.8-0.3 -5.9-3-14.8-5.3-28.2-7.2 -6.7-1-9.8-0.9-15.5 0.1 -3.9 0.7-7.6 1.7-8.2 2.1 -0.6 0.5-2.4 0.6-4.1 0.3 -4.9-1-9.9 1.8-13.4 7.6l-3.2 5.1 -2.4-2.2c-2.2-2.1-2.3-2.4-0.9-4.5 2.2-3.3 1.9-4.1-2.3-6.3 -4.1-2.1-7.1-6.1-12.1-15.9 -1.7-3.4-4-7.1-5.1-8.2 -3.3-3.3-2.2-13 1.5-13 1.1 0 1.4 1.1 1.3 4.4 -0.4 8.8 10.4 22.1 20.4 25.2 7.3 2.2 16 3 18.6 1.6 1.6-0.9 2.3-0.8 3.3 0.4 1 1.2 5.4 1.5 26.1 1.5 17.9 0 25.4-0.3 26.9-1.2 1.6-1 2.2-0.9 3.2 0.4 1.6 2 7.7 3.7 11.1 3.1 2.2-0.4 2.7-0.1 3.2 2.4 0.3 1.6 1.3 4.7 2.1 6.9 0.8 2.2 1.9 6.6 2.3 9.7 0.5 3.2 1.6 7.2 2.5 9 1.3 2.4 1.7 5.4 1.5 11.3 -0.2 8.7-1.3 11.2-3.6 8.1 -1.3-1.8-1.6-1.8-6.7-0.1 -2.9 1-6.3 2.4-7.6 3.2 -1.8 1.2-2.8 1.3-4.8 0.4 -2.9-1.3-2.9-1.4-4.3 8.3 -1.2 8.3-4.7 15.7-10.2 22 -2.2 2.6-3.9 5.3-3.6 6 0.8 2-6.5 3.6-21.3 4.6 -6.9 0.5-13.2 0.8-14 0.7 -0.8-0.1-7.6-0.4-15-0.8zm-212-12.5c1.4-1.3 3.7-1.4 15.1-0.7 7.4 0.5 14.3 0.5 15.5 0.1 1.2-0.4 3.9-0.4 6 0.1 5.5 1.2 9 1.3 56.4 0.4 53.3-0.9 59.9-0.9 63.8-0.2 3 0.6 3.4 0.3 6.2-4.1 2-3.2 4.5-5.5 7.6-7.1 3.5-1.8 4.3-2.6 3.2-3.2 -0.8-0.5-25.5-0.9-54.9-0.9 -48.3 0-60.4-0.6-55-2.4 0.8-0.3 18.4-0.7 39.1-0.9 20.7-0.2 38.1-0.7 38.8-1.1 1.5-0.9 1.5-4.3 0-5.2 -0.7-0.4-19-0.6-40.7-0.5 -42.2 0.2-47.4 0.7-46.9 4.5 0.2 1.2 1.2 2.2 2.3 2.4 1.1 0.2 2.7 0.5 3.5 0.8 5.1 1.7-5.3 2.4-39 2.4 -29.5 0.1-37.1 0.3-35.5 1.3 3.6 2.2 7.8 7.1 9.7 11.4 2.1 4.7 2.4 4.9 4.8 2.7zm250.2-3.8c11.2-9.2 15.3-18.4 13-29.6 -4-19-26.1-26.3-41.1-13.5 -11.7 10-12.4 29.7-1.3 39.5 4.7 4.1 9.3 6 16.7 6.9 3.3 0.4 6.3 0.8 6.7 0.9 0.4 0.1 3.1-1.8 6-4.2zm-10.5-4.4c-1-1-0.8-4.3 0.3-4.3 0.9 0 3 3.1 3 4.4 0 0.8-2.5 0.7-3.3-0.1zm4.3-1.3c0-0.5 0.4-1 1-1 0.5 0 1 0.5 1 1 0 0.5-0.5 1-1 1 -0.6 0-1-0.5-1-1zm3.7-1.7c-0.3-0.5 0.6-1.9 1.9-3.2 1.3-1.3 2.4-1.8 2.4-1.2 0 1.6-3.7 5.4-4.3 4.4zm-22.5-2.5c0.2-0.7 0.9-1.4 1.6-1.6 0.7-0.2 1 0.2 0.6 1.2 -0.7 1.8-2.8 2.2-2.2 0.4zm-3.2-1.6c0-1.2 1.9-2.6 2.6-1.9 0.3 0.3-0.2 1-1.1 1.7 -1 0.8-1.5 0.9-1.5 0.2zm30-3.8c0-1.3 0.3-1.4 1.5-0.4 0.8 0.7 1.5 1.4 1.5 1.6 0 0.2-0.7 0.4-1.5 0.4 -0.8 0-1.5-0.7-1.5-1.6zm-31.2-1.1c0.7-0.3 1.6-0.3 1.9 0.1 0.3 0.3-0.3 0.6-1.3 0.5 -1.2 0-1.4-0.3-0.6-0.6zm32.7-2.3c-0.3-0.5-0.1-1 0.4-1 0.6 0 1.1 0.5 1.1 1 0 0.5-0.2 1-0.4 1 -0.2 0-0.7-0.5-1.1-1zm-34.5-1c0-0.5 0.7-1 1.6-1 0.9 0 1.3 0.5 0.9 1 -0.3 0.5-1 1-1.6 1 -0.5 0-0.9-0.5-0.9-1zm16.4-2.4c-0.9-2.2 0.4-3.6 3.2-3.6 2 0 2.4 0.4 2.2 2.3 -0.4 2.7-4.5 3.7-5.4 1.4zm18.6-0.6c0-0.5 0.4-1 1-1 0.5 0 1 0.5 1 1 0 0.5-0.5 1-1 1 -0.6 0-1-0.5-1-1zm-34.5-2c0.3-0.6 1-0.8 1.6-0.4 1.4 0.9 1.1 1.5-0.6 1.5 -0.9 0-1.3-0.5-0.9-1zm0-2.9c-0.3-0.5-0.1-1.2 0.4-1.6 0.6-0.3 1-1.5 1-2.6 0-1.1 0.4-1.9 1-1.9 0.5 0 1-0.7 1-1.5 0-0.8 0.7-1.5 1.5-1.5 0.8 0 1.5-0.7 1.5-1.6 0-1 0.7-1.4 1.7-1.2 2.2 0.4 3 3.8 0.8 3.8 -0.9 0-1.6 0.7-1.6 1.5 0 0.8-0.5 1.5-1 1.5 -0.6 0-1 0.7-1 1.5 0 0.8-0.5 1.5-1 1.5 -0.6 0-1 0.7-1 1.5 0 1.6-2.5 2.1-3.5 0.6zm33.5-3.1c0-0.5 0.4-1 1-1 0.5 0 1 0.5 1 1 0 0.5-0.5 1-1 1 -0.6 0-1-0.5-1-1zm-1.7-3.7c0.9-0.9 2-1.4 2.3-1.1 1 1-0.5 2.8-2.3 2.8 -1.5 0-1.5-0.1 0-1.7zm-3.3-1.8c0-0.8 0.9-1.9 2-2.5 1.5-0.8 2-0.8 2 0.3 0 1.5-1.9 3.7-3.2 3.7 -0.4 0-0.8-0.7-0.8-1.5zm-3-1.4c0-1-6.6-2.6-9.5-2.2 -1.1 0.1-2.3 0.7-2.6 1.3 -0.8 1.3-2.9 0.1-2.9-1.8 0-0.8 0.8-1.4 1.8-1.4 1 0 2.3-0.5 2.9-1.1 0.8-0.8 1.3-0.8 1.8 0 0.5 0.8 1.1 0.8 2.2-0.1 1.2-1 1.7-1 2.3 0.1 0.6 0.9 1 1 1.5 0.2 1-1.6 2.6-1.3 2.6 0.5 0 1.1 0.6 1.4 2 0.9 2.3-0.7 2.8 1.3 0.8 3.3 -1.4 1.4-2.8 1.6-2.8 0.3zm-302 38.8c16.2-7.4 19.8-26.9 7.2-39.9 -5.2-5.4-9.5-7-18.1-7 -22 0-31 27.2-14.3 43.3 2.2 2.1 5.2 4.2 6.8 4.7 5.3 1.6 13.7 1.1 18.4-1zm2.7-10.6c-0.4-0.4-0.7-1.3-0.7-2.1 0-1.2 0.3-1.2 1.5-0.2 0.8 0.7 1.5 1.6 1.5 2.1 0 1-1.4 1.2-2.3 0.2zm2-4c-1.2-1.2-0.7-2.3 0.8-2.3 0.8 0 1.5 0.7 1.5 1.5 0 1.6-1.2 2-2.3 0.8zm-30.7-3.3c0.7-1.4 0.7-2 0-2 -0.6 0-1-0.7-1-1.6 0-1 0.7-1.4 1.8-1.2 1 0.2 1.6 1 1.4 1.7 -0.2 0.7 0.2 1.7 0.9 2.1 1.6 1 0.2 3-2.2 3 -1.7 0-1.8-0.3-0.9-2zm31.7-0.7c-0.2-0.4-0.5-2-0.6-3.6 -0.2-3.4-3-9.7-5-11.3 -0.8-0.6-1.1-1.6-0.7-2.2 1-1.6 3.6-1.4 3.6 0.2 0 0.8 1 1.6 2.1 1.9 1.4 0.4 1.9 1.1 1.6 2.1 -0.3 0.8 0 1.7 0.6 1.9 1.7 0.6 1.8 11.7 0.1 11.7 -0.7 0-1.5-0.3-1.7-0.7zm-17.7-3.7c0-2.7 2.6-3.5 4.7-1.4 1.7 1.7 0.4 3.9-2.3 3.9 -1.9 0-2.4-0.5-2.4-2.5zm-15-3.5c0-0.5 0.7-1 1.5-1 0.8 0 1.5 0.5 1.5 1 0 0.5-0.7 1-1.5 1 -0.8 0-1.5-0.5-1.5-1zm1.5-4c-0.3-0.5 0.1-1 0.9-1 0.8 0 1.8 0.5 2.1 1 0.3 0.5-0.1 1-0.9 1 -0.8 0-1.8-0.5-2.1-1zm3-3.1c-0.4-0.6-0.4-1.3-0.1-1.6 0.7-0.7 2.7 0.5 2.7 1.7 0 1.3-1.7 1.2-2.5-0.1zm2.6-2.3c-0.8-1-0.8-1.6-0.1-2.1 1.4-0.9 3 0.2 3 2 0 1.8-1.4 1.9-2.9 0zm3.6-1.3c-1.3-1.3-0.6-3.5 1.1-3.2 1 0.2 2.3-0.1 3-0.5 0.7-0.5 1.9-0.3 2.8 0.4 1 0.9 1.5 0.9 1.5 0.1 0-0.6 0.7-1.1 1.5-1.1 0.8 0 1.5 0.5 1.5 1.1 0 0.6 0.9 0.8 2 0.4 1.6-0.5 2-0.2 2 1.5 0 1.9-0.4 2.1-3.1 1.5 -4.8-1-8.9-1.2-8.9-0.3 0 1-2.4 1.1-3.3 0.1zm226.8 18.8c0.7-1.2-0.4-4.1-1.6-4.1 -0.5 0-0.9 1.1-0.9 2.5 0 2.5 1.4 3.4 2.4 1.6zm-146.4-4.7c0-0.8-0.5-1.2-1-0.9 -0.6 0.3-1 1.3-1 2.1 0 0.8 0.4 1.2 1 0.9 0.5-0.3 1-1.3 1-2.1zm-21-8.9c0-0.9-0.5-1.3-1-0.9 -0.6 0.3-1 1-1 1.6 0 0.5 0.4 0.9 1 0.9 0.5 0 1-0.7 1-1.6zm191 1.1c3.5-0.8 5.2-3.6 6.8-11 0.6-2.8 2-7.2 3.2-9.9 1.7-3.9 1.8-5.1 0.8-5.7 -1.9-1.2-25.6-1-27.9 0.2 -1.3 0.7-23.5 1-66.2 1 -65.2 0-112.4 0.9-114.5 2.3 -1.4 0.8 0.6 5.1 6.4 14.2 5.5 8.6 5.5 8.6 26.1 8.1 9.8-0.2 18.3-0.5 18.9-0.7 0.5-0.1 23.3 0.1 50.6 0.5 37.6 0.6 50.1 0.5 51.8-0.4 1.7-0.9 2.5-0.9 3.5 0.1 1.4 1.4 35.2 2.5 40.7 1.3zm11.8-6.6c-1.6-1-2.3-0.5-1.4 1 0.4 0.6 1.1 0.8 1.7 0.4 0.7-0.4 0.6-0.9-0.3-1.5zm-336.3-2.4c1.9-4 1.2-11.3-1.1-12.2 -0.8-0.3-1.4-1.4-1.4-2.4 0-2.3-1.3-2.5-3-0.5 -0.7 0.8-2.6 1.6-4.4 1.8 -2.9 0.3-3.2 0.6-3.5 4.3 -0.2 2.2 0.2 5.7 0.9 7.7 1.2 3.8 1.6 3.9 9.1 4.6 1 0.1 2.3-1.2 3.3-3.3zm10.2-3.6c0.3-4.7-1.6-8.8-3.6-7.5 -1 0.6-0.8 7.6 0.4 11.4 0.9 2.8 2.9 0.3 3.2-3.9zm35-17.3l0.3-2.9 -4.8 0.7c-5.6 0.8-6.3 1.2-6.3 3 0 1.8 1.8 2.4 6.5 2.2 3.6-0.2 4-0.5 4.3-3.1zm418.6 24.6c0.9-4.6 0.9-4.7 6.9-6.2 6.1-1.5 7.2-0.6 5.2 4.3 -1.6 3.9-4.6 5.6-9.8 5.6 -3 0-3-0.1-2.4-3.7zm-0.2-10.3c-2.6-1-2.7-1.6-0.7-5 2.1-3.7 1.9-7.7-0.6-9 -4.3-2.3-1.4-3.9 10.8-5.6 5.6-0.8 4.9-2.8-1-3.1 -2.5-0.2-4.8-0.8-5-1.5 -0.2-0.7-0.2-3.8 0-7 0.5-5.8 0.5-5.8 3.4-5.2 2.8 0.6 2.9 0.5 3-3.2l0.1-3.8 1.9 4c1 2.2 2.6 6.9 3.6 10.5 0.9 3.6 3 8.1 4.6 10.1 1.6 2 2.8 4.5 2.8 5.5 0 4.2-2.2 9.5-4.3 10.4 -1.2 0.5-3.3 1.6-4.7 2.4 -2.8 1.6-10.3 1.8-13.7 0.4zm-11.2-21c0-1.9 0.3-2.1 1.2-1.2 0.9 0.9 0.9 1.5 0 2.4 -0.9 0.9-1.2 0.7-1.2-1.2zm-262.4-4.2c-0.9-1.2-1.6-4.3-1.6-6.9 0-2.6-0.4-5.9-1-7.3 -0.9-2.4-1.5-2.6-6.9-2.6 -7.3 0-9.5-1.6-8-5.9 1.2-3.4 11-9.1 15.6-9.1 1.6 0 3.5-0.7 4.2-1.5 1.5-1.8 4.3-1.9 6.9-0.3 1.6 1 3.3 0.6 9.7-2.1 17.3-7.3 26.9-10 34.6-9.9 21.9 0.3 57.4-0.4 58.2-1.2 0.5-0.5 2.6-0.9 4.6-0.9 3.3 0 3.7 0.3 4.3 3.1 1.1 5.7 0.7 19.6-0.6 20.6 -0.7 0.6-6.9 1.2-13.7 1.4l-12.5 0.4 0-6.9c0-6.4-0.2-6.9-2.5-7.8 -2.4-0.9-27.8-0.2-30.6 0.9 -0.7 0.3-1.4 1.5-1.4 2.8 0 2.9-1.6 4.2-6 5 -3.7 0.7-8.9-0.7-10.2-2.8 -0.4-0.7-0.8-2.6-0.8-4.4 0-2.2-0.5-3.2-1.5-3.2 -0.8 0-1.5 0.6-1.5 1.4 0 0.8-1.1 2.8-2.5 4.4 -1.8 2.1-2.5 4.2-2.5 7.1 0 2.8-0.5 4.3-1.6 4.7 -2.4 0.9-3.5-0.9-3.7-6.5 -0.3-6.2-0.6-6.3-10.2-2.2 -6.3 2.6-7 3.2-7.3 6 -0.2 1.8-0.9 3.1-1.7 3.1 -2.2 0-2.6 1.4-3.6 11.6 -0.5 5.2-1.2 10-1.5 10.5 -1 1.6-3.3 1-4.9-1.3zm256.1-11.5c-0.4-0.4-0.7-1.4-0.7-2.4 0-1.9 2.6-3.4 3.5-1.9 0.7 1.2-2 5.2-2.9 4.3zm-23.9-11c-1.3-1.3-4.9-1.7-21.9-2 -11.2-0.2-22-0.6-24-0.9 -2.5-0.4-4 0-4.9 1 -1.6 1.9-4.6 1.9-5.4 0 -0.4-1-2.1-1.5-5.4-1.5 -6.1-0.1-10.4-2.4-14.2-7.7 -3.5-4.8-3.5-5.1-1.9-8.8 1.2-2.6 1.3-2.6 8.3-2 13.9 1.4 51.5 8.3 60.8 11.1 3.1 1 6.4 1.3 9.1 0.8 9-1.3 20.6 2.9 20.6 7.6 0 2.3-3.9 3.2-11.1 2.3 -3.8-0.4-6.4-0.3-7.2 0.4 -1 0.8-1.7 0.7-2.9-0.5zm48.7-0.5c-1.1-1.9-7.7-4.7-18.9-7.9 -10.4-3-14.5-4.7-14.5-5.9 0-0.5 0.9-1 2.1-1 3.4 0 1.6-2.4-2.2-3 -2.5-0.4-3.5-1.1-3.7-2.5 -0.3-2.2 6.5-7.1 18.8-13.8 10.8-5.8 10.5-5.8 13.8 1.4 7.1 15.7 9.2 25.3 6.8 31.3 -1 2.5-1.4 2.7-2.2 1.4zm-49.4-15.3c-5.8-1.3-12.2-2.6-14.2-2.9 -5.1-0.9-4.7-2.1 1-3.2 7.6-1.5 16.2-0.2 21.8 3.2 5.1 3.2 6.8 5.5 3.8 5.4 -1-0.1-6.6-1.1-12.3-2.4zm-37.5-9.6c-0.4-0.6-2-0.8-3.8-0.5l-3.2 0.6 2.5-1.8c1.4-1 3.8-3 5.3-4.5 1.6-1.5 3-2.8 3.3-2.8 1 0 0.3 2.9-1.1 4 -2.1 1.8-1.9 2.9 1 4 1.4 0.5 2.5 1.2 2.5 1.5 0 1-5.9 0.5-6.5-0.5zm15.3 0.4c0.7-0.3 1.6-0.3 1.9 0.1 0.3 0.3-0.3 0.6-1.3 0.5 -1.2 0-1.4-0.3-0.6-0.6zm20.7-1c-5.3-0.8-4.8-2 2.3-6.2 9.8-5.7 9.8-5.7 11.6-2.2 0.9 1.7 1.6 3.3 1.6 3.5 0 0.3-2 1.7-4.3 3 -4.3 2.5-5.2 2.7-11.2 1.8zm-60.7-2c-2.6-0.7-2.1-1.9 1.3-3.3 2.7-1.1 3.2-1 4.5 0.6 0.8 1 1.4 2.2 1.5 2.6 0 0.8-4.3 0.8-7.2 0.1zm-39.7-3.8c-3.5-1.3-4.9-2.9-3.2-3.9 1.5-0.9 7.1 1.4 8.2 3.5 1.2 2.2 0.2 2.3-5 0.4zm-10.5-16.5c-0.3-0.5 13.9-0.9 14.5-2.1l1.1-2.1 2.1 2.2c1.8 1.9 1.9 2.3 0.6 3.1 -1.9 1.2-17.7 0.2-18.5-1z" fill="#000000"/></g></g></g></g><path d="m270.1 821.8c-6.7-4.5-4.4-6.5 0.8-7.8l82-0.8c7.3 1.3 7.3 4.4 0.4 9l-83.3-0.4z" id="path3352" stroke-width="1" fill-rule="evenodd" fill="#000000"/></g></g><rect id="rect2565" width="15" height="33" x="380" y="92.8" ry="7" stroke-miterlimit="4" stroke-width="3" fill="#cccccc"/><path d="m345.3 117.1l5 0c3.4 12.6 4.2 26.2 13.3 36.3l11.3 8.3 -10.7 19 -31 0.7 17-27.7 -5-36.7zM179.3 149.8" id="path3849" stroke-width="1" fill-rule="evenodd" fill="#8f8f8f"/><path d="m179.3 149.8l70.6-31.8 94.7-1.6c4.1 12.2 5.1 24.5 4.9 36.7 -9.8 19.6-23.7 38.7-43.3 57.1l-104.5-0.8 -22.4-59.6z" id="path3359" stroke-width="1" fill-rule="evenodd" fill="#b2b2b2"/><path d="m178.9 149.4l-146.1 17.1 0 42 33.5 6.5c4-29.3 16-32.1 27.3-37.1 18.3-2.1 29 2.4 37.6 9 9.7 7.6 11.5 16.7 16.3 25.3l54.7-1.6 -23.3-61.2z" id="path3361" stroke-width="1" fill-rule="evenodd" fill="#939393"/><path d="m2.1 203.7l57.1 2.4 0-22.4 -58.8 2.4c0.9 4.8 1.8 9.6 1.6 17.6z" id="path3365" stroke-width="1" stroke="#000000" fill-rule="evenodd" fill="#1a1a1a"/><path d="m365.4 182.5l-222 2" id="path3371" stroke-miterlimit="4" stroke-width="2" stroke="#000000" fill-rule="evenodd" fill="none"/><path d="m179.3 149.4l22.4 61.6 104.1 0c22.2-19.2 31.8-38.4 43.7-57.6 -0.8-13.9-1.3-28.5-5.3-37.1" id="path3389" stroke-width="1" stroke="#000000" fill-rule="evenodd" fill="url(#linearGradient3767)"/><path d="m199.9 147.9l53.9-22.9 83.7-2 0 26.9 -138.8 5.3 1.2-7.3z" id="path3397" stroke-width="1" fill-rule="evenodd" fill="url(#linearGradient3764)" opacity="0.7"/><path d="m32.3 166.9c-3-1.3-7-0.4-11 0.4l-9 15.1c-5.6-0.4-8.8 1.5-12.2 3.3l32.7-1.6 -0.4-17.1z" id="path3409" stroke-width="1" fill-rule="evenodd" fill="#313131"/><path d="m439.6 121l18-11 2.9 4.5 -12.2 7.8 -8.6-1.2z" id="path3298" stroke-width="1" stroke="#000000" fill-rule="evenodd" fill="#000000"/><path d="m458.2 109.9l-9.6 1.9 -12.2 7.4 4.3 2.5" id="path3300" stroke-width="1" stroke="#000000" fill-rule="evenodd" fill="#1a1a1a"/><path d="m386.9 161.8c-12.6 14.9-22.5 30.8-25.3 49 -0.8 5.2-2.8 10.2-12.2 14.3l-33.9-1.6c1.6-2.4 2.7-4.4 3.3-5.7l30.6-0.4c6.2-18.8 15.6-37.6 26.1-56.3l11.4 0.8z" id="path3413" stroke-width="1" stroke="#000000" fill-rule="evenodd" fill="url(#linearGradient3757)"/><path d="m498.4 145.1c-42.7-13.9-88.4-20.4-133.1-29.4" id="path3570" stroke-width="1" stroke="#5c5c5c" fill-rule="evenodd" fill="none"/><path d="m201.2 155l20-2.4c1.6-4.2-0.5-8.4-2-12.7l-18.4 6.9c-1.8 3.1-3.1 6.1 0.4 8.2z" id="path3572" stroke-width="1" stroke="#000000" fill-rule="evenodd" fill="#000000"/><path d="m486.1 141.4c7.6 11.2 4.4 24.2 6.1 36.3l16.3-2 -9.4-31 -13.1-3.3z" id="path3574" stroke-width="1" fill-rule="evenodd" fill="#5c5c5c"/><path d="m509.4 177.3l-20.8 0.4c3.2 5.6 1.9 11.2 0.8 16.7l19.6-3.3c2.3-5.7 2.5-10.3 0.4-13.9z" id="path3606" stroke-width="1" stroke="#000000" fill-rule="evenodd" fill="#000000"/><path d="m482.7 167.9c-2-0.7-7.5-8.8-8.1-11.8 -0.2-0.8-0.4-1.7-0.5-2.1 -0.2-0.7-1.8-1.3-1.8-0.7 0 0.3-0.2 0.2-0.6 0 -0.4-0.3-0.9-0.3-1.6-0.1 -0.6 0.2-1.3 0.3-1.7 0.2 -0.3-0.1-0.6 0-0.6 0.2 0 0.2-0.2 0.4-0.5 0.3 -0.3-0.1-0.5 0.3-0.5 0.8 0 0.5 0 0.9 0.2 0.9 0.4 0 2.1 3.6 2 4.4 0 0.6-0.1 0.6-0.5-0.1 -0.3-0.4-1.1-1.6-1.8-2.4 -0.7-0.9-1.3-1.8-1.4-2 0-0.2-0.9-0.9-2-1.4 -1.1-0.6-2.8-1.5-3.8-2 -1-0.5-3.1-1.4-4.6-1.9 -1.6-0.5-2.6-1-2.2-1.1 0.3-0.1 3-0.3 5.9-0.4 2.9-0.1 5.9-0.3 6.7-0.5l1.4-0.2 -1.4 0.6c-1.4 0.6-1.4 0.7-0.6 1.4 0.8 0.9 4.2 2 6.1 2 2.5 0 3.1 0.4 4.5 3.2 0.8 1.5 1.9 3.1 2.5 3.5 2.2 1.4 5.4 0.6 6.4-1.6 0.3-0.5 0.6-1 0.8-1 0.2 0 1 1 1.8 2.2 2.3 3.6 3.4 2.8 3.5-2.5 0-3.1 0.1-3.1 0.4-1.2 0.9 5.6-0.1 10.6-2.3 11.1 -0.5 0.1-0.9 0.4-0.9 0.7 0 0.2-0.1 0.3-0.3 0.2 -0.1-0.1-0.5 0-0.7 0.3 -0.6 0.8-2.7 1.4-3.8 1l0 0z" id="path3618" stroke-miterlimit="4" stroke-width="2" fill="#b2b2b2"/><path d="m381.1 146.1c-1.7-0.5-5.7-2.7-5.4-3 0.1-0.1 1.1 0.2 2.2 0.6 1.1 0.4 3.7 1.2 5.9 1.7 2.1 0.5 4 1 4 1.1 0.4 0.4-5.2 0-6.7-0.4l0 0z" id="path3626" stroke-miterlimit="4" stroke-width="2" fill="#b2b2b2"/><path d="m385.2 146.7c-0.1-0.2-1.1-0.4-2.2-0.6 -2.3-0.2-7.3-2.4-5.2-2.2 0.7 0.1 1.5 0.2 1.7 0.4 0.3 0.2 0.5 0.2 0.5 0 0-0.2 0.3-0.1 0.6 0.2 0.3 0.3 0.9 0.4 1.2 0.3 0.3-0.1 0.6-0.1 0.6 0.1 0 0.4 5.2 1.8 5.7 1.5 0.2-0.1 0.5 0 0.6 0.2 0.2 0.3-0.4 0.4-1.6 0.4 -1 0-1.9-0.2-2.1-0.4l0 0z" id="path3628" stroke-miterlimit="4" stroke-width="2" fill="#b2b2b2"/><path d="m192.7 183.9l138.4-1.2" id="path3750" stroke-miterlimit="4" stroke-width="2" stroke="#000000" fill-rule="evenodd" fill="none"/><path id="path3483" d="m61.2 183.2c15-10.7 30.1-8.4 45.1-12.6 26.3 1 32.5 17.4 44 29.8 4.5 15.2 15.2 18.8 25.2 23.7l50 0.5 -0.5-8.1 -46.7 0.5c-14.8-6.8-25.1-19.6-32.8-35.8 -11.3-9.2-23.1-17.2-38.7-17.2 -12 1.1-24 2.3-36 6.1 -8.3 0.4-14 8.4-20.9 12.6l11.3 0.5z" stroke-width="1.3" stroke="#000000" fill-rule="evenodd" fill="#000000"/><path d="m362.7 212.1l2 0c7.9-14.5 8-31.9 31.3-40.7 13.6-0.3 24.6-5.5 45.7 8.3 6.8 9.9 10.3 19.8 12.7 29.7l8.7-3.7c-1.7-11.1-2.5-21.4-5-33.3 -4.4-6.7-12.8-8.8-22.3-8.7l-48-0.7c-13.6 8.4-22.7 35.8-25 49z" id="path3752" stroke-width="1" fill-rule="evenodd" fill="#8f8f8f"/><path d="m363 212.4c10.7-23.9 21.8-45.3 48.5-42.4 33.5 3 39.5 21 41.7 40" id="path3821" stroke-miterlimit="4" stroke-width="3.1" stroke="#8f8f8f" fill-rule="evenodd" fill="none"/><path d="m386 163.4l-10.3-1.3 -13.7 23.7 7.7 1.3c3.6-9.3 9.2-17 16.3-23.7z" id="path3831" stroke-width="1" stroke="#000000" fill-rule="evenodd" fill="#000000"/><path d="m318.6 199.8c5.5-5.7 11.1-11.6 12.6-13.1l2.7-2.7 11.5 0.3c6.3 0.1 11.8 0.4 12.3 0.5l0.8 0.2 -0.9 0.9c-1.1 1-1.1 1.3-0.4 1.9 0.8 0.6 0.7 2-0.5 6.6 -2 7.8-4.2 14.3-5.1 14.8 -1 0.6-12.8 0.9-30 1l-12.9 0 9.9-10.4z" id="path3847" stroke-miterlimit="4" stroke-width="3" fill="#808080"/><path id="path3915" d="m336.1 216.9c-1.9 2.7-1 5.6 0.7 8.5 1.3 0.4 2.7 0.7 4 0.3 -1.3-2.9-2.5-5.8-0.9-8.6 -1-0.2-1.7-0.5-3.8-0.2z" stroke-width="0.4" fill-rule="evenodd" fill="#cccccc"/><path d="m452.3 211.1l0.3 5.3 18.3-5.7 1.7 3.3 26.7-5 9.3-17 -20.3 3.3c3.1-7.4 2.2-13.4 0-19l3.3 0c-0.6-11.1 3.9-21.4-5-35 -37.4-10.4-78.1-18.2-120-25 2 19.8 7.5 30.5 14.7 30.3 42.6 0 50.4-1.5 72.7 2.3 18.5 10.3 18.8 17.7 20 28.3l3.3 27.7 -13.3 3.3 -1.3-2.3c-4 1.1-9.6 0.6-10.3 5z" id="path3921" stroke-width="1" fill-rule="evenodd" fill="#8f8f8f"/><path d="m369.9 125.1c-6-4.3-7.6 6.7 4.5 17.6 16.1 4.6 29.5 4.5 42.4 3.7l46.9 0.8c3-1.9 2-3.8 0.8-5.7 -18.2-4.9-63.1-13.3-94.7-16.3z" id="path3316" stroke-miterlimit="4" stroke-width="1.5" stroke="#000000" fill-rule="evenodd" fill="#000000"/><rect id="rect2571" width="14.2" height="6" x="380" y="101.8" ry="1.1" stroke-miterlimit="4" stroke-width="3" fill="#000000"/><path d="m487.7 112.4l-11.8-0.4 -25.7 15.6 7.7 4.3M449.4 121.8" id="path3294" stroke-width="1" stroke="#000000" fill-rule="evenodd" fill="#1a1a1a"/><path d="m449.4 121.8l27.3-14.3 11.4-0.8 9.8 24.5 0.4 13.1 -30.2-8.6 -0.4-6.5 -18.4-7.3z" id="path2514" stroke-width="1" stroke="#000000" fill-rule="evenodd" fill="#000000"/><rect id="rect3813" width="12" height="27" x="399" y="135.8" ry="5.6" stroke-miterlimit="4" stroke-width="3" fill="#054996"/><path d="m426 126.8c15.8-2.9 32.9-9.5 41 8l4 1M331 167.3" id="path2573" stroke-miterlimit="4" stroke-width="6" stroke="#bababa" fill-rule="evenodd" fill="#ffffff"/><path id="path3351" d="m331 167.3a4.5 4.5 0 1 1-9 0 4.5 4.5 0 1 1 9 0z" stroke-miterlimit="4" stroke-width="6" fill="#bababa"/><path d="m367.6 174.8c3.1 2.6 7.1 2.1 11.3 0.8 0.8-1.4 1.6-2.9 1.2-4.4 -4.1 0.9-8.2 1.7-11.5-0.6 -0.5 1-1.1 1.8-1 4.2z" id="path3353" stroke-width="0.4" fill-rule="evenodd" fill="#cccccc"/><path d="m4 204.8c15.9 0.5 16.5 7.6 14 16l41 3 8-7 -37-8 2-4 -28 0z" id="path3355" stroke-width="1" stroke="#000000" fill-rule="evenodd" fill="#000000"/><path d="m170.5 212.7c-3 1.4-3.6 4.4-3.6 7.7 1 1 2 2 3.4 2.2 0.3-3.2 0.7-6.3 3.5-7.9 -0.8-0.7-1.2-1.3-3.2-2z" id="path2512" stroke-width="0.4" fill-rule="evenodd" fill="#cccccc"/><path id="path3407" d="m159.4 202.8c-3.3 0.6-4.8 3.5-5.8 6.9 0.6 1.3 1.3 2.6 2.5 3.2 1.3-3.2 2.6-6.3 5.8-7.2 -0.5-0.9-0.8-1.7-2.5-3z" stroke-width="0.4" fill-rule="evenodd" fill="#cccccc"/><path d="m144.6 182c-3 1.5-3.6 4.7-3.6 8.3 1 1.1 2 2.1 3.4 2.4 0.3-3.5 0.7-6.8 3.5-8.5 -0.8-0.7-1.2-1.4-3.2-2.2z" id="path3405" stroke-width="0.4" fill-rule="evenodd" fill="#b3b3b3"/><path id="path3403" d="m104.8 162.4c-1.9 2.8-0.9 5.9 0.8 9 1.4 0.5 2.8 0.9 4.1 0.5 -1.4-3.2-2.6-6.3-1-9.1 -1-0.3-1.7-0.6-3.9-0.4z" stroke-width="0.4" fill-rule="evenodd" fill="#b3b3b3"/><path d="m56.9 174.8c-0.7 3.3 1.5 5.7 4.3 8 1.4-0.1 2.9-0.3 3.9-1.2 -2.6-2.3-4.9-4.8-4.6-8 -1 0.2-1.8 0.1-3.7 1.2z" id="path3399" stroke-width="0.4" fill-rule="evenodd" fill="#b3b3b3"/><path d="m336.1 216.9c-1.9 2.7-1 5.6 0.7 8.5 1.3 0.4 2.7 0.7 4 0.3 -1.3-2.9-2.5-5.8-0.9-8.6 -1-0.2-1.7-0.5-3.8-0.2z" id="path3917" stroke-width="0.4" fill-rule="evenodd" fill="#cccccc"/><path id="path3919" d="m353.6 204.8c2.6 2.6 6 2.1 9.5 0.8 0.7-1.4 1.3-2.9 1-4.4 -3.5 0.9-6.9 1.7-9.7-0.6 -0.4 1-0.9 1.8-0.9 4.2z" stroke-width="0.4" fill-rule="evenodd" fill="#cccccc"/><g id="g3484" transform="matrix(0.209302, 0, 0, 0.209302, 106.721, 116.365)"><path d="m159 455.8a172 172 0 1 1-344 0 172 172 0 1 1 344 0zM144 456.8" id="path3360" stroke-miterlimit="4" stroke-width="6" fill="#000000"/><path id="path3396" d="m144 456.8a156 156 0 1 1-312 0 156 156 0 1 1 312 0z" filter="url(#filter3430)" stroke-miterlimit="4" stroke-width="6" fill="#4d4d4d" opacity="0.7"/></g><g id="g3517" transform="matrix(0.209302, 0, 0, 0.209302, 36.3953, 117.202)"><g id="g3506"><path d="m443.7 453.4a117.1 117.1 0 1 1-234.1 0 117.1 117.1 0 1 1 234.1 0zM436.8 454.9" id="path3362" stroke-miterlimit="4" stroke-width="6" fill="#4d4d4d"/><path id="path3434" d="m436.8 454.9a109.6 109.6 0 1 1-219.2 0 109.6 109.6 0 1 1 219.2 0z" filter="url(#filter3480)" stroke-miterlimit="4" stroke-width="6" fill="#999999" opacity="0.9"/><path d="m288.2 391.6l-4.7-36.5 23.4 28.1 2.8-35.6 16.9 33.7 2.8-34.6 18.7 37.5 9.4-31.8 3.7 33.7 26.2-19.7 -10.3 30.9 31.8-13.1 -17.8 30 32.8-8.4 -23.4 28.1 33.7 5.6 -30.9 10.3 31.8 12.2 -36.5 7.5 33.7 13.1 -41.2 8.4 36.5 10.3 -44.9 3.7 29 17.8 -44-5.6 24.3 25.3 -39.3-16.9 12.2 31.8 -27.2-27.2 -4.7 33.7 -19.7-35.6 -5.6 34.6 -8.4-39.3 -17.8 31.8 2.8-38.4 -23.4 24.3 8.4-37.5 -30 14 15.9-32.8 -32.8 5.6 29-30 -32.8 1.9 32.8-18.7 -30-7.5 32.8-5.6 -28.1-19.7 36.5 4.7 -24.3-24.3 35.6 12.2 -16.9-30 30.9 17.8z" id="path3374" stroke-miterlimit="4" stroke-width="5" stroke="#000000" fill-rule="evenodd" fill="none"/><path id="path3364" d="m401 454.9a73.8 73.8 0 1 1-147.6 0 73.8 73.8 0 1 1 147.6 0z" stroke-miterlimit="4" stroke-width="6" fill="#666666"/><path d="m354.1 453.5a25.6 25.6 0 1 1-51.2 0 25.6 25.6 0 1 1 51.2 0z" id="path3376" stroke-miterlimit="4" stroke-width="6" fill="#000000"/><path id="path3378" d="m291.4 421.7a3.1 3.1 0 1 1-6.2 0 3.1 3.1 0 1 1 6.2 0z" stroke-miterlimit="4" stroke-width="6" fill="#000000"/><path d="m375.7 485.3a3.1 3.1 0 1 1-6.2 0 3.1 3.1 0 1 1 6.2 0z" id="path3380" stroke-miterlimit="4" stroke-width="6" fill="#000000"/><path id="path3382" d="m291.4 489.1a3.1 3.1 0 1 1-6.2 0 3.1 3.1 0 1 1 6.2 0z" stroke-miterlimit="4" stroke-width="6" fill="#000000"/><path d="m371.9 421.7a3.1 3.1 0 1 1-6.2 0 3.1 3.1 0 1 1 6.2 0z" id="path3384" stroke-miterlimit="4" stroke-width="6" fill="#000000"/></g></g><g id="g3547" transform="matrix(0.218023, 0, 0, 0.218023, 414.334, 108.89)"><path id="path3549" d="m159 455.8a172 172 0 1 1-344 0 172 172 0 1 1 344 0zM144 456.8" stroke-miterlimit="4" stroke-width="6" fill="#000000"/><path d="m144 456.8a156 156 0 1 1-312 0 156 156 0 1 1 312 0z" id="path3551" filter="url(#filter3430)" stroke-miterlimit="4" stroke-width="6" fill="#4d4d4d" opacity="0.7"/></g><g transform="matrix(0.218023, 0, 0, 0.218023, 341.078, 109.762)" id="g3553"><g id="g3555"><path id="path3557" d="m443.7 453.4a117.1 117.1 0 1 1-234.1 0 117.1 117.1 0 1 1 234.1 0zM436.8 454.9" stroke-miterlimit="4" stroke-width="6" fill="#4d4d4d"/><path d="m436.8 454.9a109.6 109.6 0 1 1-219.2 0 109.6 109.6 0 1 1 219.2 0z" id="path3559" filter="url(#filter3480)" stroke-miterlimit="4" stroke-width="6" fill="#999999" opacity="0.9"/><path id="path3561" d="m288.2 391.6l-4.7-36.5 23.4 28.1 2.8-35.6 16.9 33.7 2.8-34.6 18.7 37.5 9.4-31.8 3.7 33.7 26.2-19.7 -10.3 30.9 31.8-13.1 -17.8 30 32.8-8.4 -23.4 28.1 33.7 5.6 -30.9 10.3 31.8 12.2 -36.5 7.5 33.7 13.1 -41.2 8.4 36.5 10.3 -44.9 3.7 29 17.8 -44-5.6 24.3 25.3 -39.3-16.9 12.2 31.8 -27.2-27.2 -4.7 33.7 -19.7-35.6 -5.6 34.6 -8.4-39.3 -17.8 31.8 2.8-38.4 -23.4 24.3 8.4-37.5 -30 14 15.9-32.8 -32.8 5.6 29-30 -32.8 1.9 32.8-18.7 -30-7.5 32.8-5.6 -28.1-19.7 36.5 4.7 -24.3-24.3 35.6 12.2 -16.9-30 30.9 17.8z" stroke-miterlimit="4" stroke-width="5" stroke="#000000" fill-rule="evenodd" fill="none"/><path d="m401 454.9a73.8 73.8 0 1 1-147.6 0 73.8 73.8 0 1 1 147.6 0z" id="path3563" stroke-miterlimit="4" stroke-width="6" fill="#666666"/><path id="path3565" d="m354.1 453.5a25.6 25.6 0 1 1-51.2 0 25.6 25.6 0 1 1 51.2 0z" stroke-miterlimit="4" stroke-width="6" fill="#000000"/><path d="m291.4 421.7a3.1 3.1 0 1 1-6.2 0 3.1 3.1 0 1 1 6.2 0z" id="path3567" stroke-miterlimit="4" stroke-width="6" fill="#000000"/><path id="path3569" d="m375.7 485.3a3.1 3.1 0 1 1-6.2 0 3.1 3.1 0 1 1 6.2 0z" stroke-miterlimit="4" stroke-width="6" fill="#000000"/><path d="m291.4 489.1a3.1 3.1 0 1 1-6.2 0 3.1 3.1 0 1 1 6.2 0z" id="path3571" stroke-miterlimit="4" stroke-width="6" fill="#000000"/><path id="path3573" d="m371.9 421.7a3.1 3.1 0 1 1-6.2 0 3.1 3.1 0 1 1 6.2 0z" stroke-miterlimit="4" stroke-width="6" fill="#000000"/></g></g><rect id="rect3783" width="95" height="12" x="204" y="219.8" ry="4" stroke-miterlimit="4" stroke-width="5" fill="#cccccc"/><path d="m331.6 92.7l28.3-0.3c2.9 2 3.7 5.1 0.6 10.5 -7.8 1.4-15.4 3-29 0.3 0 0-8.2-3.2-8-6 0.2-2.9 8-4.5 8-4.5z" id="path3789" stroke-width="0.3" fill-rule="evenodd" fill="#bababa"/><rect id="rect3805" width="12" height="27" x="381" y="135.8" ry="5.6" stroke-miterlimit="4" stroke-width="3" fill="#054996"/><rect ry="5.6" y="135.8" x="415" height="27" width="12" id="rect3815" stroke-miterlimit="4" stroke-width="3" fill="#054996"/><path d="m351.4 117c3.8 26.5 12.5 47.6 43.6 44.5 22.9 3.4 61.8-4.7 64.4 13.4l5.2 33.3 12.1-3.9 -4.8-33.3c-4.7-24.5-27.4-22-47.5-23.3l-38.4 0c-10.5 0.4-15.2-6.9-17.7-16.8l-3-16.4 -13.8 2.6z" id="path3350" stroke-miterlimit="4" stroke-width="1.5" stroke="#5c5c5c" fill-rule="evenodd" fill="#808080"/><rect ry="1.1" y="-351.5" x="100.4" height="6" width="14.2" id="rect3803" transform="matrix(0.0250324, 0.999687, -0.999687, 0.0250324, 0, 0)" stroke-miterlimit="4" stroke-width="3" fill="#000000"/><path id="path3817" d="m178.9 149.4l-146.1 17.1 0 42 33.5 6.5c4-29.3 16-32.1 27.3-37.1 18.3-2.1 29 2.4 37.6 9 9.7 7.6 11.5 16.7 16.3 25.3l54.7-1.6 -23.3-61.2zM431.1 178.2" filter="url(#filter4199)" stroke-width="1" fill-rule="evenodd" fill="#cccccc" opacity="0.7"/><path d="m431.1 178.2l27.7-1" id="path3414" stroke-miterlimit="4" stroke-width="2.2" stroke="#000000" fill-rule="evenodd" fill="none"/><path id="path3418" d="m473 177.9l16.1-0.5" stroke-miterlimit="4" stroke-width="1.9" stroke="#000000" fill-rule="evenodd" fill="none"/><path id="path3428" d="m438.1 159.8c-1.9 1.5-1 3.1 0.7 4.8 1.3 0.2 2.7 0.4 4 0.1 -1.3-1.6-2.5-3.3-0.9-4.8 -1-0.1-1.7-0.3-3.8-0.1z" stroke-width="0.4" fill-rule="evenodd" fill="#cccccc"/><path d="m400.1 159.8c-1.9 1.5-1 3.1 0.7 4.8 1.3 0.2 2.7 0.4 4 0.1 -1.3-1.6-2.5-3.3-0.9-4.8 -1-0.1-1.7-0.3-3.8-0.1z" id="path3666" stroke-width="0.4" fill-rule="evenodd" fill="#cccccc"/><path id="path3668" d="m360.3 140.4c-2.3-0.9-3.2 0.7-3.8 2.9 0.5 1.3 1 2.5 1.9 3.6 0.8-2 1.6-3.8 3.7-3.2 -0.4-0.9-0.6-1.6-1.8-3.3z" stroke-width="0.4" fill-rule="evenodd" fill="#cccccc"/><path d="m367.3 138.4c1.8 1.6 3.2 0.4 4.6-1.5 0-1.4 0-2.7-0.5-4 -1.4 1.6-2.8 3-4.6 1.7 0.1 1 0 1.7 0.6 3.8z" id="path3670" stroke-width="0.4" fill-rule="evenodd" fill="#cccccc"/><path d="m438.1 145.8c-1.9 1.5-1 3.1 0.7 4.8 1.3 0.2 2.7 0.4 4 0.1 -1.3-1.6-2.5-3.3-0.9-4.8 -1-0.1-1.7-0.3-3.8-0.1z" id="path3672" stroke-width="0.4" fill-rule="evenodd" fill="#cccccc"/><path d="m452 207.2l39-6 0-6 18-3 -12 19 -44 7 -1-11z" id="path3674" stroke-width="1" stroke="#000000" fill-rule="evenodd" fill="#000000"/><path d="m327.3 171.4c-1.1-6 0.6-6.6 0.6-6.6" id="path3676" stroke-width="0.5" stroke="#000000" fill-rule="evenodd" fill="none"/><path d="m463.8 188.8c-1.8-1.9-3.4-0.7-4.9 1.2 -0.1 1.4-0.2 2.9 0.3 4.2 1.6-1.6 3.2-2.9 5-1.4 0-1 0.1-1.8-0.3-4z" id="path3678" stroke-width="0.4" fill-rule="evenodd" fill="#cccccc"/><path id="path3680" d="m477.8 188.8c-1.8-1.9-3.4-0.7-4.9 1.2 -0.1 1.4-0.2 2.9 0.3 4.2 1.6-1.6 3.2-2.9 5-1.4 0-1 0.1-1.8-0.3-4z" stroke-width="0.4" fill-rule="evenodd" fill="#cccccc"/><path d="m364 114.8c-4.7-4.1-3.1-10.7-20-10 -13.9-0.3-14 7.6-15 15l23-2 12-3z" id="path3349" stroke-width="1" fill-rule="evenodd" fill="#bababa"/></svg>