<?xml version="1.0" encoding="UTF-8" standalone="no"?>
<!-- Created with Inkscape (http://www.inkscape.org/) -->
<svg xmlns:dc="http://purl.org/dc/elements/1.1/" xmlns:cc="http://web.resource.org/cc/" xmlns:rdf="http://www.w3.org/1999/02/22-rdf-syntax-ns#" xmlns:svg="http://www.w3.org/2000/svg" xmlns="http://www.w3.org/2000/svg" xmlns:xlink="http://www.w3.org/1999/xlink" xmlns:sodipodi="http://sodipodi.sourceforge.net/DTD/sodipodi-0.dtd" xmlns:inkscape="http://www.inkscape.org/namespaces/inkscape" viewBox="0 0 443 300" sodipodi:version="0.32" inkscape:version="0.45.1" version="1.0" sodipodi:docbase="/home/ben/Images/SVG" sodipodi:docname="puzzle2bis.svg" inkscape:output_extension="org.inkscape.output.svg.inkscape">
  <defs id="defs2219">
    <filter inkscape:collect="always" id="filter9035">
      <feGaussianBlur inkscape:collect="always" stdDeviation="1.5740631" id="feGaussianBlur9037"/>
    </filter>
    <filter inkscape:collect="always" id="filter7087">
      <feGaussianBlur inkscape:collect="always" stdDeviation="1.3511365" id="feGaussianBlur7089"/>
    </filter>
    <filter inkscape:collect="always" id="filter6112">
      <feGaussianBlur inkscape:collect="always" stdDeviation="1.524629" id="feGaussianBlur6114"/>
    </filter>
    <filter inkscape:collect="always" id="filter5137">
      <feGaussianBlur inkscape:collect="always" stdDeviation="1.6558412" id="feGaussianBlur5139"/>
    </filter>
    <linearGradient inkscape:collect="always" xlink:href="#linearGradient13960" id="linearGradient19828" gradientUnits="userSpaceOnUse" gradientTransform="translate(160,0)" x1="690.66388" y1="-485.99149" x2="651.95868" y2="-409.99149"/>
    <linearGradient inkscape:collect="always" xlink:href="#linearGradient13960" id="linearGradient19826" gradientUnits="userSpaceOnUse" gradientTransform="translate(160,0)" x1="675.03436" y1="-527.73743" x2="609.91394" y2="-480.06"/>
    <linearGradient inkscape:collect="always" xlink:href="#linearGradient13960" id="linearGradient19824" gradientUnits="userSpaceOnUse" gradientTransform="translate(160,0)" x1="759.49585" y1="-504.81134" x2="729.94598" y2="-455.77994"/>
    <linearGradient id="linearGradient13960">
      <stop style="stop-color:#ffffff;stop-opacity:0.57462686;" offset="0" id="stop13962"/>
      <stop style="stop-color:#ffffff;stop-opacity:0;" offset="1" id="stop13964"/>
    </linearGradient>
    <linearGradient inkscape:collect="always" xlink:href="#linearGradient13960" id="linearGradient19822" gradientUnits="userSpaceOnUse" gradientTransform="translate(160,0)" x1="717.48889" y1="-548.40814" x2="702.01611" y2="-492.77609"/>
  </defs>
  <sodipodi:namedview id="base" pagecolor="#ffffff" bordercolor="#666666" borderopacity="1.0" inkscape:pageopacity="0.0" inkscape:pageshadow="2" inkscape:zoom="0.98994949" inkscape:cx="382.80658" inkscape:cy="179.61467" inkscape:document-units="px" inkscape:current-layer="layer1" inkscape:window-width="910" inkscape:window-height="623" inkscape:window-x="0" inkscape:window-y="25"/>
  <metadata id="metadata2222">
    <rdf:RDF>
      <cc:Work rdf:about="">
        <dc:format>image/svg+xml</dc:format>
        <dc:type rdf:resource="http://purl.org/dc/dcmitype/StillImage"/>
        <dc:title>Puzzle</dc:title>
        <dc:creator>
          <cc:Agent>
            <dc:title>Benjamin Pavie</dc:title>
          </cc:Agent>
        </dc:creator>
        <cc:license rdf:resource="http://web.resource.org/cc/PublicDomain"/>
        <dc:subject>
          <rdf:Bag>
            <rdf:li>puzzle</rdf:li>
          </rdf:Bag>
        </dc:subject>
      </cc:Work>
      <cc:License rdf:about="http://web.resource.org/cc/PublicDomain">
        <cc:permits rdf:resource="http://web.resource.org/cc/Reproduction"/>
        <cc:permits rdf:resource="http://web.resource.org/cc/Distribution"/>
        <cc:permits rdf:resource="http://web.resource.org/cc/DerivativeWorks"/>
      </cc:License>
    </rdf:RDF>
  </metadata>
  <g inkscape:label="Calque 1" inkscape:groupmode="layer" id="layer1" transform="translate(127.1601,87.356293)">
    <path style="fill:#4d4d4d;fill-opacity:1;fill-rule:evenodd;stroke:none;stroke-width:1px;stroke-linecap:butt;stroke-linejoin:miter;stroke-opacity:1;filter:url(#filter9035)" d="M 26.782141,171.94247 L 49.282141,163.54962 C 44.521331,157.55959 36.818401,150.62708 46.849101,146.11658 C 56.520661,141.76757 55.147091,156.20028 64.460711,156.7639 C 73.774331,157.32752 83.178881,150.45159 84.103571,148.37104 C 84.996431,146.36211 75.175001,137.29961 75.175001,137.29961 C 74.877381,134.2639 76.008331,133.37104 79.103571,133.19247 L 86.424991,135.33532 C 89.282131,125.09722 86.424991,121.10913 75.174991,120.15675 C 73.151181,124.44247 69.877371,129.44247 64.996421,129.08533 C 64.996421,129.08533 52.591161,112.86913 50.532141,112.29961 C 48.433931,111.71925 27.675001,118.72818 27.675001,118.72818 C 30.919041,121.88294 29.510291,128.95873 24.014281,131.58533 C 18.585801,134.17966 10.392551,128.30957 9.9964312,123.72819 C 7.4430112,123.61042 -2.5035788,129.97818 -2.5035788,129.97818 L 4.9964212,141.58533 C 2.0202312,145.45437 -6.5004888,141.86699 -9.6464388,146.58533 C -12.752979,151.24455 -3.5134588,157.52932 1.2464212,156.94247 C 6.7489012,156.26407 10.055941,156.58533 12.496421,151.7639 L 26.782141,171.94247 z " id="path11996" sodipodi:nodetypes="ccsszccccczczcccsscc" transform="matrix(2.0116073,0,0,2.0116073,128.63609,-215.11193)"/>
    <path style="fill:#4d4d4d;fill-opacity:1;fill-rule:evenodd;stroke:none;stroke-width:1px;stroke-linecap:butt;stroke-linejoin:miter;stroke-opacity:1;filter:url(#filter7087)" d="M -9.5035788,77.442466 C -3.1047788,75.984126 4.4547512,74.079366 10.496421,71.728176 C 14.663091,76.132936 18.294041,79.109126 19.603561,84.049606 C 14.365471,85.061516 6.7534112,85.886066 9.7821412,91.013896 C 10.399841,92.059706 19.010921,97.923086 26.567851,88.513896 C 28.789501,90.977026 40.853571,102.79961 40.317851,104.04961 C 39.749631,105.37543 27.683921,107.4871 20.049991,109.76389 C 24.469631,111.68354 25.050001,120.47819 20.139281,123.5139 C 15.306711,126.50131 6.2107112,120.38889 6.3892712,115.12104 C -0.15572882,116.80193 -8.7892888,120.65675 -8.7892888,120.65675 C -12.220009,118.55941 -17.489949,115.14588 -19.085159,109.46278 C -15.124539,109.71432 -5.3267788,106.0257 -7.7625088,100.61211 C -10.190779,95.215096 -19.983919,98.349996 -23.031679,101.87612 C -30.877659,98.583706 -39.149119,89.107126 -39.146439,87.442466 C -39.143759,85.904076 -25.179579,82.480926 -19.012499,80.121036 C -22.892579,79.948496 -28.633039,71.631456 -21.289289,69.228176 C -13.945539,66.824896 -8.2535788,72.650796 -9.5035788,77.442466 z " id="path11998" sodipodi:nodetypes="cccsczczccczczczc" transform="matrix(2.0116073,0,0,2.0116073,128.63609,-215.11193)"/>
    <path style="fill:#4d4d4d;fill-opacity:1;fill-rule:evenodd;stroke:none;stroke-width:1px;stroke-linecap:butt;stroke-linejoin:miter;stroke-opacity:1;filter:url(#filter6112)" d="M -43.076669,115.15068 C -42.123399,118.51902 -38.703409,121.53287 -35.342069,125.55424 C -42.524749,129.46837 -42.975559,129.56378 -47.158419,132.38853 C -46.150029,125.88775 -54.136329,120.34124 -60.688709,123.32472 C -64.465629,125.04445 -70.375819,127.2502 -66.522469,136.06982 C -68.985599,138.29147 -90.152079,146.82001 -91.402079,146.28429 C -92.727899,145.71607 -100.14287,133.39782 -102.41966,125.76389 C -105.85454,129.93099 -114.55209,141.3527 -121.22044,129.38872 C -127.99591,117.23254 -113.80228,115.96522 -108.53443,116.14378 C -110.21532,109.59878 -111.29222,107.02614 -111.29222,107.02614 C -109.19728,103.59362 -92.559249,98.835006 -84.188349,99.255646 C -85.197499,105.23658 -82.228209,111.3101 -73.317369,108.558 C -64.637369,105.87719 -68.024799,98.861966 -72.561069,96.319276 C -67.753429,90.998676 -55.282739,88.580166 -53.329209,89.548426 C -51.285739,90.561256 -47.610049,100.2323 -43.987469,106.14684 C -40.279399,102.26676 -32.472129,96.238326 -28.296379,107.40558 C -24.150779,118.49219 -37.779919,116.65321 -43.076669,115.15068 z " id="path12000" sodipodi:nodetypes="cccsczczccczczczc" transform="matrix(2.0116073,0,0,2.0116073,128.63609,-215.11193)"/>
    <path id="path12002" d="M -19.694049,206.41866 C -20.060719,206.05199 -20.360719,204.09674 -20.360719,202.07365 C -20.360719,197.7706 -22.774459,195.08532 -26.642389,195.08532 C -28.085699,195.08532 -34.708949,197.11032 -41.360719,199.58532 C -48.012489,202.06032 -54.270979,204.08532 -55.268459,204.08532 C -57.879049,204.08532 -63.583289,193.07539 -63.173499,188.82756 C -62.862809,185.60695 -62.818479,185.58196 -56.527289,185.08146 C -48.728889,184.46106 -46.586259,182.48364 -48.888479,178.03164 C -50.743439,174.44455 -55.473989,171.08532 -58.670479,171.08532 C -60.064169,171.08532 -63.026279,172.63495 -65.360719,174.58532 C -67.664789,176.51032 -69.939839,178.08532 -70.416379,178.08532 C -72.004749,178.08532 -74.821439,174.27741 -78.860719,166.66935 C -82.018519,160.72156 -82.635239,158.77425 -81.789799,157.42063 C -81.200779,156.47758 -75.932169,154.10385 -70.081769,152.14566 C -57.125949,147.80923 -55.884829,146.83394 -60.197779,144.3787 C -62.832609,142.87877 -63.349109,141.98361 -63.354399,138.9079 C -63.362739,134.05867 -59.778969,131.08532 -53.925859,131.08532 C -48.956119,131.08532 -47.360719,132.42188 -47.360719,136.58532 C -47.360719,142.81953 -44.260069,143.39573 -31.559239,139.52174 C -26.936669,138.11177 -23.025759,137.09927 -22.868339,137.27174 C -22.123319,138.08801 -15.689199,146.72197 -15.063499,147.74508 C -13.389069,150.48301 -15.499149,152.08532 -20.779149,152.08532 C -24.637389,152.08532 -26.550669,152.61363 -28.175889,154.12776 C -30.205289,156.01843 -30.259959,156.37949 -28.911609,158.98691 C -25.861729,164.88474 -15.335799,166.35175 -10.348919,161.57402 L -7.4635488,158.80966 L -4.6621388,162.13889 C 1.9374112,169.98185 7.7199012,178.4229 7.4405812,179.80596 C 7.2741512,180.63005 3.2577712,182.84979 -1.5317988,184.76475 C -6.3008888,186.67152 -10.456619,188.89286 -10.766759,189.70106 C -11.133949,190.65795 -10.087019,191.90428 -7.7653588,193.27409 C -4.0396988,195.47228 -1.9407488,199.18675 -2.8339688,202.00104 C -3.7149788,204.77685 -8.8294588,207.08532 -14.098339,207.08532 C -16.809319,207.08532 -19.327389,206.78532 -19.694049,206.41866 z " style="fill:#4d4d4d;fill-opacity:1;filter:url(#filter5137)" transform="matrix(2.0116073,0,0,2.0116073,128.63609,-215.11193)"/>
    <path style="fill:#8ae234;fill-opacity:1;fill-rule:evenodd;stroke:none;stroke-width:1px;stroke-linecap:butt;stroke-linejoin:miter;stroke-opacity:1" d="M 186.53445,126.74559 L 231.79562,109.86247 C 222.21874,97.81288 206.72347,83.867393 226.9013,74.794038 C 246.35668,66.045538 243.59359,95.078482 262.32894,96.212264 C 281.06429,97.346047 299.98255,83.514376 301.84266,79.329126 C 303.63874,75.287948 283.88188,57.057757 283.88188,57.057757 C 283.28319,50.9511 285.55822,49.155017 291.78462,48.795804 L 306.51245,53.106376 C 312.25989,32.51134 306.51245,24.488869 283.88186,22.573054 C 279.81075,31.19424 273.22513,41.252276 263.40658,40.533851 C 263.40658,40.533851 238.45207,7.9132247 234.31013,6.7675741 C 230.08935,5.6001177 188.33054,19.699332 188.33054,19.699332 C 194.85627,26.045471 192.02242,40.279181 180.96661,45.562869 C 170.04664,50.781642 153.56503,38.973327 152.7682,29.757389 C 147.63172,29.520482 127.62309,42.329915 127.62309,42.329915 L 142.71014,65.678942 C 136.72321,73.461931 119.58287,66.245532 113.25446,75.736979 C 107.00532,85.1095 125.5916,97.751989 135.16661,96.571477 C 146.23544,95.206803 152.88791,95.853052 157.79719,86.154228 L 186.53445,126.74559 z " id="path12004" sodipodi:nodetypes="ccsszccccczczcccsscc"/>
    <path id="path12006" d="M 93.04261,196.09814 C 92.305014,195.36055 91.701532,191.42735 91.701532,187.35769 C 91.701532,178.70164 86.846035,173.29991 79.065279,173.29991 C 76.161906,173.29991 62.838528,177.37342 49.457779,182.35215 C 36.07703,187.33087 23.487405,191.40438 21.480867,191.40438 C 16.229385,191.40438 4.7546946,169.25672 5.5790311,160.71176 C 6.2040174,154.23315 6.293192,154.18288 18.948596,153.17607 C 34.635914,151.92807 38.946044,147.95028 34.314882,138.99461 C 30.583431,131.77879 21.067422,125.02134 14.637339,125.02134 C 11.833782,125.02134 5.87518,128.13858 1.1792034,132.06196 C -3.4556806,135.93431 -8.0321878,139.10259 -8.9907991,139.10259 C -12.185976,139.10259 -17.85205,131.44257 -25.977495,116.13814 C -32.329749,104.17352 -33.570347,100.2563 -31.869654,97.533347 C -30.684777,95.636301 -20.086403,90.861288 -8.3176952,86.922179 C 17.744327,78.198985 20.240973,76.237084 11.565011,71.298106 C 6.264768,68.280836 5.2257728,66.480125 5.2151314,60.293004 C 5.1983546,50.538258 12.407492,44.557045 24.181651,44.557045 C 34.178817,44.557045 37.388135,47.245679 37.388135,55.620886 C 37.388135,68.161668 43.625425,69.320756 69.174507,61.52781 C 78.473303,58.691504 86.340518,56.654751 86.657185,57.001693 C 88.155873,58.643708 101.0988,76.011845 102.35746,78.06994 C 105.72575,83.57758 101.4811,86.800799 90.859815,86.800799 C 83.098551,86.800799 79.249783,87.863551 75.980479,90.909386 C 71.898123,94.712672 71.788148,95.438982 74.500499,100.68409 C 80.63566,112.54821 101.8097,115.49925 111.84134,105.88834 L 117.64557,100.32753 L 123.28091,107.02463 C 136.55661,122.80159 148.18871,139.78167 147.62683,142.56384 C 147.29204,144.22159 139.21266,148.68683 129.57793,152.53898 C 119.98439,156.37465 111.62469,160.84311 111.00081,162.4689 C 110.26217,164.39378 112.36818,166.90091 117.03845,169.65643 C 124.53302,174.07832 128.75528,181.55038 126.95847,187.21163 C 125.18622,192.79547 114.8979,197.4392 104.29898,197.4392 C 98.845554,197.4392 93.780186,196.83572 93.04261,196.09814 z " style="fill:#204a87"/>
    <path style="fill:#cc0000;fill-opacity:1;fill-rule:evenodd;stroke:none;stroke-width:1px;stroke-linecap:butt;stroke-linejoin:miter;stroke-opacity:1" d="M 113.54183,-63.351311 C 126.41371,-66.284919 141.62051,-70.116548 153.77398,-74.846219 C 162.15568,-65.985571 169.45973,-59.998646 172.09397,-50.06034 C 161.55699,-48.024775 146.24451,-46.366104 152.33713,-36.050924 C 153.5797,-33.947165 170.90181,-22.152347 186.10339,-41.079942 C 190.57247,-36.125092 214.84064,-12.342695 213.76299,-9.8281861 C 212.61995,-7.1611569 188.34848,-2.9133062 172.99201,1.6667012 C 181.88259,5.5282832 183.05007,23.219665 173.17163,29.326322 C 163.45039,35.335817 145.15281,23.040029 145.51201,12.443183 C 132.34604,15.824474 114.97871,23.578858 114.97871,23.578858 C 108.07744,19.359833 97.476394,12.493152 94.267458,1.0609862 C 102.23467,1.5669859 121.94392,-5.8530691 117.04418,-16.743094 C 112.15946,-27.599759 92.459506,-21.293571 86.328609,-14.200403 C 70.545579,-20.823439 53.906649,-39.886596 53.91204,-43.235238 C 53.917432,-46.329875 82.007878,-53.215908 94.413621,-57.96308 C 86.608424,-58.310163 75.060873,-75.040781 89.833614,-79.875237 C 104.60635,-84.709693 116.05634,-72.99027 113.54183,-63.351311 z " id="path12008" sodipodi:nodetypes="cccsczczccczczczc"/>
    <path style="fill:#fce94f;fill-opacity:1;fill-rule:evenodd;stroke:none;stroke-width:1px;stroke-linecap:butt;stroke-linejoin:miter;stroke-opacity:1" d="M 46.005961,12.502807 C 47.923566,19.278585 54.803243,25.341267 61.564939,33.430685 C 47.116207,41.304377 37.910851,49.331676 37.795083,47.178592 C 37.209645,36.290989 23.758268,22.944176 10.577453,28.945766 C 2.979773,32.405187 -8.9092083,36.84229 -1.1577814,54.583902 C -6.1126316,59.052989 -48.691277,76.209063 -51.205786,75.131404 C -53.872816,73.988369 -68.788823,49.208887 -73.368833,33.852418 C -80.278462,42.234987 -97.774518,65.210982 -111.18862,41.144153 C -124.8182,16.690692 -96.266194,14.141342 -85.669349,14.500535 C -89.050639,1.3345648 -91.216939,-3.8405767 -91.216939,-3.8405767 C -87.002743,-10.745459 -53.533558,-20.317922 -36.694595,-19.471759 C -38.724608,-7.4404686 -32.751563,4.7770686 -14.826452,-0.75907589 C 2.6342996,-6.1518129 -4.1798793,-20.263689 -13.305073,-25.378582 C -3.6339895,-36.08154 21.452142,-40.946633 25.381877,-38.998874 C 29.492536,-36.961457 36.886581,-17.507123 44.173789,-5.609383 C 51.63297,-13.41458 67.338131,-25.541422 75.7381,-3.0772924 C 84.07742,19.224613 56.660942,15.525308 46.005961,12.502807 z " id="path19814" sodipodi:nodetypes="ccssczczccczczczc"/>
    <g id="g19816" transform="matrix(2.0116073,0,0,2.0116073,-1615.7456,1022.1811)" inkscape:export-filename="/tmp/puzzle.png" inkscape:export-xdpi="76.519997" inkscape:export-ydpi="76.519997">
      <path sodipodi:nodetypes="cccsczczccczczczc" id="path12989" d="M 859.65456,-539.63433 C 866.05336,-541.09267 873.61289,-542.99743 879.65456,-545.34862 C 883.82123,-540.94386 887.45218,-537.96767 888.7617,-533.02719 C 883.52361,-532.01528 875.91155,-531.19073 878.94028,-526.0629 C 879.55798,-525.01709 888.16906,-519.15371 895.72599,-528.5629 C 897.94764,-526.09977 910.01171,-514.27719 909.47599,-513.02719 C 908.90777,-511.70137 896.84206,-509.5897 889.20813,-507.31291 C 893.62777,-505.39326 894.20814,-496.59861 889.29742,-493.5629 C 884.46485,-490.57549 875.36885,-496.68791 875.54741,-501.95576 C 869.00241,-500.27487 860.36885,-496.42005 860.36885,-496.42005 C 856.93813,-498.51739 851.66819,-501.93092 850.07298,-507.61402 C 854.0336,-507.36248 863.83136,-511.0511 861.39563,-516.46469 C 858.96736,-521.8617 849.17422,-518.7268 846.12646,-515.20068 C 838.28048,-518.49309 830.00902,-527.96967 830.0117,-529.63433 C 830.01438,-531.17272 843.97856,-534.59587 850.14564,-536.95576 C 846.26556,-537.1283 840.5251,-545.44534 847.86885,-547.84862 C 855.2126,-550.2519 860.90456,-544.426 859.65456,-539.63433 z " style="fill:url(#linearGradient19822);fill-opacity:1;fill-rule:evenodd;stroke:none;stroke-width:1px;stroke-linecap:butt;stroke-linejoin:miter;stroke-opacity:1"/>
      <path sodipodi:nodetypes="ccsszccccczczcccsscc" id="path13970" d="M 895.94028,-445.13433 L 918.44028,-453.52718 C 913.67947,-459.51721 905.97654,-466.44972 916.00724,-470.96022 C 925.6788,-475.30923 924.30523,-460.87652 933.61885,-460.3129 C 942.93247,-459.74928 952.33702,-466.62521 953.26171,-468.70576 C 954.15457,-470.71469 944.33314,-479.77719 944.33314,-479.77719 C 944.03552,-482.8129 945.16647,-483.70576 948.26171,-483.88433 L 955.58313,-481.74148 C 958.44027,-491.97958 955.58313,-495.96767 944.33313,-496.92005 C 942.30932,-492.63433 939.03551,-487.63433 934.15456,-487.99147 C 934.15456,-487.99147 921.7493,-504.20767 919.69028,-504.77719 C 917.59207,-505.35755 896.83314,-498.34862 896.83314,-498.34862 C 900.07718,-495.19386 898.66843,-488.11807 893.17242,-485.49147 C 887.74394,-482.89714 879.55069,-488.76723 879.15457,-493.34861 C 876.60115,-493.46638 866.65456,-487.09862 866.65456,-487.09862 L 874.15456,-475.49147 C 871.17837,-471.62243 862.65765,-475.20981 859.5117,-470.49147 C 856.40516,-465.83225 865.64468,-459.54748 870.40456,-460.13433 C 875.90704,-460.81273 879.21408,-460.49147 881.65456,-465.3129 L 895.94028,-445.13433 z " style="fill:url(#linearGradient19824);fill-opacity:1;fill-rule:evenodd;stroke:none;stroke-width:1px;stroke-linecap:butt;stroke-linejoin:miter;stroke-opacity:1"/>
      <path sodipodi:nodetypes="ccssczczccczczczc" id="path17856" d="M 826.08147,-501.92612 C 827.03474,-498.55778 830.45473,-495.54393 833.81607,-491.52256 C 826.63339,-487.60843 822.05727,-483.61794 821.99972,-484.68827 C 821.70869,-490.10066 815.02181,-496.73556 808.46943,-493.75208 C 804.69251,-492.03235 798.78232,-489.8266 802.63567,-481.00698 C 800.17254,-478.78533 779.00606,-470.25679 777.75606,-470.79251 C 776.43024,-471.36073 769.01527,-483.67898 766.73848,-491.31291 C 763.3036,-487.14581 754.60605,-475.7241 747.9377,-487.68808 C 741.16223,-499.84426 755.35586,-501.11158 760.62371,-500.93302 C 758.94282,-507.47802 757.86592,-510.05066 757.86592,-510.05066 C 759.96086,-513.48318 776.59889,-518.24179 784.96979,-517.82115 C 783.96064,-511.84022 786.92993,-505.7667 795.84077,-508.5188 C 804.52077,-511.19961 801.13334,-518.21483 796.59707,-520.75752 C 801.40471,-526.07812 813.8754,-528.49663 815.82893,-527.52837 C 817.8724,-526.51554 821.54809,-516.8445 825.17067,-510.92996 C 828.87874,-514.81004 836.68601,-520.83847 840.86176,-509.67122 C 845.00736,-498.58461 831.37822,-500.42359 826.08147,-501.92612 z " style="fill:url(#linearGradient19826);fill-opacity:1;fill-rule:evenodd;stroke:none;stroke-width:1px;stroke-linecap:butt;stroke-linejoin:miter;stroke-opacity:1"/>
      <path style="fill:url(#linearGradient19828);fill-opacity:1" d="M 849.46409,-410.65814 C 849.09742,-411.02481 848.79742,-412.98006 848.79742,-415.00315 C 848.79742,-419.3062 846.38368,-421.99148 842.51575,-421.99148 C 841.07244,-421.99148 834.44919,-419.96648 827.79742,-417.49148 C 821.14565,-415.01648 814.88716,-412.99148 813.88968,-412.99148 C 811.27909,-412.99148 805.57485,-424.00141 805.98464,-428.24924 C 806.29533,-431.46985 806.33966,-431.49484 812.63085,-431.99534 C 820.42925,-432.61574 822.57188,-434.59316 820.26966,-439.04516 C 818.4147,-442.63225 813.68415,-445.99148 810.48766,-445.99148 C 809.09397,-445.99148 806.13186,-444.44185 803.79742,-442.49148 C 801.49335,-440.56648 799.2183,-438.99148 798.74176,-438.99148 C 797.15339,-438.99148 794.3367,-442.79939 790.29742,-450.40745 C 787.13962,-456.35524 786.5229,-458.30255 787.36834,-459.65617 C 787.95736,-460.59922 793.22597,-462.97295 799.07637,-464.93114 C 812.03219,-469.26757 813.27331,-470.24286 808.96036,-472.6981 C 806.32553,-474.19803 805.80903,-475.09319 805.80374,-478.1689 C 805.7954,-483.01813 809.37917,-485.99148 815.23228,-485.99148 C 820.20202,-485.99148 821.79742,-484.65492 821.79742,-480.49148 C 821.79742,-474.25727 824.89807,-473.68107 837.5989,-477.55506 C 842.22147,-478.96503 846.13238,-479.97753 846.2898,-479.80506 C 847.03482,-478.98879 853.46894,-470.35483 854.09464,-469.33172 C 855.76907,-466.59379 853.65899,-464.99148 848.37899,-464.99148 C 844.52075,-464.99148 842.60747,-464.46317 840.98225,-462.94904 C 838.95285,-461.05837 838.89818,-460.69731 840.24653,-458.08989 C 843.29641,-452.19206 853.82234,-450.72505 858.80922,-455.50278 L 861.69459,-458.26714 L 864.496,-454.93791 C 871.09555,-447.09495 876.87804,-438.6539 876.59872,-437.27084 C 876.43229,-436.44675 872.41591,-434.22701 867.62634,-432.31205 C 862.85725,-430.40528 858.70152,-428.18394 858.39138,-427.37574 C 858.02419,-426.41885 859.07112,-425.17252 861.39278,-423.80271 C 865.11844,-421.60452 867.21739,-417.89005 866.32417,-415.07576 C 865.44316,-412.29995 860.32868,-409.99148 855.0598,-409.99148 C 852.34882,-409.99148 849.83075,-410.29148 849.46409,-410.65814 z " id="path18835"/>
    </g>
  </g>
</svg>