<?xml version="1.0" encoding="UTF-8" standalone="no"?>
<!-- Created with Inkscape (http://www.inkscape.org/) -->
<svg xmlns:dc="http://purl.org/dc/elements/1.1/" xmlns:cc="http://web.resource.org/cc/" xmlns:rdf="http://www.w3.org/1999/02/22-rdf-syntax-ns#" xmlns:svg="http://www.w3.org/2000/svg" xmlns="http://www.w3.org/2000/svg" xmlns:xlink="http://www.w3.org/1999/xlink" xmlns:sodipodi="http://sodipodi.sourceforge.net/DTD/sodipodi-0.dtd" xmlns:inkscape="http://www.inkscape.org/namespaces/inkscape" viewBox="0 45 600 313" sodipodi:version="0.32" inkscape:version="0.46dev+devel" sodipodi:docbase="C:\Documents and Settings\Usuario\Desktop" sodipodi:docname="caixa.svg" version="1.0" inkscape:output_extension="org.inkscape.output.svg.inkscape">
  <defs id="defs4">
    <linearGradient inkscape:collect="always" id="linearGradient7323">
      <stop style="stop-color:#945324;stop-opacity:1;" offset="0" id="stop7325"/>
      <stop style="stop-color:#945324;stop-opacity:0;" offset="1" id="stop7327"/>
    </linearGradient>
    <linearGradient inkscape:collect="always" id="linearGradient7313">
      <stop style="stop-color:#ffdab9;stop-opacity:1;" offset="0" id="stop7315"/>
      <stop style="stop-color:#ffdab9;stop-opacity:0;" offset="1" id="stop7317"/>
    </linearGradient>
    <linearGradient id="linearGradient1400">
      <stop id="stop1401" offset="0.0000000" style="stop-color:#000000;stop-opacity:0.67843139;"/>
      <stop id="stop1403" offset="0.56999999" style="stop-color:#000000;stop-opacity:0.32941177;"/>
      <stop id="stop1402" offset="1.0000000" style="stop-color:#000000;stop-opacity:0.00000000;"/>
    </linearGradient>
    <linearGradient y2="825.73682" x2="361.0394" y1="943.39172" x1="296.04413" gradientTransform="translate(68.78616,-290.0263)" gradientUnits="userSpaceOnUse" id="linearGradient2451" xlink:href="#linearGradient7313" inkscape:collect="always"/>
    <linearGradient y2="815.88531" x2="545.47321" y1="913.77338" x1="583.41791" gradientTransform="translate(70.10897,-289.6956)" gradientUnits="userSpaceOnUse" id="linearGradient2449" xlink:href="#linearGradient7313" inkscape:collect="always"/>
    <linearGradient y2="858.22461" x2="376.33282" y1="980.30023" x1="282.37674" gradientTransform="matrix(0.90582,0,0,0.90582,106.7965,-209.2754)" gradientUnits="userSpaceOnUse" id="linearGradient2447" xlink:href="#linearGradient7313" inkscape:collect="always"/>
    <linearGradient y2="858.74091" x2="392.85477" y1="890.97858" x1="513.16748" gradientTransform="translate(70.10897,-289.6956)" gradientUnits="userSpaceOnUse" id="linearGradient2445" xlink:href="#linearGradient7323" inkscape:collect="always"/>
    <linearGradient y2="852.50262" x2="480.66159" y1="956.45837" x1="568.80865" gradientTransform="translate(70.10897,-289.6956)" gradientUnits="userSpaceOnUse" id="linearGradient2443" xlink:href="#linearGradient7313" inkscape:collect="always"/>
    <radialGradient r="101.69169" fy="792.20251" fx="279.55154" cy="792.20251" cx="279.55154" gradientTransform="matrix(0,-0.74066,1.219434,3.798755e-8,-453.3502,791.8014)" gradientUnits="userSpaceOnUse" id="radialGradient2441" xlink:href="#linearGradient1400" inkscape:collect="always"/>
    <radialGradient inkscape:collect="always" xlink:href="#linearGradient1400" id="radialGradient2279" gradientUnits="userSpaceOnUse" gradientTransform="matrix(0,-0.74066,1.219434,3.798755e-8,-453.3502,791.8014)" cx="279.55154" cy="792.20251" fx="279.55154" fy="792.20251" r="101.69169"/>
    <linearGradient inkscape:collect="always" xlink:href="#linearGradient7313" id="linearGradient2281" gradientUnits="userSpaceOnUse" gradientTransform="translate(70.10897,-289.6956)" x1="568.80865" y1="956.45837" x2="480.66159" y2="852.50262"/>
    <linearGradient inkscape:collect="always" xlink:href="#linearGradient7323" id="linearGradient2283" gradientUnits="userSpaceOnUse" gradientTransform="translate(70.10897,-289.6956)" x1="513.16748" y1="890.97858" x2="392.85477" y2="858.74091"/>
    <linearGradient inkscape:collect="always" xlink:href="#linearGradient7313" id="linearGradient2285" gradientUnits="userSpaceOnUse" gradientTransform="matrix(0.90582,0,0,0.90582,106.7965,-209.2754)" x1="282.37674" y1="980.30023" x2="376.33282" y2="858.22461"/>
    <linearGradient inkscape:collect="always" xlink:href="#linearGradient7313" id="linearGradient2287" gradientUnits="userSpaceOnUse" gradientTransform="translate(70.10897,-289.6956)" x1="583.41791" y1="913.77338" x2="545.47321" y2="815.88531"/>
    <linearGradient inkscape:collect="always" xlink:href="#linearGradient7313" id="linearGradient2289" gradientUnits="userSpaceOnUse" gradientTransform="translate(68.78616,-290.0263)" x1="296.04413" y1="943.39172" x2="361.0394" y2="825.73682"/>
  </defs>
  <sodipodi:namedview id="base" pagecolor="#ffffff" bordercolor="#666666" borderopacity="1.0" inkscape:pageopacity="0.0" inkscape:pageshadow="2" inkscape:zoom="0.70710681" inkscape:cx="199.06724" inkscape:cy="276.35652" inkscape:document-units="px" inkscape:current-layer="layer1" inkscape:window-width="1280" inkscape:window-height="976" inkscape:window-x="-4" inkscape:window-y="24" showguides="true" inkscape:guide-bbox="true" width="600px" height="400px" units="cm"/>
  <metadata id="metadata7">
    <rdf:RDF>
      <cc:Work rdf:about="">
        <dc:format>image/svg+xml</dc:format>
        <dc:type rdf:resource="http://purl.org/dc/dcmitype/StillImage"/>
      </cc:Work>
    </rdf:RDF>
  </metadata>
  <g inkscape:label="Layer 1" inkscape:groupmode="layer" id="layer1">
    <g transform="matrix(-0.134786,-0.603324,0.712838,0,115.9323,861.1654)" id="g4084"/>
    <g id="g2261" transform="matrix(0.8954415,0,0,0.8954415,-20.382084,-124.44697)">
      <g id="g2409" transform="matrix(2.2639794,0,0,2.2639794,-816.48521,-884.93084)">
        <path transform="translate(70.10897,-287.6956)" d="M 461.96875,762.9375 C 461.15128,762.96254 460.34159,763.12636 459.5625,763.375 C 422.4208,775.28659 385.15007,786.10763 347.1875,793.46875 C 345.74294,793.74944 344.51669,794.4476 343.46875,795.28125 C 323.7197,807.04923 314.1661,823.83811 305.25,839.28125 C 303.80577,841.78089 303.71154,844.82677 304.90625,847.40625 C 306.10096,849.98577 308.50621,851.83484 311.3125,852.34375 C 321.8638,854.20778 331.77026,856.83576 341.5625,859.8125 C 341.3254,865.77755 341.06581,871.74103 340.5625,877.6875 C 340.48557,878.57006 340.49423,878.62352 340.5625,877.84375 C 340.43005,879.40144 340.25438,881.0051 340.09375,882.65625 C 339.98998,883.67967 339.9997,883.70344 340.09375,882.78125 C 340.09209,882.85416 340.09209,882.92709 340.09375,883 C 340.08082,883.22757 340.06852,883.64042 340.09375,884.09375 C 340.0988,884.18442 340.08457,884.21266 340.09375,884.3125 L 340.125,884.3125 C 340.40486,888.24574 343.32757,891.63699 347.3125,892.34375 C 374.53327,897.15266 401.32829,904.22679 427.21875,913.75 C 427.22912,913.76046 427.23954,913.77088 427.25,913.78125 C 428.20656,914.12619 429.18155,914.14721 430.125,914.15625 L 430.125,914.25 C 430.24103,914.25956 430.40965,914.21311 430.53125,914.21875 C 430.63189,914.21522 430.74448,914.25688 430.84375,914.25 C 430.15245,914.29772 430.16781,914.30686 430.90625,914.25 L 430.90625,914.15625 C 431.73512,914.16468 432.58804,914.19178 433.5625,913.875 C 470.70728,901.96243 507.94661,891.11054 545.90625,883.75 C 549.9895,882.95352 552.92171,879.31728 553,875.25 L 553.03125,875.25 C 553.0337,875.18257 553.03023,875.07743 553.03125,875 C 553.03317,874.85482 553.03854,874.7006 553.03125,874.53125 C 553.02251,874.4581 553.01209,874.38517 553,874.3125 C 553.07768,875.14299 553.08888,875.07854 553,874.125 C 552.85225,872.46688 552.68574,870.89035 552.5625,869.34375 C 552.56253,869.33333 552.56253,869.32292 552.5625,869.3125 C 552.62184,870.03455 552.63171,869.97043 552.5625,869.125 C 552.434,867.50489 552.29659,865.90893 552.1875,864.34375 C 552.23013,864.94639 552.24001,864.87169 552.1875,864.125 C 551.89311,859.87467 551.68169,855.64342 551.5,851.40625 C 562.91919,848.5897 574.37595,845.98578 585.90625,843.75 C 588.67503,843.21554 591.06418,841.35733 592.25,838.78125 C 593.4358,836.20517 593.31067,833.21826 591.90625,830.75 C 591.89588,830.73954 591.88546,830.72912 591.875,830.71875 C 581.13354,812.11401 567.85924,797.50784 549.65625,786.75 C 549.63609,786.73809 549.61392,786.73065 549.59375,786.71875 C 548.5339,785.87114 547.30593,785.14542 545.78125,784.875 C 518.55762,780.06558 491.79473,773.02245 465.90625,763.5 C 464.90965,763.12744 463.87098,762.99483 462.8125,763 C 462.70492,763.00053 462.60803,762.93313 462.5,762.9375 C 462.48954,762.94787 462.47912,762.95829 462.46875,762.96875 C 462.46157,762.96758 462.44645,762.96996 462.4375,762.96875 C 462.31155,762.95179 462.46981,762.92444 462,762.9375 C 461.98958,762.93747 461.97917,762.93747 461.96875,762.9375 z" id="path2411" style="fill:#000000;fill-opacity:1;stroke:none;stroke-width:8;stroke-linecap:round;stroke-linejoin:round;stroke-miterlimit:4;stroke-dasharray:none;stroke-opacity:1" inkscape:original="M 462.125 767.75 C 461.75348 767.76138 461.38535 767.82449 461.03125 767.9375 C 423.80642 779.87575 386.34379 790.77064 348.09375 798.1875 C 347.23191 798.35496 346.49646 798.80381 345.9375 799.40625 C 327.31919 810.50045 318.32957 826.23186 309.40625 841.6875 C 308.7549 842.81484 308.70282 844.19359 309.25 845.375 C 309.79717 846.5564 310.87517 847.39268 312.15625 847.625 C 324.24225 849.76016 335.49845 852.74957 346.59375 856.25 C 346.36738 863.54377 345.95944 870.81947 345.34375 878.09375 C 345.33922 878.14572 345.3483 878.19803 345.34375 878.25 C 345.20561 879.87462 345.03291 881.50184 344.875 883.125 C 344.86978 883.17648 344.88025 883.22977 344.875 883.28125 C 344.86369 883.48031 344.85701 883.6793 344.875 883.875 C 344.95744 885.71719 346.28998 887.294 348.15625 887.625 C 375.63964 892.48031 402.70029 899.62224 428.875 909.25 C 429.40585 909.44143 429.95382 909.50658 430.5 909.46875 C 430.51014 909.46805 430.52112 909.46953 430.53125 909.46875 C 431.05229 909.51167 431.58172 909.47895 432.09375 909.3125 C 469.31859 897.37425 506.74994 886.4481 545 879.03125 C 546.90622 878.65942 548.23832 876.97473 548.21875 875.0625 C 548.22257 874.95724 548.22332 874.85612 548.21875 874.75 C 548.21295 874.68799 548.22453 874.62451 548.21875 874.5625 C 548.07469 872.94574 547.91016 871.33649 547.78125 869.71875 C 547.77614 869.65657 547.78634 869.59343 547.78125 869.53125 C 547.65373 867.92353 547.51836 866.29601 547.40625 864.6875 C 547.40111 864.61484 547.41136 864.54141 547.40625 864.46875 C 547.06202 859.49893 546.78238 854.53642 546.59375 849.5625 C 546.59111 849.48947 546.59636 849.41678 546.59375 849.34375 C 546.57262 848.77944 546.55029 848.22058 546.53125 847.65625 C 559.28009 844.44887 572.08813 841.53492 585 839.03125 C 586.26597 838.78688 587.33587 837.95246 587.875 836.78125 C 588.41413 835.61002 588.35638 834.24563 587.71875 833.125 C 577.2722 815.03105 564.64033 801.16232 547.15625 790.84375 C 546.58259 790.22344 545.82812 789.75171 544.9375 789.59375 C 517.45411 784.73844 490.42472 777.62774 464.25 768 C 463.75101 767.81346 463.21978 767.72847 462.6875 767.75 C 462.62448 767.75272 462.56253 767.77558 462.5 767.78125 C 462.37406 767.77277 462.25234 767.74646 462.125 767.75 z " inkscape:radius="4.8013272" sodipodi:type="inkscape:offset"/>
        <path sodipodi:nodetypes="cccccsccccsc" id="path2413" d="M 532.23397,478.05443 C 531.86245,478.06581 531.49432,478.12892 531.14022,478.24193 C 493.91539,490.18018 456.45276,501.07507 418.20272,508.49193 C 416.1788,508.88519 414.78526,510.75226 414.98397,512.80443 C 417.49399,539.62808 417.59085,566.63387 414.98397,593.42943 C 414.85484,594.77171 415.41065,596.08872 416.4624,596.93264 C 417.51416,597.77656 418.9203,598.03381 420.20272,597.61693 C 457.42755,585.67867 494.85893,574.75252 533.10897,567.33568 C 535.11993,566.94342 536.50946,565.09521 536.32772,563.05443 C 533.8177,536.23078 533.72084,509.22498 536.32772,482.42943 C 536.43545,481.28876 536.04891,480.15664 535.26608,479.32003 C 534.48325,478.48341 533.37928,478.02262 532.23397,478.05443 z" style="fill:#cd853f;fill-opacity:1;stroke:none;stroke-width:8;stroke-linecap:round;stroke-linejoin:round;stroke-miterlimit:4;stroke-dasharray:none;stroke-opacity:1"/>
        <path sodipodi:nodetypes="cscsccscsccc" id="path2415" d="M 532.79647,478.05443 C 531.70622,478.10157 530.68256,478.59206 529.9627,479.41222 C 529.24284,480.23239 528.88929,481.31103 528.98397,482.39818 C 531.37751,509.2599 531.70975,536.26913 528.98397,563.02318 C 528.77203,565.10679 530.20304,567.00118 532.26522,567.36693 C 559.74861,572.22224 586.80922,579.3642 612.98397,588.99193 C 614.27048,589.45694 615.70539,589.23232 616.78826,588.39642 C 617.87113,587.56052 618.45179,586.22926 618.32772,584.86693 C 615.93418,558.0052 615.60192,530.99593 618.32772,504.24193 C 618.53966,502.15832 617.10865,500.26393 615.04647,499.89818 C 587.56308,495.04287 560.53369,487.93217 534.35897,478.30443 C 533.85998,478.11789 533.32875,478.0329 532.79647,478.05443 z" style="fill:#bb7637;fill-opacity:1;stroke:none;stroke-width:8;stroke-linecap:round;stroke-linejoin:round;stroke-miterlimit:4;stroke-dasharray:none;stroke-opacity:1"/>
        <path style="fill:url(#radialGradient2279);fill-opacity:1;stroke:none;stroke-width:8;stroke-linecap:round;stroke-linejoin:round;stroke-miterlimit:4;stroke-dasharray:none;stroke-opacity:1" d="M 532.23397,478.05443 C 531.86245,478.06581 531.49432,478.12892 531.14022,478.24193 C 493.91539,490.18018 456.45276,501.07507 418.20272,508.49193 C 416.1788,508.88519 414.78526,510.75226 414.98397,512.80443 C 417.49399,539.62808 417.59085,566.63387 414.98397,593.42943 C 414.85484,594.77171 415.40097,596.08551 416.45272,596.92943 C 417.50449,597.77333 418.9203,598.03381 420.20272,597.61693 C 457.27518,585.72754 494.55341,574.84448 532.64022,567.42943 C 559.99519,572.28337 586.92788,579.40785 612.98397,588.99193 C 614.27048,589.45694 615.7136,589.23408 616.79647,588.39818 C 617.87937,587.56229 618.45179,586.22926 618.32772,584.86693 C 615.93418,558.0052 615.60192,530.99593 618.32772,504.24193 C 618.53966,502.15832 617.10865,500.26393 615.04647,499.89818 C 587.56308,495.04287 560.53369,487.93217 534.35897,478.30443 C 533.85998,478.11789 533.32875,478.0329 532.79647,478.05443 C 532.73345,478.05715 532.6715,478.08001 532.60897,478.08568 C 532.48303,478.0772 532.36131,478.05089 532.23397,478.05443 z" id="path2417"/>
        <path sodipodi:nodetypes="cccccsccccscc" id="path2419" d="M 614.23397,500.05443 C 613.86245,500.06581 613.49432,500.12892 613.14022,500.24193 C 575.91539,512.18019 538.45277,523.07508 500.20272,530.49193 C 498.1788,530.88519 496.78526,532.75226 496.98397,534.80443 C 499.49399,561.62808 499.59085,588.63387 496.98397,615.42943 C 496.85484,616.77171 497.41065,618.08872 498.4624,618.93264 C 499.51416,619.77656 500.9203,620.03381 502.20272,619.61693 C 539.42756,607.67868 576.85891,596.75253 615.10897,589.33568 C 617.11993,588.94342 618.50946,587.09521 618.32772,585.05443 C 615.8177,558.23078 615.72081,531.22497 618.32772,504.42943 C 618.43545,503.28876 618.04891,502.15664 617.26608,501.32003 C 616.48325,500.48341 615.37928,500.02262 614.23397,500.05443 L 614.23397,500.05443 z" style="fill:#cd853f;fill-opacity:1;stroke:none;stroke-width:8;stroke-linecap:round;stroke-linejoin:round;stroke-miterlimit:4;stroke-dasharray:none;stroke-opacity:1"/>
        <path sodipodi:nodetypes="cscsccscsccc" id="path2421" d="M 418.79647,508.61693 C 417.70622,508.66407 416.68256,509.15456 415.9627,509.97472 C 415.24284,510.79489 414.88929,511.87353 414.98397,512.96068 C 417.37751,539.8224 417.70975,566.83166 414.98397,593.58568 C 414.77203,595.66929 416.20304,597.56368 418.26522,597.92943 C 445.74861,602.78474 472.80926,609.92667 498.98397,619.55443 C 500.26491,620.01635 501.69285,619.79496 502.7738,618.96687 C 503.85475,618.13878 504.44024,616.81771 504.32772,615.46068 C 501.93418,588.59896 501.60195,561.58971 504.32772,534.83568 C 504.53966,532.75207 503.10865,530.85768 501.04647,530.49193 C 473.56308,525.63662 446.53369,518.4947 420.35897,508.86693 C 419.85998,508.68039 419.32875,508.5954 418.79647,508.61693 z" style="fill:#cd853f;fill-opacity:1;stroke:none;stroke-width:8;stroke-linecap:round;stroke-linejoin:round;stroke-miterlimit:4;stroke-dasharray:none;stroke-opacity:1"/>
        <path style="fill:url(#linearGradient2281);fill-opacity:1;stroke:none;stroke-width:8;stroke-linecap:round;stroke-linejoin:round;stroke-miterlimit:4;stroke-dasharray:none;stroke-opacity:1" d="M 610.73601,506.90631 C 610.407,506.91638 610.081,506.97227 609.76742,507.07235 C 576.80221,517.64452 543.62643,527.29271 509.75332,533.86085 C 507.961,534.20911 506.72692,535.86253 506.90289,537.67987 C 505.52562,562.33412 505.75717,586.21321 506.90289,609.07898 C 506.78854,610.26766 507.28075,611.43397 508.21214,612.18132 C 509.14355,612.92867 510.38879,613.15648 511.52446,612.78731 C 544.48967,602.21515 577.63777,592.53927 611.51088,585.97113 C 613.29173,585.62376 614.52226,583.98704 614.36131,582.17978 C 612.13851,558.42555 612.05271,534.51001 614.36131,510.78068 C 614.45672,509.77053 614.11441,508.76796 613.42116,508.02708 C 612.72791,507.2862 611.75026,506.87814 610.73601,506.90631 L 610.73601,506.90631 z" id="path2423" sodipodi:nodetypes="cccccsccccscc"/>
        <path style="fill:#000000;fill-opacity:1;stroke:none;stroke-width:8;stroke-linecap:round;stroke-linejoin:round;stroke-miterlimit:4;stroke-dasharray:none;stroke-opacity:1" d="M 614.74923,500.01915 C 614.44489,500.04071 614.1432,500.10222 613.85029,500.20249 C 576.71385,512.47824 543.91846,522.81319 506.00221,529.99564 C 504.44818,530.29917 503.18816,531.62047 502.79741,533.35631 C 502.40663,535.09214 502.96011,536.90948 504.20511,537.97867 C 521.7185,552.87321 526.41913,563.35459 536.32805,584.65055 C 537.18711,586.50105 539.07695,587.40036 540.86512,586.80954 C 577.96139,574.54711 615.2198,563.42092 653.14138,556.2375 C 654.39643,556.00097 655.4834,555.0941 656.06108,553.80161 C 656.63878,552.50907 656.63635,550.98936 656.05458,549.7195 C 646.3451,528.8522 634.25206,512.77921 617.00222,500.67895 C 616.33081,500.20444 615.54526,499.9744 614.74923,500.01915 z" id="path2425" sodipodi:nodetypes="cccsccscsccc"/>
        <path style="fill:url(#linearGradient2283);fill-opacity:1;stroke:none;stroke-width:8;stroke-linecap:round;stroke-linejoin:round;stroke-miterlimit:4;stroke-dasharray:none;stroke-opacity:1" d="M 418.79647,508.61693 C 417.70622,508.66407 416.68256,509.15456 415.9627,509.97472 C 415.24284,510.79489 414.88929,511.87353 414.98397,512.96068 C 417.37751,539.8224 417.70975,566.83166 414.98397,593.58568 C 414.77203,595.66929 416.20304,597.56368 418.26522,597.92943 C 445.74861,602.78474 472.80926,609.92667 498.98397,619.55443 C 500.26491,620.01635 501.69285,619.79496 502.7738,618.96687 C 503.85475,618.13878 504.44024,616.81771 504.32772,615.46068 C 501.93418,588.59896 501.60195,561.58971 504.32772,534.83568 C 504.53966,532.75207 503.10865,530.85768 501.04647,530.49193 C 473.56308,525.63662 446.53369,518.4947 420.35897,508.86693 C 419.85998,508.68039 419.32875,508.5954 418.79647,508.61693 z" id="path2427" sodipodi:nodetypes="cscsccscsccc"/>
        <path sodipodi:nodetypes="cccsccscsccc" id="path2429" d="M 614.04647,500.05443 C 613.73815,500.08166 613.43403,500.14458 613.14022,500.24193 C 575.87508,512.19312 542.9474,522.29485 504.70272,529.71068 C 503.13557,530.02281 501.9045,531.23761 501.57155,532.80047 C 501.23859,534.36332 501.86763,535.9744 503.17147,536.89818 C 521.50715,549.76285 526.66721,559.01513 537.51522,577.80443 C 538.45585,579.43717 540.40835,580.19214 542.20272,579.61693 C 579.42756,567.67868 616.85891,556.75253 655.10897,549.33568 C 656.37494,549.09131 657.44551,548.25174 657.98464,547.08053 C 658.52377,545.90932 658.46535,544.55006 657.82772,543.42943 C 647.19805,525.01831 634.32409,510.95785 616.35897,500.58568 C 615.6596,500.17881 614.85329,499.99358 614.04647,500.05443 z" style="fill:#b16c31;fill-opacity:1;stroke:none;stroke-width:8;stroke-linecap:round;stroke-linejoin:round;stroke-miterlimit:4;stroke-dasharray:none;stroke-opacity:1"/>
        <path sodipodi:nodetypes="cscsccscsccc" id="path2431" d="M 422.64461,513.852 C 421.65704,513.8947 420.72979,514.33899 420.07772,515.08191 C 419.42566,515.82484 419.10541,516.80189 419.19117,517.78665 C 421.35929,542.11854 421.66024,566.58406 419.19117,590.81839 C 418.99919,592.70576 420.29543,594.42174 422.16339,594.75304 C 447.05839,599.15108 471.57047,605.62038 495.28004,614.3414 C 496.44035,614.75981 497.7338,614.55927 498.71295,613.80917 C 499.69209,613.05907 500.22244,611.86242 500.12052,610.6332 C 497.9524,586.30132 497.65146,561.8358 500.12052,537.60147 C 500.3125,535.71409 499.01626,533.99811 497.1483,533.66681 C 472.2533,529.26877 447.76954,522.79948 424.05995,514.07845 C 423.60796,513.90948 423.12676,513.8325 422.64461,513.852 z" style="fill:url(#linearGradient2285);fill-opacity:1;stroke:none;stroke-width:8;stroke-linecap:round;stroke-linejoin:round;stroke-miterlimit:4;stroke-dasharray:none;stroke-opacity:1"/>
        <path id="path2433" d="M 610.26522,501.14818 C 574.50859,512.58996 542.52739,522.32008 505.70272,529.52318 C 505.92206,530.5504 506.5432,531.5136 507.45272,532.14818 C 525.36768,544.53639 530.88208,553.29456 542.42147,571.11693 C 543.42234,572.66561 545.26006,573.40762 546.85897,572.89818 C 580.02852,562.32486 613.49291,552.70971 647.98397,546.39818 C 649.1256,546.19033 650.02506,545.42594 650.42147,544.33568 C 650.81789,543.24542 650.66361,541.96099 649.98397,540.89818 C 639.10814,524.10071 626.65147,511.05593 610.26522,501.14818 z" style="fill:url(#linearGradient2287);fill-opacity:1;stroke:none;stroke-width:8;stroke-linecap:round;stroke-linejoin:round;stroke-miterlimit:4;stroke-dasharray:none;stroke-opacity:1"/>
        <path style="fill:#000000;fill-opacity:1;stroke:none;stroke-width:8;stroke-linecap:round;stroke-linejoin:round;stroke-miterlimit:4;stroke-dasharray:none;stroke-opacity:1" d="M 417.30946,510.36481 C 416.63105,510.37188 416.00301,510.54699 415.47789,510.87551 C 397.19177,522.32022 390.82797,541.53124 384.4676,558.43698 C 384.01082,559.64978 384.23974,561.15724 385.08125,562.47787 C 385.92279,563.79849 387.27163,564.76703 388.6969,565.07413 C 418.96962,571.46246 431.74584,576.4189 462.2506,588.18709 C 464.35466,588.99915 466.39015,588.27005 467.07427,586.45927 C 475.91833,562.95184 483.36654,552.73854 497.48258,540.49324 C 498.86725,539.62751 499.34191,537.82961 498.66998,535.99568 C 497.99806,534.16175 496.32336,532.68434 494.48065,532.29983 C 463.94212,525.85542 449.21236,522.3424 419.04066,510.7027 C 418.46484,510.47752 417.87625,510.36265 417.30946,510.36481 z" id="path2435" sodipodi:nodetypes="cssscsccsccc"/>
        <path sodipodi:nodetypes="cssscsccsccc" id="path2437" d="M 418.79647,508.61693 C 418.15856,508.6468 417.53707,508.82896 416.98397,509.14818 C 397.72295,520.26854 388.58799,536.27743 379.51522,551.99193 C 378.86387,553.11927 378.80189,554.49306 379.34907,555.67447 C 379.89625,556.85589 380.98414,557.69711 382.26522,557.92943 C 409.4998,562.74079 432.51952,571.8201 458.98397,581.55443 C 460.80929,582.22618 462.85326,581.48772 463.82772,579.80443 C 476.4434,557.95344 483.81382,548.50269 502.85897,537.50695 C 504.31729,536.6657 505.09284,535.00145 504.79907,533.34371 C 504.50529,531.68598 503.20506,530.38958 501.54647,530.1007 C 474.07275,525.2471 446.53448,518.49499 420.35897,508.86693 C 419.85998,508.68039 419.32875,508.5954 418.79647,508.61693 z" style="fill:#b16c31;fill-opacity:1;stroke:none;stroke-width:8;stroke-linecap:round;stroke-linejoin:round;stroke-miterlimit:4;stroke-dasharray:none;stroke-opacity:1"/>
        <path style="fill:url(#linearGradient2289);fill-opacity:1;stroke:none;stroke-width:8;stroke-linecap:round;stroke-linejoin:round;stroke-miterlimit:4;stroke-dasharray:none;stroke-opacity:1" d="M 419.70728,511.82075 C 419.13099,511.84773 418.56954,512.0123 418.06986,512.30068 C 400.66939,522.34685 392.41684,536.80933 384.22047,551.00587 C 383.63204,552.02431 383.57605,553.26539 384.07037,554.33268 C 384.5647,555.39998 385.5475,556.15994 386.70483,556.36982 C 411.30864,560.71642 432.10473,568.9187 456.0128,577.71272 C 457.6618,578.31959 459.50833,577.65246 460.38866,576.13177 C 471.78571,556.39151 478.44417,547.85367 495.64962,537.92009 C 496.96707,537.1601 497.66771,535.65661 497.40231,534.159 C 497.13691,532.6614 495.96228,531.49023 494.4639,531.22926 C 469.64405,526.8445 444.76589,520.74462 421.11885,512.0466 C 420.66806,511.87808 420.18815,511.8013 419.70728,511.82075 z" id="path2439" sodipodi:nodetypes="cssscsccsccc"/>
      </g>
    </g>
    <g transform="matrix(-0.134786,-0.603324,0.712838,0,-474.53226,-459.553)" id="g8602"/>
  </g>
</svg>