<svg xmlns:rdf="http://www.w3.org/1999/02/22-rdf-syntax-ns#" xmlns="http://www.w3.org/2000/svg" height="100%" width="100%" version="1.1" xmlns:cc="http://creativecommons.org/ns#" xmlns:xlink="http://www.w3.org/1999/xlink" viewBox="250 100 400 650" xmlns:dc="http://purl.org/dc/elements/1.1/">
<rect stroke="none" fill="white" width="1000" height="1000"/>
<defs>
<radialGradient id="radialGradient3784" gradientUnits="userSpaceOnUse" cy="531" cx="465" gradientTransform="matrix(1.0039874,-0.59372004,0.54291469,0.91807503,-364.33566,624.3386)" r="188">
<stop style="stop-color:#c9ae41;stop-opacity:.9878788;" offset="0"/>
<stop style="stop-color:#bda12e;" offset=".425"/>
<stop style="stop-color:#c5b160;" offset=".712"/>
<stop style="stop-color:#cec293;" offset="1"/>
</radialGradient>
<linearGradient id="lg4165" y2="499" gradientUnits="userSpaceOnUse" y1="542" x2="413" x1="387">
<stop style="stop-color:#c4a836;" offset="0"/>
<stop style="stop-color:#cec293;" offset="1"/>
</linearGradient>
<linearGradient id="lg4167" y2="499" gradientUnits="userSpaceOnUse" y1="552" x2="413" x1="348">
<stop style="stop-color:#000;" offset="0"/>
<stop style="stop-color:#000;stop-opacity:0;" offset="1"/>
</linearGradient>
<linearGradient id="lg4212" y2="560" gradientUnits="userSpaceOnUse" y1="537" gradientTransform="translate(-1.9033495,0.19928928)" x2="416" x1="411">
<stop style="stop-color:#000;" offset="0"/>
<stop style="stop-color:#353535;" offset="1"/>
</linearGradient>
<linearGradient id="lg4248" y2="570" gradientUnits="userSpaceOnUse" x2="419" y1="562" x1="382">
<stop style="stop-color:#d2e35b;" offset="0"/>
<stop style="stop-color:#b0c44c;stop-opacity:.74545455;" offset=".163"/>
<stop style="stop-color:#f3fa7c;" offset=".335"/>
<stop style="stop-color:#2b2b2b;stop-opacity:.78787881;" offset=".499"/>
<stop style="stop-color:#fffc42;stop-opacity:.77575755;" offset="1"/>
</linearGradient>
<linearGradient id="lg4268" y2="632" gradientUnits="userSpaceOnUse" x2="544" y1="633" x1="199">
<stop style="stop-color:#a78a12;" offset="0"/>
<stop style="stop-color:#bda12e;" offset=".27"/>
<stop style="stop-color:#cec293;" offset="1"/>
</linearGradient>
<filter id="filter4332">
<feGaussianBlur id="feGaussianBlur4334" stdDeviation=".92105831"/>
</filter>
<filter id="filter4346" height="2.5723288" width="1.0182546" y="-0.78616441" x="-0.0091273076">
<feGaussianBlur id="feGaussianBlur4348" stdDeviation="1.1895486"/>
</filter>
<filter id="filter4370">
<feGaussianBlur id="feGaussianBlur4372" stdDeviation="4.3312347"/>
</filter>
<filter id="filter4424" height="1.1192191" width="2.675691" y="-0.05960956" x="-0.8378455">
<feGaussianBlur id="feGaussianBlur4426" stdDeviation="4.551484"/>
</filter>
<filter id="filter4438" height="1.6024752" width="1.0186023" y="-0.30123762" x="-0.0093011407">
<feGaussianBlur id="feGaussianBlur4440" stdDeviation="1.4665503"/>
</filter>
<filter id="filter4438-2" width="1.0186023" y="-0.30123761" x="-0.0093011409" height="1.6024752" color-interpolation-filters="sRGB">
<feGaussianBlur id="feGaussianBlur4440-9" stdDeviation="1.4665503"/>
</filter>
<filter id="filter4438-2-0" width="1.0186023" y="-0.30123761" x="-0.0093011409" height="1.6024752" color-interpolation-filters="sRGB">
<feGaussianBlur id="feGaussianBlur4440-9-4" stdDeviation="1.4665503"/>
</filter>
<filter id="filter4438-2-0-9" width="1.0186023" y="-0.30123761" x="-0.0093011409" height="1.6024752" color-interpolation-filters="sRGB">
<feGaussianBlur id="feGaussianBlur4440-9-4-1" stdDeviation="1.4665503"/>
</filter>
<filter id="filter4332-1" color-interpolation-filters="sRGB">
<feGaussianBlur id="feGaussianBlur4334-9" stdDeviation=".92105831"/>
</filter>
<linearGradient id="lg4601" y2="566" gradientUnits="userSpaceOnUse" y1="535" gradientTransform="matrix(-0.88074508,0.47359065,-0.47359065,-0.88074508,1011.2472,839.50648)" x2="411" x1="368">
<stop style="stop-color:#d2e35b;" offset="0"/>
<stop style="stop-color:#b0c44c;stop-opacity:.74545455;" offset=".199"/>
<stop style="stop-color:#f3fa7c;" offset=".335"/>
<stop style="stop-color:#2b2b2b;stop-opacity:.78787881;" offset=".549"/>
<stop style="stop-color:#fffc42;stop-opacity:.77575755;" offset="1"/>
</linearGradient>
<filter id="filter4674">
<feGaussianBlur id="feGaussianBlur4676" stdDeviation=".33477316"/>
</filter>
<radialGradient id="radialGradient4689" gradientUnits="userSpaceOnUse" cy="185" cx="474" gradientTransform="matrix(1.0796216,-0.06965425,0.0771613,0.81815687,-94.098281,136.15968)" r="135">
<stop style="stop-color:#000;" offset="0"/>
<stop style="stop-color:#828282;" offset=".614"/>
<stop style="stop-color:#727272;" offset=".745"/>
<stop style="stop-color:#393939;" offset=".94"/>
<stop style="stop-color:#000;" offset="1"/>
</radialGradient>
<linearGradient id="lg4733" y2="45.8" gradientUnits="userSpaceOnUse" y1="306" gradientTransform="matrix(1,0,0,0.8270975,33.944693,59.475572)" x2="363" x1="293">
<stop style="stop-color:#bdc2c8;stop-opacity:.88484848;" offset="0"/>
<stop style="stop-color:#41474e;stop-opacity:.37254902;" offset=".44"/>
<stop style="stop-color:#2a2e32;stop-opacity:0;" offset="1"/>
</linearGradient>
<linearGradient id="lg4775" y2="152" gradientUnits="userSpaceOnUse" y1="264" gradientTransform="matrix(1,0,0,0.8270975,4.0543439,53.926153)" x2="388" x1="291">
<stop style="stop-color:#000;stop-opacity:.68320611;" offset="0"/>
<stop style="stop-color:#2a2e32;stop-opacity:0;" offset="1"/>
</linearGradient>
<linearGradient id="lg4809" y2="184" gradientUnits="userSpaceOnUse" y1="314" gradientTransform="matrix(1,0,0,0.8270975,25.672037,52.756954)" x2="369" x1="286">
<stop style="stop-color:#000;stop-opacity:.68320611;" offset="0"/>
<stop style="stop-color:#2a2e32;stop-opacity:0;" offset="1"/>
</linearGradient>
<linearGradient id="lg4843" y2="175" gradientUnits="userSpaceOnUse" y1="277" gradientTransform="matrix(-0.91925138,0,0,0.8270975,816.23435,44.026164)" x2="342" x1="229">
<stop style="stop-color:#000;stop-opacity:.68320611;" offset="0"/>
<stop style="stop-color:#2a2e32;stop-opacity:0;" offset="1"/>
</linearGradient>
<linearGradient id="lg4877" y2="169" gradientUnits="userSpaceOnUse" y1="267" gradientTransform="matrix(-0.91925138,0,0,0.8270975,800.25734,44.350741)" x2="359" x1="261">
<stop style="stop-color:#aaaaaa;" offset="0"/>
<stop style="stop-color:#474747;stop-opacity:.2647059;" offset="1"/>
</linearGradient>
<radialGradient id="radialGradient4919" gradientUnits="userSpaceOnUse" cy="144" cx="377" gradientTransform="matrix(1.0197336,-0.13579443,0.10181114,0.76453972,-25.861609,211.12947)" r="27.3">
<stop style="stop-color:#fafafa;" offset="0"/>
<stop style="stop-color:#aaaaaa;stop-opacity:.38787878;" offset="1"/>
</radialGradient>
<linearGradient id="lg4941" y2="467" gradientUnits="userSpaceOnUse" x2="112" y1="320" x1="551">
<stop style="stop-color:#333333;" offset="0"/>
<stop style="stop-color:#fff;stop-opacity:0;" offset=".238"/>
<stop style="stop-color:#303030;" offset=".483"/>
<stop style="stop-color:#393939;stop-opacity:.87878788;" offset=".715"/>
<stop style="stop-color:#3c3c3c;stop-opacity:0;" offset="1"/>
</linearGradient>
<filter id="filter4963">
<feGaussianBlur id="feGaussianBlur4965" stdDeviation="10.612165"/>
</filter>
<linearGradient id="lg4993" y2="247" gradientUnits="userSpaceOnUse" x2="407" y1="247" x1="319">
<stop style="stop-color:#bdbdbd;stop-opacity:.01818182;" offset="0"/>
<stop style="stop-color:#f9f9f9;stop-opacity:.9939394;" offset=".331"/>
<stop style="stop-color:#bdbdbd;stop-opacity:0;" offset="1"/>
</linearGradient>
<linearGradient id="lg5019" y2="225" gradientUnits="userSpaceOnUse" y1="199" gradientTransform="translate(0.85841524,-39.174645)" x2="414" x1="408">
<stop style="stop-color:#bdbdbd;stop-opacity:.01818182;" offset="0"/>
<stop style="stop-color:#f9f9f9;stop-opacity:.9939394;" offset=".604"/>
<stop style="stop-color:#bdbdbd;stop-opacity:0;" offset="1"/>
</linearGradient>
<linearGradient id="lg5064" y2="251" gradientUnits="userSpaceOnUse" y1="265" gradientTransform="matrix(-0.65340429,0,0,1,743.93148,-2.154054)" x2="334" x1="304">
<stop style="stop-color:#bdbdbd;stop-opacity:.01818182;" offset="0"/>
<stop style="stop-color:#f9f9f9;stop-opacity:.9939394;" offset=".676"/>
<stop style="stop-color:#bdbdbd;stop-opacity:0;" offset="1"/>
</linearGradient>
<filter id="filter4424-8" width="2.6756909" y="-0.059609558" x="-0.8378455" height="1.1192191" color-interpolation-filters="sRGB">
<feGaussianBlur id="feGaussianBlur4426-0" stdDeviation="4.551484"/>
</filter>
<linearGradient id="lg5131" y2="586" gradientUnits="userSpaceOnUse" x2="541" y1="548" x1="520">
<stop style="stop-color:#000;" offset="0"/>
<stop style="stop-color:#000;stop-opacity:0;" offset="1"/>
</linearGradient>
<linearGradient id="lg5168" y2="391" gradientUnits="userSpaceOnUse" x2="442" y1="434" x1="448">
<stop style="stop-color:#ffff7a;" offset="0"/>
<stop style="stop-color:#2c2c15;stop-opacity:.42436975;" offset="1"/>
</linearGradient>
<linearGradient id="lg5182" y2="475" gradientUnits="userSpaceOnUse" x2="555" y1="375" x1="339">
<stop style="stop-color:#d7e14b;stop-opacity:.78571427;" offset="0"/>
<stop style="stop-color:#fbfada;stop-opacity:.19747899;" offset="1"/>
</linearGradient>
<linearGradient id="lg5225" y2="456" gradientUnits="userSpaceOnUse" x2="415" y1="382" x1="377">
<stop style="stop-color:#61661d;" offset="0"/>
<stop style="stop-color:#f8f379;" offset="1"/>
</linearGradient>
<linearGradient id="lg5241" y2="468" gradientUnits="userSpaceOnUse" x2="394" y1="377" x1="329">
<stop style="stop-color:#000;" offset="0"/>
<stop style="stop-color:#000;stop-opacity:0;" offset="1"/>
</linearGradient>
<linearGradient id="lg5258" y2="429" gradientUnits="userSpaceOnUse" y1="399" gradientTransform="translate(5.966269,318.03657)" x2="300" x1="291">
<stop style="stop-color:#000;" offset="0"/>
<stop style="stop-color:#000;stop-opacity:0;" offset="1"/>
</linearGradient>
<linearGradient id="lg5295" y2="437" gradientUnits="userSpaceOnUse" x2="506" y1="468" x1="540">
<stop style="stop-color:#000;" offset="0"/>
<stop style="stop-color:#000;stop-opacity:0;" offset="1"/>
</linearGradient>
</defs>

<rect width="1000" stroke="none" fill="white" height="1000"/>
<g>
<path style="filter:url(#filter4963);fill-rule:nonzero;fill:url(#lg4941);" d="m433,162c-35.3-0.153-75.3,11.4-113,49.6-38,38.4-49.4,109-57.3,109-20-2-38-4-38-4l-64,263,88,16c98.1,2.87,162,18,340-10.3,0,0-12.3-181-8.22-222,1.8-18.1-7.2-39.5-22.4-55.1-16-16-2-107-29-120-15-7-52-27-97-27zm-87.2,102c16.4-54.1,83.6-39.4,108-14.4,15.8,23.6,5.25,43.3,2.63,86.7l-141,6.57c-13.1-41.1,13.8-24.7,30.2-78.8z"/>
</g>
<g>
<path style="fill-rule:nonzero;fill:url(#radialGradient4689);" d="m303,248c44.8-122,267-122,256,7.07l-1.16,47.6c-0.185,7.58-35.9,3.83-42.7,1.52,0,0-0.112,4.09,0.31-57.5s-145-59.1-168,5.47c-11,30.8-15.8,53.7-18.8,52.6-8.7-2.96-43.8,4.08-43,1.23z"/>
<path style="fill-rule:nonzero;fill:url(#lg4733);" d="m461,190-18.6,11.4c-112,7.16-101,75.9-110,103l-12.7-0.806c5.04-20.9,3.65-120,141-114z"/>
<path style="fill-rule:nonzero;fill:url(#lg4775);" d="m389,176,17.2,1.18c-97.1,21.9-94.4,116-103,129,0,0-9.79,13.9-9.54,1.53,0.248-12.4,16.7-118,95-131z"/>
<path style="fill-rule:nonzero;fill:url(#lg4809);" d="m394,180,14.9,11.4c-87.8,20.6-84,104-91.3,117,0,0-20.8,20.2-13.6-4.23,7.21-24.4,11.7-99.3,90-124z"/>
<path style="fill-rule:nonzero;fill:url(#lg4843);" d="m433,165-7.82,11.4c61.6-8.39,132,4.9,108,135,0,0,24.5,16.4,19.6-2.01-4.85-18.4,35.7-157-120-144z"/>
<path style="fill-rule:nonzero;fill:url(#lg4877);" d="m433,174-19.2,14.2c61.6-8.39,129-0.567,110,127,0,0,18.1,15.5,13.2-4.74-4.85-20.2,32-148-104-136z"/>
<path style="opacity:.68320606;fill-rule:nonzero;fill:url(#radialGradient4919);" d="m300,275c40.4-24.1,92.2-15.8,120-2.85,31.6,11.4,17.8,22.5-12.7,15-21.2-9.22-54.1-11.8-80.2-6.1-29.7,4.31-35.3,3.62-27.3-6.08z" transform="matrix(0.97572713,-0.21898989,0.21898989,0.97572713,0,0)"/>
<path style="stroke-linejoin:miter;stroke:url(#lg4993);stroke-linecap:butt;stroke-miterlimit:4;stroke-dasharray:none;stroke-width:3;fill:none;" d="m322,300s-3.42-86.6,85.3-106"/>
<path style="stroke-linejoin:miter;stroke:url(#lg5019);stroke-linecap:butt;stroke-miterlimit:4;stroke-dasharray:none;stroke-width:3;fill:none;" d="m345,209s63.7-61.1,145-30.7"/>
<path style="stroke-linejoin:miter;stroke:url(#lg5064);stroke-linecap:butt;stroke-miterlimit:4;stroke-dasharray:none;stroke-width:3;fill:none;" d="m534,298s16.8-79.4-35.2-111"/>
</g>
<g transform="translate(0,-308.2677)">
<path style="fill-rule:nonzero;fill:url(#radialGradient3784);" d="m206,813c111-40.9,249-42.3,382,2.68l2.04,79.7c-162,22-238,20-381-3z"/>
<path style="fill-rule:nonzero;fill:url(#lg4268);" d="m265,611c115-5.21,178-4.09,322-2.04l2.3,207c-91-17-243-22-383-3z"/>
<path style="opacity:.7366412;stroke-linejoin:miter;filter:url(#filter4370);stroke:#ffff6b;stroke-linecap:butt;stroke-miterlimit:4;stroke-dasharray:none;stroke-width:1.79999995;fill:none;" d="m213,496,55.2-194c106-3.23,210-5.49,317-1.94l0.968,201" transform="translate(0,308.2677)"/>
<path style="opacity:.46183202;stroke-linejoin:miter;filter:url(#filter4332);stroke:#fff;stroke-linecap:butt;stroke-width:1px;fill:none;" d="M213,496,267,306" transform="translate(0,308.2677)"/>
<path style="stroke-linejoin:miter;stroke-opacity:.17226892;filter:url(#filter4346);stroke:#1b1d03;stroke-linecap:butt;stroke-miterlimit:4;stroke-dasharray:none;stroke-width:2;fill:none;" d="m582,305s-128-6.58-313,1.33" transform="translate(0,308.2677)"/>
<path style="stroke-linejoin:miter;stroke-opacity:.29831932;filter:url(#filter4424);stroke:#ebeb70;stroke-linecap:butt;stroke-miterlimit:4;stroke-dasharray:none;stroke-width:20.71145821;fill:none;" d="M504,493,517,310" transform="matrix(1,0,0,0.93247815,37.691689,338.68836)"/>
<path style="stroke-linejoin:miter;stroke-opacity:.80252099;filter:url(#filter4438);stroke:#fff;stroke-linecap:butt;stroke-width:1px;fill:none;" d="m206,504s174-25,379,0.761" transform="translate(0,308.2677)"/>
<path style="stroke-linejoin:miter;stroke-opacity:.80252099;filter:url(#filter4438-2);stroke:#a99502;stroke-linecap:butt;stroke-width:1px;fill:none;" d="m213,889s171,43.5,373,3.55"/>
<path style="stroke-linejoin:miter;stroke-opacity:.17226892;filter:url(#filter4438-2-0);stroke:#907f02;stroke-linecap:butt;stroke-miterlimit:4;stroke-dasharray:none;stroke-width:8.86536694;fill:none;" d="m537,888s-3.2-58.3-3.57-69.9" transform="matrix(0.45804598,0,0,1,-32.736614,0)"/>
<path style="stroke-linejoin:miter;stroke-opacity:.17226892;filter:url(#filter4438-2-0-9);stroke:#907f02;stroke-linecap:butt;stroke-miterlimit:4;stroke-dasharray:none;stroke-width:8.86536694;fill:none;" d="m537,888s-3.2-58.3-3.57-69.9" transform="matrix(0.45804598,0,0,1,338.05959,1.6850318)"/>
<path style="opacity:.46183202;stroke-linejoin:miter;stroke-opacity:.32773108;filter:url(#filter4332-1);stroke:#fff;stroke-linecap:butt;stroke-miterlimit:4;stroke-dasharray:none;stroke-width:8;fill:none;" d="M578,810,578,612"/>
<path style="stroke-linejoin:miter;stroke-opacity:.23109245;filter:url(#filter4424-8);stroke:#64640e;stroke-linecap:butt;stroke-miterlimit:4;stroke-dasharray:none;stroke-width:10.3557291;fill:none;" d="m489,494,34.9-171" transform="matrix(1,0,0,0.93247815,-252.00334,324.45671)"/>
<path style="opacity:0;stroke-width:10;" d="m431,538c0,22.5-23,40.8-51.4,40.8s-51.4-18.2-51.4-40.8c0-22.5,23-40.8,51.4-40.8s51.4,18.2,51.4,40.8z" transform="translate(0,308.2677)"/>
<path style="opacity:0;stroke-width:10;" d="m331,625c0,9.49-8.39,17.2-18.7,17.2s-18.7-7.7-18.7-17.2c0-9.49,8.39-17.2,18.7-17.2s18.7,7.7,18.7,17.2z" transform="translate(0,308.2677)"/>
<path style="opacity:0;stroke-width:10;" d="m271,613c0,11.2-4.52,22-12.6,30l-30.7-30z" transform="translate(0,308.2677)"/>
<path style="fill-rule:nonzero;fill:url(#lg5131);" d="m541,553c0,9.88-8.01,17.9-17.9,17.9-9.88,0-17.9-8.01-17.9-17.9,0-9.88,8.01-17.9,17.9-17.9,9.26,0,17,7.06,17.8,16.3" transform="matrix(0.23749995,0,0,0.23750004,377.92817,732.07511)"/>
<g style="stroke-width:1.29846144000000008;font-size:40px;font-family:Ubuntu;stroke-opacity:.61344540000000003;stroke-linejoin:miter;letter-spacing:0px;font-style:normal;word-spacing:0px;stroke:url(#lg5168);font-stretch:normal;stroke-miterlimit:1;font-variant:normal;stroke-dasharray:none;font-weight:normal;line-height:125%;fill:url(#lg5182);" transform="matrix(1,0,-0.1058413,0.85409146,0.7423155,372.71159)">
<path style="stroke-width:1.29846144;stroke-linejoin:miter;stroke-opacity:.61344540000000003;fill:url(#lg5182);stroke:url(#lg5168);stroke-miterlimit:1;stroke-dasharray:none;text-align:center;" d="m351,430c-0.472-2.28-0.968-4.46-1.49-6.55-0.518-2.09-1.03-4.05-1.53-5.88-0.471-1.87-0.938-3.56-1.4-5.07-0.464-1.52-0.894-2.85-1.29-3.98-0.261,1.8-0.519,3.79-0.776,5.98-0.222,2.15-0.465,4.36-0.729,6.64-0.232,2.28-0.465,4.57-0.698,6.88-0.2,2.28-0.392,4.46-0.578,6.55h-4.13c0.306-2.85,0.612-5.71,0.92-8.58,0.31-2.91,0.632-5.75,0.965-8.54,0.367-2.81,0.729-5.55,1.08-8.21,0.388-2.66,0.781-5.17,1.18-7.54h4.27c0.476,1.36,1.01,2.99,1.61,4.89,0.599,1.87,1.19,3.83,1.77,5.88,0.617,2.06,1.2,4.11,1.75,6.17,0.553,2.06,1.02,3.94,1.41,5.64,0.638-1.71,1.37-3.59,2.19-5.64,0.823-2.06,1.68-4.11,2.57-6.17,0.887-2.06,1.75-4.02,2.59-5.88,0.876-1.9,1.65-3.53,2.33-4.89h4.27c0.0493,2.37,0.0562,4.89,0.0206,7.54-0.004,2.66-0.0451,5.39-0.124,8.21-0.045,2.78-0.127,5.63-0.245,8.54-0.116,2.88-0.231,5.74-0.344,8.58h-4.13c0.0897-2.09,0.188-4.28,0.294-6.59,0.138-2.31,0.244-4.62,0.318-6.92,0.108-2.34,0.195-4.6,0.26-6.78,0.067-2.21,0.104-4.24,0.111-6.07-0.346,0.79-0.788,1.79-1.32,2.99-0.502,1.17-1.04,2.45-1.63,3.84-0.55,1.39-1.14,2.83-1.76,4.32-0.587,1.45-1.15,2.86-1.7,4.22-0.516,1.36-0.992,2.61-1.43,3.75-0.402,1.11-0.724,2.01-0.967,2.7h-3.65"/>
<path style="stroke-width:1.29846144;stroke-linejoin:miter;stroke-opacity:.61344540000000003;fill:url(#lg5182);stroke:url(#lg5168);stroke-miterlimit:1;stroke-dasharray:none;text-align:center;" d="m377,423c0.032,1.22,0.144,2.34,0.336,3.36,0.192,0.992,0.496,1.87,0.912,2.64,0.448,0.736,1.02,1.31,1.73,1.73,0.736,0.416,1.66,0.624,2.78,0.624,0.928,0,1.78-0.128,2.54-0.384,0.8-0.288,1.38-0.528,1.73-0.72l0.768,3.31c-0.416,0.288-1.12,0.592-2.11,0.912-0.96,0.352-2.11,0.528-3.46,0.528-1.76,0-3.25-0.32-4.46-0.96-1.18-0.64-2.16-1.54-2.93-2.69-0.736-1.15-1.26-2.53-1.58-4.13s-0.48-3.36-0.48-5.28c0-4.64,0.768-8.03,2.3-10.2,1.54-2.14,3.57-3.22,6.1-3.22,2.85,0.00002,4.86,1.07,6.05,3.22,1.18,2.14,1.78,5.15,1.78,9.02-0.00002,0.352-0.00002,0.72,0,1.1-0.00002,0.352-0.016,0.72-0.048,1.1h-12m4.18-10.9c-1.38,0.00002-2.38,0.688-3.02,2.06-0.608,1.38-0.976,3.22-1.1,5.52h7.63c-0.00001-2.34-0.24-4.18-0.72-5.52-0.48-1.38-1.41-2.06-2.78-2.06"/>
<path style="stroke-width:1.29846144;stroke-linejoin:miter;stroke-opacity:.61344540000000003;fill:url(#lg5182);stroke:url(#lg5168);stroke-miterlimit:1;stroke-dasharray:none;text-align:center;" d="m395,410c1.18-0.352,2.46-0.64,3.84-0.864,1.38-0.256,2.64-0.384,3.79-0.384,1.25,0.00002,2.38,0.176,3.41,0.528,1.02,0.32,1.89,0.88,2.59,1.68,0.736,0.8,1.3,1.89,1.68,3.26,0.416,1.34,0.624,3.02,0.624,5.04v15.2h-4.13v-14.9c-0.00002-2.5-0.32-4.32-0.96-5.47s-1.84-1.73-3.6-1.73c-0.928,0.00002-1.97,0.16-3.12,0.48v21.6h-4.13v-24.5"/>
<path style="stroke-width:1.29846144;stroke-linejoin:miter;stroke-opacity:.61344540000000003;fill:url(#lg5182);stroke:url(#lg5168);stroke-miterlimit:1;stroke-dasharray:none;text-align:center;" d="m434,421c-0.00002,1.98-0.176,3.79-0.528,5.42-0.352,1.6-0.896,2.98-1.63,4.13-0.704,1.15-1.62,2.05-2.74,2.69-1.09,0.64-2.38,0.96-3.89,0.96-1.5,0-2.82-0.32-3.94-0.96s-2.05-1.54-2.78-2.69c-0.704-1.15-1.23-2.53-1.58-4.13-0.352-1.63-0.528-3.44-0.528-5.42,0-1.95,0.176-3.74,0.528-5.38,0.352-1.63,0.88-3.02,1.58-4.18,0.736-1.18,1.66-2.1,2.78-2.74s2.43-0.96,3.94-0.96c1.5,0.00002,2.8,0.32,3.89,0.96,1.12,0.64,2.03,1.55,2.74,2.74,0.736,1.15,1.28,2.54,1.63,4.18,0.352,1.63,0.528,3.42,0.528,5.38m-4.32,0c-0.00002-1.41-0.08-2.69-0.24-3.84-0.16-1.18-0.416-2.19-0.768-3.02-0.352-0.864-0.816-1.52-1.39-1.97-0.576-0.48-1.26-0.72-2.06-0.72-0.832,0.00002-1.54,0.24-2.11,0.72-0.544,0.448-1.01,1.1-1.39,1.97-0.352,0.832-0.608,1.84-0.768,3.02-0.16,1.15-0.24,2.43-0.24,3.84-0.00001,1.41,0.08,2.7,0.24,3.89,0.16,1.15,0.416,2.14,0.768,2.98,0.384,0.832,0.848,1.49,1.39,1.97,0.576,0.448,1.28,0.672,2.11,0.672,0.8,0,1.49-0.224,2.06-0.672,0.576-0.48,1.04-1.14,1.39-1.97,0.352-0.832,0.608-1.82,0.768-2.98,0.16-1.18,0.24-2.48,0.24-3.89"/>
<path style="stroke-width:1.29846144;stroke-linejoin:miter;stroke-opacity:.61344540000000003;fill:url(#lg5182);stroke:url(#lg5168);stroke-miterlimit:1;stroke-dasharray:none;text-align:center;" d="m444,431c1.22,0,2.13-0.336,2.74-1.01,0.64-0.704,0.96-1.62,0.96-2.74-0.00001-0.704-0.128-1.3-0.384-1.78-0.256-0.512-0.592-0.96-1.01-1.34-0.416-0.384-0.896-0.72-1.44-1.01-0.544-0.32-1.09-0.656-1.63-1.01-0.544-0.32-1.07-0.688-1.58-1.1-0.512-0.448-0.976-0.944-1.39-1.49-0.384-0.576-0.704-1.22-0.96-1.92-0.224-0.736-0.336-1.58-0.336-2.54,0-2.08,0.64-3.76,1.92-5.04,1.31-1.28,3.07-1.92,5.28-1.92,0.928,0.00002,1.81,0.128,2.64,0.384,0.832,0.224,1.52,0.48,2.06,0.768l-0.912,3.31c-0.576-0.32-1.15-0.56-1.73-0.72-0.576-0.16-1.2-0.24-1.87-0.24-1.02,0.00002-1.84,0.304-2.45,0.912-0.608,0.576-0.912,1.42-0.912,2.54-0.00001,0.64,0.112,1.2,0.336,1.68,0.224,0.448,0.512,0.864,0.864,1.25,0.384,0.352,0.8,0.688,1.25,1.01,0.48,0.32,0.976,0.624,1.49,0.912,0.608,0.352,1.2,0.736,1.78,1.15,0.608,0.416,1.14,0.912,1.58,1.49,0.48,0.544,0.864,1.2,1.15,1.97,0.288,0.736,0.432,1.63,0.432,2.69-0.00002,2.21-0.656,3.98-1.97,5.33-1.28,1.34-3.17,2.02-5.66,2.02-1.28,0-2.43-0.176-3.46-0.528-1.02-0.352-1.79-0.672-2.3-0.96l0.864-3.41c0.48,0.256,1.12,0.544,1.92,0.864,0.832,0.32,1.74,0.48,2.74,0.48"/>
<path style="stroke-width:1.29846144;stroke-linejoin:miter;stroke-opacity:.61344540000000003;fill:url(#lg5182);stroke:url(#lg5168);stroke-miterlimit:1;stroke-dasharray:none;text-align:center;" d="m469,429c-0.64-2.3-1.3-4.51-1.97-6.62-0.672-2.11-1.33-4.1-1.97-5.95-0.608-1.89-1.2-3.6-1.78-5.14-0.576-1.54-1.1-2.88-1.58-4.03-0.128,1.82-0.24,3.84-0.336,6.05-0.064,2.18-0.144,4.42-0.24,6.72-0.064,2.3-0.128,4.62-0.192,6.96-0.032,2.3-0.064,4.51-0.096,6.62h-4.13c0.096-2.88,0.192-5.78,0.288-8.69,0.096-2.94,0.208-5.82,0.336-8.64,0.16-2.85,0.32-5.62,0.48-8.3,0.192-2.69,0.4-5.23,0.624-7.63h4.27c0.576,1.38,1.23,3.02,1.97,4.94,0.736,1.89,1.47,3.87,2.21,5.95,0.768,2.08,1.5,4.16,2.21,6.24,0.704,2.08,1.31,3.98,1.82,5.71,0.512-1.73,1.1-3.63,1.78-5.71,0.672-2.08,1.38-4.16,2.11-6.24,0.736-2.08,1.46-4.06,2.16-5.95,0.736-1.92,1.39-3.57,1.97-4.94h4.27c0.224,2.4,0.416,4.94,0.576,7.63,0.192,2.69,0.352,5.46,0.48,8.3,0.16,2.82,0.288,5.7,0.384,8.64,0.096,2.91,0.192,5.81,0.288,8.69h-4.13c-0.064-2.11-0.128-4.34-0.192-6.67-0.032-2.34-0.096-4.67-0.192-7.01-0.064-2.37-0.144-4.66-0.24-6.86-0.096-2.24-0.208-4.29-0.336-6.14-0.288,0.8-0.656,1.81-1.1,3.02-0.416,1.18-0.864,2.48-1.34,3.89-0.448,1.41-0.928,2.86-1.44,4.37-0.48,1.47-0.944,2.9-1.39,4.27-0.416,1.38-0.8,2.64-1.15,3.79-0.32,1.12-0.576,2.03-0.768,2.74h-3.65"/>
<path style="stroke-width:1.29846144;stroke-linejoin:miter;stroke-opacity:.61344540000000003;fill:url(#lg5182);stroke:url(#lg5168);stroke-miterlimit:1;stroke-dasharray:none;text-align:center;" d="m494,423c0.032,1.22,0.144,2.34,0.336,3.36,0.192,0.992,0.496,1.87,0.912,2.64,0.448,0.736,1.02,1.31,1.73,1.73,0.736,0.416,1.66,0.624,2.78,0.624,0.928,0,1.78-0.128,2.54-0.384,0.8-0.288,1.38-0.528,1.73-0.72l0.768,3.31c-0.416,0.288-1.12,0.592-2.11,0.912-0.96,0.352-2.11,0.528-3.46,0.528-1.76,0-3.25-0.32-4.46-0.96-1.18-0.64-2.16-1.54-2.93-2.69-0.736-1.15-1.26-2.53-1.58-4.13s-0.48-3.36-0.48-5.28c0-4.64,0.768-8.03,2.3-10.2,1.54-2.14,3.57-3.22,6.1-3.22,2.85,0.00002,4.86,1.07,6.05,3.22,1.18,2.14,1.78,5.15,1.78,9.02-0.00002,0.352-0.00002,0.72,0,1.1-0.00002,0.352-0.016,0.72-0.048,1.1h-12m4.18-10.9c-1.38,0.00002-2.38,0.688-3.02,2.06-0.608,1.38-0.976,3.22-1.1,5.52h7.63c-0.00001-2.34-0.24-4.18-0.72-5.52-0.48-1.38-1.41-2.06-2.78-2.06"/>
<path style="stroke-width:1.29846144;stroke-linejoin:miter;stroke-opacity:.61344540000000003;fill:url(#lg5182);stroke:url(#lg5168);stroke-miterlimit:1;stroke-dasharray:none;text-align:center;" d="m523,413c-0.96-0.512-1.97-0.768-3.02-0.768-0.8,0.00002-1.49,0.16-2.08,0.48-0.588,0.32-1.08,0.848-1.48,1.58-0.37,0.736-0.628,1.71-0.776,2.93s-0.165,2.72-0.0526,4.51c0.217,3.46,0.821,5.94,1.81,7.44,1.02,1.47,2.46,2.21,4.31,2.21,0.352,0,0.735-0.016,1.15-0.048,0.412-0.064,0.838-0.16,1.28-0.288l-1.13-18m-0.95-15.1,4.08-0.72,2.3,36.6c-0.872,0.384-1.88,0.688-3.01,0.912-1.14,0.256-2.3,0.384-3.48,0.384-3.46,0-6.04-1.1-7.74-3.31-1.67-2.21-2.65-5.54-2.93-9.98-0.127-2.02-0.0802-3.82,0.139-5.42,0.249-1.63,0.691-3.01,1.32-4.13,0.664-1.15,1.54-2.03,2.62-2.64,1.08-0.64,2.39-0.96,3.92-0.96,0.736,0.00002,1.37,0.08,1.89,0.24,0.552,0.128,1.09,0.32,1.62,0.576l-0.724-11.5"/>
<path style="stroke-width:1.29846144;stroke-linejoin:miter;stroke-opacity:.61344540000000003;fill:url(#lg5182);stroke:url(#lg5168);stroke-miterlimit:1;stroke-dasharray:none;text-align:center;" d="m540,434-4.13,0-1.71-25.2,4.13,0,1.71,25.2m-4.07-29.7c-0.736,0.00003-1.39-0.24-1.97-0.72-0.547-0.512-0.848-1.18-0.904-2.02-0.0564-0.832,0.155-1.49,0.635-1.97,0.509-0.512,1.13-0.768,1.87-0.768,0.736,0.00003,1.38,0.256,1.92,0.768,0.576,0.48,0.893,1.14,0.949,1.97,0.0563,0.832-0.17,1.5-0.68,2.02-0.48,0.48-1.09,0.72-1.82,0.72"/>
<path style="stroke-width:1.29846144;stroke-linejoin:miter;stroke-opacity:.61344540000000003;fill:url(#lg5182);stroke:url(#lg5168);stroke-miterlimit:1;stroke-dasharray:none;text-align:center;" d="m546,409c0.821-0.352,1.69-0.624,2.62-0.816,0.921-0.224,1.93-0.336,3.01-0.336,2.24,0.00002,4.09,0.704,5.54,2.11,1.45,1.38,2.22,3.54,2.31,6.48l0.503,16.7c-1.14,0.32-2.32,0.576-3.53,0.768-1.18,0.192-2.34,0.288-3.5,0.288-1.15,0-2.24-0.144-3.28-0.432-1-0.288-1.89-0.752-2.68-1.39-0.755-0.64-1.37-1.44-1.85-2.4-0.478-0.992-0.738-2.19-0.78-3.6-0.0395-1.31,0.118-2.45,0.473-3.41,0.386-0.992,0.922-1.81,1.61-2.45,0.684-0.672,1.5-1.17,2.45-1.49,0.949-0.352,1.98-0.528,3.1-0.528,1.06,0.00001,2.23,0.128,3.52,0.384l-0.0693-2.3c-0.0559-1.86-0.463-3.15-1.22-3.89-0.726-0.736-1.76-1.1-3.11-1.1-0.736,0.00002-1.44,0.08-2.1,0.24-0.636,0.128-1.32,0.352-2.04,0.672l-0.969-3.5m2.49,17.3c0.0443,1.47,0.461,2.56,1.25,3.26,0.789,0.704,1.89,1.06,3.3,1.06,0.864,0,1.8-0.112,2.82-0.336l-0.241-8.02c-0.968-0.256-1.92-0.384-2.84-0.384-0.608,0.00001-1.18,0.08-1.72,0.24-0.54,0.128-1.01,0.368-1.42,0.72-0.374,0.32-0.665,0.768-0.872,1.34-0.208,0.544-0.298,1.25-0.272,2.11"/>
</g>
<path style="stroke-linejoin:miter;stroke-opacity:.42436977999999997;stroke-dashoffset:30.07999819999999858;stroke:url(#lg5225);stroke-linecap:round;stroke-miterlimit:1;stroke-dasharray:none;stroke-width:2;fill:none;" d="m294,398,232-2.47,0.618,50.1-248,1.24z" transform="translate(0,308.2677)"/>
<path style="stroke-linejoin:miter;stroke:url(#lg5241);stroke-linecap:butt;stroke-miterlimit:4;stroke-dasharray:none;stroke-width:.30000000999999998;fill:none;" d="m279,446,15-48.1,232-2.54" transform="translate(0,308.2677)"/>
<path style="stroke-linejoin:miter;stroke:url(#lg5258);stroke-linecap:butt;stroke-miterlimit:4;stroke-dasharray:none;stroke-width:.30000000999999998;fill:none;" d="m305,716-4.44,0.171-7.68,28.1"/>
<path style="stroke-linejoin:miter;stroke-opacity:.3487395;stroke:#000;stroke-linecap:butt;stroke-miterlimit:1;stroke-dasharray:none;stroke-width:.40000001000000002;fill:none;" d="m331,417s5.17-8.83,13.6-2.02" transform="translate(0,308.2677)"/>
<path style="opacity:.57633589;stroke-linejoin:miter;stroke:#fff;stroke-linecap:butt;stroke-miterlimit:4;stroke-dasharray:none;stroke-width:.60000002;fill:none;" d="m430,446,96.9-1.01-0.505-49.4-11.1,0.505" transform="translate(0,308.2677)"/>
<path style="stroke-linejoin:miter;stroke:url(#lg5295);stroke-linecap:butt;stroke-miterlimit:4;stroke-dasharray:none;stroke-width:.40000001000000002;fill:none;" d="m430,447,98.6-0.624-0.624-20.6" transform="translate(0,308.2677)"/>
</g>
<g>
<path style="fill-rule:nonzero;stroke:url(#lg4167);fill:url(#lg4165);" d="m438,552a45.1,43,0,1,1,-90.2,0,45.1,43,0,1,1,90.2,0z" transform="translate(-3.0343104,-3.5408169)"/>
<path style="fill:url(#lg4212);" d="m370,545,9.38,2.61,5.88-6.66,12.1-3.13,9.01,9.01,7.05-0.392,20.7-5.76c2.48,10.8-0.884,22.1-4.25,27.3l-27-11.4-9.01-14.1-6.66,2.74-5.48,7.05-12.1-4.31z"/>
<path style="fill-rule:nonzero;fill:url(#lg4248);" d="m394,544,8.54,13.4c13.1,4.87,20.2,8.99,25.9,11.1-18.4,16.6-55,11.9-58.6-19.1l12.4,4.17c5.03-6.59,7-9.3,11.8-9.55z"/>
<path style="opacity:.29007634;fill-rule:nonzero;filter:url(#filter4674);fill:url(#lg4601);" d="m406,546-8.47-8.63c-4.69,1.72-8.66,2.35-13,3.39-0.855,0.808-3.68,5.28-5.57,5.91-1.88,0.627-6.52-2.04-8.03-1.82,11.1-33.9,53.4-29.3,62.9-4.28l-18.9,4.3c-2.37,1.76-5.41,1.3-9,1.14z"/>
</g>
<metadata>
<rdf:RDF>
<cc:Work>
<dc:format>image/svg+xml</dc:format>
<dc:type rdf:resource="http://purl.org/dc/dcmitype/StillImage"/>
<cc:license rdf:resource="http://creativecommons.org/licenses/publicdomain/"/>
<dc:publisher>
<cc:Agent rdf:about="http://openclipart.org/">
<dc:title>Openclipart</dc:title>
</cc:Agent>
</dc:publisher>
<dc:title/>
<dc:date>2014-01-28T11:26:27</dc:date>
<dc:description>A photo realistic padlock</dc:description>
<dc:source>https://openclipart.org/detail/190414/lock-3d-by-menosmedia-190414</dc:source>
<dc:creator>
<cc:Agent>
<dc:title>menosmedia</dc:title>
</cc:Agent>
</dc:creator>
<dc:subject>
<rdf:Bag>
<rdf:li>3d</rdf:li>
<rdf:li>key</rdf:li>
<rdf:li>lock</rdf:li>
<rdf:li>padlock</rdf:li>
</rdf:Bag>
</dc:subject>
</cc:Work>
<cc:License rdf:about="http://creativecommons.org/licenses/publicdomain/">
<cc:permits rdf:resource="http://creativecommons.org/ns#Reproduction"/>
<cc:permits rdf:resource="http://creativecommons.org/ns#Distribution"/>
<cc:permits rdf:resource="http://creativecommons.org/ns#DerivativeWorks"/>
</cc:License>
</rdf:RDF>
</metadata>
</svg>