<!-- Creator: CorelDRAW -->
<svg xmlns:dc="http://purl.org/dc/elements/1.1/" xmlns:cc="http://web.resource.org/cc/" xmlns:rdf="http://www.w3.org/1999/02/22-rdf-syntax-ns#" xmlns:svg="http://www.w3.org/2000/svg" xmlns="http://www.w3.org/2000/svg" xmlns:sodipodi="http://inkscape.sourceforge.net/DTD/sodipodi-0.dtd" xmlns:inkscape="http://www.inkscape.org/namespaces/inkscape" xml:space="preserve" width="176pt" height="134.39999pt" style="shape-rendering:geometricPrecision; text-rendering:geometricPrecision; image-rendering:optimizeQuality; fill-rule:evenodd; clip-rule:evenodd" viewBox="0 0 220 168" id="svg1410" sodipodi:version="0.32" inkscape:version="0.43" sodipodi:docname="Confusion.svg" sodipodi:docbase="C:\Documents and Settings\STyx\Mes documents\Mes images" version="1.0"><metadata id="metadata1429"><rdf:RDF><cc:Work rdf:about=""><dc:format>image/svg+xml</dc:format><dc:type rdf:resource="http://purl.org/dc/dcmitype/StillImage"/><dc:title>Disambig</dc:title><dc:creator><cc:Agent><dc:title>Rei-artur (rei.artur@gmail.com)</dc:title></cc:Agent></dc:creator><dc:date>27 de Dezembro 2005</dc:date><cc:license rdf:resource="http://creativecommons.org/licenses/GPL/2.0/"/></cc:Work><cc:License rdf:about="http://creativecommons.org/licenses/GPL/2.0/"><cc:permits rdf:resource="http://web.resource.org/cc/Reproduction"/><cc:permits rdf:resource="http://web.resource.org/cc/Distribution"/><cc:requires rdf:resource="http://web.resource.org/cc/Notice"/><cc:permits rdf:resource="http://web.resource.org/cc/DerivativeWorks"/><cc:requires rdf:resource="http://web.resource.org/cc/ShareAlike"/><cc:requires rdf:resource="http://web.resource.org/cc/SourceCode"/></cc:License></rdf:RDF></metadata><sodipodi:namedview inkscape:window-height="712" inkscape:window-width="1024" inkscape:pageshadow="2" inkscape:pageopacity="0.0" borderopacity="1.0" bordercolor="#666666" pagecolor="#ffffff" id="base" inkscape:zoom="2.3214286" inkscape:cx="110" inkscape:cy="59.480553" inkscape:window-x="408" inkscape:window-y="26" inkscape:current-layer="svg1410"/>
 <defs/>
<g transform="matrix(0.882325,0,0,1,15.01677,0)"><path sodipodi:nodetypes="cccccccc" class="fil1" d="M 179.40481,71.589924 C 133.58284,47.583747 117.82924,56.54763 99.547986,65.267668 C 82.222553,73.533552 63.858426,77.23477 23.544038,55.151952 L 39.73594,25.59203 C 60.031202,36.010139 78.311812,38.681452 101.29586,26.280717 C 127.48722,12.147622 161.44363,22.747015 195.59676,42.029918 L 179.40486,71.589836 L 179.40481,71.589924 z " id="path1422" style="fill:#ed1c24;fill-opacity:1"/><path sodipodi:nodetypes="cccccccc" class="fil1" d="M 39.735984,95.367252 C 85.557954,119.37343 101.31156,110.40954 119.59281,101.68951 C 136.91825,93.423624 155.28238,89.722406 195.59676,111.80522 L 179.40486,141.36514 C 159.1096,130.94704 140.82899,128.27572 117.84494,140.67646 C 91.653574,154.80955 57.697164,144.21016 23.544034,124.92726 L 39.735934,95.36734 L 39.735984,95.367252 z " id="path1324" style="fill:#0054a6;fill-opacity:1;fill-rule:evenodd"/></g><polygon style="fill:#ed1c24;fill-opacity:1" id="polygon1426" points="176.499,0 220.001,24.4005 176.499,48.651 176.499,0 " class="fil1" transform="matrix(1.204575,0.66571,-0.659295,1.192968,-28.67327,-98.33232)"/><polygon style="fill:#0054a6;fill-opacity:1;fill-rule:evenodd" id="polygon1326" points="176.499,0 220.001,24.4005 176.499,48.651 176.499,0 " class="fil1" transform="matrix(-1.204575,-0.66571,0.659295,-1.192968,248.9927,263.3773)"/>
</svg>