<svg xmlns="http://www.w3.org/2000/svg" viewBox="0 0 136 200"><g transform="translate(-187.03012,-628.69968)"><path d="m279.50054 628.86844c-10.24616 0-27.60284 5.13211-27.60284 27.19149 0 8.07638 4.94528 21.57419 5.96989 23.14124-3.86712-0.59494-17.07704 4.91426-21.93882 10.85339-11.75544-4.19716-18.54253 0.97601-18.54253 2.19388 0 2.86849 0.91749-5.43834 17.51942-0.86489-0.55112 0.73215-1.05091 1.42549-1.50829 2.09895-10.09018-2.21425-20.15347 6.80946-19.36976 8.15625 0.60272 1.03573 9.17099-8.4083 18.23062-6.37372-2.05936 3.47842-2.84783 6.50581-2.84783 10.69518 0 12.11457 9.40688 11.57062 13.3848 17.89913 3.97792 6.32851 2.95782 28.81279 1.99347 36.34673-2.71221 1.86841-2.47113 1.56705-3.3752 2.5314-0.90407 0.96434-0.78503 1.44501-2.35209 1.44501-1.56706 0-3.61479-7.59421-10.72682-7.59421-2.49977 0-5.2873 1.15302-7.84735 2.9955-1.88471-0.10907-2.42742-0.80692-6.31796-3.77601-4.58064-3.49575-21.15681-6.63289-24.71282-5.548-3.55602 1.08489-3.1959 2.46662 3.1326 3.06933 6.04311 0.57553 21.09939 6.04172 22.44512 11.78157-1.95546 2.77626-3.22755 5.91066-3.22755 8.88101 0 3.40947-10.3199 3.07156-17.22408 21.73842-6.90418 18.66685-3.15077 33.15083 8.10049 33.15083 11.25125-0.00001 8.69564-4.09243 12.44606-4.09243 3.75042 0 2.47143 3.58615 8.43801 3.58615 5.96657 0 12.01244-6.05963 14.2286-9.7248 2.21615-3.66518 4.26831-4.76518 4.60926-6.04373 0.34094-1.27855 0.25169-7.50667 1.44501-8.87046 1.19331-1.36379 5.54285-0.85494 6.05427 0.25314 0.51142 1.10807 1.14449 5.37923 4.80966 5.37923 3.66519 0 5.802-0.51886 5.71676 1.78253-0.0852 2.30139 4.56348 12.36168 14.36571 12.36168 4.00613 0 5.62407-1.445 7.49928-1.445 1.87521-0.00001 3.23204 1.19187 6.98245 1.19187 3.75042 0 17.05533-6.73735 17.05533-20.63094 0-13.89358-8.70041-23.01467-17.22409-23.01467-2.47187 0-1.8714 1.62432-5.62182 1.62432-3.75042 0-7.07106-2.64545-9.79864-1.79308 0.17047-2.64234 1.44705-15.59977-0.85435-15.59977-2.30139 0.00001-3.58412 6.22303-5.88551 6.22303-2.30139 0-2.81078-10.05376-2.29936-10.90613 0.51142-0.85236 7.83953-2.47138 14.91419 5.19993 7.07464 7.6713 8.61485 14.31297 19.35468 14.31297 10.73983 0 16.9604-6.81273 16.9604-13.20549 0-6.39276-7.50131-25.14526-21.99157-25.14526-6.81893 0-7.59421 1.10748-7.59421 1.10748-12.82011-2.05419-17.95985-0.40892-23.68971 1.18133-1.78996-1.78998-0.51683-19.96644-0.51683-19.96644 0.49241 0.18675 0.87088 0.44954 1.37118 0.5801 2.48958 0.64973 5.119 0.58367 7.04574-0.63284 0.71929 2.5305 2.04702 5.94864 4.6831 9.03921 3.21978 3.77493 8.38376 6.91917 16.24317 6.91917 22.47576 0.00001 28.88041-17.9455 24.39639-27.39188 1.52846-1.85633 2.09896-4.01847 2.09896-5.61129 0-3.66517-5.87973-6.90861-10.65299-6.90861-1.44903 0-4.77802 0.93872-4.77802 0.93872 0-8.09748-0.592-13.04004-5.70621-19.00661-5.11421-5.96658-14.41436-5.50434-14.74542-6.73986-0.33106-1.23552 3.15167-10.99164 5.45306-11.92924 2.3014-0.93761 7.58061 7.4149 19.42852 7.4149 11.84792 0 16.1166-7.24491 16.1166-12.61482 0-5.59089-10.51135-16.91821-22.44511-16.91821-3.00484-5.20454-10.84886-10.91668-21.09502-10.91668zm-10.26273 29.56468c1.81662-0.0113 5.21349 0.51382 5.80113 0.87544 0.78353 0.48218-1.75089 11.33104-1.75089 15.61032-0.96434 0-2.40332 0.30588-3.42794 0.72778-1.02461 0.4219-1.32597 1.2657-2.5314 1.2657-1.20543 0-1.7539 0.001-1.81418-7.35162 0-5.84633 0.84833-9.46865 1.14969-9.83028 0.30135-0.36163 1.08338-0.48368 1.445-1.08639 0.0904-0.15068 0.52305-0.20718 1.12859-0.21095z" style="fill:#000;stroke-width:0;stroke:#000"/><path d="m260.51502 696.19623c0-6.20797 3.01357-17.96091 13.44054-17.96091 10.42697 0 16.26391 9.7843 16.87602 20.97448 0.16256 2.97167-0.90407-0.8438-2.35059-0.8438-1.44652 0-3.13412 6.75041-0.78352 6.75041 2.35058 0 2.29031-1.14516 2.59167-1.50679 0.48729 1.8186-3.07385 10.96941-15.24869 10.96941-12.17484 0-14.52543-15.91167-14.52543-18.3828zm54.08297 9.68942c-1.13445 1.88203-4.49906 3.40947-7.51031 3.40947-3.01124 0-4.53445-1.52744-3.4-3.40947 1.13444-1.88203 4.49906-3.40947 7.51031-3.40947 3.01124 0 4.53444 1.52744 3.4 3.40947zm-34.39304-29.02312c0-0.93761 20.41421-2.94067 20.41421 23.82368 0 1.61949-3.239 0.80974-3.87828 0.0426-0.63927-0.76713-1.06546-3.57994-1.96044-3.57994-0.89499 0-0.55404 1.1507-1.19332 1.1507-0.63928 0-1.17994-0.21309-1.66211-4.94374-0.47969-4.70625-6.78667-13.10578-9.07772-14.49025-2.28956-1.38356-2.64234-1.10807-2.64234-2.00306z" fill="#fff"/><path d="m257.31887 749.27116c0 2.81282 0.25572 8.94987 0.59666 10.22842 0.34095 1.27855 5.45516-2.38663 7.92702-2.38663 2.47187 0 6.90418-0.85237 12.2741 2.89805 5.36991 3.75042 10.65459 16.96212 23.01393 16.96212 12.35932 0 12.35932-10.14318 12.35932-12.70028 0-2.55711-4.00612-21.82062-22.5025-21.82062-3.83565 0-4.1766 0.59666-1.6195 1.96045 2.55711 1.36379 10.91031 10.39888 12.10362 14.23454-5.45515-6.98941-14.74596-15.85404-26.50863-15.85404-11.76268 0-17.64402 5.71086-17.64402 6.47799zm30.8131 16.9195c1.27855-0.25571 2.13092-0.63927 2.42925-1.02283 0.29833-0.38357 0.21309 1.44902-0.63928 1.53426-0.85237 0.0852-1.91783-0.0426-1.78997-0.51143zm2.68496 2.85544c0.21309-0.76713 2.04568-1.02284 2.42925-0.80975 0.38356 0.21309-0.42619 0.55404-0.80976 0.85237-0.38356 0.29832-1.57687 0.51142-1.61949-0.0426zm3.66518 2.34401c0.38356-0.29833 0.85236-0.6819 0.9376-0.51143 0.0852 0.17048-0.12785 0.59666-0.42618 0.6819-0.29833 0.0852-0.42619-0.17047-0.51142-0.17047z" fill="#f04c54"/><path d="m261.06929 681.42269c-0.84968 1.078-6.64846-13.46741-6.64846-26.4234 0-12.95598 5.96657-23.09916 22.5025-23.09916 16.53593 0 21.5649 6.90418 21.5649 12.2741 0 5.36991-5.28467 13.63788-21.8206 13.63788-5.5404 0-12.87076-3.40947-13.38218-2.89805-0.51142 0.51142 2.21615 1.6195 2.04568 2.47186-0.17047 0.85237 0 1.02284-0.59665 1.44903-0.59666 0.42618-1.10808 0.42618-0.51142 1.19332 0.59665 0.76713-0.59666 5.02897-0.59666 12.61504 0 7.58607 1.44808 6.57236 0.85236 6.90418-0.49939 0.27816-3.19064 1.59758-3.40947 1.8752zm14.40502-6.98941c-0.68606-1.10691 1.19332-13.63788 2.5571-14.40501 1.36379-0.76714 11.08078 0.42618 17.64401-5.62563 6.56324-6.05181 5.28468-11.33649 6.56324-12.10363 1.27854-0.76712 18.92256 6.478 18.92256 14.23455 0 7.75654-5.02897 12.10362-14.23454 12.10362-9.20557 0-16.28022-8.26797-18.66685-8.26797-2.38664 0-2.25878 0.0852-2.98329-0.25571-0.72452-0.34095 0 0.17048 0 1.23594 0 1.06545-5.64619 13.88592-6.22229 13.2117-0.58562-0.68538-3.36511 0.21876-3.57994-0.12786z" fill="#b45d27"/><path d="m257.97306 681.51107c2.87437-0.11438-0.0527 8.47065-0.0527 14.14422 0 6.05181 5.44829 20.7997 17.46668 20.7997 12.01839 0 15.25652-8.60474 16.87602-10.90614 1.6195-2.30138 5.28661-2.13776 4.00806 0.67504-1.27856 2.81282-1.61908 9.29236 8.35363 9.29236 4.4121 0.00001 7.47983-1.36461 9.57714-3.05877 3.48605 7.93266-1.56097 24.06942-22.77208 24.06942-7.32902 0-11.80547-2.8151-14.70323-6.21249-2.89777-3.39738-4.15078-7.4269-4.67255-9.7459l-0.46409-2.04621-1.31844 1.62431c-1.16419 1.43912-3.63448 1.81562-6.30741 1.11804-2.67293-0.69757-5.35205-2.45463-6.61329-4.60926-2.50127-2.6188 2.19991-12.62387-0.21096-13.64849-2.41085-1.02461-3.49875 1.62885-3.43848-1.445 0.0603-3.07385-1.50227-3.98244-1.80363-0.72778-0.30135 3.25466 1.08489 3.49424 2.10951 3.97641-1.3638 5.11775-1.1091 70.58396 7.04573 70.58396 4.94226 0 10.01411-7.4797 10.73737-6.87698 0.72326 0.60271-1.08941 10.49477-1.57158 11.33857-0.48217 0.84381-6.38426 5.78305-6.02263 6.26522 0.36164 0.48218 5.42293-4.70419 9.03922-4.70419 3.61629 0 15.54703 0.96886 15.54703 17.6038 0 16.63493-4.10298 18.67965-4.94678 18.67965-0.84381 0 0.36464-7.59421-0.35861-7.59421-0.72326 0-0.11904 11.4546-8.19542 11.4546-8.07638 0-15.16771-12.55595-11.21201-19.40742 0.9939-1.72149-0.63783-1.39807-1.44501 0-0.80717 1.39806-3.37972 5.17883-7.47818 5.17883-4.09847 0-6.14619-8.43049-2.28882-12.28786 1.08489-1.08488-0.11752-1.57008-1.20241-0.48519-1.32597 1.32598-1.32899 4.45708-3.01659 5.42142-1.6876 0.96436-11.1442 2.89153-12.53044 2.28882-1.38624-0.60271 0.30286-4.33503-0.60121-4.33503-0.90407 0-2.05224 11.6339-11.4546 11.6339-9.40236 0-5.00404-14.40338-2.774-16.63343 1.11502-1.11501 0.003-2.29182-1.62431-0.66449-1.41638 1.41638-6.80917 12.7203 0.66449 18.20501-2.04923 4.39981-4.5279 12.70975-7.96337 12.70975-3.43547 0.00001 1.14967-3.18987 1.14967-6.44452 0-3.25467 0.17781-6.87698-1.75088-0.12658-1.92869 6.75042-3.7956 9.94631-9.46112 9.94631-5.66552 0.00001-9.58768-6.99301-9.58768-13.32151 0-6.3285 7.72228-35.67169 23.15178-35.67169 3.37521 0 1.65747 1.59268 3.16425 1.59268 1.5068 0 3.73081-6.53946 1.56104-6.53946-2.16978 0-0.0904 2.89002-1.89856 2.89002-1.80814-0.00001-3.06932-1.20091-3.06932-3.06933 0-1.86842 4.63488-12.7203 12.10855-12.7203 10.18587 0 9.28331 11.09598 10.3682 11.09598 1.08488 0.00001 2.04923-4.88349 3.7971-4.88349 1.74788 0-1.31843 6.99149-0.0527 7.5942 1.26571 0.60273 5.08932-6.702 5.60074-19.9137 0.51142-13.2117 2.04343-26.16345-1.87746-30.85147-3.9209-4.68803-13.04727-5.71172-13.04727-16.70727 1.45153-11.45358 13.8991-24.08392 25.46169-24.54406zm-20.28286 96.40427c-3.68322 0-7.64772 4.15329-8.85991 9.28181-1.2122 5.12853 0.78892 9.29236 4.47214 9.29236 3.68322 0 7.65827-4.16383 8.87046-9.29236 1.2122-5.12852-0.79947-9.28181-4.48269-9.28181zm-7.38326 32.39141c1.40665 0.004 4.16627 3.52967 4.16627 6.00153 0 2.72758-2.68159 6.993-5.57963 6.993-1.27856 0 1.2355-5.07876 0.0422-5.59018-1.19331-0.51142-3.15596 7.03519-5.03116 7.03519-1.87521 0-5.15731-0.38549-5.19993-4.00805 0-2.00306 2.73138-5.49295 2.774-6.7715 0.0426-1.27855-0.13032-3.06435 2.34154-2.51031 2.47187 0.55404 4.90315-0.17075 6.09647-1.02311 0.11187-0.0799 0.24474-0.12701 0.39026-0.12657zm55.94982-27.66539c2.99609-1.66093 17.1752 0.98023 17.1752 18.19805 0 11.08078-5.1142 15.68357-6.0518 15.59833-0.93761-0.0852 0.85237-5.62562 0.34095-5.88133-0.51142-0.25572-3.83566 10.65459-8.69416 10.65459-3.32423 0-3.75041-1.53426-2.47186-3.06852 1.27855-1.53426 4.94373-6.81894 4.94373-18.83733 0-14.02156-6.23668-16.1124-5.24206-16.66379zm-0.54825-58.20793c-0.24109-0.60272-0.30136-3.88752 0.0603-2.98344 0.36163 0.90407 0.39177 3.73683-0.0603 2.98344zm2.65785-1.08168c-0.22063-0.36293-0.27578-2.3409 0.0552-1.79651 0.33094 0.5444 0.35852 2.25018-0.0552 1.79651z" fill="#fcf5a8"/></g></svg>