<svg xmlns="http://www.w3.org/2000/svg" viewBox="0 0 900 442" stroke="none">
  <g transform="translate(829.26508,-396.68394)">
    <g transform="matrix(0.75102928,0,0,0.75102928,-206.46272,208.69192)">
      <path d="m -579.8125,250.3125 c -0.23801,124.86058 -49.76188,107.41124 -41.4375,234.34375 -100.44001,-19.22896 -137.41762,83.32173 -197.96875,65.65625 -3.71288,-1.08321 -17.25181,1.79126 -5.0625,9.09375 102.80409,61.58888 209.25467,25.38899 249.5,13.125 8.78037,26.86166 256.41794,214.19426 466.6875,229.3125 23.267537,1.67292 46.577312,2.76034 69.65625,3.1875 0.663876,7.94859 0.08159,18.51827 -2.46875,33.1875 l 30.125,-33 c 184.4522,-1.15269 347.31185,-51.84095 350.1875,-214.05628 4.604,-0.41031 9.15633,1.00181 12.625,1.08753 5.9098,0.14605 9.4076,-0.68288 12.125,-6.59375 7.41822,-16.13604 9.24718,-59.7943 -14.65625,-65.125 -0.90281,-10.38604 -6.98929,-60.60673 -35.34375,-56.0625 -4.59407,0.73627 -8.69455,2.19587 -12.625,3.90625 -1.34718,-2.0576 -2.7458,-4.09557 -4.15625,-6.125 9.53822,-12.27915 16.81922,-29.76487 19.625,-49.59375 5.66417,-40.02948 -9.05848,-74.49588 -32.90625,-77 -11.60288,-1.21835 -23.22283,5.37838 -32.75,17.0625 -8.53944,-15.70831 -20.99655,-25.65625 -34.90625,-25.65625 -15.93425,0 -30.00137,13.01361 -38.40625,32.84375 -73.55516,-38.57852 -163.906407,-55.60669 -252.71875,-38.6875 -25.99911,4.95296 -49.1711,12.5719 -70.09375,22.0625 -42.51557,-34.2409 -111.12085,-73.86865 -208.78125,-80.84375 24.65409,25.56195 25.33344,44.96691 -2.53125,57.0625 14.83055,3.24962 29.40235,55.25276 -14.125,58.09375 31.46046,36.4617 0.88605,58.46437 -14.65625,60.59375 26.59862,20.99625 18.3674,54.0907 -11.09375,59.09375 19.89832,16.99075 14.87207,31.61089 11.71875,46.40625 -33.70061,13.1205 -73.35443,7.71327 -128.90625,-30.75 26.56294,-101.48549 -19.49649,-182.20313 -66.65625,-262.625 z" style="fill:#000"/>
      <path d="m 56.0625,293.875 c 40.043714,-20.70942 59.1429,8.63771 71.53125,43.96875 2.82764,1.00959 5.64261,2.05537 8.4375,3.125 C 123.42462,293.21308 91.59052,265.21707 56.0625,293.875 z" style="fill:#9dbbbf"/>
      <path d="m 216.4375,332.625 c -23.84988,0 -43.1875,31.44527 -43.1875,70.21875 0,38.77348 19.33762,70.1875 43.1875,70.1875 23.84988,0 43.15625,-31.41402 43.15625,-70.1875 0,-38.77348 -19.30637,-70.21875 -43.15625,-70.21875 z m 64.75,8.96875 C 271.35479,341.4002 261.61895,347.18984 253.5,357 c 5.95307,12.73066 9.5,28.61406 9.5,45.84375 0,24.26157 -7.00256,45.82675 -17.90625,59.6875 5.14966,6.87584 11.73934,11.23266 19.34375,12.03125 21.85492,2.29513 43.77791,-25.59247 48.96875,-62.28125 5.19084,-36.68878 -8.33258,-68.26737 -30.1875,-70.5625 -0.68297,-0.0717 -1.34866,-0.11156 -2.03125,-0.125 z M 225.78125,369.625 c 11.15784,0 20.1875,14.66499 20.1875,32.71875 0,18.05376 -9.02966,32.6875 -20.1875,32.6875 -11.15784,0 -20.21875,-14.63374 -20.21875,-32.6875 0,-18.05376 9.06091,-32.71875 20.21875,-32.71875 z m 59.09375,7.6875 c 8.36838,0 15.125,11.76462 15.125,26.28125 0,14.51663 -6.75662,26.28125 -15.125,26.28125 -8.36838,0 -15.15625,-11.76462 -15.15625,-26.28125 0,-14.51663 6.78787,-26.28125 15.15625,-26.28125 z" style="fill:#9dbbbf"/>
      <path d="m 177.15625,373.625 c -2.50861,8.89719 -3.90625,18.79094 -3.90625,29.21875 0,6.36451 0.52366,12.51265 1.5,18.375 L 234.34375,405.375 c 0,0 -41.05115,-22.35757 -57.1875,-31.75 z m 85.125,16.09375 c 0.45792,4.2658 0.71875,8.64605 0.71875,13.125 0,3.62039 -0.16711,7.17159 -0.46875,10.65625 l 29.40625,-7.625 c 0,0 -14.34407,-7.81378 -29.65625,-16.15625 z" style="fill:#f9f9f9"/>
      <path d="m -577.3125,263.9375 c 0,0 -0.0219,36.55968 -3.75,59.46875 28.08657,46.56182 41.73357,86.47207 48.40625,118.65625 6.18727,29.84288 6.37486,52.99252 6.59375,68.5 2.24944,0.0199 4.5298,0.1317 6.84375,0.34375 0,0 11.82272,-55.03145 8.59375,-87.375 -5.72756,-57.37123 -66.6875,-159.59375 -66.6875,-159.59375 z m -5.1875,66.78125 c -3.23027,13.41158 -9.84435,25.78353 -16,38.28125 32.47784,46.27147 55.93957,95.94322 59.96875,142.5625 2.42703,-0.41166 4.91796,-0.69737 7.46875,-0.84375 -0.23207,-15.61304 -0.39636,-38.18546 -6.5,-67.625 -6.33804,-30.57011 -19.04327,-68.32334 -44.9375,-112.375 z M -601,374.1875 c -4.08429,8.60969 -7.70425,17.35801 -9.625,26.625 -1.48956,7.18664 -2.4132,16.25845 -2.9375,25.84375 22.17532,24.30922 42.15806,50.31214 58.96875,90.125 3.45791,-1.7928 7.17568,-3.20738 11.125,-4.21875 -3.7332,-44.67562 -26.10305,-93.01537 -57.53125,-138.375 z m 580.8125,48.84375 c -9.284227,18.63678 -14.059099,39.38745 -53.59375,44.0625 L 51.40625,566 c 1.49841,-5.83111 3.205941,-11.74642 5.15625,-17.71875 l -76.75,-125.25 z m -593.6875,10.75 c -0.9772,27.48028 0.71875,56.4375 0.71875,56.4375 0,0 -25.62314,-5.03151 -54.625,0.375 28.2261,19.50399 54.89335,35.74199 96.1875,41.75 3.35029,-5.33409 7.62204,-9.68256 12.65625,-13.03125 -15.74754,-37.51148 -34.23026,-62.42704 -54.9375,-85.53125 z M -77.53125,470.5 c 1.691783,30.55608 -18.916261,48.75671 -37.8125,67.875 L 48.0625,580.90625 c 0.604696,-3.17287 1.277326,-6.37425 2.03125,-9.59375 L -77.53125,470.5 z M -674.5,492 c -6.66212,1.60976 -13.39206,3.82393 -19.96875,6.8125 -7.56785,3.43897 -14.63057,7.87373 -21.4375,12.78125 39.48888,17.341 82.59628,33.89263 138.8125,33.09375 0.7939,-2.73964 1.79349,-5.28684 2.9375,-7.6875 -43.10747,-6.67314 -70.84981,-24.48047 -100.34375,-45 z m -46.03125,23.03125 c -10.86304,8.24544 -21.23891,17.3642 -32.28125,25.125 45.01954,15.23498 99.21407,26.52212 173.3125,20.59375 0.12486,-3.9184 0.54621,-7.58689 1.21875,-11.03125 -57.87195,0.55737 -102.17688,-16.99497 -142.25,-34.6875 z M -116.3125,543.25 c 5.8934,20.67956 11.67403,41.3813 -10.1875,71.3125 l 171.28125,9.09375 c -0.63832,-12.15425 0.201574,-24.77958 2.375,-37.8125 L -116.3125,543.25 z M -758,543.6875 c -7.17561,4.63162 -14.69328,8.55097 -22.84375,11.1875 -12.83091,4.15057 -40.40625,2 -40.40625,2 0,0 62.20965,34.09875 133.34375,34.34375 36.91376,0.12714 108.59375,-21.71875 108.59375,-21.71875 -0.088,-1.26987 -0.15264,-2.49158 -0.1875,-3.71875 -76.56425,6.06243 -132.42689,-6.14448 -178.5,-22.09375 z m 632.625,75.9375 c 21.92382,20.3329 27.464274,40.6671 17.8125,61 L 47.5,644.59375 C 46.400823,639.39167 45.629705,634.08512 45.15625,628.6875 L -125.375,619.625 z m 174,29.84375 -155.15625,36.0625 c 17.892962,12.98142 36.075201,25.33237 42.40625,63.75 L 53.75,665.125 c -2.072327,-5.11303 -3.772135,-10.31838 -5.125,-15.65625 z m 7.15625,20.375 -117.34375,83.75 c 27.54986,16.63382 33.294847,42.58451 25.1875,74.5 L 65.15625,686.6875 c -3.636044,-5.45245 -6.742408,-11.07772 -9.375,-16.84375 z" style="fill:#b8447f"/>
      <path d="m 315.34375,468.96875 c -2.06231,0.072 -3.99435,0.45051 -5.71875,1.03125 -138.62301,46.68526 -154.5373,106.54994 -174.25,163.65625 27.36237,-36.43381 73.09147,-114.73447 203.03125,-113.125 4.71477,-14.47885 2.63038,-23.51755 -5.0625,-39.40625 -4.6705,-9.64635 -11.81308,-12.37224 -18,-12.15625 z M 136.875,634.65625 c 65.62922,-24.7519 121.88507,-60.7622 219.21875,-47.46875 7.22073,-16.16683 12.11163,-40.5819 -6.74378,-58.93439 C 232.26039,520.64418 170.71804,586.40619 136.875,634.65625 z" style="fill:#c4bb5c"/>
      <path d="m 40.406102,295.25285 c 0,0 18.200433,-12.17438 27.274119,-9.09137 14.811264,5.03249 23.713232,24.59958 28.789347,39.39595 16.154892,47.0899 6.703502,164.93163 91.418802,180.31223 6.82745,1.23957 11.38757,-7.66349 2.02031,-11.11168 -70.46698,-25.9397 -61.89272,-103.84011 -85.35789,-172.73609 -5.882472,-17.2715 -18.436557,-37.5257 -36.365493,-40.91118 -10.210182,-1.92796 -27.779195,14.14214 -27.779195,14.14214 z" style="fill:#9dbbbf"/>
      <path d="m -335.875,273.53125 c 9.91893,17.18352 6.6537,32.03968 -3.46875,45.6875 66.93274,14.24412 106.1947,32.67941 142.25,54.34375 13.84734,-9.86969 28.82948,-19.00003 45.25,-26.96875 -21.64389,-19.93552 -95.97898,-70.17288 -184.03125,-73.0625 z M -341.0625,324 c 11.14984,18.77226 9.35639,41.85921 -9.25,56.4375 12.03107,0.92731 30.18611,3.88808 50.125,9.59375 18.41492,5.26957 38.18904,12.912 55.625,23.5625 13.16621,-12.81202 27.38708,-25.3055 43.09375,-36.875 C -236.82677,355.62866 -275.33011,337.91071 -341.0625,324 z m -12.53125,61.25 c 4.28714,19.40741 5.82117,38.64939 -12.34375,52.78125 26.74023,3.68178 55.1112,8.23097 83.65625,15.375 10.71114,-11.94508 21.93401,-24.19274 34.0625,-36.21875 -16.65166,-9.97654 -35.62875,-17.27447 -53.34375,-22.34375 -21.26056,-6.08387 -40.79789,-8.96389 -52.03125,-9.59375 z m -15.03125,57.46875 c 10.04519,18.18762 17.40068,37.30486 -11.28125,57.90625 15.66193,1.22671 32.34007,3.06713 48.875,5.65625 14.6796,-14.33072 29.3208,-31.1175 45,-48.6875 -28.1307,-6.88138 -56.13946,-11.26382 -82.59375,-14.875 z m -10.25,63 c 5.47164,7.19558 5.47339,19.38197 2.03125,34.75 14.47176,-6.95377 27.94471,-17.29244 41.25,-29.78125 -14.6459,-2.19573 -29.35025,-3.84275 -43.28125,-4.96875 z M -561.65625,529.875 c -16.69914,14.7096 -13.6749,28.00016 -12.125,41.40625 129.05866,123.89992 354.05064,217.21443 475.8125,223.53125 20.767307,1.07738 40.465044,1.65045 59.1875,1.78125 -0.83336,-13.13351 -7.147071,-26.33713 -30.15625,-41.03125 -6.014044,-25.84521 -15.22564,-41.94458 -24.03125,-52.4375 -237.87006,-35.12717 -409.46346,-129.29891 -468.6875,-173.25 z M 298.8125,699.40625 c -86.67921,14.53004 -169.50094,19.09725 -247.25,16.625 l -56.71875,80.3125 c 201.61572,-4.61974 275.66105,-64.05379 303.96875,-96.9375 z" style="fill:#8264a7"/>
    </g>
  </g>
</svg>