<svg xmlns:rdf="http://www.w3.org/1999/02/22-rdf-syntax-ns#" xmlns="http://www.w3.org/2000/svg" viewBox="0 -10 158 170" xmlns:cc="http://creativecommons.org/ns#" xmlns:xlink="http://www.w3.org/1999/xlink" xmlns:dc="http://purl.org/dc/elements/1.1/"><defs><linearGradient id="linearGradient3947">
<stop id="stop3949" style="stop-color:#9198a0;" offset="0"/>
<stop id="stop3951" style="stop-color:#f0f1f2;" offset="0.598"/>
<stop id="stop3953" style="stop-color:#808792;" offset="1"/>
</linearGradient>
<linearGradient id="linearGradient3904">
<stop id="stop3906" style="stop-color:#ffffff;" offset="0"/>
<stop id="stop3908" style="stop-color:#767f88;" offset="1"/>
</linearGradient>
<linearGradient id="linearGradient3820">
<stop id="stop3822" style="stop-color:#9198a0;" offset="0"/>
<stop id="stop3828" style="stop-color:#f0f1f2;" offset="0.381"/>
<stop id="stop3824" style="stop-color:#808792;" offset="1"/>
</linearGradient>
<filter id="filter3812" height="1.1269674" width="1.4635428" color-interpolation-filters="sRGB" y="-0.063483723" x="-0.23177138">
<feGaussianBlur id="feGaussianBlur3814" stdDeviation="8.8035856"/>
</filter>
<filter id="filter3816" height="1.122377" width="1.4453954" color-interpolation-filters="sRGB" y="-0.0611885" x="-0.22269768">
<feGaussianBlur id="feGaussianBlur3818" stdDeviation="8.7646752"/>
</filter>
<filter id="filter3838" color-interpolation-filters="sRGB">
<feGaussianBlur id="feGaussianBlur3840" stdDeviation="3.0795785"/>
</filter>
<filter id="filter3874" height="1.1676741" width="1.996371" color-interpolation-filters="sRGB" y="-0.083837047" x="-0.49818552">
<feGaussianBlur id="feGaussianBlur3876" stdDeviation="11.621745"/>
</filter>
<filter id="filter3890" height="1.0794889" width="1.3229235" color-interpolation-filters="sRGB" y="-0.03974444" x="-0.16146179">
<feGaussianBlur id="feGaussianBlur3892" stdDeviation="5.7947757"/>
</filter>
<filter id="filter3969" height="1.251895" width="1.3335907" color-interpolation-filters="sRGB" y="-0.12594752" x="-0.16679536">
<feGaussianBlur id="feGaussianBlur3971" stdDeviation="0.98625478"/>
</filter>
<filter id="filter4111" color-interpolation-filters="sRGB">
<feGaussianBlur id="feGaussianBlur4113" stdDeviation="3.6257588"/>
</filter>
<filter id="filter4159" height="1.1816273" width="1.6020882" color-interpolation-filters="sRGB" y="-0.090813644" x="-0.30104411">
<feGaussianBlur id="feGaussianBlur4161" stdDeviation="2.8079362"/>
</filter>
<filter id="filter4745" color-interpolation-filters="sRGB">
<feGaussianBlur id="feGaussianBlur4747" stdDeviation="2.6613752"/>
</filter>
<filter id="filter4783" height="1.4513614" width="1.2280316" color-interpolation-filters="sRGB" y="-0.22568072" x="-0.11401578">
<feGaussianBlur id="feGaussianBlur4785" stdDeviation="12.182928"/>
</filter>
<linearGradient id="linearGradient6999" y2="103" spreadMethod="reflect" gradientUnits="userSpaceOnUse" x2="-717" y1="96.8" x1="-915">
<stop id="stop4241" style="stop-color:#c5cacd;" offset="0"/>
<stop id="stop4243" style="stop-color:#c5cacd;stop-opacity:0;" offset="1"/>
</linearGradient>
<radialGradient id="radialGradient7001" xlink:href="#linearGradient3904" gradientUnits="userSpaceOnUse" cy="198" cx="-945" gradientTransform="matrix(0.38681907,0.01508082,-0.03018628,1.6234307,-499.16312,-49.066907)" r="39.5"/>
<radialGradient id="radialGradient7003" xlink:href="#linearGradient3904" gradientUnits="userSpaceOnUse" cy="208" cx="-867" gradientTransform="matrix(1,0,0,0.98611105,0,2.8930047)" r="39.5"/>
<radialGradient id="radialGradient7005" xlink:href="#linearGradient3947" gradientUnits="userSpaceOnUse" cy="203" cx="-986" gradientTransform="matrix(0.29570316,0.00406633,-0.00475749,1.6152893,-599.36677,-59.34577)" r="39.5"/>
<radialGradient id="radialGradient7013" xlink:href="#linearGradient3820" gradientUnits="userSpaceOnUse" cy="444" cx="-685" gradientTransform="matrix(1,0,0,0.34229858,0,271.53287)" r="145"/></defs><metadata><rdf:RDF><cc:Work rdf:about=""><dc:format>image/svg+xml</dc:format><dc:type rdf:resource="http://purl.org/dc/dcmitype/StillImage"/><dc:title/></cc:Work></rdf:RDF></metadata><rect width="200" stroke="none" fill="white" height="200"/>
<g transform="translate(-65.294365,-61.984547)"><g><path id="path4749" style="opacity:0.94276093;enable-background:accumulate;fill-rule:nonzero;color:#000000;filter:url(#filter4783);fill:#1a1a1a;" d="m-550,480c0,35.8-57.4,64.8-128,64.8-70.8,0-128-29-128-64.8s57.4-64.8,128-64.8c70.8,0,128,29,128,64.8z" transform="matrix(0.28705769,0,0,0.24219921,325.27994,80.746477)"/>
<path id="path2996" style="enable-background:accumulate;fill-rule:nonzero;color:#000000;fill:url(#linearGradient6999);" d="m-500,96.8c0,46.1-92.9,83.5-208,83.5s-208-37.4-208-83.5,92.9-83.5,208-83.5,208,37.4,208,83.5z" transform="matrix(0.29237357,0,0,0.3078316,336.76446,59.685273)"/>
<g id="g3973" transform="matrix(0.28705769,0,0,0.28705769,325.27994,63.430559)">
<path id="path3790" d="m-883,319c10.3,0,18.7-25.1,18.7-56s-8.38-56-18.7-56c-1.75,0-4.44,8.52-6.04,9.87,8.88,4.11,14.5,21.3,14.5,45.5,0,25.7-6.53,46.7-14.7,45.5,1.98,2.13,4.1,11.1,6.33,11.1z" style="enable-background:accumulate;fill-rule:nonzero;color:#000000;fill:url(#radialGradient7001);"/>
<path id="path3894" style="enable-background:accumulate;color:#000000;fill:#ffffff;" d="m-827,208c0,21.5-17.7,39-39.5,39s-39.5-17.5-39.5-39,17.7-39,39.5-39,39.5,17.5,39.5,39z" transform="translate(6.5899814,2.1966605)"/>
<path id="path3781" style="opacity:0.52188553;enable-background:accumulate;color:#000000;fill:url(#radialGradient7003);" d="m-827,208c0,21.5-17.7,39-39.5,39s-39.5-17.5-39.5-39,17.7-39,39.5-39,39.5,17.5,39.5,39z" transform="translate(6.5899814,2.1966605)"/>
<path id="path3955" style="enable-background:accumulate;fill-rule:nonzero;color:#000000;filter:url(#filter3969);fill:#333333;" d="m-875,214c0,5.19-3.18,9.4-7.1,9.4s-7.1-4.21-7.1-9.4,3.18-9.4,7.1-9.4,7.1,4.21,7.1,9.4z" transform="translate(-1.9177177,-1.1506306)"/>
<path id="path3783" style="enable-background:accumulate;fill-rule:nonzero;color:#000000;fill:url(#radialGradient7005);" d="m-885,321c-11.4,0-20.6-25.5-20.6-56.9s9.22-56.9,20.6-56.9c1.93,0,3.78,0.729,5.55,2.1,1.46,5.24-1.97,5.77-6.68,10.5-8.22,8.24-8.13,26.4-8.13,43.7,0,26.1,7.55,47.5,16.2,54.2-2.18,2.17-4.51,3.35-6.96,3.35z"/>
</g>
<g id="g3980" transform="matrix(-0.28705769,0,0,0.28705769,-64.850407,63.430559)">
<path id="path3982" style="enable-background:accumulate;fill-rule:nonzero;color:#000000;fill:url(#radialGradient7007);" d="m-883,319c10.3,0,18.7-25.1,18.7-56s-8.38-56-18.7-56c-1.75,0-4.44,8.52-6.04,9.87,8.88,4.11,14.5,21.3,14.5,45.5,0,25.7-6.53,46.7-14.7,45.5,1.98,2.13,4.1,11.1,6.33,11.1z"/>
<path id="path3984" style="enable-background:accumulate;color:#000000;fill:#ffffff;" d="m-827,208c0,21.5-17.7,39-39.5,39s-39.5-17.5-39.5-39,17.7-39,39.5-39,39.5,17.5,39.5,39z" transform="translate(6.5899814,2.1966605)"/>
<path id="path3986" style="opacity:0.52188553;enable-background:accumulate;color:#000000;fill:url(#radialGradient7009);" d="m-827,208c0,21.5-17.7,39-39.5,39s-39.5-17.5-39.5-39,17.7-39,39.5-39,39.5,17.5,39.5,39z" transform="translate(6.5899814,2.1966605)"/>
<path id="path3990" d="m-885,321c-11.4,0-20.6-25.5-20.6-56.9s9.22-56.9,20.6-56.9c1.93,0,3.78,0.729,5.55,2.1,1.46,5.24-1.97,5.77-6.68,10.5-8.22,8.24-8.13,26.4-8.13,43.7,0,26.1,7.55,47.5,16.2,54.2-2.18,2.17-4.51,3.35-6.96,3.35z" style="enable-background:accumulate;fill-rule:nonzero;color:#000000;fill:url(#radialGradient7011);"/>
</g>
<path id="path3770" style="enable-background:accumulate;fill-rule:nonzero;color:#000000;fill:#bfc4c8;" d="m192,92.5c-27.8,30.4-96.8,22.6-123,2.21l5.04,23.3c0.694,0.844,1.45,1.65,2.25,2.44l16,73.2c9.49,26.5,67.2,23.8,73.1-0.637l17.9-73.8c0.48-0.509,0.942-1.03,1.38-1.56l6.93-25.2z"/>
<g id="g4247" transform="matrix(0.1259579,0,0,0.1259579,147.05278,7.3826742)">
<path id="path4249" style="fill-rule:evenodd;color:#000000;fill:#afafde;" d="m187,729,60.1,37.5,62.1-35.5-61-27.2z"/>
<path id="path4251" style="fill-rule:evenodd;color:#000000;fill:#b3b3b3;" d="m187,663,60.1,24,62.1-22.7-61-17.4z"/>
<path id="path4253" style="fill-rule:evenodd;color:#000000;fill:#b3b3b3;" d="m247,687,0,79.6,62.1-35.5,0-66.9z"/>
<path id="path4255" style="fill-rule:evenodd;color:#000000;fill:#808080;" d="m187,663,60.1,24,0,79.6-60.1-37.5z"/>
<path id="path4257" style="enable-background:accumulate;fill-rule:nonzero;color:#000000;filter:url(#filter4111);fill:#ffffff;" d="m248,647-17.8,4.69c-0.002,1.03,0.0192-1.06-0.0625,3.97-0.003,0.519,0.0268,1.04,0.0312,1.56-0.0409,0.217-0.0773,0.441-0.125,0.656-0.595,2.69-1.62,5.26-2.84,7.72-1.21,2.49-2.4,5-3.19,7.66-0.144-0.155-0.29-0.319-0.438-0.469-0.609-0.726-1.22-1.42-1.81-2.16-3.62-4.51-6.87-9.3-10.2-14.1l-13,1c0.185,0.24,0.378,0.479,0.562,0.719,0.831,1.07,1.64,2.12,2.47,3.19,2.47,3.17,3,3.71,5.19,7.06,0.703,1.08,1.36,2.19,2.03,3.28,3.23,5.24,0.451,0.64,3.25,5.31,0.857,1.22,1.49,2.6,2.22,3.91-5.57,2.97-11,6.17-16.4,9.44-1.86-2.97-3.58-6.03-5.28-9.09-2.04-5.63-3.37-11.5-4.62-17.3-0.0336-0.162-0.0596-0.29-0.0937-0.438,0.0388-0.0448,0.0558-0.09,0-0.0625-0.0126,0.006-0.0187,0.025-0.0312,0.0312-0.349-1.5-0.72-2.27-1.28-2.47v40.8c0.862-0.382,2.01-0.906,2.72-1.22,0.195,0.299,0.338,0.5,0.562,0.844,2.47,3.66,4.84,7.41,6.81,11.4,0.567,1.02,0.963,2.09,1.03,3.25,0.058,1.07,0.0949,1.8-0.375,2.78-0.22,0.519-0.445,1.04-0.719,1.53-0.279,0.501-0.323,0.415-0.531,0.969-0.0785,0.209-0.124,0.411-0.188,0.625-0.0835,0.222-0.194,0.457-0.25,0.688-0.187,0.77-0.235,1.57-0.406,2.34-0.235,1.06-0.534,1.89-0.812,2.94-0.136,0.512-0.25,1.05-0.375,1.56-0.109,0.533-0.193,1.06-0.312,1.59-0.01,0.0422-0.0211,0.0831-0.0312,0.125l15,8c0.593-0.333,1.19-0.67,1.78-1-0.17,0.136-0.759,0.584-1.03,0.719-0.243,0.121-0.503,0.202-0.75,0.281l2.06,1.31c0.867-0.619,1.59-1.15,1.75-1.25,0.153-0.181,1.22-1.41,1.41-1.66,0.173-0.237,0.309-0.504,0.469-0.75,0.119-0.182,0.606-0.878,0.688-1.12,0.0725-0.22,0.0582-0.459,0.0937-0.688,0.0216-0.239,0.0585-0.478,0.0625-0.719,0.006-0.398-0.0791-1.82-0.0937-2.12-0.0191-0.398-0.0507-0.789-0.0625-1.19,3.44,2.17,6.84,4.41,10.2,6.62,4.9,3.18,2.05,1.23,6.41,4.31,1.73,1.34,3.58,2.61,5.12,4.19,0.288,0.295,0.833,0.942,1.03,1.38,0.0547,0.119,0.0659,0.278,0.0937,0.406-0.0777,0.211-0.169,0.404-0.219,0.625-0.209,0.933-0.402,1.84-0.719,2.75-0.407,0.964-0.617,1.96-0.719,3,0.0111,0.772,0.357,1.44,0.656,2.12,0.0604,0.166,0.105,0.332,0.156,0.5l7.31,4.56,6.28-3.59c-0.132-1.11-0.227-2.22-0.25-3.34-0.0152-0.54-0.0595-1.09-0.0625-1.62-0.007-1.27,0.243-2.79-0.219-4-0.219-0.44-0.477-0.827-0.344-1.34,0.12-0.899,0.405-1.78,0.625-2.66,0.121-0.494,0.221-0.976,0.344-1.47,0.032-0.129,0.0569-0.274,0.0937-0.406,1.14,0.65,2.29,1.32,3.38,2.06,1.12,0.765,1.89,1.4,2.97,2.22,0.45,0.344,0.892,0.69,1.34,1.03,0.379,0.355,0.774,0.711,1.16,1.06,0.276,0.254,0.564,0.501,0.844,0.75,0.186,0.165,0.364,0.315,0.531,0.5,0.248,0.275,0.465,0.579,0.656,0.906l12.8-7.31c-0.873-1.62-2.23-2.32-3.97-3.47-1.56-0.978-3.01-2.11-4.5-3.19-1.23-0.891-2.46-1.75-3.66-2.69-0.56-0.565-1.43-1.11-1.66-1.94-0.0568-0.205-0.0878-0.8-0.0937-0.969-0.0379-1.52,0.0137-3.06,0.219-4.56,0.0577-0.423,0.171-0.955,0.281-1.47,3.77-0.002,7.52,0.196,11.2,0.719,1.04,0.146,2.06,0.382,3.09,0.562,2.1,0.593,4.96,0.847,6.22,2.94,0.481,0.798,0.477,1.36,0.625,2.25,0.201,2.1-0.138,4.19-0.5,6.25-0.0666,0.442-0.0687,0.924,0.0625,1.34l13.3-7.56c-0.006-0.136,0.004-0.269,0-0.406,0.0394-2.14,0.0908-4.28-0.156-6.41-0.122-0.483-0.198-0.972-0.375-1.44-0.36-0.945-1.06-2.07-1.88-2.69-1.9-1.43-4.52-1.29-6.72-1.72-3.14-0.349-3.99-0.467-7.22-0.75-4.46-0.391-8.95-0.637-13.4-1.06-0.597-0.0337-1.18-0.0918-1.78-0.125-0.404-0.0224-0.817-0.013-1.22-0.0625-0.281-0.0347-0.563-0.323-0.812-0.188-4.5,2.45-8.89,5.16-13.2,7.84-0.107,0.0662-0.0565,0.249-0.0625,0.375-0.008,0.157,0.0161,0.312,0.0312,0.469,0.0907,0.602,0.178,1.2,0.219,1.81-0.0487,1.12-0.189,2.22-0.281,3.34-0.173,1.69-0.348,3.38-0.562,5.06-0.0544,0.427-0.14,0.853-0.188,1.28-0.002,0.0206,0.002,0.0418,0,0.0625-1.73-0.958-3.5-1.84-5.22-2.81-3.64-2.02-7.27-4.07-10.8-6.31-2.92-1.87-4.68-3.12-7.44-5.19-0.972-0.73-1.91-1.51-2.88-2.25,0.569-0.018,0.839-0.0401,2.53-0.0937,2.94-0.0931,3.88-0.107,6.72-0.281,0.822-0.0504,1.62-0.0908,2.44-0.188,0.591-0.0699,1.2-0.207,1.78-0.312,4.58-2.57,9.19-5.05,13.7-7.72,1.27-0.75,1.18-2.37,0.844-3.56-0.218-0.788-0.474-1.57-0.75-2.34,1.53-0.859,2.82-1.91,3.62-3.31,0.694,0.554,1.51,0.883,2.34,1.19,0.241,0.165,1.18,0.191,1.28,0.5,0.0859,0.756,0.0842,1.52,0.0625,2.28,0.064,0.391-0.176,0.903,0,1.28,0.359,0.771,1.06,1.14,1.75,1.56,2.11,1.25,4.51,1.9,6.88,2.5,5.93,1.17,6.41-1.89,14.8-7.28,0.142-0.0912-0.206-2.6-0.25-2.88-0.126-0.806-0.18-1.66-0.438-2.44-0.183-0.553-0.472-1.04-0.781-1.53-0.337-0.606-0.798-1.11-1.31-1.56-0.0882-0.0673-0.193-0.12-0.281-0.188l-6.97,4.53c-0.01-0.27,0.0268-0.545,0-0.812-0.0277-1,0.0968-2.05-0.25-3-0.489-0.867-1.06-1.31-2.06-1.44-0.82-0.214-1.66-0.445-2.34-0.969-0.804-0.6-1.28-1.51-1.75-2.38-0.491-0.875-0.888-1.78-1.44-2.62-0.528-0.856-0.964-1.79-1.16-2.78-0.0862-0.384-0.15-0.771-0.219-1.16,0.822-0.173,1.65-0.367,2.28-0.438,1.4-0.158,2.85-0.0222,4.25-0.156,0.814,0.0487,1.58,0.116,2.34-0.25,2.42-0.505,4.7-1.54,7.03-2.31,0.566-0.218,3.95-1.51,4.44-1.72,0.75-0.321,1.51-0.632,2.22-1.03,4.1-2.3,8.2-4.54,12.2-6.97,0.108-0.0163,0.204-0.0447,0.312-0.0625,3.23-1.85,8.56-2.56,11.4-4.69v-9.56l-3.44-0.969c-0.585,0.434-1.09,0.964-1.62,1.47-1.92,1.82-3.64,3.85-5.12,6.03-0.989,1.41-1.18,2.72-1.25,4.34-3.42,1.85-3.97,2.15-6.31,3.94-0.6,0.234-1.2,0.439-2.03,0.75-1.94,0.663-3.9,1.28-5.91,1.72-0.742,0.108-1.44,0.333-2.19,0.438-0.216,0.0161-0.441,0.0363-0.656,0.0625-0.866,0.105-1.73,0.263-2.59,0.375-2.2,0.285-1.43,0.105-3.84,0.594-0.768,0.155-1.55,0.329-2.31,0.5-3.2,0.786-6.25,2.04-9.28,3.31-0.005,0.146-0.0973,0.168-0.219,0.188,0.007-0.0131,0.0241-0.0184,0.0312-0.0312,0.198-0.356,0.4-0.735,0.594-1.09,1.4-1.83,3.12-3.41,4.97-4.78,1.72-1.19,0.866-0.575,2.5-1.81,1.66-0.988,3.15-2.21,4.75-3.28,2.06-1.38,0.434-0.141,2.56-1.88,3.29-2.72,6.99-4.87,10.6-7.19,0.776-0.503,1.54-1.05,2.31-1.56,0.727-0.471,1.46-0.937,2.19-1.41,0.646-0.416,1.32-0.793,1.94-1.25,0.553-0.41,1.05-0.881,1.56-1.34,0.22-0.2,0.445-0.387,0.656-0.594l-6.38-1.81c-0.0892,0.0761-0.194,0.176-0.281,0.25-2.25,0.68-4.55,1.25-6.81,1.88-4.22,1.19-8.39,2.48-12.6,3.59-0.857,0.225-3.66,0.941-4.66,1.19-1.2,0.304-2.44,0.559-3.62,0.906-0.186,0.0541-0.348,0.091-0.531,0.156-0.005-0.148-0.0291-0.29-0.0312-0.438-0.0215-1.46,0.0188-1.68,0.0937-3.22,0.273-3.72,0.588-7.44,0.969-11.2,0.0364-0.328,0.0874-0.643,0.125-0.969l-15.1-4.31zm-0.125,7.25c0.331,0.121,0.67,0.218,1,0.344,0.149,0.0269,0.318,0.0907,0.469,0.0937,0.272,0.006,0.315-0.383,0.5,0,0.175,0.343,0.206,0.713,0.25,1.09,0.111,0.967,0.128,1.93,0.156,2.91-0.0119,3.68-0.357,7.35-0.812,11-0.305,2.11-0.199,1.49-0.531,3.47-0.0688,0.41-0.123,0.808-0.188,1.22-0.139,0.882-0.29,2.03,0.812,2.44,0.532-0.213,0.903-0.572,1.41-0.844,1.36-0.733,2.9-1.12,4.34-1.62,2.76-0.879,5.53-1.65,8.31-2.44,3.07-0.874,6.15-1.8,9.25-2.56,0.853-0.2,1.71-0.408,2.56-0.594,2.49-0.539,5-0.888,7.41-1.75,0.0551-0.0185,0.128-0.043,0.188-0.0625-1.55,1.28-3.29,2.32-4.94,3.47-4.5,2.99-9.14,5.76-13.4,9.03-2.54,1.73-5.07,3.46-7.56,5.25-2.55,1.91-4.97,4.02-6.88,6.59l-1.97,1.09c0.249,0.478,0.394,0.984,0.5,1.5,0.002,0.0101-0.002,0.0212,0,0.0312-0.0747,0.226-0.145,0.441-0.156,0.656-0.0197,0.393,0.15,0.859,0.406,1.25,0.132,1.32,0.493,2.6,0.75,3.91,0.0988,0.454,0.194,0.925,0.312,1.38-0.194-0.235-0.379-0.485-0.562-0.75-0.928-1.34-1.56-2.87-2.06-4.41-0.377-1.09-0.794-2.18-1.16-3.28-0.598-1.81-1.01-3.69-1.5-5.53-0.171-0.873-0.38-1.75-0.531-2.62-0.904-5.23-1.24-10.5-1.75-15.8-0.0612-0.901-0.13-1.82-0.188-2.72,8.36-3.46,7.19-0.908,6.94-5.69-0.0325-0.838-0.0142-1.67-0.188-2.5-0.294-1.22-0.728-2.39-1.16-3.56zm0.219,5.16c0.156-0.0865,0.2,0.322,0.188,0.5-0.006,0.0882-0.159-0.0909-0.219-0.156-0.0619-0.068-0.102-0.145-0.156-0.219,0.0654-0.0364,0.122-0.0887,0.188-0.125zm49.5,17c-0.003,0.155-0.0246,0.312-0.0937,0.406-0.107,0.145-0.716,0.063-0.562-0.0312,0.214-0.131,0.441-0.244,0.656-0.375zm-2.22,2.75c-0.374,0.214-0.604,0.338-1,0.562,0.275-0.173,0.646-0.411,0.844-0.5,0.0536-0.0242,0.101-0.0434,0.156-0.0625zm-56-2c-0.0138,0.3-0.048,0.606-0.0625,0.906-0.114,2.62-0.0505,1.24-0.219,4.12-0.179,3.82-0.267,7.63-0.594,11.4-0.311,2.84-0.568,6.03-1.38,8.78-0.0904,0.308-0.552,1.51-0.719,1.94-0.111,0.187-0.201,0.398-0.344,0.562-0.0346,0.0397-0.677,0.484-0.75,0.531-0.163,0.106-0.669,0.409-0.5,0.312-1.83,1.05-3.65,2.12-5.47,3.19-0.287,0.168-0.745,0.489-1.22,0.812,0.0281-0.082,0.0675-0.167,0.0937-0.25,0.241-1.12,0.22-2.24,0.125-3.38-0.264-1.53-0.843-2.35-1.84-3.53-2.79-3.5-5.78-6.85-8.25-10.6-0.467-0.676-0.91-1.35-1.38-2.03,1.74-1.57,3.63-2.96,5.59-4.25,0.536-0.339,0.597-0.391,0.969-0.625,2.18-1.16,1.25-0.685,4.88-2.47,0.845-0.381,1.68-0.784,2.53-1.16,0.688-0.303,1.4-0.516,2.06-0.875,0.553-0.3,1.1-0.604,1.66-0.906,1.6-0.844,3.21-1.69,4.81-2.53zm86.8,7.53c-2.19,0.513-4.4,0.985-6.59,1.47-1.58,0.258-3.17,0.485-4.75,0.75-0.437,0.0733-0.923,0.0387-1.31,0.25-4.58,2.48-9.1,5.05-13.5,7.78-0.288,0.178-0.334,0.93-0.375,1.25-0.0202,1.03-0.0443,2.07-0.188,3.09-0.229,1.79-0.396,3.63-0.219,5.44,0.107,1.18,0.224,2.33,0.406,3.5,0.105,0.674,0.292,1.84,0.469,2.5,0.103,0.385,0.25,0.747,0.375,1.12,0.356,0.594,0.806,1.45,1.41,1.84,0.654,0.433,1.68,0.361,2.38,0.281,0.953-0.109,3.24-0.637,4.06-0.812,3.07-0.713,6.12-1.43,9.12-2.38,1.06-0.336,2.2-0.55,3.19-1.06,1.88-0.972,3.72-2,5.56-3.03v-3.34c-2.37,0.745-4.77,1.26-7.22,1.72-1.18,0.171-2.17,0.351-3.34,0.406-0.609,0.0285-1.56,0.0838-2.03-0.438-0.157-0.172-0.253-0.395-0.375-0.594-0.859-2.03-0.974-4.27-1.09-6.44-0.0464-1.67,0.299-3.3,0.562-4.94,0.208-0.0578,0.418-0.0974,0.625-0.156,1.71-0.485,3.42-1.01,5.12-1.5,1.77-0.511,3.56-0.96,5.31-1.5,0.662-0.203,1.61-0.511,2.44-0.781v-4.44zm-105,1.56c-1.26,0.717-2.68,1.54-4.41,2.5-0.974,0.539,1.9-1.15,2.88-1.69,0.508-0.282,1.01-0.547,1.53-0.812zm92.5,2.97c0.122-0.01,0.195-0.0121,0.125,0.0312-0.226,0.14-0.46,0.268-0.688,0.406,0.0117-0.0507,0.018-0.106,0.0312-0.156,0.0588-0.08,0.0639-0.182,0.156-0.219,0.0766-0.0303,0.253-0.0529,0.375-0.0625zm-63.3,1.06c0.0171,0.108,0.0592,0.177,0.312,2,0.076,0.547,0.0958,1.08,0.188,1.62,0.204,1.21,0.56,2.41,0.875,3.59,0.543,1.69,1.43,3.23,2.56,4.59,0.735,0.887,1.55,1.7,2.31,2.56,0.581,0.744,1.29,1.41,1.88,2.16,1.3-0.531,3.31-1.4,5.97-2.72-1.87,1.08-3.73,2.16-5.59,3.25,0.008,0.012,0.0233,0.0192,0.0312,0.0312,0.196,0.299,0.347,0.759,0.25,0.812-0.118,0.0654-0.243-0.0625-0.375-0.0937-0.419-0.0438-0.676-0.091-0.969-0.125-0.989,0.582-1.98,1.16-2.97,1.75-0.164,0.0981-0.263,0.283-0.375,0.438-0.519,0.714-0.344,1.44-0.0937,2.22,0.0994,0.207,0.207,0.42,0.312,0.625,0.117,0.227,0.199,0.354,0.281,0.5-3.04,0.257-6.1,0.337-9.16,0.438-3.36,0.175-6.79-0.0263-10.2,0.188,0.0525-0.346,0.0911-0.687,0.156-1.03,0.217-1.15,0.447-2.01,0.75-3.12,0.314-0.901,0.598-1.85,1.22-2.59,0.136-0.163,0.324-0.282,0.469-0.438,0.778-0.831,0.0828-0.256,1.09-1,0.283-0.19,0.568-0.363,0.844-0.562,0.0607-0.0439,0.128-0.0791,0.188-0.125,1.59-0.925,3.5-2.08,8.16-4.81,0.179-0.105,0.878-0.66,1-0.906,0.0638-0.129,0.289-1.35,0.312-1.47,0.0699-0.253,0.181-0.491,0.219-0.75,0.0588-0.404,0.114-2.62,0.125-2.84,0.0976-1.99,0.15-2.09,0.188-4.19zm7.44,17.7c0.354-0.208,0.708-0.418,1.06-0.625-0.119-0.178-0.242-0.363-0.375-0.531-2.03,0.833-2.3,0.969-0.688,1.16zm-10-10c0.0366-0.0201-0.511,0.303-1.81,1.06-2.05,1.22-1.23,0.723-1.16,0.656,1.32-0.752,2.93-1.7,2.97-1.72zm50.1,5.31c0.189-0.105-0.354,0.285-0.562,0.344-0.0205,0.006-0.0418-0.005-0.0625,0,0.208-0.115,0.417-0.228,0.625-0.344zm-12,6.72c-0.0104,0.018-0.0193,0.0485-0.0312,0.0625-0.111,0.131-0.619,0.303-0.469,0.219,0.167-0.0936,0.333-0.188,0.5-0.281zm-27.9,0.188c-0.324,0.187-0.645,0.376-0.969,0.562,0.193-0.13,0.358-0.264,0.562-0.375,0.136-0.0741,0.276-0.134,0.406-0.188zm-21.8,5.09c0.0991-0.0865,0.193,0.215,0.281,0.312l-0.0937,0.0625c-0.0821-0.108-0.29-0.286-0.188-0.375zm20.1,1.31c-0.039,0.119-0.0611,0.249-0.125,0.312-0.0781,0.0781-2.31,1.16-1.22,0.5,0.447-0.271,0.895-0.543,1.34-0.812zm70.4,0.0937c-0.714,1.25-1.51,2.47-2.38,3.62-1.37,1.82-1.57,2.1-2.97,3.81-1.19,1.45-2.56,2.81-3.19,4.62-0.0695,0.3-0.173,0.602-0.219,0.906-0.0328,0.22-0.0602,0.435-0.0625,0.656l8.81-5.03v-8.59zm-44,2c0.313,0.105,0.152,0.0834,0.469,0.0937-0.184,0.11-0.378,0.203-0.562,0.312,0.001-0.149,0.0349-0.29,0.0937-0.406z"/>
<path id="path4259" d="m191,668-0.915,58s20.4,19.2,22.3,15.9c1.83-3.36-18-14.3-18-19.5,0-5.19-5.49-47,2.14-46.4,7.63,0.61,5.49-3.97,5.49-3.97z" style="enable-background:accumulate;fill-rule:nonzero;color:#000000;filter:url(#filter4159);fill:#1a1a1a;"/>
</g>
<g id="g4231" transform="matrix(0.1259579,0,0,0.1259579,77.08683,-6.6500462)">
<path id="path4030" d="m187,729,60.1,37.5,62.1-35.5-61-27.2z" style="fill-rule:evenodd;color:#000000;fill:#afafde;"/>
<path id="path4036" d="m187,663,60.1,24,62.1-22.7-61-17.4z" style="fill-rule:evenodd;color:#000000;fill:#b3b3b3;"/>
<path id="path4038" d="m247,687,0,79.6,62.1-35.5,0-66.9z" style="fill-rule:evenodd;color:#000000;fill:#b3b3b3;"/>
<path id="path4040" d="m187,663,60.1,24,0,79.6-60.1-37.5z" style="fill-rule:evenodd;color:#000000;fill:#808080;"/>
<path id="path4082" style="enable-background:accumulate;fill-rule:nonzero;color:#000000;filter:url(#filter4111);fill:#ffffff;" d="m248,647-17.8,4.69c-0.002,1.03,0.0192-1.06-0.0625,3.97-0.003,0.519,0.0268,1.04,0.0312,1.56-0.0409,0.217-0.0773,0.441-0.125,0.656-0.595,2.69-1.62,5.26-2.84,7.72-1.21,2.49-2.4,5-3.19,7.66-0.144-0.155-0.29-0.319-0.438-0.469-0.609-0.726-1.22-1.42-1.81-2.16-3.62-4.51-6.87-9.3-10.2-14.1l-13,1c0.185,0.24,0.378,0.479,0.562,0.719,0.831,1.07,1.64,2.12,2.47,3.19,2.47,3.17,3,3.71,5.19,7.06,0.703,1.08,1.36,2.19,2.03,3.28,3.23,5.24,0.451,0.64,3.25,5.31,0.857,1.22,1.49,2.6,2.22,3.91-5.57,2.97-11,6.17-16.4,9.44-1.86-2.97-3.58-6.03-5.28-9.09-2.04-5.63-3.37-11.5-4.62-17.3-0.0336-0.162-0.0596-0.29-0.0937-0.438,0.0388-0.0448,0.0558-0.09,0-0.0625-0.0126,0.006-0.0187,0.025-0.0312,0.0312-0.349-1.5-0.72-2.27-1.28-2.47v40.8c0.862-0.382,2.01-0.906,2.72-1.22,0.195,0.299,0.338,0.5,0.562,0.844,2.47,3.66,4.84,7.41,6.81,11.4,0.567,1.02,0.963,2.09,1.03,3.25,0.058,1.07,0.0949,1.8-0.375,2.78-0.22,0.519-0.445,1.04-0.719,1.53-0.279,0.501-0.323,0.415-0.531,0.969-0.0785,0.209-0.124,0.411-0.188,0.625-0.0835,0.222-0.194,0.457-0.25,0.688-0.187,0.77-0.235,1.57-0.406,2.34-0.235,1.06-0.534,1.89-0.812,2.94-0.136,0.512-0.25,1.05-0.375,1.56-0.109,0.533-0.193,1.06-0.312,1.59-0.01,0.0422-0.0211,0.0831-0.0312,0.125l15,8c0.593-0.333,1.19-0.67,1.78-1-0.17,0.136-0.759,0.584-1.03,0.719-0.243,0.121-0.503,0.202-0.75,0.281l2.06,1.31c0.867-0.619,1.59-1.15,1.75-1.25,0.153-0.181,1.22-1.41,1.41-1.66,0.173-0.237,0.309-0.504,0.469-0.75,0.119-0.182,0.606-0.878,0.688-1.12,0.0725-0.22,0.0582-0.459,0.0937-0.688,0.0216-0.239,0.0585-0.478,0.0625-0.719,0.006-0.398-0.0791-1.82-0.0937-2.12-0.0191-0.398-0.0507-0.789-0.0625-1.19,3.44,2.17,6.84,4.41,10.2,6.62,4.9,3.18,2.05,1.23,6.41,4.31,1.73,1.34,3.58,2.61,5.12,4.19,0.288,0.295,0.833,0.942,1.03,1.38,0.0547,0.119,0.0659,0.278,0.0937,0.406-0.0777,0.211-0.169,0.404-0.219,0.625-0.209,0.933-0.402,1.84-0.719,2.75-0.407,0.964-0.617,1.96-0.719,3,0.0111,0.772,0.357,1.44,0.656,2.12,0.0604,0.166,0.105,0.332,0.156,0.5l7.31,4.56,6.28-3.59c-0.132-1.11-0.227-2.22-0.25-3.34-0.0152-0.54-0.0595-1.09-0.0625-1.62-0.007-1.27,0.243-2.79-0.219-4-0.219-0.44-0.477-0.827-0.344-1.34,0.12-0.899,0.405-1.78,0.625-2.66,0.121-0.494,0.221-0.976,0.344-1.47,0.032-0.129,0.0569-0.274,0.0937-0.406,1.14,0.65,2.29,1.32,3.38,2.06,1.12,0.765,1.89,1.4,2.97,2.22,0.45,0.344,0.892,0.69,1.34,1.03,0.379,0.355,0.774,0.711,1.16,1.06,0.276,0.254,0.564,0.501,0.844,0.75,0.186,0.165,0.364,0.315,0.531,0.5,0.248,0.275,0.465,0.579,0.656,0.906l12.8-7.31c-0.873-1.62-2.23-2.32-3.97-3.47-1.56-0.978-3.01-2.11-4.5-3.19-1.23-0.891-2.46-1.75-3.66-2.69-0.56-0.565-1.43-1.11-1.66-1.94-0.0568-0.205-0.0878-0.8-0.0937-0.969-0.0379-1.52,0.0137-3.06,0.219-4.56,0.0577-0.423,0.171-0.955,0.281-1.47,3.77-0.002,7.52,0.196,11.2,0.719,1.04,0.146,2.06,0.382,3.09,0.562,2.1,0.593,4.96,0.847,6.22,2.94,0.481,0.798,0.477,1.36,0.625,2.25,0.201,2.1-0.138,4.19-0.5,6.25-0.0666,0.442-0.0687,0.924,0.0625,1.34l13.3-7.56c-0.006-0.136,0.004-0.269,0-0.406,0.0394-2.14,0.0908-4.28-0.156-6.41-0.122-0.483-0.198-0.972-0.375-1.44-0.36-0.945-1.06-2.07-1.88-2.69-1.9-1.43-4.52-1.29-6.72-1.72-3.14-0.349-3.99-0.467-7.22-0.75-4.46-0.391-8.95-0.637-13.4-1.06-0.597-0.0337-1.18-0.0918-1.78-0.125-0.404-0.0224-0.817-0.013-1.22-0.0625-0.281-0.0347-0.563-0.323-0.812-0.188-4.5,2.45-8.89,5.16-13.2,7.84-0.107,0.0662-0.0565,0.249-0.0625,0.375-0.008,0.157,0.0161,0.312,0.0312,0.469,0.0907,0.602,0.178,1.2,0.219,1.81-0.0487,1.12-0.189,2.22-0.281,3.34-0.173,1.69-0.348,3.38-0.562,5.06-0.0544,0.427-0.14,0.853-0.188,1.28-0.002,0.0206,0.002,0.0418,0,0.0625-1.73-0.958-3.5-1.84-5.22-2.81-3.64-2.02-7.27-4.07-10.8-6.31-2.92-1.87-4.68-3.12-7.44-5.19-0.972-0.73-1.91-1.51-2.88-2.25,0.569-0.018,0.839-0.0401,2.53-0.0937,2.94-0.0931,3.88-0.107,6.72-0.281,0.822-0.0504,1.62-0.0908,2.44-0.188,0.591-0.0699,1.2-0.207,1.78-0.312,4.58-2.57,9.19-5.05,13.7-7.72,1.27-0.75,1.18-2.37,0.844-3.56-0.218-0.788-0.474-1.57-0.75-2.34,1.53-0.859,2.82-1.91,3.62-3.31,0.694,0.554,1.51,0.883,2.34,1.19,0.241,0.165,1.18,0.191,1.28,0.5,0.0859,0.756,0.0842,1.52,0.0625,2.28,0.064,0.391-0.176,0.903,0,1.28,0.359,0.771,1.06,1.14,1.75,1.56,2.11,1.25,4.51,1.9,6.88,2.5,5.93,1.17,6.41-1.89,14.8-7.28,0.142-0.0912-0.206-2.6-0.25-2.88-0.126-0.806-0.18-1.66-0.438-2.44-0.183-0.553-0.472-1.04-0.781-1.53-0.337-0.606-0.798-1.11-1.31-1.56-0.0882-0.0673-0.193-0.12-0.281-0.188l-6.97,4.53c-0.01-0.27,0.0268-0.545,0-0.812-0.0277-1,0.0968-2.05-0.25-3-0.489-0.867-1.06-1.31-2.06-1.44-0.82-0.214-1.66-0.445-2.34-0.969-0.804-0.6-1.28-1.51-1.75-2.38-0.491-0.875-0.888-1.78-1.44-2.62-0.528-0.856-0.964-1.79-1.16-2.78-0.0862-0.384-0.15-0.771-0.219-1.16,0.822-0.173,1.65-0.367,2.28-0.438,1.4-0.158,2.85-0.0222,4.25-0.156,0.814,0.0487,1.58,0.116,2.34-0.25,2.42-0.505,4.7-1.54,7.03-2.31,0.566-0.218,3.95-1.51,4.44-1.72,0.75-0.321,1.51-0.632,2.22-1.03,4.1-2.3,8.2-4.54,12.2-6.97,0.108-0.0163,0.204-0.0447,0.312-0.0625,3.23-1.85,8.56-2.56,11.4-4.69v-9.56l-3.44-0.969c-0.585,0.434-1.09,0.964-1.62,1.47-1.92,1.82-3.64,3.85-5.12,6.03-0.989,1.41-1.18,2.72-1.25,4.34-3.42,1.85-3.97,2.15-6.31,3.94-0.6,0.234-1.2,0.439-2.03,0.75-1.94,0.663-3.9,1.28-5.91,1.72-0.742,0.108-1.44,0.333-2.19,0.438-0.216,0.0161-0.441,0.0363-0.656,0.0625-0.866,0.105-1.73,0.263-2.59,0.375-2.2,0.285-1.43,0.105-3.84,0.594-0.768,0.155-1.55,0.329-2.31,0.5-3.2,0.786-6.25,2.04-9.28,3.31-0.005,0.146-0.0973,0.168-0.219,0.188,0.007-0.0131,0.0241-0.0184,0.0312-0.0312,0.198-0.356,0.4-0.735,0.594-1.09,1.4-1.83,3.12-3.41,4.97-4.78,1.72-1.19,0.866-0.575,2.5-1.81,1.66-0.988,3.15-2.21,4.75-3.28,2.06-1.38,0.434-0.141,2.56-1.88,3.29-2.72,6.99-4.87,10.6-7.19,0.776-0.503,1.54-1.05,2.31-1.56,0.727-0.471,1.46-0.937,2.19-1.41,0.646-0.416,1.32-0.793,1.94-1.25,0.553-0.41,1.05-0.881,1.56-1.34,0.22-0.2,0.445-0.387,0.656-0.594l-6.38-1.81c-0.0892,0.0761-0.194,0.176-0.281,0.25-2.25,0.68-4.55,1.25-6.81,1.88-4.22,1.19-8.39,2.48-12.6,3.59-0.857,0.225-3.66,0.941-4.66,1.19-1.2,0.304-2.44,0.559-3.62,0.906-0.186,0.0541-0.348,0.091-0.531,0.156-0.005-0.148-0.0291-0.29-0.0312-0.438-0.0215-1.46,0.0188-1.68,0.0937-3.22,0.273-3.72,0.588-7.44,0.969-11.2,0.0364-0.328,0.0874-0.643,0.125-0.969l-15.1-4.31zm-0.125,7.25c0.331,0.121,0.67,0.218,1,0.344,0.149,0.0269,0.318,0.0907,0.469,0.0937,0.272,0.006,0.315-0.383,0.5,0,0.175,0.343,0.206,0.713,0.25,1.09,0.111,0.967,0.128,1.93,0.156,2.91-0.0119,3.68-0.357,7.35-0.812,11-0.305,2.11-0.199,1.49-0.531,3.47-0.0688,0.41-0.123,0.808-0.188,1.22-0.139,0.882-0.29,2.03,0.812,2.44,0.532-0.213,0.903-0.572,1.41-0.844,1.36-0.733,2.9-1.12,4.34-1.62,2.76-0.879,5.53-1.65,8.31-2.44,3.07-0.874,6.15-1.8,9.25-2.56,0.853-0.2,1.71-0.408,2.56-0.594,2.49-0.539,5-0.888,7.41-1.75,0.0551-0.0185,0.128-0.043,0.188-0.0625-1.55,1.28-3.29,2.32-4.94,3.47-4.5,2.99-9.14,5.76-13.4,9.03-2.54,1.73-5.07,3.46-7.56,5.25-2.55,1.91-4.97,4.02-6.88,6.59l-1.97,1.09c0.249,0.478,0.394,0.984,0.5,1.5,0.002,0.0101-0.002,0.0212,0,0.0312-0.0747,0.226-0.145,0.441-0.156,0.656-0.0197,0.393,0.15,0.859,0.406,1.25,0.132,1.32,0.493,2.6,0.75,3.91,0.0988,0.454,0.194,0.925,0.312,1.38-0.194-0.235-0.379-0.485-0.562-0.75-0.928-1.34-1.56-2.87-2.06-4.41-0.377-1.09-0.794-2.18-1.16-3.28-0.598-1.81-1.01-3.69-1.5-5.53-0.171-0.873-0.38-1.75-0.531-2.62-0.904-5.23-1.24-10.5-1.75-15.8-0.0612-0.901-0.13-1.82-0.188-2.72,8.36-3.46,7.19-0.908,6.94-5.69-0.0325-0.838-0.0142-1.67-0.188-2.5-0.294-1.22-0.728-2.39-1.16-3.56zm0.219,5.16c0.156-0.0865,0.2,0.322,0.188,0.5-0.006,0.0882-0.159-0.0909-0.219-0.156-0.0619-0.068-0.102-0.145-0.156-0.219,0.0654-0.0364,0.122-0.0887,0.188-0.125zm49.5,17c-0.003,0.155-0.0246,0.312-0.0937,0.406-0.107,0.145-0.716,0.063-0.562-0.0312,0.214-0.131,0.441-0.244,0.656-0.375zm-2.22,2.75c-0.374,0.214-0.604,0.338-1,0.562,0.275-0.173,0.646-0.411,0.844-0.5,0.0536-0.0242,0.101-0.0434,0.156-0.0625zm-56-2c-0.0138,0.3-0.048,0.606-0.0625,0.906-0.114,2.62-0.0505,1.24-0.219,4.12-0.179,3.82-0.267,7.63-0.594,11.4-0.311,2.84-0.568,6.03-1.38,8.78-0.0904,0.308-0.552,1.51-0.719,1.94-0.111,0.187-0.201,0.398-0.344,0.562-0.0346,0.0397-0.677,0.484-0.75,0.531-0.163,0.106-0.669,0.409-0.5,0.312-1.83,1.05-3.65,2.12-5.47,3.19-0.287,0.168-0.745,0.489-1.22,0.812,0.0281-0.082,0.0675-0.167,0.0937-0.25,0.241-1.12,0.22-2.24,0.125-3.38-0.264-1.53-0.843-2.35-1.84-3.53-2.79-3.5-5.78-6.85-8.25-10.6-0.467-0.676-0.91-1.35-1.38-2.03,1.74-1.57,3.63-2.96,5.59-4.25,0.536-0.339,0.597-0.391,0.969-0.625,2.18-1.16,1.25-0.685,4.88-2.47,0.845-0.381,1.68-0.784,2.53-1.16,0.688-0.303,1.4-0.516,2.06-0.875,0.553-0.3,1.1-0.604,1.66-0.906,1.6-0.844,3.21-1.69,4.81-2.53zm86.8,7.53c-2.19,0.513-4.4,0.985-6.59,1.47-1.58,0.258-3.17,0.485-4.75,0.75-0.437,0.0733-0.923,0.0387-1.31,0.25-4.58,2.48-9.1,5.05-13.5,7.78-0.288,0.178-0.334,0.93-0.375,1.25-0.0202,1.03-0.0443,2.07-0.188,3.09-0.229,1.79-0.396,3.63-0.219,5.44,0.107,1.18,0.224,2.33,0.406,3.5,0.105,0.674,0.292,1.84,0.469,2.5,0.103,0.385,0.25,0.747,0.375,1.12,0.356,0.594,0.806,1.45,1.41,1.84,0.654,0.433,1.68,0.361,2.38,0.281,0.953-0.109,3.24-0.637,4.06-0.812,3.07-0.713,6.12-1.43,9.12-2.38,1.06-0.336,2.2-0.55,3.19-1.06,1.88-0.972,3.72-2,5.56-3.03v-3.34c-2.37,0.745-4.77,1.26-7.22,1.72-1.18,0.171-2.17,0.351-3.34,0.406-0.609,0.0285-1.56,0.0838-2.03-0.438-0.157-0.172-0.253-0.395-0.375-0.594-0.859-2.03-0.974-4.27-1.09-6.44-0.0464-1.67,0.299-3.3,0.562-4.94,0.208-0.0578,0.418-0.0974,0.625-0.156,1.71-0.485,3.42-1.01,5.12-1.5,1.77-0.511,3.56-0.96,5.31-1.5,0.662-0.203,1.61-0.511,2.44-0.781v-4.44zm-105,1.56c-1.26,0.717-2.68,1.54-4.41,2.5-0.974,0.539,1.9-1.15,2.88-1.69,0.508-0.282,1.01-0.547,1.53-0.812zm92.5,2.97c0.122-0.01,0.195-0.0121,0.125,0.0312-0.226,0.14-0.46,0.268-0.688,0.406,0.0117-0.0507,0.018-0.106,0.0312-0.156,0.0588-0.08,0.0639-0.182,0.156-0.219,0.0766-0.0303,0.253-0.0529,0.375-0.0625zm-63.3,1.06c0.0171,0.108,0.0592,0.177,0.312,2,0.076,0.547,0.0958,1.08,0.188,1.62,0.204,1.21,0.56,2.41,0.875,3.59,0.543,1.69,1.43,3.23,2.56,4.59,0.735,0.887,1.55,1.7,2.31,2.56,0.581,0.744,1.29,1.41,1.88,2.16,1.3-0.531,3.31-1.4,5.97-2.72-1.87,1.08-3.73,2.16-5.59,3.25,0.008,0.012,0.0233,0.0192,0.0312,0.0312,0.196,0.299,0.347,0.759,0.25,0.812-0.118,0.0654-0.243-0.0625-0.375-0.0937-0.419-0.0438-0.676-0.091-0.969-0.125-0.989,0.582-1.98,1.16-2.97,1.75-0.164,0.0981-0.263,0.283-0.375,0.438-0.519,0.714-0.344,1.44-0.0937,2.22,0.0994,0.207,0.207,0.42,0.312,0.625,0.117,0.227,0.199,0.354,0.281,0.5-3.04,0.257-6.1,0.337-9.16,0.438-3.36,0.175-6.79-0.0263-10.2,0.188,0.0525-0.346,0.0911-0.687,0.156-1.03,0.217-1.15,0.447-2.01,0.75-3.12,0.314-0.901,0.598-1.85,1.22-2.59,0.136-0.163,0.324-0.282,0.469-0.438,0.778-0.831,0.0828-0.256,1.09-1,0.283-0.19,0.568-0.363,0.844-0.562,0.0607-0.0439,0.128-0.0791,0.188-0.125,1.59-0.925,3.5-2.08,8.16-4.81,0.179-0.105,0.878-0.66,1-0.906,0.0638-0.129,0.289-1.35,0.312-1.47,0.0699-0.253,0.181-0.491,0.219-0.75,0.0588-0.404,0.114-2.62,0.125-2.84,0.0976-1.99,0.15-2.09,0.188-4.19zm7.44,17.7c0.354-0.208,0.708-0.418,1.06-0.625-0.119-0.178-0.242-0.363-0.375-0.531-2.03,0.833-2.3,0.969-0.688,1.16zm-10-10c0.0366-0.0201-0.511,0.303-1.81,1.06-2.05,1.22-1.23,0.723-1.16,0.656,1.32-0.752,2.93-1.7,2.97-1.72zm50.1,5.31c0.189-0.105-0.354,0.285-0.562,0.344-0.0205,0.006-0.0418-0.005-0.0625,0,0.208-0.115,0.417-0.228,0.625-0.344zm-12,6.72c-0.0104,0.018-0.0193,0.0485-0.0312,0.0625-0.111,0.131-0.619,0.303-0.469,0.219,0.167-0.0936,0.333-0.188,0.5-0.281zm-27.9,0.188c-0.324,0.187-0.645,0.376-0.969,0.562,0.193-0.13,0.358-0.264,0.562-0.375,0.136-0.0741,0.276-0.134,0.406-0.188zm-21.8,5.09c0.0991-0.0865,0.193,0.215,0.281,0.312l-0.0937,0.0625c-0.0821-0.108-0.29-0.286-0.188-0.375zm20.1,1.31c-0.039,0.119-0.0611,0.249-0.125,0.312-0.0781,0.0781-2.31,1.16-1.22,0.5,0.447-0.271,0.895-0.543,1.34-0.812zm70.4,0.0937c-0.714,1.25-1.51,2.47-2.38,3.62-1.37,1.82-1.57,2.1-2.97,3.81-1.19,1.45-2.56,2.81-3.19,4.62-0.0695,0.3-0.173,0.602-0.219,0.906-0.0328,0.22-0.0602,0.435-0.0625,0.656l8.81-5.03v-8.59zm-44,2c0.313,0.105,0.152,0.0834,0.469,0.0937-0.184,0.11-0.378,0.203-0.562,0.312,0.001-0.149,0.0349-0.29,0.0937-0.406z"/>
<path id="path4133" style="enable-background:accumulate;fill-rule:nonzero;color:#000000;filter:url(#filter4159);fill:#1a1a1a;" d="m191,668-0.915,58s20.4,19.2,22.3,15.9c1.83-3.36-18-14.3-18-19.5,0-5.19-5.49-47,2.14-46.4,7.63,0.61,5.49-3.97,5.49-3.97z"/>
</g>
<use id="use4261" xlink:href="#g4231" transform="matrix(0.13976835,0.60868011,-0.60868011,0.13976835,204.43032,16.237822)" height="1052.3622" width="744.09448" y="0" x="0"/>
<use id="use4263" xlink:href="#g4231" transform="matrix(0.33274145,-0.5996946,0.5996946,0.33274145,56.734586,121.8812)" height="1052.3622" width="744.09448" y="0" x="0"/>
<use id="use4265" xlink:href="#g4231" transform="matrix(0.53750811,0.00903906,-0.00903906,0.53750811,82.172125,35.060316)" height="1052.3622" width="744.09448" y="0" x="0"/>
<use id="use4267" xlink:href="#g4231" transform="matrix(0.47116876,0.48055621,-0.48055621,0.47116876,127.68138,-11.507923)" height="1052.3622" width="744.09448" y="0" x="0"/>
<use id="use4269" xlink:href="#g4231" transform="matrix(1.3383193,0.10852137,-0.10852137,1.3383193,1.6931932,-39.716468)" height="1052.3622" width="744.09448" y="0" x="0"/>
<use id="use4271" xlink:href="#g4231" transform="matrix(0.68367376,-0.26386455,0.26386455,0.68367376,42.85896,55.581027)" height="1052.3622" width="744.09448" y="0" x="0"/>
<use id="use4273" xlink:href="#g4231" transform="matrix(0.66772778,-0.72416646,0.72416646,0.66772778,6.8790917,110.28002)" height="1052.3622" width="744.09448" y="0" x="0"/>
<use id="use4275" xlink:href="#g4231" transform="matrix(0.44837064,0.37368714,-0.37368714,0.44837064,115.15333,13.597182)" height="1052.3622" width="744.09448" y="0" x="0"/>
<use id="use4277" xlink:href="#g4231" transform="matrix(0.14277163,0.892025,-0.892025,0.14277163,189.45591,-7.328926)" height="1052.3622" width="744.09448" y="0" x="0"/>
<use id="use4279" xlink:href="#g4231" transform="matrix(0.80672294,-0.58455303,0.58455303,0.80672294,-8.9579667,98.395607)" height="1052.3622" width="744.09448" y="0" x="0"/>
<use id="use4295" xlink:href="#g4231" transform="matrix(0.78984971,-0.54094838,0.54094838,0.78984971,22.512482,93.046992)" height="1052.3622" width="744.09448" y="0" x="0"/>
<use id="use4297" xlink:href="#g4231" transform="matrix(0.60473485,1.0486388,-1.0486388,0.60473485,171.50113,-69.082763)" height="1052.3622" width="744.09448" y="0" x="0"/>
<use id="use4299" xlink:href="#g4231" transform="matrix(0.85458042,0.76377793,-0.76377793,0.85458042,122.96714,-61.106685)" height="1052.3622" width="744.09448" y="0" x="0"/>
<use id="use4301" xlink:href="#g4231" transform="matrix(0.08597431,0.56949923,-0.56949923,0.08597431,181.69336,26.510209)" height="1052.3622" width="744.09448" y="0" x="0"/>
<use id="use4303" xlink:href="#g4231" transform="matrix(0.75284554,0.42703923,-0.42703923,0.75284554,107.92901,5.9289635)" height="1052.3622" width="744.09448" y="0" x="0"/>
<use id="use4305" xlink:href="#g4231" transform="matrix(0.11280663,-1.4124599,1.4124599,0.11280663,28.373776,254.11867)" height="1052.3622" width="744.09448" y="0" x="0"/>
<use id="use4307" xlink:href="#g4231" transform="matrix(0.31286439,-1.016545,1.016545,0.31286439,26.861739,191.32687)" height="1052.3622" width="744.09448" y="0" x="0"/>
<use id="use4309" xlink:href="#g4231" transform="matrix(0.27141719,0.47072142,-0.47072142,0.27141719,149.13996,31.077723)" height="1052.3622" width="744.09448" y="0" x="0"/>
<use id="use4311" xlink:href="#g4231" transform="matrix(0.21060411,0.68168246,-0.68168246,0.21060411,195.0102,14.17924)" height="1052.3622" width="744.09448" y="0" x="0"/>
<use id="use4313" xlink:href="#g4231" transform="matrix(1.3456588,0.48787506,-0.48787506,1.3456588,59.167724,-56.301355)" height="1052.3622" width="744.09448" y="0" x="0"/>
<use id="use4315" xlink:href="#g4231" transform="matrix(0.72876965,0.21024506,-0.21024506,0.72876965,105.38805,28.226002)" height="1052.3622" width="744.09448" y="0" x="0"/>
<use id="use4317" xlink:href="#g4231" transform="matrix(1.2907013,0.57293805,-0.57293805,1.2907013,72.56923,-80.211467)" height="1052.3622" width="744.09448" y="0" x="0"/>
<use id="use4319" xlink:href="#g4231" transform="matrix(0.75069512,0.62496264,-0.62496264,0.75069512,124.32235,-48.407941)" height="1052.3622" width="744.09448" y="0" x="0"/>
<use id="use4323" xlink:href="#g4231" transform="matrix(0.47292284,0.5873501,-0.5873501,0.47292284,121.06648,-19.824488)" height="1052.3622" width="744.09448" y="0" x="0"/>
<use id="use4325" xlink:href="#g4231" transform="matrix(1.1161001,-0.84464282,0.84464282,1.1161001,-31.806936,92.880381)" height="1052.3622" width="744.09448" y="0" x="0"/>
<use id="use4361" xlink:href="#g4231" transform="matrix(0.1888393,-0.65312386,0.65312386,0.1888393,55.540063,166.49103)" height="1052.3622" width="744.09448" y="0" x="0"/>
<use id="use4363" xlink:href="#g4231" transform="matrix(0.15915875,-0.83845969,0.83845969,0.15915875,40.435048,173.71021)" height="1052.3622" width="744.09448" y="0" x="0"/>
<use id="use4365" xlink:href="#g4231" transform="matrix(0.37160732,0.5221852,-0.5221852,0.37160732,127.22488,7.0634508)" height="1052.3622" width="744.09448" y="0" x="0"/>
<use id="use4367" xlink:href="#g4231" transform="matrix(1.0256348,0.23050727,-0.23050727,1.0256348,25.027034,-16.153758)" height="1052.3622" width="744.09448" y="0" x="0"/>
<use id="use4369" xlink:href="#g4231" transform="matrix(0.57713602,-0.05813736,0.05813736,0.57713602,47.646374,49.811243)" height="1052.3622" width="744.09448" y="0" x="0"/>
<use id="use4371" xlink:href="#g4231" transform="matrix(0.80233112,0.19264578,-0.19264578,0.80233112,43.53512,18.021522)" height="1052.3622" width="744.09448" y="0" x="0"/>
<use id="use4375" xlink:href="#g4231" transform="matrix(0.35862539,-0.48047916,0.48047916,0.35862539,35.743358,138.8283)" height="1052.3622" width="744.09448" y="0" x="0"/>
<use id="use4377" xlink:href="#g4231" transform="matrix(0.96768813,-0.45341438,0.45341438,0.96768813,-27.79599,75.541241)" height="1052.3622" width="744.09448" y="0" x="0"/>
<use id="use4379" xlink:href="#g4231" transform="matrix(0.91467274,-0.4502876,0.4502876,0.91467274,-23.180905,81.429537)" height="1052.3622" width="744.09448" y="0" x="0"/>
<use id="use4381" xlink:href="#g4231" transform="matrix(0.66470098,0.65668123,-0.65668123,0.66470098,93.498825,-10.501257)" height="1052.3622" width="744.09448" y="0" x="0"/>
<use id="use4383" xlink:href="#g4231" transform="matrix(0.46218733,0.83023604,-0.83023604,0.46218733,138.44564,-10.829259)" height="1052.3622" width="744.09448" y="0" x="0"/>
<use id="use4387" xlink:href="#g4231" transform="matrix(0.22487584,0.99174942,-0.99174942,0.22487584,172.1691,-14.159225)" height="1052.3622" width="744.09448" y="0" x="0"/>
<use id="use4391" xlink:href="#g4231" transform="matrix(0.1880167,-0.85705954,0.85705954,0.1880167,19.290531,191.19811)" height="1052.3622" width="744.09448" y="0" x="0"/>
<use id="use4393" xlink:href="#g4231" transform="matrix(0.26727185,0.50148586,-0.50148586,0.26727185,111.95752,36.422222)" height="1052.3622" width="744.09448" y="0" x="0"/>
<use id="use4401" xlink:href="#g4231" transform="matrix(0.44561084,0.73461035,-0.73461035,0.44561084,100.07444,-4.9748792)" height="1052.3622" width="744.09448" y="0" x="0"/>
<use id="use4403" xlink:href="#g4231" transform="matrix(0.52923753,-0.24960019,0.24960019,0.52923753,11.753492,99.462568)" height="1052.3622" width="744.09448" y="0" x="0"/>
<use id="use4405" xlink:href="#g4231" transform="matrix(1.1085346,0.00931359,-0.00931359,1.1085346,-31.923901,19.891297)" height="1052.3622" width="744.09448" y="0" x="0"/>
<use id="use4407" xlink:href="#g4231" transform="matrix(0.75278548,-0.23096178,0.23096178,0.75278548,-13.254788,68.442398)" height="1052.3622" width="744.09448" y="0" x="0"/>
<use id="use4411" xlink:href="#g4231" transform="matrix(1.0688067,0.24184465,-0.24184465,1.0688067,-10.352172,-23.545301)" height="1052.3622" width="744.09448" y="0" x="0"/>
<use id="use4413" xlink:href="#g4231" transform="matrix(0.15516277,1.1656888,-1.1656888,0.15516277,163.34125,-48.704636)" height="1052.3622" width="744.09448" y="0" x="0"/>
<use id="use4415" xlink:href="#g4231" transform="matrix(0.48523876,0.22323839,-0.22323839,0.48523876,59.071546,29.850058)" height="1052.3622" width="744.09448" y="0" x="0"/>
<use id="use4417" xlink:href="#g4231" transform="matrix(1.4414432,-0.25391476,0.25391476,1.4414432,-80.205354,3.7939052)" height="1052.3622" width="744.09448" y="0" x="0"/>
<use id="use4419" xlink:href="#g4231" transform="matrix(0.56395928,-0.52220255,0.52220255,0.56395928,-9.9991968,120.39735)" height="1052.3622" width="744.09448" y="0" x="0"/>
<use id="use4423" xlink:href="#g4231" transform="matrix(0.40747539,0.49266482,-0.49266482,0.40747539,107.08818,7.277638)" height="1052.3622" width="744.09448" y="0" x="0"/>
<use id="use4425" xlink:href="#g4231" transform="matrix(0.60053761,-0.7514551,0.7514551,0.60053761,-14.3018,126.08316)" height="1052.3622" width="744.09448" y="0" x="0"/>
<use id="use4427" xlink:href="#g4231" transform="matrix(0.5762684,0.75789122,-0.75789122,0.5762684,110.83553,-31.670715)" height="1052.3622" width="744.09448" y="0" x="0"/>
<use id="use4429" xlink:href="#g4231" transform="matrix(0.62997968,0.06648212,-0.06648212,0.62997968,44.392833,38.188857)" height="1052.3622" width="744.09448" y="0" x="0"/>
<path id="path3768" d="m69.6,94.7,5.04,23.3c20.6,25,89.5,25.2,111-0.315l6.94-25.2c-29,30.2-97.6,22.2-123,1.9z" style="enable-background:accumulate;fill-rule:nonzero;color:#000000;fill:#bfc4c8;"/>
<path id="path3792" style="enable-background:accumulate;fill-rule:nonzero;color:#000000;filter:url(#filter3812);fill:#f6f7f9;" d="m-807,177,42.8,321c15.4,4.77,27.7,12.6,48.3,12.1l-18.7-320z" transform="matrix(0.28705769,0,0,0.28705769,325.27994,63.430559)"/>
<path id="path3794" d="m-534,170-60.4,324,25.3-25.6,69.2-318z" style="enable-background:accumulate;fill-rule:nonzero;color:#000000;filter:url(#filter3816);fill:#656e77;" transform="matrix(0.28705769,0,0,0.28705769,325.27994,63.430559)"/>
<g id="g3854" transform="matrix(0.29331612,0,0,0.29655517,329.84274,55.233365)">
<path id="path3856" style="baseline-shift:baseline;block-progression:tb;fill:#1a1a1a;color:#000000;direction:ltr;text-indent:0;text-align:start;filter:url(#filter3838);enable-background:accumulate;text-transform:none;" transform="matrix(0.97519525,0,0,1,-16.334312,0)" d="m-536,378c-7.81,13.4-19.5,25.6-34.5,36.1-28.9,20.1-69.3,32.8-114,32.8s-85.2-12.7-114-32.8c-10.5-7.29-19.3-15.5-26.4-24.3l5.84,22.9c4.84,4.49,10.1,8.72,15.7,12.6,30.8,21.4,72.7,34.4,119,34.4,46.2,0,88.2-13,119-34.4,8.18-5.7,15.6-12.1,22.1-19l7.56-28.3z"/>
<path id="path3858" style="baseline-shift:baseline;block-progression:tb;fill:url(#radialGradient7013);color:#000000;direction:ltr;text-indent:0;text-align:start;enable-background:accumulate;text-transform:none;" d="m-536,378c-7.81,13.4-19.5,25.6-34.5,36.1-28.9,20.1-69.3,32.8-114,32.8s-85.2-12.7-114-32.8c-10.5-7.29-19.3-15.5-26.4-24.3l5.84,18.6c4.84,4.49,10.1,8.72,15.7,12.6,30.8,21.4,72.7,34.4,119,34.4,46.2,0,88.2-13,119-34.4,8.18-5.7,15.6-12.1,22.1-19z"/>
</g>
<g id="g3842" transform="matrix(0.28705769,0,0,0.28705769,325.27994,63.430559)">
<path id="path3830" style="baseline-shift:baseline;block-progression:tb;fill:#1a1a1a;color:#000000;direction:ltr;text-indent:0;text-align:start;filter:url(#filter3838);enable-background:accumulate;text-transform:none;" transform="matrix(0.97519525,0,0,1,-16.334312,0)" d="m-536,378c-7.81,13.4-19.5,25.6-34.5,36.1-28.9,20.1-69.3,32.8-114,32.8s-85.2-12.7-114-32.8c-10.5-7.29-19.3-15.5-26.4-24.3l5.84,22.9c4.84,4.49,10.1,8.72,15.7,12.6,30.8,21.4,72.7,34.4,119,34.4,46.2,0,88.2-13,119-34.4,8.18-5.7,15.6-12.1,22.1-19l7.56-28.3z"/>
<path id="path3772" style="baseline-shift:baseline;block-progression:tb;fill:url(#radialGradient7015);color:#000000;direction:ltr;text-indent:0;text-align:start;enable-background:accumulate;text-transform:none;" d="m-536,378c-7.81,13.4-19.5,25.6-34.5,36.1-28.9,20.1-69.3,32.8-114,32.8s-85.2-12.7-114-32.8c-10.5-7.29-19.3-15.5-26.4-24.3l5.84,18.6c4.84,4.49,10.1,8.72,15.7,12.6,30.8,21.4,72.7,34.4,119,34.4,46.2,0,88.2-13,119-34.4,8.18-5.7,15.6-12.1,22.1-19z"/>
</g>
<g id="g3846" transform="matrix(0.27975618,0,0,0.26784103,320.16271,75.770586)">
<path id="path3848" d="m-536,378c-7.81,13.4-19.5,25.6-34.5,36.1-28.9,20.1-69.3,32.8-114,32.8s-85.2-12.7-114-32.8c-10.5-7.29-19.3-15.5-26.4-24.3l5.84,22.9c4.84,4.49,10.1,8.72,15.7,12.6,30.8,21.4,72.7,34.4,119,34.4,46.2,0,88.2-13,119-34.4,8.18-5.7,15.6-12.1,22.1-19l7.56-28.3z" style="baseline-shift:baseline;block-progression:tb;fill:#1a1a1a;color:#000000;direction:ltr;text-indent:0;text-align:start;filter:url(#filter3838);enable-background:accumulate;text-transform:none;" transform="matrix(0.97519525,0,0,1,-16.334312,0)"/>
<path id="path3850" d="m-536,378c-7.81,13.4-19.5,25.6-34.5,36.1-28.9,20.1-69.3,32.8-114,32.8s-85.2-12.7-114-32.8c-10.5-7.29-19.3-15.5-26.4-24.3l5.84,18.6c4.84,4.49,10.1,8.72,15.7,12.6,30.8,21.4,72.7,34.4,119,34.4,46.2,0,88.2-13,119-34.4,8.18-5.7,15.6-12.1,22.1-19z" style="baseline-shift:baseline;block-progression:tb;fill:url(#radialGradient7017);color:#000000;direction:ltr;text-indent:0;text-align:start;enable-background:accumulate;text-transform:none;"/>
</g>
<path id="path3862" d="m-651,190,0,325,21.5-3.23,34.5-329z" style="enable-background:accumulate;fill-rule:nonzero;color:#000000;filter:url(#filter3874);fill:#ffffff;" transform="matrix(0.28705769,0,0,0.28705769,325.27994,63.430559)"/>
<path id="path3864" d="m-875,134,29.1,22.6,57.1,327-14-42z" style="enable-background:accumulate;fill-rule:nonzero;color:#000000;filter:url(#filter3890);fill:#727a83;" transform="matrix(0.28705769,0,0,0.28705769,325.27994,63.430559)"/>
<path id="path2998" style="enable-background:accumulate;color:#000000;stroke:#727272;stroke-miterlimit:4;stroke-dasharray:none;stroke-width:10.88657475;fill:none;" d="m-500,96.8c0,46.1-92.9,83.5-208,83.5s-208-37.4-208-83.5,92.9-83.5,208-83.5,208,37.4,208,83.5z" transform="matrix(0.29503356,0,0,0.30342161,339.59178,59.58562)"/>
<path id="path4721" d="m-875,184,0,7.47,0.125,0.594c71.6,87,312,87.9,386-1.09l0.344-1.25v-2.88c-74,88.6-314,87.6-385,0.75l-0.781-3.59z" style="opacity:0.50505048;enable-background:accumulate;fill-rule:nonzero;color:#000000;filter:url(#filter4745);fill:#1a1a1a;" transform="matrix(0.28291885,0,0,0.28705769,322.55099,63.430559)"/>
</g>
</g>
</svg>