<svg xmlns="http://www.w3.org/2000/svg" xmlns:xlink="http://www.w3.org/1999/xlink" xmlns:xhtml="http://www.w3.org/1999/xhtml">
  <style type="text/css">
    @import url(objectcase.css);
  </style>
  <symbol id="jellyfish" viewBox="0 0 400 500">
    <path d="M200,0.438c-90,0.772-172,72-192,160-6.89,28-8.74,57-6.79,86,6.82,22,35.8,21,52.8,13,7.2-3,14.6-6,22.2-8,3.8,4,7.1,10,9.8,15-11.7,36-12.4,74-8.2,112-20.8,33-48.2,67-41.7,109,2.4,23,13.8,44,30.3,59-2.4,3-5,7-7.8,10-9.3,11,0.2,1,8.1-10,14.2,13,32.1,22,50.9,24-18.9-2-36.4-12-50.1-25,3.6-5,6.7-10,7.4-12,7.9-14,12.3-29,14.6-44,13.1,29,43.1,48,74.1,49-33-1-62-24-73.4-54,2.1-18,1.3-36-0.4-54,12.8-42,49.8-76,43.8-123-2-24-13-46-30-62v-1c8-1,15-1,22,0,7,10,19,21,18,30,11,28,14,59,11,88-17,19-33,40-28,66,2,7,5,13,9,18-2,25,5,50,24,67,5,7,17,13,27,17h-2,3c1,0,2,1,4,1-2,0-3-1-4-1,8-4,16-8,23-14,3,13-5,34-10,42,10-11,13-27,10-42,16,13,35,20,55,20-20,0-39-8-53-21,9-8,16-17,22-27,9,12,20,22,33,30-1,12,2,24,8,34-10,8-21,13-34,17,13-3,25-9,35-16,2,4,6,7,10,10-4-3-7-6-10-10,9-7,17-15,23-24,5,1,11,2,16,2-3,0-9-1-15-3,14-19,21-43,21-66,15-10,29-22,31-41,4-37-29-59-49-86,0-11,2-21,6-32,7-19,18-38,32-52,2,0,3,1,5,2,17,6,39,13,54-1,12-21,7-46,5-69-9-60-42-116-94-150-31-21.1-69-33.6-107-32.8-2-0.024-3-0.044-5-0.031zm1,558c-1,2-3,3-4,5,1,0,2-2,4-5zm99-315h2c-26,24-28,68-5,95-1,19,2,39,8,58,6,20,12,43,13,65-10,6-20,12-29,18-12,9-19,23-21,37-1,0-1-1-2-1-12-8-22-17-29-29,10-18,15-38,13-59-1-20-4-41-7-61,19-26,41-51,37-84-1-12-5-23-12-33,1-1,2-2,3-4,10-1,19-2,29-2zm16,1c5,0,11,2,16,3-5,7-9,14-12,17-13,19-20,40-22,63-17-27-9-66,18-83zm-226,3c0.9,0,1.9,1,2.8,1-0.8,3-1.6,6-2.4,9-1.7-3-3.5-6-5.5-9,1.7,0,3.4-1,5.1-1zm50.9,0c10,2,19,3,29,4,28,22,27,67,3,92-4,3-7,7-11,11,2-10,2-19,1-30-2-27-9-53-22-77zm116,1v1l1,1c-2,3-4,6-6,8-18,33-21,70-15,106-13,20-22,41-21,65-1,21,6,41,18,58-3,5-6,10-10,15-3,4-7,8-12,12-1,0-1-1-2-1-3-13-10-25-21-33-5-12-7-26-5-40,7-48,47-89,39-140-1-16-7-32-17-46,17,0,34-1,51-6zm-73,5c4,0,8,0,12,1,2,2,4,5,5,8,22,32,18,75,2,110-15,32-31,70-18,106-15-11-34-19-46-34,1-1,1-2,1-3,6-26,16-51,21-76,8-9,18-18,24-28,20-25,17-61-1-84zm-84,0c4,2,7,5,8,9,26,31,24,76,4,110-8,15-16.9,31-22.9,48-1.6-14-3.6-28-5.1-41,11.3-19,20-37,21-60,1-18-2-36-9.6-53,1.6-4,3.3-9,4.6-13zm163,4c15,25,10,58-8,81-4,6-8,12-13,18-2-24-2-49,8-73,4-9,8-18,13-26zm-171,21c10.3,30,7.2,64-8.6,92-0.1-1-0.2-1-0.2-2-2.6-30,0.5-61,8.8-90zm211,67c20,22,48,43,46,76-2,17-14,28-27,37-1-3-1-6-1-9-4-34-17-69-18-104zm-150,28c-2,14-6,27-11,40-3,9-5,18-6,27-3-5-4-10-5-16-2-21,9-37,22-51zm85,0c1,4,2,7,2,11,7,33,11,70-4,100-21-32-22-76,0-108,1-1,1-2,2-3zm-159,13c1.6,12,3.6,24,5.8,36,0.5,2,0.9,5,1.3,7-4.8,17-5.8,35,0.9,53,0.3,1,0.5,1,0.8,2-2.3,22-8.5,42-20.3,61-21.5-22-33.4-53-27.5-83,5.1-29,23.2-52,39-76zm8.5,54c1.4,12,1.8,25,0.9,38-3.1-11-3.8-23-1.7-34,0.2-1,0.5-3,0.8-4zm51.4,9c12,14,32,22,47,33,1,1,1,2,2,3,5,12,13,22,22,30-8,6-17,12-22,14-31-12-53-46-49-80zm179,15c0,19-3,38-13,55-2,3-4,6-6,9-10-2-22-6-30-11,3-16,12-31,26-39,7-5,15-9,23-14zm-127,21c8,7,15,15,18,26-8-7-14-16-18-26zm78,33c9,5,19,9,29,11-6,9-13,16-22,23-6-10-8-22-7-34zm-72,14c6,2,10,3,11,2-4,0-8-1-11-2z"/>
    <g id="eye" transform="matrix(0.89472818,0,0,0.89472818,363.45969,-292.73304)">
      <path fill="yellow" d="m-139,494c-4.15,39.8,46.2,71.1,80.1,49.9,15-7.45,25.7-23.6,28.7-39.9,0.194-14-16.3-9.07-25.4-9.96h-83.4z"/>
      <path fill="black" d="m-112,494c-4.57,20,18.9,32.5,35.7,26.2,12.5,0.718,26.1-27.1,9.42-26.2h-45.1z"/>
    </g>
    <use xlink:href="#eye" transform="translate(-150 0)"/>
  </symbol>
  <use xlink:href="#jellyfish" id="jellyfishExt"/>
</svg>