<svg xmlns="http://www.w3.org/2000/svg" viewBox="0 0 698 897"><g transform="translate(-31.234752,-32.583378)"><path d="M35 36L35 586 35 586C38 774 191 926 380 926 568 926 722 774 725 586L725 586 725 36 35 36z" style="fill:#fff;stroke-width:7;stroke:#000"/><path d="M600 115L683 214 682 244 516 244 516 214 600 115z" style="fill:#c20f00;stroke-width:2;stroke:#000"/><path d="M29 442A4 4 0 1 1 21 442 4 4 0 1 1 29 442z" transform="matrix(1.7334623,0,0,1.7334623,556.91734,-654.59358)" style="fill:#fd5;stroke:#000"/><path d="M599 76L599 103 537 89 599 76z" style="fill:#5d41ad;stroke-width:2;stroke:#000"/><path d="M600 104L599 58" style="fill:none;stroke-width:3;stroke:#000"/><path d="M511 257L688 257 679 266 520 266 511 257z" style="fill:#a02c2c;stroke-width:2;stroke:#000"/><path d="M525 267L675 267 676 751C676 751 668 765 659 778 649 792 637 806 637 806L525 806 525 267z" style="fill:#c20f00;stroke-width:2;stroke:#000"/><rect width="151" height="14" x="525" y="267" style="fill:#c20f00;stroke-width:2;stroke:#000"/><rect width="22" height="63" x="536" y="302" ry="11" rx="11" style="fill:#c20f00;stroke-width:2;stroke:#000"/><rect rx="11" ry="11" y="302" x="571" height="63" width="22" style="fill:#c20f00;stroke-width:2;stroke:#000"/><rect width="22" height="63" x="606" y="302" ry="11" rx="11" style="fill:#c20f00;stroke-width:2;stroke:#000"/><rect rx="11" ry="11" y="302" x="641" height="63" width="22" style="fill:#c20f00;stroke-width:2;stroke:#000"/><rect width="175" height="11" x="512" y="347" style="fill:#c20f00;stroke-width:2;stroke:#000"/><rect width="161" height="11" x="519" y="358" style="fill:#c20f00;stroke-width:2;stroke:#000"/><rect width="82" height="102" x="559" y="393" style="fill:#fff;stroke-width:2;stroke:#000"/><rect width="26" height="33" x="569" y="401" style="fill:#030000;stroke-width:2;stroke:#000"/><rect y="401" x="605" height="33" width="26" style="fill:#030000;stroke-width:2;stroke:#000"/><rect y="443" x="569" height="42" width="26" style="fill:#030000;stroke-width:2;stroke:#000"/><rect width="26" height="42" x="605" y="443" style="fill:#030000;stroke-width:2;stroke:#000"/><path d="M604 520C599 519 588 519 589 527 588 534 593 544 585 548 574 561 588 584 604 579 620 576 624 552 611 544 609 536 614 525 606 519L605 520 604 520z" style="fill:#c20f00;stroke-width:2;stroke:#000"/><path d="M597 527L597 548C591 550 588 554 588 560 588 567 593 572 600 572 607 572 612 567 612 560 612 554 609 550 604 548L604 527 597 527z" style="fill:#070707;stroke-width:2;stroke:#000"/><path d="M510 210L510 256 688 256 688 210 661 210 661 238 639 238 639 210 611 210 611 238 588 238 588 210 560 210 560 238 539 238 539 210 510 210z" style="fill:#c20f00;stroke-width:2;stroke:#000"/><path d="M599 607C572 607 551 629 551 655L551 806 636 805 647 793 647 655C647 629 626 607 599 607z" style="fill:#c20f00;stroke-width:2;stroke:#000"/><rect width="110" height="27" x="544" y="651" style="fill:#c20f00;stroke-width:2;stroke:#000"/><rect y="704" x="544" height="27" width="110" style="fill:#c20f00;stroke-width:2;stroke:#000"/><rect width="110" height="27" x="544" y="757" style="fill:#c20f00;stroke-width:2;stroke:#000"/><path d="M611 596L601 656 585 596C594 594 603 594 611 596z" style="fill:#c20f00;stroke-width:1;stroke:#000"/><path d="M565 607L599 656 548 628C552 619 558 612 565 607z" style="fill:#c20f00;stroke-width:1;stroke:#000"/><path d="M650 627L600 657 633 606C640 612 646 619 650 627z" style="fill:#c20f00;stroke-width:1;stroke:#000"/><path d="M597 619C577 619 561 637 561 659L561 806 633 806 633 659C633 637 617 619 597 619z" style="fill:#280b0b;stroke-width:2;stroke:#000"/><path d="M599 619C588 619 578 625 571 634 572 634 572 634 573 634 587 634 598 650 598 670L598 806 636 806 636 659C636 637 619 619 599 619z" style="fill:#c20f00;stroke-width:2;stroke:#000"/><path d="M163 115L246 214 245 244 79 244 79 214 163 115z" style="fill:#c20f00;stroke-width:2;stroke:#000"/><path transform="matrix(1.7334623,0,0,1.7334623,119.87232,-654.59348)" d="M29 442A4 4 0 1 1 21 442 4 4 0 1 1 29 442z" style="fill:#fd5;stroke:#000"/><path d="M162 76L162 103 100 89 162 76z" style="fill:#5d41ad;stroke-width:2;stroke:#000"/><path d="M163 104L162 58" style="fill:none;stroke-width:3;stroke:#000"/><path d="M74 257L251 257 242 266 83 266 74 257z" style="fill:#a02c2c;stroke-width:2;stroke:#000"/><path d="M88 267L238 267 238 806C238 806 160 807 123 806 110 794 109 791 103 782 97 773 88 758 88 758L88 267z" style="fill:#c20f00;stroke-width:2;stroke:#000"/><rect y="267" x="88" height="14" width="151" style="fill:#c20f00;stroke-width:2;stroke:#000"/><rect rx="11" ry="11" y="302" x="99" height="63" width="22" style="fill:#c20f00;stroke-width:2;stroke:#000"/><rect width="22" height="63" x="134" y="302" ry="11" rx="11" style="fill:#c20f00;stroke-width:2;stroke:#000"/><rect rx="11" ry="11" y="302" x="169" height="63" width="22" style="fill:#c20f00;stroke-width:2;stroke:#000"/><rect width="22" height="63" x="204" y="302" ry="11" rx="11" style="fill:#c20f00;stroke-width:2;stroke:#000"/><rect y="347" x="75" height="11" width="175" style="fill:#c20f00;stroke-width:2;stroke:#000"/><rect y="358" x="82" height="11" width="161" style="fill:#c20f00;stroke-width:2;stroke:#000"/><rect y="393" x="122" height="102" width="82" style="fill:#fff;stroke-width:2;stroke:#000"/><rect y="401" x="132" height="33" width="26" style="fill:#030000;stroke-width:2;stroke:#000"/><rect width="26" height="33" x="168" y="401" style="fill:#030000;stroke-width:2;stroke:#000"/><rect width="26" height="42" x="132" y="443" style="fill:#030000;stroke-width:2;stroke:#000"/><rect y="443" x="168" height="42" width="26" style="fill:#030000;stroke-width:2;stroke:#000"/><path d="M167 520C162 519 151 519 152 527 151 534 156 544 148 548 137 561 151 584 167 579 183 576 187 552 174 544 172 536 177 525 169 519L168 520 167 520z" style="fill:#c20f00;stroke-width:2;stroke:#000"/><path d="M159 527L159 548C154 550 151 554 151 560 151 567 156 572 163 572 170 572 175 567 175 560 175 554 172 550 167 548L167 527 159 527z" style="fill:#070707;stroke-width:2;stroke:#000"/><path d="M73 210L73 256 251 256 251 210 224 210 224 238 201 238 201 210 174 210 174 238 151 238 151 210 123 210 123 238 102 238 102 210 73 210z" style="fill:#c20f00;stroke-width:2;stroke:#000"/><path d="M162 607C188 607 210 629 210 655L210 806 122 806 115 798 114 655C114 629 135 607 162 607z" style="fill:#c20f00;stroke-width:2;stroke:#000"/><rect y="651" x="-217" height="27" width="110" transform="scale(-1,1)" style="fill:#c20f00;stroke-width:2;stroke:#000"/><rect width="110" height="27" x="-217" y="704" transform="scale(-1,1)" style="fill:#c20f00;stroke-width:2;stroke:#000"/><rect y="757" x="-217" height="27" width="110" transform="scale(-1,1)" style="fill:#c20f00;stroke-width:2;stroke:#000"/><path d="M150 596L160 656 175 596C167 594 158 594 150 596z" style="fill:#c20f00;stroke-width:1;stroke:#000"/><path d="M196 607L161 656 213 628C209 619 203 612 196 607z" style="fill:#c20f00;stroke-width:1;stroke:#000"/><path d="M111 627L160 657 128 606C120 612 114 619 111 627z" style="fill:#c20f00;stroke-width:1;stroke:#000"/><path d="M164 619C184 619 200 637 200 659L200 806 128 806 128 659C128 637 144 619 164 619z" style="fill:#280b0b;stroke-width:2;stroke:#000"/><path d="M161 619C173 619 183 625 190 634 189 634 189 634 188 634 174 634 163 650 163 670L163 806 125 806 125 659C125 637 141 619 161 619z" style="fill:#c20f00;stroke-width:2;stroke:#000"/><rect width="212" height="276" x="276" y="531" style="fill:#000;stroke-width:2;stroke:#000"/><path d="M238 368L238 807 316 807 316 662C316 625 345 595 381 595 418 595 447 625 447 662L447 807 525 807 525 368 238 368z" style="fill:#c20f00;stroke-width:2;stroke:#000"/><path d="M380 541C476 475 456 381 456 381L303 381C303 381 280 474 380 541z" style="fill:#5d41ad;stroke-width:2;stroke:#000"/><path d="M375 400L375 436 349 410 344 416 369 442 333 442 333 449 369 449 344 475 349 480 375 455 375 491 383 491 383 455 408 480 414 475 388 449 425 449 425 442 388 442 414 416 408 410 383 436 383 400 375 400z" style="fill:#fff;stroke-width:2;stroke:#000"/><path d="M379 389C347 389 322 414 322 445 322 477 347 502 379 502 410 502 436 477 436 445 436 414 410 389 379 389zM379 405C401 405 420 423 420 445 420 468 401 486 379 486 356 486 338 468 338 445 338 423 356 405 379 405z" style="fill:#fff;stroke-width:2;stroke:#000"/><path d="M-58 476A10 10 0 1 1-78 476 10 10 0 1 1-58 476z" transform="matrix(1.5606378,0,0,1.5568433,484.44059,-294.94539)" style="fill:#fff;stroke:#000"/><path d="M-63 475A5 5 0 1 1-73 475 5 5 0 1 1-63 475z" transform="matrix(1.5606378,0,0,1.5568433,484.44059,-293.37267)" style="fill:#fff;stroke:#000"/><rect width="276" height="10" x="244" y="358" style="fill:#c20f00;stroke-width:2;stroke:#000"/><rect width="261" height="11" x="250" y="347" style="fill:#c20f00;stroke-width:2;stroke:#000"/><path d="M239 292L239 336 524 336 524 292 497 292 497 319 474 319 474 292 446 292 446 319 423 319 423 292 392 292 392 319 369 319 369 292 339 292 339 319 316 319 316 292 288 292 288 319 265 319 265 292 239 292z" style="fill:#c20f00;stroke-width:1;stroke:#000"/><path d="M239 303L239 347 524 347 524 303 497 303 497 330 474 330 474 303 446 303 446 330 423 330 423 303 392 303 392 330 369 330 369 303 339 303 339 330 316 330 316 303 288 303 288 330 265 330 265 303 239 303z" style="fill:#c20f00;stroke-width:1;stroke:#000"/><path d="M381 583C336 583 300 619 300 659L299 806 316 806 316 667C316 630 345 600 381 600 418 600 447 630 447 667L447 806 464 806 464 657C464 618 427 583 381 583z" style="fill:#c20f00;stroke-width:2;stroke:#000"/><path d="M386 558C376 558 366 559 355 561L366 601C371 600 376 600 381 600 386 600 391 600 395 601L405 559C399 558 393 558 386 558z" style="fill:#c20f00;stroke-width:2;stroke:#000"/><path d="M315 579C303 591 294 604 286 620L324 635C328 626 335 618 343 612L315 579z" style="fill:#c20f00;stroke-width:2;stroke:#000"/><path d="M446 582L421 613C429 619 435 628 440 637L477 622C469 607 459 594 446 582z" style="fill:#c20f00;stroke-width:2;stroke:#000"/><path d="M514 594C478 594 449 624 449 662L449 807 515 807 515 594C515 594 515 594 514 594z" style="fill:#e5d857;stroke-width:2;stroke:#000"/><path d="M506 594L506 805" style="fill:#e5d857;stroke-width:2;stroke:#000"/><path d="M450 762L450 787C450 787 454 787 456 784 458 781 457 777 457 777L481 769C481 769 481 775 483 776 485 777 487 777 489 774 491 772 490 767 490 767 490 767 495 766 497 763 499 761 499 758 497 756 495 754 490 757 490 757 490 757 490 752 488 751 486 750 485 750 483 752 481 755 481 760 481 760L457 767C457 767 458 762 456 761 454 760 450 762 450 762z" style="fill:#fff;stroke-width:2;stroke:#000"/><path d="M449 661L449 685C449 685 454 685 456 682 457 680 457 675 457 675L481 668C481 668 480 673 482 674 484 676 487 675 488 673 490 670 489 665 489 665 489 665 495 664 496 662 498 659 499 656 497 654 495 653 489 655 489 655 489 655 490 650 488 649 486 648 484 648 482 651 480 653 481 658 481 658L457 666C457 666 457 661 455 660 453 658 449 661 449 661z" style="fill:#fff;stroke-width:2;stroke:#000"/><path d="M248 593C285 593 314 623 314 661L314 806 248 806 248 593C248 593 248 593 248 593z" style="fill:#e5d857;stroke-width:2;stroke:#000"/><path d="M257 593L257 804" style="fill:#e5d857;stroke-width:2;stroke:#000"/><path d="M313 761L313 786C313 786 309 786 307 783 305 781 306 776 306 776L281 768C281 768 282 774 280 775 278 777 276 776 274 774 272 771 273 766 273 766 273 766 268 765 266 762 264 760 264 757 266 755 268 754 273 756 273 756 273 756 273 751 275 750 276 749 278 749 280 752 282 754 281 759 281 759L306 766C306 766 305 762 307 760 309 759 313 761 313 761z" style="fill:#fff;stroke-width:2;stroke:#000"/><path d="M313 660L313 685C313 685 309 684 307 682 305 679 306 674 306 674L282 667C282 667 282 672 280 674 278 675 276 674 274 672 273 670 274 664 274 664 274 664 268 663 266 661 264 658 264 655 266 654 268 652 274 654 274 654 274 654 273 650 275 648 277 647 278 647 281 650 283 653 282 657 282 657L306 665C306 665 306 660 307 659 309 657 313 660 313 660z" style="fill:#fff;stroke-width:2;stroke:#000"/><path d="M383 599C381 599 380 599 378 599L378 608 363 608 363 602C359 603 356 605 352 607L352 608 350 608C341 614 333 621 327 631L327 636 324 636C322 640 321 645 320 649L327 649 327 664 317 664C317 665 317 666 317 667L317 677 327 677 327 692 337 692 337 677 352 677 352 692 363 692 363 677 378 677 378 692 389 692 389 677 404 677 404 692 414 692 414 677 429 677 429 692 439 692 439 677 449 677 449 667C449 666 448 665 448 664L439 664 439 649 446 649C445 645 443 640 441 636L439 636 439 631C433 621 425 614 416 608L414 608 414 607C410 605 407 604 404 603L404 608 389 608 389 599C387 599 385 599 383 599zM337 621L352 621 352 636 337 636 337 621zM363 621L378 621 378 636 363 636 363 621zM389 621L404 621 404 636 389 636 389 621zM414 621L429 621 429 636 414 636 414 621zM337 649L352 649 352 664 337 664 337 649zM363 649L378 649 378 664 363 664 363 649zM389 649L404 649 404 664 389 664 389 649zM414 649L429 649 429 664 414 664 414 649z" style="fill:#e5d857;stroke-width:2;stroke:#000"/><path d="M325 692L333 712 339 692 325 692zM350 692L358 712 365 692 350 692zM376 692L384 712 390 692 376 692zM402 692L410 712 416 692 402 692zM426 692L434 712 441 692 426 692z" style="fill:#fff;stroke-width:1;stroke:#000"/><path d="M509 126C503 123 503 123 500 119 500 118 499 110 499 110 500 104 500 99 499 93 498 88 496 84 493 80 487 75 478 75 471 75 464 75 459 78 455 82 450 87 449 89 448 91 446 95 445 99 444 103 443 111 442 116 442 124 442 127 446 136 447 138 449 141 449 140 451 143 453 142 454 139 455 138 454 136 454 137 453 135 452 133 450 126 450 124 449 118 449 116 450 110 451 104 452 99 455 94 457 89 463 85 466 84 469 83 475 83 477 84 481 86 482 88 483 92 484 98 483 103 483 109 483 112 485 117 487 119 490 124 490 123 495 126 500 127 504 127 509 126z" style="fill:#e5d857;stroke-width:2;stroke:#000"/><path d="M459 132C460 126 456 118 456 118 456 118 465 120 467 127 468 133 468 137 464 144 460 149 460 149 457 156 455 162 456 163 457 167 458 171 464 172 464 172L464 178C464 178 456 177 452 173 449 171 448 168 447 164 446 159 446 159 447 154 448 148 450 147 452 143 454 139 458 136 459 132z" style="fill:#e5d857;stroke-width:2;stroke:#000"/><path d="M455 279C455 279 440 277 433 280 425 283 424 291 424 291 424 291 426 289 433 288 440 287 451 288 451 288L455 279z" style="fill:#e5d857;stroke-width:2;stroke:#000"/><path d="M400 229L398 208 394 201C394 201 387 206 383 207 378 208 374 207 370 210 360 216 339 227 339 227L332 224 332 231C332 231 318 237 315 243 313 249 322 257 322 257 322 257 321 249 323 246 325 243 328 244 330 246 332 247 331 252 331 252L337 244C337 244 342 243 343 246 345 250 347 253 343 258 336 267 327 273 315 281 306 286 297 281 290 283 283 285 287 290 287 290L297 290 297 296 304 297 307 307 313 302C313 302 326 292 340 286 353 279 357 279 369 272 379 266 376 269 378 264 381 259 377 250 377 250 377 250 368 243 370 238 373 231 400 229 400 229z" style="fill:#e5d857;stroke-width:2;stroke:#000"/><path d="M298 290L310 289 298 290z" style="fill:none;stroke-width:2;stroke:#000"/><path d="M304 297L313 294 304 297z" style="fill:none;stroke-width:2;stroke:#000"/><path d="M367 260C338 279 338 279 338 279L367 260z" style="fill:none;stroke-width:2;stroke:#000"/><path d="M375 269C375 269 377 262 375 257 373 252 367 248 367 248" style="fill:none;stroke-width:2;stroke:#000"/><path d="M324 245L348 235" style="fill:none;stroke-width:2;stroke:#000"/><path d="M337 244L349 240" style="fill:none;stroke-width:2;stroke:#000"/><path d="M321 208C334 194 381 182 381 182L346 151C346 151 335 167 324 179 313 191 308 197 302 198 291 199 290 196 284 199 277 201 278 208 278 208 278 208 283 205 287 204 292 203 292 205 292 205 292 205 285 207 282 211 278 214 280 220 280 220 280 220 285 214 289 214 291 220 290 230 290 230 290 230 291 225 296 222 300 219 309 218 309 218L308 228C308 228 313 222 316 217 320 212 319 210 321 208z" style="fill:#e5d857;stroke-width:2;stroke:#000"/><path d="M463 146L459 151C465 161 464 165 464 178 464 184 464 188 460 194 456 200 455 200 447 202 440 204 431 201 427 201 425 202 414 192 412 190 407 181 404 170 404 170L381 146 370 186C370 186 384 192 390 199 397 206 395 203 397 213 399 223 399 241 399 241L390 247 397 251C397 251 385 259 387 267 389 275 398 278 398 278 398 278 394 269 396 264 398 258 407 256 407 256L408 266C408 266 409 257 419 254 428 251 435 251 444 254 453 257 451 260 454 267 456 273 457 278 454 280 447 284 439 286 433 293 427 299 430 304 430 304L441 296 446 302 455 297 463 288 468 301C468 301 473 294 474 289 475 285 471 287 471 282 471 272 474 260 474 248 474 236 470 235 470 235L476 234C476 234 473 229 469 228 464 227 458 229 458 229 458 229 465 223 469 222 474 221 476 225 476 225 476 225 476 217 472 214 468 212 464 214 459 216 454 218 451 222 451 222L446 218 446 226 428 226C428 226 428 218 428 211 430 211 443 211 451 209 460 207 460 206 463 202 466 199 468 195 469 190 470 185 471 179 471 173 470 163 469 156 463 146z" style="fill:#e5d857;stroke-width:2;stroke:#000"/><path d="M471 179C471 179 473 179 475 173 478 167 476 163 478 156 480 149 482 150 482 145 483 139 483 138 480 134 478 130 473 129 473 129 473 129 480 136 477 142 472 152 471 166 471 166L471 179z" style="fill:#e5d857;stroke-width:2;stroke:#000"/><path d="M493 125C493 125 491 121 491 115 490 109 490 102 490 102" style="fill:none;stroke-width:2;stroke:#000"/><path d="M441 296L455 288 441 296z" style="fill:none;stroke-width:2;stroke:#000"/><path d="M458 237C458 237 461 238 462 243 464 248 463 258 463 258" style="fill:none;stroke-width:2;stroke:#000"/><path d="M408 212L405 234 408 212z" style="fill:none;stroke-width:2;stroke:#000"/><path d="M397 250L403 245 397 250z" style="fill:none;stroke-width:2;stroke:#000"/><path d="M406 257L414 243" style="fill:none;stroke-width:2;stroke:#000"/><path d="M474 246C468 239 475 246 474 246z" style="fill:none;stroke-width:2;stroke:#000"/><path d="M293 290C293 286 290 285 288 284" style="fill:none;stroke-width:2;stroke:#000"/><path d="M313 302C309 299 308 300 305 300" style="fill:none;stroke-width:2;stroke:#000"/><path d="M301 296C301 293 300 292 297 292" style="fill:none;stroke-width:2;stroke:#000"/><path d="M315 247C318 242 328 236 328 236" style="fill:none;stroke-width:1;stroke:#000"/><path d="M392 223C383 225 371 228 369 232 366 236 368 233 368 233" style="fill:none;stroke-width:2;stroke:#000"/><path d="M472 295C468 293 468 294 466 295" style="fill:none;stroke-width:2;stroke:#000"/><path d="M435 300C433 298 434 298 430 297" style="fill:none;stroke-width:2;stroke:#000"/><path d="M306 107C306 107 307 101 306 96 305 90 305 88 302 85 299 82 295 83 295 83 295 83 298 84 299 90 300 95 299 105 299 105L306 107z" style="fill:#d1c556;stroke-width:2;stroke:#000"/><path d="M342 144C334 133 315 117 315 117L304 101C304 101 295 91 290 88 284 86 282 89 282 89 282 89 285 90 288 93 292 96 294 101 294 101 294 101 286 101 283 104 279 107 280 113 280 113 280 113 283 109 287 109 291 108 293 109 296 112 299 114 298 120 298 120L284 123C284 123 290 125 296 126 301 128 304 127 306 129 309 131 307 133 307 136 304 134 301 136 301 136 301 136 308 141 313 148 318 155 317 156 321 162 325 169 328 174 328 174L347 156C347 156 350 155 342 144z" style="fill:#e5d857;stroke-width:2;stroke:#000"/><path d="M289 93C290 91 290 91 291 89" style="fill:none;stroke-width:2;stroke:#000"/><path d="M285 110C284 107 284 107 282 106" style="fill:none;stroke-width:2;stroke:#000"/><path d="M299 89C301 89 302 88 303 86" style="fill:none;stroke-width:2;stroke:#000"/><path d="M294 126C294 124 294 123 293 121" style="fill:none;stroke-width:2;stroke:#000"/><path d="M307 136L313 140" style="fill:none;stroke-width:2;stroke:#000"/><path d="M314 125C314 128 319 131 330 143" style="fill:none;stroke-width:2;stroke:#000"/><path d="M404 163C405 171 395 174 390 179 396 157 384 164 384 164L385 162C385 162 373 176 370 185 367 174 366 175 359 179 358 175 361 174 358 165 354 171 344 180 344 180 344 180 350 168 348 161 338 161 328 175 328 175 328 175 337 163 337 157 331 156 324 163 324 163 324 163 329 144 335 138 339 135 376 138 376 138L404 163z" style="fill:#edde56;stroke-width:2;stroke:#000"/><path d="M409 106L410 112 410 118 419 120 409 125C409 125 408 128 410 130 411 132 416 136 416 136L408 137C408 137 408 140 411 144 413 148 419 153 419 153 419 153 415 155 411 153 407 151 401 144 401 144 401 144 406 149 407 157 406 188 405 174 395 160 389 164 386 178 386 178L381 158C381 158 380 164 374 168 368 171 357 170 357 170 357 170 363 168 367 163 371 158 374 150 374 150 374 150 362 148 357 150 352 151 353 154 353 154L351 144C351 144 346 143 346 139 345 136 349 131 349 131 349 131 349 133 353 135 357 137 359 137 365 136 371 135 371 127 371 127L409 106z" style="fill:#e5d857;stroke-width:2;stroke:#000"/><path d="M352 102C352 102 348 104 347 106 346 112 347 115 350 118 352 119 355 120 358 120 363 121 367 119 372 119 377 119 380 120 380 120L381 116C381 116 380 114 376 114 372 113 366 114 366 114 366 114 361 115 358 114 354 113 353 114 352 111 350 108 353 105 352 102z" class="fil1" style="fill:#f55;stroke-width:1;stroke:#000"/><path d="M378 121C382 123 380 121 380 115 380 110 379 110 374 110 370 109 365 112 363 110 360 108 356 102 365 100 374 97 370 99 375 97 380 95 379 94 383 91 385 91 397 100 404 104 410 107 413 104 413 104 413 104 413 108 411 111 409 113 402 113 402 113L403 120 393 117C393 117 397 118 399 122 400 125 399 127 399 130 400 133 401 135 401 135L393 129 392 139 389 133 384 138 382 130 378 137C378 137 378 132 376 130 374 131 371 136 371 136 371 136 372 132 371 129 367 129 365 134 365 134 365 134 366 131 365 128 362 130 359 132 359 132 359 132 360 127 364 124 370 122 373 122 378 121z" style="fill:#e5d857;stroke-linejoin:round;stroke-width:2;stroke:#000"/><path d="M364 105C364 106 364 106 364 106 365 106 365 106 365 105 365 105 364 105 364 105z" class="fil3" fill="#000"/><path d="M384 98L384 98C384 98 383 99 382 99 381 99 380 99 379 99 378 99 379 98 379 98 380 98 381 98 381 98 382 98 383 97 384 97 385 97 385 99 386 99 386 100 387 101 388 101 388 102 389 102 390 102 391 103 391 103 392 103 392 105 388 103 387 102 387 102 384 100 384 98z" class="fil3" fill="#000"/><path d="M386 102L387 102C384 106 378 103 380 99L382 99C381 99 381 99 381 100 381 100 381 101 381 101 381 102 382 102 382 102 383 103 383 103 383 103 384 103 384 103 385 103 385 103 386 102 386 102z" class="fil3" fill="#000"/><path d="M385 102L385 102C385 102 383 102 383 101 383 101 383 101 384 100 384 100 383 99 383 99 382 100 382 101 383 102 383 102 385 102 385 102z" class="fil3" fill="#000"/><path d="M386 78L381 74 382 83 383 91 403 103 410 100 419 96 413 93 408 92 405 91 403 88C402 86 403 85 403 83 402 82 403 81 401 82 399 82 396 84 396 84L393 84 390 81 386 78z" class="fil1" style="fill:#e5d857;stroke-linejoin:round;stroke-width:2;stroke:#000"/><path d="M387 87C390 87 391 86 393 84 391 87 392 89 393 90" style="fill:#e5d857;stroke-width:2;stroke:#000"/><path d="M399 94C402 94 403 93 405 91 403 94 404 96 405 97" style="fill:#e5d857;stroke-width:2;stroke:#000"/><path d="M360 105C362 104 362 104 362 104L360 105z" style="fill:none;stroke-width:1;stroke:#000"/><path class="fil3" d="M363 107C363 108 363 108 364 108 364 108 364 108 364 108 364 107 363 107 363 107z" fill="#000"/><path d="M366 107C366 108 366 108 366 108 367 108 367 108 367 108 367 107 366 107 366 107z" class="fil3" fill="#000"/><path d="M399 128C393 121 393 122 393 122L399 128z" style="fill:none;stroke-linejoin:round;stroke-width:2;stroke:#000"/><path d="M402 113L395 109 402 113z" style="fill:none;stroke-linejoin:round;stroke-width:2;stroke:#000"/><path d="M365 111L370 110 368 116 365 111z" style="fill:#f9f8f4;stroke-linejoin:round;stroke-width:1;stroke:#000"/><path d="M371 122L366 123 368 117 371 122z" style="fill:#f9f8f4;stroke-linejoin:round;stroke-width:1;stroke:#000"/><path d="M350 144L356 145 364 144" style="fill:none;stroke-width:2;stroke:#000"/><path d="M406 168L402 158 398 152" style="fill:none;stroke-width:2;stroke:#000"/><path d="M286 215C285 213 284 211 281 211L281 211" style="fill:none;stroke-width:2;stroke:#000"/><path d="M297 222C295 220 293 218 290 219" style="fill:none;stroke-width:2;stroke:#000"/><path d="M285 204C284 203 281 201 281 201" style="fill:none;stroke-width:2;stroke:#000"/><path d="M312 222C311 220 309 220 309 220" style="fill:none;stroke-width:2;stroke:#000"/><path d="M316 197C340 175 340 175 340 175" style="fill:none;stroke-width:2;stroke:#000"/><path d="M400 256C399 252 396 250 396 251" transform="translate(31.234752,32.583378)" style="fill:none;stroke:#000"/><path d="M419 267C416 265 413 264 411 266" transform="translate(31.234752,32.583378)" style="fill:none;stroke:#000"/></g></svg>