<svg xmlns="http://www.w3.org/2000/svg" viewBox="0 25 480 420">    <style>        path {            stroke-linejoin: round;            stroke-linecap: round;            stroke-dasharray: none;        }        #treeTop {             fill: #a0b260;        }        #trunk {            fill: #c29a80;        }        @media screen and (max-width: 400px) {            #bird {                display: none;            }        }        @media screen and (max-width: 350px) {            #barkDetails {                display: none;            }        }        @media screen and (max-width: 300px) {            #leaves {                display: none;            }        }        @media screen and (max-width: 250px) {            #branchesAndTrunkEffects {                display: none;            }        }        @media screen and (max-width: 200px) {            #treeTopShadows {                display: none;            }        }        @media screen and (max-width: 150px) {            #trunk {                fill: #000;            }        }        @media screen and (max-width: 100px) {            #treeTop {                fill: #000;            }        }    </style>    <path id="treeTop" d="M193,256,190,260,186,260,185,262,183,264,180,264,177,264,175,264,172,262,171,264,170,265,168,266,165,267,162,267,159,266,158,266,156,265,155,265,154,266,152,267,150,268,148,268,145,267,144,266,142,266,140,268,138,268,135,268,133,268,131,267h-1c-1-1-1-2-1-2l-1-1-1-1-2,1h-2-2-2l-2-1h-1-2l-1,1-2,1h-2l-2-1h-1-2l-1,2s-2,1-3,1h-2-3-3c-1,0-4-1-4-1l-2.5-1-2.5-2-1.5,1-3.7,1h-3.3l-3.4-1-2.4-1-1.1-2-1.5-1h-2.9l-1.6-1c-0.2,0-1.5-1-1.5-1l-1-2-2.5,2-4.4,2-3.7,1-4.5,1h-4.1l-4.4-1-3.3-1-2.9-2-2.8-3-1.2-3,0.3-3,1.2-3,2.6-2,2.1-1-2.7-2s-1.8-3-1.8-3c0-1-0.1-4-0.1-4l1.3-2,2.4-1,3.9-3h1.9l3.1-2h0.5l-1.6-2-2-2-0.6-2v-4l0.8-2,1.9-3,1.9-1,2-1-0.7-2-1.7-2-0.8-2,0.3-4,1.7-3,1.7-3s1.6-2,2.1-2,1.2-2,1.9-2h2.4l2.4-1s1,1,1.1,0-0.8-3-0.8-3l1.4-4,1.8-3,2.1-2,3.3-2,2.8-1h2.3,2,1.8,2.5,2.6,1.2l1.4-1,0.3-1-2-3-0.9-5,0.3-4,2.5-3s2.4-3,2.9-3,4.8-2,4.8-2h4.9,4l3,1,2,1v-1l3-1v-4-4l2-3,3-2,3-1h3l1-3v-5-3c1-1,2-4,2-4l3-2,4-2,4-2h3,3,3l1-1v-3l1-2,2-3v-1l-1-3-1-3v-2l2-4,4-3,4-2h3,2v-3-2l2-2,2-3h3l-1-3,2-4,3-3,4-3h6,2v-3-6l3-4,4-5s4-2,4-2c1,0,4-1,4-1l4-1,2-1,3-5,4-3,3-1.2,5-0.9,3-0.4,4,0.8,4,0.7,3,2,1,2,3,2s2-2,2-2c1,0,3-1,3,0h4l3,1,3,3,2,3,3-2,5-1,2-1,4,1,3,2,4,2,1,2,1,3v1l3-1s2-1,2-1l3,3,3,3,2,2c0,1-1,3-1,3l-1,2-1,2,2,1v3h3l3,2,1,1,2,2,3-2,4-4,5-3,5-1h5l3,1,2,1,3,3v1l4-1h3c1,0,2,1,2,1,1,1,3,2,3,2l2,1,3-2,5-3h3l6-2,7,1,5,2,5,3,5,5,2,4v5,3l3-1,2-1,4-2h4,6l5,2,3,4,4,5,1,3,1,4v4l-1,3-3,4,3,1,4,2,2,2c0,1,1,2,1,3v2l-2,2,3,2,2,2,2,2,1,3v4l-2,3-1,1h3l3,1,2,3v3l1,6h3s4,1,4,1l2,2c1,0,2,1,2,2,0,0-1,2-1,2v3l1,2h2l3,1,2,2v3,2l-1,1,5-2h6s3,2,3,2l3,3,3,3s1,4,1,5-1,6-1,6l-2,4-3,3-2,2h4l4,1,1,2-2,2-1,3,3,1,1,2,1,4v1c1,1,3,1,3,1l2,3,1,5s-1,3-1,4-1,3-2,3-5,4-5,4l-7,4h-4-2l-2,2-2,1-3,1h-3-3l-2,1-2,1-4,2-4-1-2-1-1-2-3,2s-2-1-3-1l-2-1-1-1s-2,1-3,2c-1,0-5,2-5,2l-2,1-5,2h-4-3l-3-1h-2l-2,1s0,1-1,2c0,0-1,1-2,1h-3s-2-1-2-1c-1,0-2-1-3,0,0,0-1,1-1,1s0,1-2,2c-1,0-2,1-2,1-1,1-6,0-6,0s1,1-2,0h-3c-1,0-2,0-3-1s-1,0-2-1c0-1,0-2-2-2h-2c-2,0-3-1-4-1-1,1-1,2-2,2,0,1-1,1-2,1-1,1-2,0-3,0h-2c-1,1-3,0-3,0l-3-1h-2l-1-1c-1,0-3-2-3-2l-2-1c-2,0-2-2-3-2-1-1-3-2-3-2l-15-3h-6c-1-1-1-2-5-2-3,1-8,0-8,0h-4c-1,0-2,0-3-1h-3c-1,0-3,1-4,2-1,0,0,1-2,2h-5-3-3c-2-1-3-2-3-2l-2-2s0,1-1,1c-2,1-2,1-3,1h-4-3l-2-2-2,2-4,1-4,1h-4-7c-1,1-5,1-5,1l-4,1h-3-3l-1-1c-1,0-1-1-1,1,0,1,0,0-1,2s-2,2-3,3c-1,2-2,3-2,3z" stroke="#000" stroke-width="5"/>    <g id="treeTopShadows">        <path fill="#739040" d="M353,226v7c0,1,1,3,2,4,1,2,3,3,4,5s1,4,2,6c3,1,5,3,7,4,3,0,5-1,7-1s3,1,5,2c3-1,5-1,8-2,9,3,19,2,20-3,4,0,8,0,9-2,3,3,7,3,8,1,7,5,16,2,14-1,7,1,12,1,13-5,17,3,29-16,15-21,1-6-1-8-5-8,6-7,4-9-5-9,9-11,6-21-2-25,6,13,2,19-7,20,0,2,0,3-1,4,10,6,11,13,5,18,1,12-5,16-14,14-1,7-7,5-11,4,7-7,5-15,3-21-1,15-8,18-12,18-1-4-2-7-2-11-2,14-10,20-23,16-6,4-14,8-18,1-4,0-8,0-8-4-6,1-10-2-9-10-2,0-3,0-5-1z"/>        <path fill="#729048" d="M43.3,197c-0.2,7,0.6,12,7.3,14-1.6,5,0,5,2.3,5-5.3,13,6.7,14,15.2,14-2.7,5,0.9,7,4.5,7-3.7,17,19.4,15,29.4,7,10,11,26-2,24-4,5,2,6-1,10-1s8,1,12,1c9,2,18,3,27,4,3,5,6,9,8,13-3,1-6,2-9,3-3,2-6,3-8,4-4,0-8-1-11-1-1,1-3,1-4,2-2,0-5,1-7,1-7,4-14,2-18-3-3,2-8,1-11,0-2,2-6,2-10,0-5,5-14,5-21.8-1-5,4-11.5,5-16.6-3-2.4,1-4.9,1-6.6-3-17.9,14-46.7-2-27.8-14-8.3-4-5.5-12,8.1-17-6.9-6-5.1-10,1.5-16-2.6-5-0.6-8,1.5-12z"/>        <path fill="#729048" d="M249,233,252,238,258,240,263,240l6-1s6-3,6-3c3-2,6-3,9-5,2-1,3-2,5-4,9-2,18-3,27-5,4,3,8,3,13,1,5,3,13,1,15-4,0,0,3-2,3-2,0,3,3,5,6,4,0,6,4,7,10,4,0,3,2,4,4,5,6,4,12,4,18,1,6,1,13,0,15-7,8-1,9-4,9-9,3-1,5-3,4-7,0-2-1-4-6-4,4-2,6-7,2-13,3-4,4-7-1-11,4-3,6-8,4-13,6,0,9-3,10-6,8-5,5-18-5-18,7-6,4-13-4-16,2-4-2-9-6-11,1,8,1,10-8,14,5,8,4,14-5,18,1,7,0,12-7,14,4,8,3,14-5,22,8,11,3,20-13,20-4,7-14,10-19,2-6,4-10,4-17,0,0,6-4,7-10,6-9,4-15,6-20-3-8,4-12,2-16-3,1,4-5,5-12,3l-11,3-8,10z"/>        <path fill="#3d5a2a" d="M142,263c6,2,9,0,12-3,7,4,13,2,14-2,9,1,13,0,12-4s-4-7-6-8c-8,1-20,0-21-2,3-1,5-2,6-4,8,3,13,0,15-4,7,3,10-2,12-5,7,3,15,3,18-3,4,7,9,8,14,6,6,4,11,4,13-1,3,2,9,5,11,1,5,3,7,0,8-2,2,6,6,8,10,6,8,2,10-2,13-5,4,2,9,0,10-3,3-3,6-4,8-4,11,1,21,2,31,3,2-1,4-3,6-5,8,2,13,0,14-4,6-1,10,0,12,7-1,7,2,12,6,14,1,10,10,13,15,8,4,4,9,4,12,2,0,7-7,5-11,4-8,7-17,6-23,1-2,0-5-1-6-2-6,7-22,4-27-6-9-2-19-4-28-6-5,1-12,2-18-2-6,8-15,9-21,1-3,3-9,4-14,1-5,4-11,5-19,3-6,2-11,5-18,2-4,7-6,14-16,12-2,5-7,8-14,3-5,6-10,7-16,2-7,5-10,5-14-1z"/>    </g>    <path id="trunk" d="M82.8,416c3.1-4,8.2-8,12.2-13,8-6,20-6,26-15,5-6,12-14,22-14,10-1,20-1,29-5,11-4,20-11,26-20,9-14,14-30,18-45,2-7,3-15,2-22-7-6-9-18-19-21-6-2-13-5-16-12-3-6-8-12-13-17-2-1,5-1,7-4,4-1,6-3,7,2,3,6,2,15,9,19,5,3,11,3,16,5-2-7-3-15-1-22,5-4,12-6,15,1,4,10,7,21,16,28,5,5,14,8,20,2,11-8,22-18,29-31,3-4,8-8,14-8,5-2,10,0,14,2,5,5,4,12,1,17-5,8-11,14-16,21,3,1,8-3,12-4,9-5,18-12,23-22,2-3,7-7,9-1,0,10-9,17-15,24-11,11-24,18-34,30-3,3-4,8-4,13,0,6-4,10-7,14-1,14,0,28-1,42,7,4,10,13,19,15,13-1,27-6,39,2,2,4,7,4,9,8,2,6,8,10,13,15,4,7-3,2-7,2-7,0-13-3-20-5-10,1-19,2-29,3-9,3-18,5-28,3-9-3-19-2-28-3-13-1-26-1-39-1-7,5-16,8-24,9-6,5-13,6-21,7-6,2-12,6-16,12-4,4-9,7-15,8,5-6,11-11,12-19,2-7,7-12,11-17,5-8-4-2-8-3-6,1-12-2-16,3-6,6-12,12-22,14-9,9-5-5,2-7-10,1-19,3-27,9-2,1-4.1,2-6.2,1z" stroke="#000" stroke-width="5"/>    <g id="branchesAndTrunkEffects" fill="#986d5a">        <path fill="#986d5a" d="M196,375,206,363,205,362,202,359,200,357,199,356,197,356l-1-1c1,0,1,0,2-1h1c1,1,2,1,2,1,1,0,1,1,2,1,1,1,1,1,1,2,1,0,1,1,1,1h1c0,1,1,1,1,1,1,0,1-1,2-1,0,0,1-1,1-1,1-1,1-1,1-2,0,0,0-1,1-1v-2c0-2,0-2-1-2-1-1-1-2-1-2s-1-1-2-1c-2-1-1-1-3-1-1,0-3,0-2-1h2c2,0,2-1,2,0,1,0,1,0,2,1,1,0,1,0,2,1s2,1,3,1c0,0,0,1,1,0v-2s0-1,1-2c0-1,2-4,2-4s1-2,1-2c0-1,2-1,1-2-1-2,0-1-1-2l-1-1c2-1,3-1,3-1,1,0,0,2,1,0s0-3,0-3c1,0,3-1,3-1s1-2,0-2c-1-1-1,0-2-1s-1-1-2-1l-2-2s-1,1-1,0c0-2-1-2,1-2,1,1,2,2,3,2,1,1,1,0,2,1,1,0,3-1,3-1l2-4,1-2,2-5,1-5v3,6l-2,6v3c-1,0-3,8-3,8l-3,7-5,7-5,9-5,9-9,7z"/>        <path d="M218,279,219,278,219,274,221,275h1c1,0,0-1,1-1,0-1-1-2,1-2s2-1,3-1c2,0,2,0,3-1,2-1,1-1,3-1,1-1,1-1,2-2s1-1,2-3c1-1,1-1,1-1s-6-6-6-5v1,3c-1,1-1,1-2,2s-1,1-2,2-3,3-3,3h-2c-2,1-2,1-2,1-1,0-2,0-3-1v-1c0-1,0-1-1-1,0-1,1-2,1-2s0-1,1-1c1-1,0-1,2-2,2,0,1,0,3-1,1,0,2-1,2-1l1-1c1-1,0-1,1-1l1-1h1c-1,0-1-1-2-1-1,1,0,1-2,2-1,1-1,1-2,1-2,1-3,1-4,1-1-1,0,0-2-1l-2-1c-2-1-3-1-2-2,0-1,0-1,1-1,1-1,0-1,2-1h3c2-1,1-1,2-1,1-1,3-1,1-1-1-1-1-1-3-1-1,0-1,1-3,0-1-1-2-1-2-1l-2-1c-1-2,0-1-1-2-2-1-2-1-2-2v-1c1-1,0-1,1-2l2-1c3-1,0,0,4-2,3-1,3-1,4-1l1-1c1-1,1-2,1-2l-1-2s-2-1-4-2c-2,0-2,2-4,1h-4s-2-1-3-1c-1-1-1-1-2-1-1,1-2,2-3,2v2c0,1,1,2,1,3,1,1,2,4,3,5,0,1,0,1,1,2,0,1,0,2,1,3v3c1,0,2,2,2,2v2c1,1,1,2,1,2l2,2,1,3s2,2,2,3,1,2,1,4,1,6,1,6v5z"/>        <path d="M216,277,217,272,215,267,214,262s-3-3-2-3v4l-1,1-1-1c-1,0-1-1-2-2,0,0-1-2-1-2l-2-3s-1,2-2,2c0,0-1-1-2,0h-1c-1-1,0-1-1-2h-3s-1-1-1-2c1,0-2-2-2-2l-4-3-3-4s-2-4-2-5l-2-2-5-2-1,1,4,3,2,2c0,1,1,2,1,3,0,0,3,5,3,5l2,3,3,2,4,2,6,2,4,3,4,2,3,5,2,4z"/>        <path d="M138,435,142,434,147,431s4-4,5-4c0-1,3-4,3-4l3-3,6-3s2-2,2-2h3,4l4-1,4-2,6-3s5-2,6-2c0,0,4-1,4-1l6-3s3-1,4-1c1-1,3-2,3-2l3-1h11l4-3,15,1,15,2,13,1,6,2h7,9,7l6-3h6,5c1-1,4-1,5-2,0,0,5-1,5-1h8l9,2,3,1,2-3-6-2s-3-1-3-1c1-1,2-3,2-3l3-1h-4s-1,1-2,1h-4v-2c1,0,3-1,3-1,1,0,2-1,2-1h-2c-1,1-2,1-4,2s-3,2-4,2c-1,1-3,1-3,0,1-1,0-1,1-2s2-1,3-2c1,0,3-2,4-2h5c1,0,5-1,5-1s2-1,1-1-5-1-6-1h-7c-1,1-2,1-4,3-2,1-5,3-5,4-1,1-3,2-4,2,0,1-1,1-1,0s2-2,2-3c0,0-1-1-1,0-1,1-2,2-3,3-2,1-4,2-4,2-1,0-2-2-2-2,1-1,2-3,3-4s1-2,3-3,2-1,4-2,6-4,6-4l-7,2c-3,1-6,1-7,3-1,1-3,3-3,4-1,2-2,4-3,5-2,0-4,2-4,0,0-1,1-5,0-4,0,0,0,4-2,5-1,1-2,3-4,1s-2-5-2-3,1,4-2,5c-3,0-4,0-4-1-1-1,1-4-1-2-1,2-2,5-4,2-3-4-4-6-3-7s1-2,2-4c2-1,5-4,5-5,0,0-6,5-6,7-1,1-2,2-2,3s2,5,1,6c-2,0-3,0-5-1-2,0-4-1-6-1-2-1-5-2-7-3-1-1-3-1-3-2-1-1-2-2-3-4-1-1-1-4-1-4l-1,3,1,2s-1,2-1,0c-1-1-2-2-2-4s-1-5-1-6c1-1,2-5,3-6,1,0,3-4,3-4,1-1,4-4,5-4s6-2,7-2h4c2,0,4,1,4,1s0,2-1,3-4,2-5,4c0,2-1,3-2,4v3c1,2,0,3,2,0,2-2,3-2,4-4s0-2,2-4c2-1,3-2,4-2h2l1-2-1-15v-14-13l2-3,3-4,2-5,1-6v-4s1-3,1-3l3-4s0-2-1-3c0-1-2-2-2-1s-4,3-4,3l-2-2c0-2-1-2-1-4v-3c1-1,2-5,1-4-1,0-1,0-1,2-1,2-1,3-1,4,0,2,0,3,1,4s1,2,1,3v3l-2-1c0-1,0-1-1-3,0-2-1-2-1-3v-3c0-1,2-3,0-2-1,1-1,4-1,5v3,4c1,2,1,3,2,4,0,1,0,1,1,2s1,2,1,2c0,1,0,1-1,2s-3,2-3,2c-1,1,0,2-2,1l-3-3-1-1c-1-3-1-3-1-4s0-3-1-3l-1,3c1,2,2,4,2,5s0,1,1,2c0,2,0,2,1,4,1,1,1,2,1,3,1,0,1,0,2,1,1,0,1,0,1,1,1,1,1,1,1,2-1,2-3,4-3,4l-2,2s-1,1-1,1h-3c-1,0-3-2-3-2s-1-2-2-3c0,0-1-2-1-2v-1c-1,3,0,5,0,5l1,1,2,2c1,1,3,2,3,2l1,1c1,2,1,3,1,4v4c0,1-1,2-1,3,0,2,1,2,2,1s1-2,1-3-1-3-1-4c1,0,1-1,2-1s2,1,2,2c-1,2-1,1-1,4v7c-1,1-1,1-1,2s-1,2-1,2l-2,1c-1,0-3,1-5,2-1,0-2,1-3,1-1,1-3,1-4,2s-2,1-3,2c0,1-1,1,0,1,1,1,1,1,3,0s3-1,5-2c1-1,0-2,3-2h4c1,0,1,0,2,1s1,1,1,2,0,1-1,2h-4-4c-1,1-4,2-4,2l-3,1c-2,0-3,1-4,2,0,0-3,2-3,3l-1,2c-1,1-2,4-2,3,0-2,3-8,3-9,0-2,1-6,1-8,0-1,2-6,2-7s0-5,1-5c1-1,1-1,2-2h3c1,0,2,0,3-1,1,0,6,0,2-1h-5c-1,1-3,1-3,1s-2,1-1,0c0-1,1-1,1-3,1-2,1-2,1-3s1-2,1-4v-3-4-12-5l3-8,3-6s0-6-1-5c0,1,0,5-1,6,0,0-2,2-2,3-1,1,0,1-2,2-1,2-1,3-2,4-1,0,0,2-2,0-1-2,0-1-2-2-1-1-1-1-3-1-2-1-3-1-6-1s-4,1-5,1c-2,1-3,1-4,2s-3,1-2,2c0,1,3-1,4-1,1-1,0-1,3-2,2,0,2-1,3,0,1,0,1-1,2,0,2,0,2,0,4,1,1,1,0,1,2,1l2,2s1,1,1,2c1,1,1,1,1,2s1,1,0,3v4c-1,2-1,2-1,3s-1,3-2,4c0,1,0,1-1,1-2,0-2-1-4-1-1,0-5-1-2,1,2,1,3,2,4,3,1,0,1,0,1,1,1,2,1,3,1,4s-1,3-1,3l-4-1c-2,0-2,0-4-1h-4c-4,0-5,0-6,1-1,0-2,0-3,1-1,0-3,1-2,1,1,1,2,1,4,0h5,3c1,0,1,1,3,1,2,1,2,1,4,2s2,1,2,2,0,3-1,3c0,0-1-1-3-2l-3-3c-2,0-5-1-3,1s3,2,4,3l3,3c1,2,1,2,1,4v2c0,3,2,8,1,8,0,1-1,6-1,6s1,0,0,2c-1,3-2,4-2,4s-1,0,0-2c0-1,1-2,1-3s-1-1-2,1c-1,3-1,3-2,5,0,2-1,4-1,5v4c-1,2-2,3-2,3-1,1-3,3-4,3,0,1-1,2-1,0,0-1,0-1,1-3,1-3,1-1,1-5,0-3-1-2,0-5,1-2,1-2,2-4,1-3,2-7,0-6-1,2-1,4-2,5-1,2-2,4-2,4l-2-2-3-3c-3-2-6-4-4-1,2,2,3,4,4,5s2,2,3,4v3c0,1-2,1-2,1h-2c0,1,1,3,1,4,0,0,0,1-1,2-1,0-3,1-5-1-2-1,0,1-2-2-3-3-3-5-3-4-1,2-2,4,0,5s2,1,3,2,2,2,1,3c0,2-1,2-1,2-1,0-1,0-2-1-2-1-2-2-2-1-1,1,1,3,1,3s-2,2-3,2c-2,0-3,1-5,1-1,0-3,1-3,1h-1c-2,0-4-2-4-2s-2-1-3-2l-2-2c-4-1-4-2-5-1h-2c-1,0-3-1-3-1l-1-1c2-1,3-1,4-1,0-1,1-2,4-1h4c2,0,2,0,3,1,1,0,1,1,2,1,2,1,2,1,2,1,1,1,2,0,1-1l-3-3c-2-1-2-1-4-2-2,0-1-1-4,0-2,0-5-1-6,0-1,2-1,3-2,4-2,1-4,1-4,2s-1,2-1,2h-1s-6,1-1,1l5,1c1,0-1,0,2,1s5,1,5,1c1,0,1,0,3,1,1,1,3,1,3,2,1,2,2,3,0,3-1,0-2,2-3,0-2-1-1-1-3-2h-1c0-1,1,0-1-1s-2-2-3-2c-2,0-2,0-4-1s-1-1-3-1c-3,0-4-1-5,0-1,0-4-1-1,1,3,1,3,0,4,1,2,1,4,2,5,2,1,1,2,0,4,2,2,1,3,2,3,2v3l-4,2-1,1-2-1v-1c-1,1,0,1-1,2s-2,1-2,1c-1,0-2,1-3-1s-1-3-1-2c-1,0,0,1,0,2s-1,1-2,1l-2-2-2-1-3-3h-2l-2-2c-1,0-3-1-3,0-1,1-3,1-1,2s2,1,5,2c2,1,2,1,3,2,1,0,2,1,3,2s2,0,0,2c-1,2,0,3-3,3-2,0-3,0-5,1s-3,0-5,2c-3,1-3,2-4,3-2,1-2,2-3,4-2,1-2,2-3,3-2,1-3,2-4,3,0,1-1,1-1,2s-3,5-4,5c0,0-3,2-3,2z"/>        <path d="M84.5,415,88,412,91,409s4-2,4-2c1,0,4-1,4-1h4s2-2,2-2v-2s1-1,2,0,3,1,3,1c1-1,5-3,5-3l3-3h1l2-1s-1-1,0-1,2-1,2-1,1-1,2-1c0-1,1-1,1-2,1,0,2-1,2-1,1-1,2-2,2-2l1-1,1-1,3-1,2-1h2,2c1,0,3,0,4-1h1c0-1,2-2,2-2l3-1h5l5,2,3,3c2,1,5,0,5,0l5-1-3-1-2-2s0-1,1-1,3-1,4,0c1,0,2,1,3,1l2,1c1,0,3,0,4-1,0,0,5-3,5-3l7-3-6,5-8,5-7,3-5,3-6,2-5,1-6,2-4-1,1-2s2-2,2-2c1,0,6-2,6-2l4-1,3-1-2-1-4-2h-5-5l-4,1-3,1,1,1h2l4,2,1,2v2l-3,2-4,1-5,1-3,3-4,3-2,3-4,2-6,3-4,1-4,2,3-3,4-2,5-3,4-3,2-3,5-3,4-2s1-2,2-2c0,0,4-1,4-1l3-1c1,0,1-2,1-2l-3-1-6-1-5,2-4,4-4,5-6,5-5,2-6,2-6,1-5,2-4,2-6,3z"/>        <path d="M297,289,295,287,294,286,293,284l1-1v-1c0-1-1-1-1-2v-2-2-2c0-1,0-2,1-2v-1s2-2,2-1c-1,2-1,2-1,3,0,2-1,2,0,3s1,1,1,2-1,1,0,2,2,1,2,1,1-1,0-2c0-1-1-2-1-2l2,1,1,1c2,0,2,0,3-1,0-1,0-1,1-2s2-2,2-3v-2-3-2c1,0,1-1,1,0v3c0,1,0,2,1,2,0,1,0,2,2,1,1,0,1-1,2-2s1-1,1-2c1-1,1-1,1-3,0-1-1-2-1-2l2,1c1,1,2,0,2,0l4-2,1-1c1-2,6-6,6-6l5-6,6-6,2-4v-2c1-1,2,0,2,0l1,1v1l-1,1-1,3-1,2-1,3-3,4-3,4-6,5-6,5-5,5-5,4-5,4-6,5-3,4z"/>        <path d="M280,277,282,273s2-3,2-3c1,0,3-2,3-2,0-1,6-3,6-3h5l1-2,2-3,4-4,3-5,4-5,3-5,2-4,1-2v-2l-1-1-1-3s-1-1-2-1-2-2-2-1h-2c-1,1-2,2-3,2,0,0-3,1-3,1h-3-4c0-1-2-2-2-2l-1,1s-2,1-2,2l-1,1-1,1c0,1,2,2,2,2h4,5s4,3,4,3l2,2c1,0,1,0,2,1s1,2,1,2,0,1-1,0c-1,0-1-1-2-1s-3-1-2,0,1,1,1,2,0,1-1,1-1,0-3-1c-1-1-3-2-3-2s-2-1-1,1c1,1,0,1,2,1,1,1,0,0,1,2,2,1,2,1,2,2s1,1,0,1c-1,1-1,2-2,1l-1-1c-1,0,0,1,0,2,1,1,1,1,1,2-1,1-1,2-2,3l-2-1c-1-2-1-2-2-3l-2-2c-1,0-2-1-3-1-1-1-2-1-3-1,0,0-1-1-3-1-1,1-2,1-2,1h-2c-1,1-2,2-1,2,1,1,2,1,3,1s1-1,2-1,2,0,3,1,4,1,4,1l1,1c1,0,1,1,2,2l2,2c1,0,1,1,1,2l1,1c0,1-2,2-2,2h-2s-2,1-3,0c0,0-1-1-2-1-1-1-2-1-3-1-2-1-3-1-4-1s-3,0-4-1h-2c0,1-1,2,0,3,2,0,2-1,4,0h4c2,0,4,1,5,2,1,0,2,0,1,1-2,2-4,2-4,2,0,1-1,1-1,1-1,0-2,2-2,2l-3,4v2z"/>    </g>    <g id="barkDetails" fill="none" transform="translate(-13,-42.8)" stroke="#351200">        <path d="M221,293c6,3,12,3,18-2" stroke-width="1"/>        <path d="M314,293c1-1-7-7-17-6" stroke-width="1"/>        <path d="M198,281c8,17,16,11,24,17" stroke="#000"/>        <path d="M215,305c3-1,3-3,3-5" stroke-width="1"/>        <path d="M186,278c7,7,11,17,14,20,4,4,12,4,18,9s8,14,12,17" stroke="#000"/>        <path d="M225,312c2-2,2-5,2-7" stroke-width="1"/>        <path d="M220,292c1,7,8,11,8,14,2,7,2,10,2,14,0,5,2,10,1,12-1,16-2,17-5,25-2,7-5,15-8,22-3,9-9,16-15,23-6,5-13,8-21,10-6,3-12,4-18,4-5,0-12,2-15,2-10,4-14,14-20,17-9,8-23,6-26,18-6.7,2-7.5,4-7,6,4,0,13-7,22-8,6-1,10-3,15-5" stroke="#000"/>        <path d="M155,430c10,1,9,5,3,9" stroke-width="1"/>        <path d="M149,431c-9,3-11,12-16,15-4,2-8,4-9,6-2,2-3,5-2,7,4-5,12-4,18-9,6-6,10-11,16-11,11,1,15-1,20-3,1,0,2,0,2-1" stroke="#000"/>        <path d="M156,421c3,5,9,6,12,6,8,0,10,3,13,7" stroke-width="1"/>        <path d="M185,433c6,0,9,2,14,3" stroke-width="1"/>        <path d="M203,437c6,3,8,8,8,11" stroke-width="1"/>        <path d="M239,377c-15,24-11,26-17,31-9,8-19,16-29,22-5,0-6,1-7,3-4,0-7,1-8,3-4,2-5,4-5,6-20,21-4,18-23,36,18-4,11-13,32-21,11,0,16-4,20-7,13-2,18-5,24-8,3-2,11,0,13-3,4-2,4-6,7-8" stroke="#000"/>        <path d="M234,291c3-1,5-3,6-6" stroke-width="1"/>        <path d="M239,283c3,11,9,18,15,23,5,3,9,4,13,3" stroke="#000"/>        <path d="M252,328c4-15,12-15,22-24,8-6,16-13,22-20" stroke="#000"/>        <path d="M293,320c3-2,3-11,13-11,11,0,34-13,40-23" stroke="#000"/>        <path d="M323,314c0,1,2,2,5,2" stroke-width="1"/>        <path d="M320,311c-1,1,0,8,5,8" stroke-width="1"/>        <path d="M358,286c-21,28-29,28-43,41-6,7-8,8-10,15,1,10-4,15-7,19-3,3-4,5-5,7" stroke="#000"/>        <path d="M302,440c-1-14,5-20,12-22" stroke-width="1"/>        <path d="M292,413c4-3,10-3,13-2" stroke-width="1"/>        <path d="M320,443c-5-4-5-10-2-17" stroke-width="1"/>        <path d="M297,418c3-4,7-5,10-5" stroke-width="1"/>        <path d="M283,443c-6-3-11-2-15-7" stroke-width="1"/>        <path d="M298,361,297,403c9,5,9,12,18,15,9-1,17-3,25-3,8,1,14,4,17,8,2,2,5,1,6,3,8,17,15,13,15,21-5-4-10,1-27-7-13-1-19,2-23,2-11,0-13,5-26,4-20-1-19-6-28-10" stroke="#000"/>        <path d="M225,442c39-2,44,2,62,2" stroke="#000"/>        <path d="M312,308c8-8,15-17,19-25" stroke="#000"/>        <path d="M267,402c3-7,0-16,4-25,6-5,2-26,6-37" stroke="#000"/>        <path d="M324,436c1-13,16-17,25-19" stroke="#000"/>        <path d="M339,433c7-9,14-6,22-8" stroke="#000"/>        <path d="M272,399c7-7,16-7,25-6" stroke="#000"/>        <path d="M192,431c12,1,19-1,23,7" stroke="#000"/>        <path d="M173,442c9,0,12,3,17,8" stroke="#000"/>        <path d="M229,397c7-3,15-4,23,6" stroke="#000"/>        <path d="M292,445c-4-6-4-11-1-18" stroke="#000"/>        <path d="M229,411c7,2,11,6,14,9,3,0,5,2,6,3" stroke="#000"/>        <path d="M245,355c-2,4-1,9-3,14" stroke="#000"/>        <path d="M243,367c19-11,20-1,29-1" stroke="#000"/>        <path d="M288,338c3,6-1,22,11,16" stroke="#000"/>        <path d="M297,351,305,343" stroke="#000"/>        <path d="M296,321c-1,6-4,29,9,19" stroke="#000"/>        <path d="M178,419c6,0,10,2,13,3,5,2,6-3,9-2" stroke-width="1"/>        <path d="M273,432c3-9,5-1,6-8" stroke-width="1"/>        <path d="M351,436c4-5,9-5,15-4" stroke-width="1"/>        <path d="M236,315c6-1,11-4,14-8" stroke-width="1"/>        <path d="M261,319c9-6,23,0,32-4" stroke-width="1"/>        <path d="M280,314c5,0,8-2,10-5" stroke-width="1"/>        <path d="M308,298c2,1,4,1,4,4" stroke-width="1"/>        <path d="M285,299c2-1,14-10,25,6" stroke-width="1"/>        <path d="M304,319c-1,1,2,12,7,12" stroke-width="1"/>        <path d="M289,409c2,0,3-2,5-3" stroke-width="1"/>    </g>    <g id="leaves">        <path fill="#729048" d="M128,208c-3,3-6,5-2,11-10,8-4,13,5,15,1,3,3,5,6,6,2,3,7,5,11,1,4,3,8,2,11-2,6,3,11,2,15-3,5,2,8,0,12-5,9,3,13,2,18-3,3,6,9,8,14,7,3,2,10,3,13-1,3,0,9,2,11,0,2,2,6,1,8-2,7,1,12-2,15-8,2-8,18-19,6-22,2-7,1-15-11-16-1-6-4-8-10-6,5,3,8,7,3,13,3,8,1,14-8,15-3,11-15,16-21,6-1,2-2,4-5,3-6,1-11,7-19,3-1,3-5,3-8,1-2,4-6,6-13,0-4,6-9,11-19,5-3,3-15,6-20-3-1,0-3,0-4-3-4,1-10-2-8-12z"/>        <path d="M52.9,216c-5,13,6.1,14,15.6,14-3.4,5,0.9,6,3.9,6-5.5,18,22.6,18,29.6,8,6,8,16,3,22,0" stroke="#000" fill="none"/>        <path d="M136,239c-2,0-5-1-4-5-8,2-20-8-6-15-5-5-3-8,2-11-6-7-6-15,9-16,0-11,9-15,17-10" stroke="#000" fill="none"/>        <path d="M153,188c-2-6,2-6,4-7-5-6-3-10,4-13-7-6,0-10,3-10-1-18,14-19,26-15" stroke="#000" fill="none"/>        <path d="M186,147c7-6,15-5,15,2,8-3,15,1,15,7" stroke="#000" fill="none"/>        <path fill="#729048" d="M252,178c1-4,1-8,2-12,4-1,4-3,1-5,12,0,15-7,10-13,10-1,13-13,13-17,8-4,4-13,4-20,9,5,6,21,4,21,1,3,1,6,0,8,1,0,1,1,2,1-1,2-1,4,0,5-11,3-15,13-13,18,0,2,2,3,3,4-3,0-4,3-4,4-10,0-11,4-13,8-2-4-5-3-9-2z"/>        <path d="M214,150c12-6,28-5,27,11,11-1,17,9,9,19,7-2,9,1,9,6,9-1,14,5,12,15,11,2,2,15-8,16" stroke="#000" fill="none"/>        <path d="M148,241c3,3,9,2,11-2,6,4,11,2,15-3,6,3,10-1,12-5,6,3,14,3,18-3,3,7,9,9,14,6,6,5,11,4,13-1,5,2,11,0,14-5" stroke="#000" fill="none"/>        <path d="M236,234c2,1,5,2,6,0,3,2,7,1,8-2,6,2,14-3,15-8" stroke="#000" fill="none"/>        <path d="M140,223c4,7,15,7,20,3,7,6,17,2,19-4,5,5,11,4,14-1,3,3,6,2,7,0" stroke="#000" fill="none"/>        <path d="M219,217c2,1,4,0,5-2,6,11,21,3,21-7,11,1,12-8,8-15,5-7,3-10-3-13" stroke="#000" fill="none"/>        <path d="M262,238c2,4,10,0,10-5" stroke="#000" fill="none"/>        <path d="M278,218c3,10,26,9,38,4,4,3,9,3,13,1,6,4,12,0,14-3" stroke="#000" fill="none"/>        <path d="M337,216c2,4,9,4,10,0,0,4,3,7,6,5-1,5,4,8,9,4" stroke="#000" fill="none"/>        <path d="M367,230c5,4,13,4,18,1,7,0,15,0,15-7,7-1,10-3,10-9,3-1,4-4,3-7" stroke="#000" fill="none"/>        <path d="M393,240c10,2,17,2,24-6" stroke="#000" fill="none"/>        <path d="M417,246c5-1,7-4,6-7,5-2,7-5,6-10" stroke="#000" fill="none"/>        <path d="M414,195c9,2,10,9,9,17,4,0,8,6,8,10" stroke="#000" fill="none"/>        <path d="M426,238c6,3,11,1,11-5,12,2,16-3,14-13,7-7,5-12-6-18,2-1,4-1,2-4,7-1,10-6,9-11" stroke="#000" fill="none"/>        <path d="M287,206c2,7,11,6,17,3,4,10,13,6,19,3,6,1,10,0,10-6,5,4,13,3,17,0,3,8,16,5,19-2,16,1,23-13,12-19,9-6,9-13,7-20" stroke="#000" fill="none"/>        <path d="M405,204c7-3,8-9,4-12,5-4,3-10-1-12,8-8,4-14-2-18,2-10-2-14-11-13l-2-2c1-6-2-11-8-12,2-13-4-16-17-16,0-20-27-27-37-11-11,1-13,8-13,14" stroke="#000" fill="none"/>        <path d="M275,164c0-11,7-17,14-17-2-8,5-10,11-10-5-11,18-23,25-7,3-6,9-5,11-2" stroke="#000" fill="none"/>        <path d="M137,116c2,4,5,5,8,5-3,8,4,8,14,8" stroke="#000" fill="none"/>        <path d="M162,109c-2,6,1,8,7,10-4,3-3,9,5,10,0,3,4,5,9,4-1,2,1,4,4,4" stroke="#000" fill="none"/>        <path fill="#7b8d3e" d="M159,102c0,9-1,15,8,17-3,6,0,9,6,11,0,4,5,5,9,4,1,1,1,2,2,4l-3-3c-3,1-8,2-10-3-5-1-10-2-7-12-8-2-10-10-5-18z"/>        <path d="M254,165c2-1,2-3,1-4,12-2,14-9,8-13,11-3,14-11,14-20" stroke="#000" fill="none"/>        <path fill="#729048" d="M279,216c12,2,25,3,37,5-5,3-12,5-21,4-5,1-11-6-16-9z"/>    </g>    <g id="bird" transform="translate(203,84) scale(.05)">        <path d="M-400,520s10-10,20-10h30,20l30-20,20-10h10l20-10h-10l30-20v10h20,10,10v10l10,10,10,10v10h20l-10,10h10l10,30,10,20,10,10s20,70,25,80c45,60,91,120,130,190,41,70,37,70,73,150,30,110,70,110,70,110-10,100-40,0-40,0s120,300,150,400h-30-10c-20,0-100-200-100-200l-110-200c-120,0-170,0-250-100-60-90-120-190-100-290,10-50,20-80,20-80l-20-30-20-50s-30-10-40-20c-20-10-30-10-30-10z" fill-rule="evenodd" stroke="#000" stroke-linecap="butt" stroke-width="1" fill="gold"/>        <path d="M-230,450v10l20-10,10,10h10v10h10v10l20,10h-10l20,10h-10l10,10,10,20,10,30,10,10s10,40,20,60h-90-40-30l-30-40-30-40-10-10h-10l10-30,30-20,20-20v10l10-10v10l20-20-10,10,30-20z" fill-rule="evenodd" stroke="#000" stroke-linecap="butt" stroke-width="0.99999994px" fill="black"/>        <g transform="matrix(-0.6622728,5.2460684e-2,4.5719713e-2,0.6046086,-627.75907,341.7388)">        <path d="M-510,360c0,20-10,20-30,20-10,0-20,0-20-20,0-10,10-20,20-20,20,0,20,10,30,20" transform="matrix(1.0384615,0,0,1,19.784367,0)" fill="#e6e6e6"/>        <path d="M-500,450c0,10,0,20-10,20s-20-10-20-20,10-10,20-10,10,0,10,10" transform="matrix(0.8421053,0,0,0.85,-105.3832,-24.864283)" fill="#000"/>        <path d="M-570,420v10l-10-10h10" transform="translate(30.15988,-72.048603)" fill="#FFF"/>        </g>        <path d="M-180,630h40,40c1,10,3,20,4,20,46,60,92,120,130,190,40,70,37,70,73,140,30,120,70,120,70,120-10,100-40,0-40,0h-56s-160-100-240-190-80-100-90-160c-10-70,10-70,40-100,10-10,20-20,30-20z" fill-rule="evenodd" stroke="#000" stroke-linecap="butt" stroke-width="1" fill="#9d7818"/>        <path d="M-370,510h20,20l10,10,10,10,20,20s-30-20-50-20c-20-10-30-10-40-10h-20s10-10,20-10h10z" fill-rule="evenodd" stroke="#000" stroke-linecap="butt" stroke-width="1" fill="gray"/>        <path d="M-330,510c-10,10-10,10-10,10h10v-10z" fill-rule="evenodd" stroke="#000" stroke-linecap="butt" stroke-width="0.99999994px" fill="#000"/>        <path d="M-400,520h50c20,10,50,20,50,20h-10v20l-10-10h-10v-10s-30-10-40-10c-20-10-30-10-30-10z" fill-rule="evenodd" stroke="#000" stroke-linecap="butt" stroke-width="1" fill="#4d4d4d"/>        <path fill="#dc3729" d="M-320,540l60,80v10h-20-10l-20-30-10-50h-10l10-10z"/>        <path d="M89,1100h51s120,300,150,400h-30-10c-20,0-90-200-100-200l-30-100-31-100z" fill-rule="evenodd" stroke="#000" stroke-linecap="butt" stroke-width="1" fill="#9d7818"/>        <path d="M-20,1100l-79,100h44,13-9-16-43-30-20-10,40,20l75-100h15z" fill-rule="evenodd" stroke="#000" stroke-linecap="butt" stroke-width="1" fill="#333"/>    </g></svg>