<?xml version="1.0" encoding="UTF-8" standalone="no"?>
<!-- Created with Inkscape (http://www.inkscape.org/) -->
<svg xmlns:dc="http://purl.org/dc/elements/1.1/" xmlns:cc="http://web.resource.org/cc/" xmlns:rdf="http://www.w3.org/1999/02/22-rdf-syntax-ns#" xmlns:svg="http://www.w3.org/2000/svg" xmlns="http://www.w3.org/2000/svg" xmlns:xlink="http://www.w3.org/1999/xlink" xmlns:sodipodi="http://sodipodi.sourceforge.net/DTD/sodipodi-0.dtd" xmlns:inkscape="http://www.inkscape.org/namespaces/inkscape" viewBox="0 0 588 602" sodipodi:version="0.32" inkscape:version="0.45" version="1.0" sodipodi:docbase="/home/mat" sodipodi:docname="paint.svg" inkscape:output_extension="org.inkscape.output.svg.inkscape" inkscape:export-filename="/home/mat/paint.png" inkscape:export-xdpi="12.260155" inkscape:export-ydpi="12.260155" sodipodi:modified="TRUE">
  <sodipodi:namedview id="base" pagecolor="#ffffff" bordercolor="#666666" borderopacity="1.0" gridtolerance="10000" guidetolerance="10" objecttolerance="10" inkscape:pageopacity="0.0" inkscape:pageshadow="2" inkscape:zoom="0.35" inkscape:cx="364.51834" inkscape:cy="358.27314" inkscape:document-units="px" inkscape:current-layer="layer1" showguides="true" inkscape:guide-bbox="true" width="588.26px" height="601.95px" inkscape:window-width="1280" inkscape:window-height="725" inkscape:window-x="0" inkscape:window-y="25"/>
  <defs id="defs4">
    <linearGradient inkscape:collect="always" id="linearGradient10226">
      <stop style="stop-color:#006b00;stop-opacity:1;" offset="0" id="stop10228"/>
      <stop style="stop-color:#006b00;stop-opacity:0;" offset="1" id="stop10230"/>
    </linearGradient>
    <linearGradient inkscape:collect="always" id="linearGradient9233">
      <stop style="stop-color:#da0000;stop-opacity:1;" offset="0" id="stop9235"/>
      <stop style="stop-color:#da0000;stop-opacity:0;" offset="1" id="stop9237"/>
    </linearGradient>
    <linearGradient inkscape:collect="always" id="linearGradient8252">
      <stop style="stop-color:#000080;stop-opacity:1;" offset="0" id="stop8254"/>
      <stop style="stop-color:#000080;stop-opacity:0;" offset="1" id="stop8256"/>
    </linearGradient>
    <linearGradient inkscape:collect="always" id="linearGradient6300">
      <stop style="stop-color:#ffffff;stop-opacity:1;" offset="0" id="stop6302"/>
      <stop style="stop-color:#ffffff;stop-opacity:0;" offset="1" id="stop6304"/>
    </linearGradient>
    <linearGradient inkscape:collect="always" id="linearGradient6290">
      <stop style="stop-color:#4d4d4d;stop-opacity:1;" offset="0" id="stop6292"/>
      <stop style="stop-color:#4d4d4d;stop-opacity:0;" offset="1" id="stop6294"/>
    </linearGradient>
    <linearGradient inkscape:collect="always" id="linearGradient4265">
      <stop style="stop-color:#ffffff;stop-opacity:1;" offset="0" id="stop4267"/>
      <stop style="stop-color:#ffffff;stop-opacity:0;" offset="1" id="stop4269"/>
    </linearGradient>
    <linearGradient inkscape:collect="always" id="linearGradient4255">
      <stop style="stop-color:#333333;stop-opacity:1;" offset="0" id="stop4257"/>
      <stop style="stop-color:#333333;stop-opacity:0;" offset="1" id="stop4259"/>
    </linearGradient>
    <linearGradient inkscape:collect="always" id="linearGradient4245">
      <stop style="stop-color:#ffffff;stop-opacity:1;" offset="0" id="stop4247"/>
      <stop style="stop-color:#ffffff;stop-opacity:0;" offset="1" id="stop4249"/>
    </linearGradient>
    <linearGradient inkscape:collect="always" id="linearGradient4235">
      <stop style="stop-color:#0035ff;stop-opacity:1;" offset="0" id="stop4237"/>
      <stop style="stop-color:#0035ff;stop-opacity:0;" offset="1" id="stop4239"/>
    </linearGradient>
    <linearGradient inkscape:collect="always" id="linearGradient3234">
      <stop style="stop-color:#999999;stop-opacity:1;" offset="0" id="stop3236"/>
      <stop style="stop-color:#999999;stop-opacity:0;" offset="1" id="stop3238"/>
    </linearGradient>
    <linearGradient inkscape:collect="always" id="linearGradient3216">
      <stop style="stop-color:#ffffff;stop-opacity:1;" offset="0" id="stop3218"/>
      <stop style="stop-color:#ffffff;stop-opacity:0;" offset="1" id="stop3220"/>
    </linearGradient>
    <linearGradient inkscape:collect="always" id="linearGradient3206">
      <stop style="stop-color:#666666;stop-opacity:1;" offset="0" id="stop3208"/>
      <stop style="stop-color:#666666;stop-opacity:0;" offset="1" id="stop3210"/>
    </linearGradient>
    <linearGradient inkscape:collect="always" xlink:href="#linearGradient4235" id="linearGradient5299" gradientUnits="userSpaceOnUse" gradientTransform="translate(672.5692,-136.20117)" x1="130.55496" y1="240.32086" x2="183.73479" y2="156.63065"/>
    <linearGradient inkscape:collect="always" xlink:href="#linearGradient3206" id="linearGradient5301" gradientUnits="userSpaceOnUse" gradientTransform="translate(600,40)" x1="302.79321" y1="297.02063" x2="310.87445" y2="270.50412"/>
    <linearGradient inkscape:collect="always" xlink:href="#linearGradient3216" id="linearGradient5303" gradientUnits="userSpaceOnUse" gradientTransform="translate(600,40)" x1="322.49121" y1="252.82645" x2="316.68283" y2="271.26172"/>
    <linearGradient inkscape:collect="always" xlink:href="#linearGradient3234" id="linearGradient5305" gradientUnits="userSpaceOnUse" gradientTransform="translate(600,40)" x1="311.88458" y1="263.68558" x2="326.78433" y2="267.95126"/>
    <linearGradient inkscape:collect="always" xlink:href="#linearGradient4245" id="linearGradient5307" gradientUnits="userSpaceOnUse" gradientTransform="translate(672.5692,-136.20117)" x1="216.17444" y1="61.484837" x2="171.04903" y2="187.81589"/>
    <linearGradient inkscape:collect="always" xlink:href="#linearGradient4255" id="linearGradient5309" gradientUnits="userSpaceOnUse" gradientTransform="translate(481.47511,-360.2523)" x1="542.60767" y1="77.480255" x2="538.43286" y2="-23.938507"/>
    <linearGradient inkscape:collect="always" xlink:href="#linearGradient4265" id="linearGradient5311" gradientUnits="userSpaceOnUse" gradientTransform="translate(481.47511,-360.2523)" x1="605.48907" y1="-145.44014" x2="617.58331" y2="11.293448"/>
    <linearGradient inkscape:collect="always" xlink:href="#linearGradient6290" id="linearGradient6296" x1="218.19298" y1="751.33673" x2="214.15234" y2="470.51434" gradientUnits="userSpaceOnUse"/>
    <linearGradient inkscape:collect="always" xlink:href="#linearGradient6300" id="linearGradient6306" x1="22.223356" y1="68.473602" x2="179.80716" y2="236.15892" gradientUnits="userSpaceOnUse"/>
    <linearGradient inkscape:collect="always" xlink:href="#linearGradient8252" id="linearGradient8258" x1="186.87822" y1="452.33157" x2="182.83762" y2="310.83228" gradientUnits="userSpaceOnUse"/>
    <linearGradient inkscape:collect="always" xlink:href="#linearGradient9233" id="linearGradient9239" x1="344.46201" y1="314.95084" x2="329.30975" y2="192.21768" gradientUnits="userSpaceOnUse"/>
    <linearGradient inkscape:collect="always" xlink:href="#linearGradient6300" id="linearGradient9249" x1="414.16254" y1="101.80864" x2="531.02686" y2="238.17921" gradientUnits="userSpaceOnUse"/>
    <linearGradient inkscape:collect="always" xlink:href="#linearGradient3206" id="linearGradient9253" x1="363.65491" y1="661.43317" x2="337.23169" y2="341.21478" gradientUnits="userSpaceOnUse"/>
    <linearGradient inkscape:collect="always" xlink:href="#linearGradient10226" id="linearGradient10232" x1="246.47722" y1="548.29608" x2="207.08127" y2="464.4534" gradientUnits="userSpaceOnUse"/>
  </defs>
  <metadata id="metadata7">
    <rdf:RDF>
      <cc:Work rdf:about="">
        <dc:format>image/svg+xml</dc:format>
        <dc:type rdf:resource="http://purl.org/dc/dcmitype/StillImage"/>
      </cc:Work>
    </rdf:RDF>
  </metadata>
  <g inkscape:label="Layer 1" id="layer1" inkscape:groupmode="layer" transform="translate(-94.026224,-200.16207)">
    <g id="g10234" transform="translate(40,74.285715)">
      <path id="path6310" d="M 409.8694,389.19704 L 417.69808,378.84297 L 423.75899,372.02444 L 429.56737,367.73129 L 437.64859,363.18561 L 447.49758,359.65007 L 458.35672,357.37723 L 467.70063,357.12469 L 476.53946,357.88231 L 484.62068,359.39754 L 495.73236,362.93307 L 504.06612,366.97368 L 510.12704,370.25668 L 516.69303,375.55998 L 521.49125,379.60059 L 526.03694,384.90389 L 531.34024,392.73257 L 534.11816,397.27826 L 536.64354,403.59171 L 538.66385,410.41024 L 539.92654,424.0473 L 543.71461,412.93562 L 537.40115,383.89374 L 515.1778,358.89246 L 473.76154,348.79093 L 438.15367,353.8417 L 409.36432,382.12597 L 409.8694,389.19704 z " style="fill:#cc8e4a;fill-opacity:1;fill-rule:evenodd;stroke:#000000;stroke-width:0;stroke-linecap:butt;stroke-linejoin:miter;stroke-miterlimit:4;stroke-dasharray:none;stroke-opacity:1"/>
      <path id="path4275" d="M 459.35736,155.87719 C 394.11012,129.81323 326.48169,125.24062 271.19785,139.6984 C 195.40749,152.96195 122.68715,208.42717 84.766869,290.78382 C 29.132248,411.61311 69.369413,544.79912 174.60021,588.08144 C 260.23501,623.30377 362.65513,588.16303 427.80832,508.74451 C 512.58463,514.82238 588.17287,485.18336 619.95353,425.6389 C 666.22313,338.94793 602.19048,221.50289 477.04031,163.49901 C 471.17389,160.78009 465.27418,158.24074 459.35736,155.87719 z M 498.23567,358.1025 C 532.05812,372.01397 548.62216,406.86988 535.24134,435.93085 C 521.86048,464.99179 483.5692,477.32397 449.74675,463.4125 C 415.92428,449.50103 399.34079,414.59838 412.72161,385.53742 C 426.10244,356.47646 464.41322,344.19103 498.23567,358.1025 z " style="fill:#cca24a;fill-opacity:1;stroke:#000000;stroke-width:0;stroke-miterlimit:4;stroke-dasharray:none;stroke-opacity:1"/>
      <path style="fill:url(#linearGradient6296);fill-opacity:1;stroke:#000000;stroke-width:0;stroke-miterlimit:4;stroke-dasharray:none;stroke-opacity:1" d="M 459.35736,155.87719 C 394.11012,129.81323 326.48169,125.24062 271.19785,139.6984 C 195.40749,152.96195 122.68715,208.42717 84.766869,290.78382 C 29.132248,411.61311 69.369413,544.79912 174.60021,588.08144 C 260.23501,623.30377 362.65513,588.16303 427.80832,508.74451 C 512.58463,514.82238 588.17287,485.18336 619.95353,425.6389 C 666.22313,338.94793 602.19048,221.50289 477.04031,163.49901 C 471.17389,160.78009 465.27418,158.24074 459.35736,155.87719 z M 498.23567,358.1025 C 532.05812,372.01397 548.62216,406.86988 535.24134,435.93085 C 521.86048,464.99179 483.5692,477.32397 449.74675,463.4125 C 415.92428,449.50103 399.34079,414.59838 412.72161,385.53742 C 426.10244,356.47646 464.41322,344.19103 498.23567,358.1025 z " id="path5319"/>
      <path id="path6298" d="M 459.35736,155.87719 C 394.11012,129.81323 326.48169,125.24062 271.19785,139.6984 C 195.40749,152.96195 122.68715,208.42717 84.766869,290.78382 C 29.132248,411.61311 69.369413,544.79912 174.60021,588.08144 C 260.23501,623.30377 362.65513,588.16303 427.80832,508.74451 C 512.58463,514.82238 588.17287,485.18336 619.95353,425.6389 C 666.22313,338.94793 602.19048,221.50289 477.04031,163.49901 C 471.17389,160.78009 465.27418,158.24074 459.35736,155.87719 z M 498.23567,358.1025 C 532.05812,372.01397 548.62216,406.86988 535.24134,435.93085 C 521.86048,464.99179 483.5692,477.32397 449.74675,463.4125 C 415.92428,449.50103 399.34079,414.59838 412.72161,385.53742 C 426.10244,356.47646 464.41322,344.19103 498.23567,358.1025 z " style="fill:url(#linearGradient6306);fill-opacity:1;stroke:#000000;stroke-width:0;stroke-miterlimit:4;stroke-dasharray:none;stroke-opacity:1"/>
      <path inkscape:transform-center-y="10.101525" inkscape:transform-center-x="476.792" id="path5252" d="M 326.45623,186.15677 C 311.16104,186.15677 297.56064,192.65083 288.80807,202.75143 C 267.26877,212.79467 254.95111,232.22288 260.93362,247.98936 C 265.96907,261.25923 282.48916,268.01069 301.25033,265.9828 C 301.25827,265.9873 301.27439,265.97831 301.28245,265.9828 C 308.40877,269.98139 316.7779,272.3173 325.74877,272.43628 C 325.89274,272.53676 326.02204,272.65453 326.16685,272.75418 C 347.82955,287.65524 373.94012,287.65523 384.42339,272.75418 C 393.09675,260.4258 388.35379,241.75341 374.19956,227.23014 C 372.98847,204.37692 352.06749,186.15677 326.45623,186.15677 z " style="fill:#ff0000;fill-opacity:1;stroke:#000000;stroke-width:0;stroke-miterlimit:4;stroke-dasharray:none;stroke-opacity:1"/>
      <path style="fill:#0000ff;fill-opacity:1;stroke:#000000;stroke-width:0;stroke-miterlimit:4;stroke-dasharray:none;stroke-opacity:1" d="M 165.23919,261.94567 C 178.50266,261.94567 190.29644,268.43973 197.88637,278.54033 C 216.56451,288.58358 227.24595,308.01178 222.05813,323.77826 C 217.69156,337.04814 203.36592,343.7996 187.09687,341.77171 C 187.08999,341.7762 187.07602,341.76722 187.06903,341.77171 C 180.88932,345.7703 173.63191,348.1062 165.85268,348.22519 C 165.72783,348.32567 165.61571,348.44344 165.49013,348.54309 C 146.705,363.44415 124.06282,363.44414 114.97208,348.54309 C 107.45086,336.21471 111.56379,317.54231 123.83783,303.01905 C 124.88805,280.16583 143.03,261.94568 165.23919,261.94567 z " id="path5259" inkscape:transform-center-x="-413.45746" inkscape:transform-center-y="10.101525"/>
      <path inkscape:transform-center-y="476.792" inkscape:transform-center-x="-8.927057" id="path5261" d="M 189.63585,496.92898 C 189.63585,511.38512 195.70796,524.23944 205.1523,532.51187 C 214.54299,552.86959 232.70886,564.51154 247.45095,558.85721 C 259.85863,554.09799 266.17141,538.48415 264.27529,520.75216 C 264.27949,520.74465 264.27109,520.72942 264.27529,520.7218 C 268.01408,513.98641 270.19821,506.07638 270.30947,497.59763 C 270.40341,497.46156 270.51353,497.33935 270.6067,497.20248 C 284.53959,476.72813 284.53958,452.04992 270.6067,442.14172 C 259.07935,433.94416 241.62016,438.42693 228.04054,451.8047 C 206.67217,452.94936 189.63585,472.72268 189.63585,496.92898 z " style="fill:#008000;fill-opacity:1;stroke:#000000;stroke-width:0;stroke-miterlimit:4;stroke-dasharray:none;stroke-opacity:1"/>
      <path style="fill:#ffffff;fill-opacity:1;stroke:#000000;stroke-width:0;stroke-miterlimit:4;stroke-dasharray:none;stroke-opacity:1" d="M 326.45622,396.46502 C 311.16102,396.46502 297.56063,391.15746 288.80806,382.90228 C 267.26876,374.69399 254.9511,358.81541 260.93361,345.92953 C 265.96906,335.08412 282.48914,329.56618 301.25032,331.22356 C 301.25826,331.21989 301.27438,331.22723 301.28243,331.22356 C 308.40876,327.95554 316.77789,326.04641 325.74876,325.94917 C 325.89273,325.86705 326.02203,325.77079 326.16684,325.68935 C 347.82954,313.51078 373.94011,313.51079 384.42338,325.68935 C 393.09674,335.76528 388.35378,351.02615 374.19955,362.89595 C 372.98846,381.57377 352.06747,396.46502 326.45622,396.46502 z " id="path5263" inkscape:transform-center-x="476.792" inkscape:transform-center-y="-8.2559305"/>
      <path inkscape:transform-center-y="8.4237112" inkscape:transform-center-x="-394.4571" id="path5265" d="M 505.84373,218.30964 C 518.49768,218.30964 529.74949,223.72507 536.99062,232.14801 C 554.8104,240.52312 565.00098,256.72439 560.05157,269.87214 C 555.88566,280.93796 542.21834,286.56803 526.69694,284.87697 C 526.69038,284.88072 526.67705,284.87323 526.67038,284.87697 C 520.77466,288.21141 513.85076,290.15933 506.42903,290.25856 C 506.30992,290.34235 506.20295,290.44055 506.08314,290.52365 C 488.16127,302.94972 466.55962,302.94971 457.88665,290.52365 C 450.71104,280.24296 454.63496,264.67195 466.34496,252.56093 C 467.34692,233.50351 484.65517,218.30964 505.84373,218.30964 z " style="fill:#1a1a1a;fill-opacity:1;stroke:#000000;stroke-width:0;stroke-miterlimit:4;stroke-dasharray:none;stroke-opacity:1"/>
      <path inkscape:transform-center-y="-8.2559305" inkscape:transform-center-x="476.792" id="path9251" d="M 326.45622,396.46502 C 311.16102,396.46502 297.56063,391.15746 288.80806,382.90228 C 267.26876,374.69399 254.9511,358.81541 260.93361,345.92953 C 265.96906,335.08412 282.48914,329.56618 301.25032,331.22356 C 301.25826,331.21989 301.27438,331.22723 301.28243,331.22356 C 308.40876,327.95554 316.77789,326.04641 325.74876,325.94917 C 325.89273,325.86705 326.02203,325.77079 326.16684,325.68935 C 347.82954,313.51078 373.94011,313.51079 384.42338,325.68935 C 393.09674,335.76528 388.35378,351.02615 374.19955,362.89595 C 372.98846,381.57377 352.06747,396.46502 326.45622,396.46502 z " style="fill:url(#linearGradient9253);fill-opacity:1;stroke:#000000;stroke-width:0;stroke-miterlimit:4;stroke-dasharray:none;stroke-opacity:1"/>
      <g transform="matrix(0.6518414,0,0,0.6518414,-265.11993,182.52351)" id="g5275">
        <g transform="matrix(0.9443731,0.328876,-0.328876,0.9443731,133.39756,-184.32273)" id="g5287">
          <rect id="rect2162" width="488.57144" height="45.714283" x="889.16766" y="-382.49533" ry="22.857141" style="opacity:1;fill:#a05a2c;fill-opacity:1;stroke:#000000;stroke-width:0;stroke-miterlimit:4;stroke-dasharray:none;stroke-opacity:1" rx="72.85714" transform="matrix(0.7590569,0.6510243,-0.6510243,0.7590569,0,0)"/>
          <rect id="rect2180" width="102.38496" height="106.78467" x="820.40656" y="-4.3045669" ry="51.192463" style="opacity:1;fill:#008eff;fill-opacity:1;stroke:#000000;stroke-width:0;stroke-miterlimit:4;stroke-dasharray:none;stroke-opacity:1" rx="24.812664" transform="matrix(0.9690703,0.246785,0.3800761,0.9249552,0,0)"/>
          <rect transform="matrix(0.9690703,0.246785,0.3800761,0.9249552,0,0)" rx="24.812664" style="opacity:1;fill:url(#linearGradient5299);fill-opacity:1;stroke:#000000;stroke-width:0;stroke-miterlimit:4;stroke-dasharray:none;stroke-opacity:1" ry="51.192463" y="-4.3045669" x="820.40656" height="106.78467" width="102.38496" id="rect3264"/>
          <path d="M 940.49236,309.56731 C 939.63209,309.14414 938.78145,308.73816 937.94128,308.34981 C 937.06942,307.94681 936.20882,307.56279 935.36044,307.19821 C 934.4757,306.81802 933.60425,306.45898 932.74713,306.12163 C 931.84826,305.76785 930.96517,305.43792 930.09907,305.13247 C 929.18503,304.81011 928.28992,304.515 927.41518,304.24788 C 926.48381,303.96347 925.57554,303.71078 924.69209,303.4907 C 923.74177,303.25395 921.57019,302.51922 920.67949,302.35901 C 916.19286,301.37973 914.34163,303.90691 911.85281,306.14064 C 909.62031,308.14433 906.49103,309.56302 906.86673,313.80323 C 906.99287,314.71936 907.18935,315.67957 907.45349,316.68011 C 907.69173,317.58252 907.98502,318.51773 908.3314,319.483 C 908.64904,320.36821 909.01134,321.2787 909.41679,322.21234 C 909.79377,323.08045 910.20805,323.96858 910.65843,324.87502 C 911.08137,325.72626 911.53614,326.59366 912.02173,327.4758 C 912.48193,328.3118 912.96982,329.16105 913.48453,330.02233 C 913.97575,330.84431 914.49141,331.67725 915.03076,332.52011 C 915.54843,333.32909 916.08794,334.14722 916.64861,334.97356 C 923.00867,324.96053 931.32514,317.07383 940.49236,309.56731 C 940.49236,309.56731 940.49236,309.56731 940.49236,309.56731" sodipodi:nodetypes="csssssscscsssssssccc" id="path2189" style="opacity:1;fill:#b3b3b3;fill-opacity:1;stroke:#000000;stroke-width:0;stroke-miterlimit:4;stroke-dasharray:none;stroke-opacity:1"/>
          <path style="opacity:1;fill:url(#linearGradient5301);fill-opacity:1;stroke:#000000;stroke-width:0;stroke-miterlimit:4;stroke-dasharray:none;stroke-opacity:1" id="path3204" sodipodi:nodetypes="csssssscscsssssssccc" d="M 940.49236,309.56731 C 939.63209,309.14414 938.78145,308.73816 937.94128,308.34981 C 937.06942,307.94681 936.20882,307.56279 935.36044,307.19821 C 934.4757,306.81802 933.60425,306.45898 932.74713,306.12163 C 931.84826,305.76785 930.96517,305.43792 930.09907,305.13247 C 929.18503,304.81011 928.28992,304.515 927.41518,304.24788 C 926.48381,303.96347 925.57554,303.71078 924.69209,303.4907 C 923.74177,303.25395 921.57019,302.51922 920.67949,302.35901 C 916.19286,301.37973 914.34163,303.90691 911.85281,306.14064 C 909.62031,308.14433 906.49103,309.56302 906.86673,313.80323 C 906.99287,314.71936 907.18935,315.67957 907.45349,316.68011 C 907.69173,317.58252 907.98502,318.51773 908.3314,319.483 C 908.64904,320.36821 909.01134,321.2787 909.41679,322.21234 C 909.79377,323.08045 910.20805,323.96858 910.65843,324.87502 C 911.08137,325.72626 911.53614,326.59366 912.02173,327.4758 C 912.48193,328.3118 912.96982,329.16105 913.48453,330.02233 C 913.97575,330.84431 914.49141,331.67725 915.03076,332.52011 C 915.54843,333.32909 916.08794,334.14722 916.64861,334.97356 C 923.00867,324.96053 931.32514,317.07383 940.49236,309.56731 C 940.49236,309.56731 940.49236,309.56731 940.49236,309.56731"/>
          <path d="M 940.49236,309.56731 C 939.63209,309.14414 938.78145,308.73816 937.94128,308.34981 C 937.06942,307.94681 936.20882,307.56279 935.36044,307.19821 C 934.4757,306.81802 933.60425,306.45898 932.74713,306.12163 C 931.84826,305.76785 930.96517,305.43792 930.09907,305.13247 C 929.18503,304.81011 928.28992,304.515 927.41518,304.24788 C 926.48381,303.96347 925.57554,303.71078 924.69209,303.4907 C 923.74177,303.25395 921.57019,302.51922 920.67949,302.35901 C 916.19286,301.37973 914.34163,303.90691 911.85281,306.14064 C 909.62031,308.14433 906.49103,309.56302 906.86673,313.80323 C 906.99287,314.71936 907.18935,315.67957 907.45349,316.68011 C 907.69173,317.58252 907.98502,318.51773 908.3314,319.483 C 908.64904,320.36821 909.01134,321.2787 909.41679,322.21234 C 909.79377,323.08045 910.20805,323.96858 910.65843,324.87502 C 911.08137,325.72626 911.53614,326.59366 912.02173,327.4758 C 912.48193,328.3118 912.96982,329.16105 913.48453,330.02233 C 913.97575,330.84431 914.49141,331.67725 915.03076,332.52011 C 915.54843,333.32909 916.08794,334.14722 916.64861,334.97356 C 923.00867,324.96053 931.32514,317.07383 940.49236,309.56731 C 940.49236,309.56731 940.49236,309.56731 940.49236,309.56731" sodipodi:nodetypes="csssssscscsssssssccc" id="path3214" style="opacity:1;fill:url(#linearGradient5303);fill-opacity:1;stroke:#000000;stroke-width:0;stroke-miterlimit:4;stroke-dasharray:none;stroke-opacity:1"/>
          <path style="opacity:1;fill:url(#linearGradient5305);fill-opacity:1;stroke:#000000;stroke-width:0;stroke-miterlimit:4;stroke-dasharray:none;stroke-opacity:1" id="path3224" sodipodi:nodetypes="csssssscscsssssssccc" d="M 940.49236,309.56731 C 939.63209,309.14414 938.78145,308.73816 937.94128,308.34981 C 937.06942,307.94681 936.20882,307.56279 935.36044,307.19821 C 934.4757,306.81802 933.60425,306.45898 932.74713,306.12163 C 931.84826,305.76785 930.96517,305.43792 930.09907,305.13247 C 929.18503,304.81011 928.28992,304.515 927.41518,304.24788 C 926.48381,303.96347 925.57554,303.71078 924.69209,303.4907 C 923.74177,303.25395 921.57019,302.51922 920.67949,302.35901 C 916.19286,301.37973 914.34163,303.90691 911.85281,306.14064 C 909.62031,308.14433 906.49103,309.56302 906.86673,313.80323 C 906.99287,314.71936 907.18935,315.67957 907.45349,316.68011 C 907.69173,317.58252 907.98502,318.51773 908.3314,319.483 C 908.64904,320.36821 909.01134,321.2787 909.41679,322.21234 C 909.79377,323.08045 910.20805,323.96858 910.65843,324.87502 C 911.08137,325.72626 911.53614,326.59366 912.02173,327.4758 C 912.48193,328.3118 912.96982,329.16105 913.48453,330.02233 C 913.97575,330.84431 914.49141,331.67725 915.03076,332.52011 C 915.54843,333.32909 916.08794,334.14722 916.64861,334.97356 C 923.00867,324.96053 931.32514,317.07383 940.49236,309.56731 C 940.49236,309.56731 940.49236,309.56731 940.49236,309.56731"/>
          <rect id="rect4243" width="102.38496" height="106.78467" x="820.40656" y="-4.3045669" ry="51.192463" style="opacity:1;fill:url(#linearGradient5307);fill-opacity:1;stroke:#000000;stroke-width:0;stroke-miterlimit:4;stroke-dasharray:none;stroke-opacity:1" rx="24.812664" transform="matrix(0.9690703,0.246785,0.3800761,0.9249552,0,0)"/>
          <rect transform="matrix(0.7590569,0.6510243,-0.6510243,0.7590569,0,0)" rx="72.85714" style="opacity:1;fill:url(#linearGradient5309);fill-opacity:1;stroke:#000000;stroke-width:0;stroke-miterlimit:4;stroke-dasharray:none;stroke-opacity:1" ry="22.857141" y="-382.49533" x="889.16766" height="45.714283" width="488.57144" id="rect4253"/>
          <rect id="rect4263" width="488.57144" height="45.714283" x="889.16766" y="-382.49533" ry="22.857141" style="opacity:1;fill:url(#linearGradient5311);fill-opacity:1;stroke:#000000;stroke-width:0;stroke-miterlimit:4;stroke-dasharray:none;stroke-opacity:1" rx="72.85714" transform="matrix(0.7590569,0.6510243,-0.6510243,0.7590569,0,0)"/>
        </g>
      </g>
      <path inkscape:transform-center-y="10.101525" inkscape:transform-center-x="-413.45746" id="path7281" d="M 165.23919,261.94567 C 178.50266,261.94567 190.29644,268.43973 197.88637,278.54033 C 216.56451,288.58358 227.24595,308.01178 222.05813,323.77826 C 217.69156,337.04814 203.36592,343.7996 187.09687,341.77171 C 187.08999,341.7762 187.07602,341.76722 187.06903,341.77171 C 180.88932,345.7703 173.63191,348.1062 165.85268,348.22519 C 165.72783,348.32567 165.61571,348.44344 165.49013,348.54309 C 146.705,363.44415 124.06282,363.44414 114.97208,348.54309 C 107.45086,336.21471 111.56379,317.54231 123.83783,303.01905 C 124.88805,280.16583 143.03,261.94568 165.23919,261.94567 z " style="fill:url(#linearGradient8258);fill-opacity:1;stroke:#000000;stroke-width:0;stroke-miterlimit:4;stroke-dasharray:none;stroke-opacity:1"/>
      <path style="fill:url(#linearGradient9239);fill-opacity:1;stroke:#000000;stroke-width:0;stroke-miterlimit:4;stroke-dasharray:none;stroke-opacity:1" d="M 326.45623,186.15677 C 311.16104,186.15677 297.56064,192.65083 288.80807,202.75143 C 267.26877,212.79467 254.95111,232.22288 260.93362,247.98936 C 265.96907,261.25923 282.48916,268.01069 301.25033,265.9828 C 301.25827,265.9873 301.27439,265.97831 301.28245,265.9828 C 308.40877,269.98139 316.7779,272.3173 325.74877,272.43628 C 325.89274,272.53676 326.02204,272.65453 326.16685,272.75418 C 347.82955,287.65524 373.94012,287.65523 384.42339,272.75418 C 393.09675,260.4258 388.35379,241.75341 374.19956,227.23014 C 372.98847,204.37692 352.06749,186.15677 326.45623,186.15677 z " id="path8260" inkscape:transform-center-x="476.792" inkscape:transform-center-y="10.101525"/>
      <path style="fill:url(#linearGradient9249);fill-opacity:1;stroke:#000000;stroke-width:0;stroke-miterlimit:4;stroke-dasharray:none;stroke-opacity:1" d="M 505.84373,218.30964 C 518.49768,218.30964 529.74949,223.72507 536.99062,232.14801 C 554.8104,240.52312 565.00098,256.72439 560.05157,269.87214 C 555.88566,280.93796 542.21834,286.56803 526.69694,284.87697 C 526.69038,284.88072 526.67705,284.87323 526.67038,284.87697 C 520.77466,288.21141 513.85076,290.15933 506.42903,290.25856 C 506.30992,290.34235 506.20295,290.44055 506.08314,290.52365 C 488.16127,302.94972 466.55962,302.94971 457.88665,290.52365 C 450.71104,280.24296 454.63496,264.67195 466.34496,252.56093 C 467.34692,233.50351 484.65517,218.30964 505.84373,218.30964 z " id="path9241" inkscape:transform-center-x="-394.4571" inkscape:transform-center-y="8.4237112"/>
      <path style="fill:url(#linearGradient10232);fill-opacity:1;stroke:#000000;stroke-width:0;stroke-miterlimit:4;stroke-dasharray:none;stroke-opacity:1" d="M 189.63585,496.92898 C 189.63585,511.38512 195.70796,524.23944 205.1523,532.51187 C 214.54299,552.86959 232.70886,564.51154 247.45095,558.85721 C 259.85863,554.09799 266.17141,538.48415 264.27529,520.75216 C 264.27949,520.74465 264.27109,520.72942 264.27529,520.7218 C 268.01408,513.98641 270.19821,506.07638 270.30947,497.59763 C 270.40341,497.46156 270.51353,497.33935 270.6067,497.20248 C 284.53959,476.72813 284.53958,452.04992 270.6067,442.14172 C 259.07935,433.94416 241.62016,438.42693 228.04054,451.8047 C 206.67217,452.94936 189.63585,472.72268 189.63585,496.92898 z " id="path9255" inkscape:transform-center-x="-8.927057" inkscape:transform-center-y="476.792"/>
    </g>
  </g>
</svg>