<svg xmlns="http://www.w3.org/2000/svg" viewBox="150 310 450 440" xmlns:xlink="http://www.w3.org/1999/xlink">
<defs>
<radialGradient id="radialGradient3188" xlink:href="#linearGradient4437-4" gradientUnits="userSpaceOnUse" cy="467" cx="559" gradientTransform="matrix(0.64399438,1.269063,-1.3033494,0.66138991,827.10486,-583.91265)" r="113"/>
<linearGradient id="linearGradient4437-4">
<stop stop-color="#FF0" offset="0"/>
<stop stop-color="#FF0" stop-opacity="0" offset="1"/>
</linearGradient>
<linearGradient id="linearGradient3192" y2="160" gradientUnits="userSpaceOnUse" x2="517" y1="69.9" x1="525">
<stop stop-color="#FFF" offset="0"/>
<stop stop-color="#FFF" stop-opacity="0" offset="1"/>
</linearGradient>
<filter id="filter4363-3" color-interpolation-filters="sRGB">
<feGaussianBlur id="feGaussianBlur4365-7" stdDeviation="5.5483248"/>
</filter>
<linearGradient id="linearGradient3194" y2="358" xlink:href="#linearGradient4557-6" gradientUnits="userSpaceOnUse" x2="473" gradientTransform="matrix(-1.1853236,0,0,-1.109182,1021.2088,851.15583)" y1="416" x1="468"/>
<linearGradient id="linearGradient4557-6">
<stop stop-color="#FC0" offset="0"/>
<stop stop-color="#e9a71c" stop-opacity="0" offset="1"/>
</linearGradient>
<radialGradient id="radialGradient3196" xlink:href="#linearGradient4585-2" gradientUnits="userSpaceOnUse" cy="403" cx="464" gradientTransform="matrix(2.6674103,0.97164933,-1.0501742,2.882982,-350.60226,-1209.9869)" r="25.4"/>
<linearGradient id="linearGradient4585-2">
<stop stop-color="#FFF" offset="0"/>
<stop stop-color="#FFF" stop-opacity="0" offset="1"/>
</linearGradient>
<linearGradient id="linearGradient3198" y2="415" xlink:href="#linearGradient4585-2" gradientUnits="userSpaceOnUse" x2="469" y1="363" x1="447"/>
</defs>
<g>
<g transform="matrix(1.7447879,0,0,1.7447879,2645.4701,-690.72664)">
<g transform="translate(-1061.2869,-491.20374)">
<g transform="translate(-737.57489,765.35632)">
<path d="m691,538c0,62.3-50.5,113-113,113-62.3,0-113-50.5-113-113,0-62.3,50.5-113,113-113,62.3,0,113,50.5,113,113z" transform="translate(-78.593716,-111.55234)" fill="#eaa81c"/>
<path d="m691,538c0,62.3-50.5,113-113,113-62.3,0-113-50.5-113-113,0-62.3,50.5-113,113-113,62.3,0,113,50.5,113,113z" transform="matrix(1,0,0,1.005618,-78.593716,-114.57314)" fill="url(#radialGradient3188)"/>
<path d="m691,538c0,62.3-50.5,113-113,113-62.3,0-113-50.5-113-113,0-62.3,50.5-113,113-113,62.3,0,113,50.5,113,113z" transform="matrix(1,0,0,1.005618,-78.593716,-114.57314)" fill="url(#radialGradient3188)"/>
<path d="m586,109c0,19.6-30.6,35.5-68.5,35.5-37.8,0-68.5-15.9-68.5-35.5s30.6-35.5,68.5-35.5c37.8,0,68.5,15.9,68.5,35.5z" transform="matrix(0.87962964,0,0,1,45.775894,245.92228)" fill="url(#linearGradient3192)"/>
<path opacity="0.22000002" d="m494,316c-44.6,0.725-86.7,31.1-101,73.2-13.4,36.5-5.87,80.1,19.6,109,24.5,29.4,64.8,44.7,103,38,33.2-5.39,63.5-26.6,79.3-56.2,16.4-29.6,18.3-67,4.32-97.9-15.1-34.7-48.8-60.7-86.7-65.3-5.95-0.833-12-1.15-18-0.985zm3.34,2.53c45.7-0.911,89.5,31.4,102,75.2,11.1,36.2,1.67,78.1-25,105-24.7,25.9-62.9,38.2-98.1,30.7-38.2-7.65-71.1-37.5-81.3-75.2-9.75-33.9-1.51-72.6,21.8-98.8,19.9-22.9,49.7-37.1,80.3-36.8z" filter="url(#filter4363-3)" fill="#2b1100"/>
</g>
<g transform="matrix(1.1891624,0,0,1.1891624,-848.84258,681.50941)">
<path d="m494,403c0,22.1-12.2,39.9-27.3,39.9s-27.3-17.9-27.3-39.9c0-22.1,12.2-39.9,27.3-39.9s27.3,17.9,27.3,39.9z" fill="#e9a71c"/>
<path d="m469,443c17.6-3,25-21.9,25.2-36.8,0.68-15.9-5.7-35.7-23.9-40.4-15.4-0.968-25.3,14.2-27.3,26.8-4.29,18,0.989,42.1,20.7,49.9,1.78,0.405,3.59,0.597,5.33,0.485z" fill="url(#linearGradient3194)"/>
<path d="m468,443c17-2.98,24.1-21.7,24.3-36.5,0.656-15.7-5.49-35.4-23.1-40.1-14.9-0.96-24.3,14-26.3,26.6-4.13,17.9,0.953,41.8,20,49.5,1.72,0.402,3.46,0.592,5.14,0.481z" fill="#999"/>
<path d="m468,443c17-2.98,24.1-21.7,24.3-36.5,0.656-15.7-5.49-35.4-23.1-40.1-14.9-0.96-24.3,14-26.3,26.6-4.13,17.9,0.953,41.8,20,49.5,1.72,0.402,3.46,0.592,5.14,0.481z" fill="url(#radialGradient3196)"/>
<path d="m486,400c0,10.2-6.53,18.4-14.6,18.4-8.05,0-14.6-8.23-14.6-18.4s6.53-18.4,14.6-18.4c8.05,0,14.6,8.23,14.6,18.4z" transform="matrix(1.173913,0,0,1,-85.703521,2.535281)" fill="#000"/>
<path d="m486,400c0,10.2-6.53,18.4-14.6,18.4-8.05,0-14.6-8.23-14.6-18.4s6.53-18.4,14.6-18.4c8.05,0,14.6,8.23,14.6,18.4z" transform="matrix(0.47826082,0,0,0.62962961,234.12604,150.17566)" fill="url(#linearGradient3198)"/>
</g>
<g transform="matrix(1.1733989,0,0,1.1733989,-737.66037,685.58896)">
<path d="m494,403c0,22.1-12.2,39.9-27.3,39.9s-27.3-17.9-27.3-39.9c0-22.1,12.2-39.9,27.3-39.9s27.3,17.9,27.3,39.9z" fill="#e9a71c"/>
<path d="m469,443c17.6-3,25-21.9,25.2-36.8,0.68-15.9-5.7-35.7-23.9-40.4-15.4-0.968-25.3,14.2-27.3,26.8-4.29,18,0.989,42.1,20.7,49.9,1.78,0.405,3.59,0.597,5.33,0.485z" fill="url(#linearGradient3194)"/>
<path d="m468,443c17-2.98,24.1-21.7,24.3-36.5,0.656-15.7-5.49-35.4-23.1-40.1-14.9-0.96-24.3,14-26.3,26.6-4.13,17.9,0.953,41.8,20,49.5,1.72,0.402,3.46,0.592,5.14,0.481z" fill="#999"/>
<path d="m468,443c17-2.98,24.1-21.7,24.3-36.5,0.656-15.7-5.49-35.4-23.1-40.1-14.9-0.96-24.3,14-26.3,26.6-4.13,17.9,0.953,41.8,20,49.5,1.72,0.402,3.46,0.592,5.14,0.481z" fill="url(#radialGradient3196)"/>
<path d="m486,400c0,10.2-6.53,18.4-14.6,18.4-8.05,0-14.6-8.23-14.6-18.4s6.53-18.4,14.6-18.4c8.05,0,14.6,8.23,14.6,18.4z" transform="matrix(1.173913,0,0,1,-85.703521,2.535281)" fill="#000"/>
<path d="m486,400c0,10.2-6.53,18.4-14.6,18.4-8.05,0-14.6-8.23-14.6-18.4s6.53-18.4,14.6-18.4c8.05,0,14.6,8.23,14.6,18.4z" transform="matrix(0.47826082,0,0,0.62962961,233.67786,149.2793)" fill="url(#linearGradient3198)"/>
</g>
<path d="m-225,1110c3.85-4.6,6.66-6.69,9.23-9.32,2.7-1.86,6.42-5.62,9.4-6.92,4.45-2.71,6.43-2.92,10.3-4.76,3.1-1.22,7.01-2.03,10.8-2.75,3.61-0.418,4.16-0.378,6.61-0.746,6.57,0.172,13.4-0.216,13.6,3.34-0.198,0.3-0.242,0.71-0.873,0.701-0.048,0.014-1.44,0.114-3.19,0.396-3.01,0.56-3.34,0.37-6.93,1.35-3.02,0.822-5.71,1.72-8.99,3.03-3.9,1.87-7.15,2.92-11.3,5.86-5.68,3.84-10.7,8.16-13.3,9.97-3.34,1.62-7.11,6.11-10.4,7.9-4.02,2.01-7.45-3.47-5.02-8.06z" fill="#000"/>
<path d="m-261,1110c-3.93-4.7-6.8-6.83-9.42-9.52-2.76-1.9-6.56-5.74-9.6-7.06-4.54-2.77-6.57-2.98-10.5-4.86-3.16-1.25-7.15-2.07-11.1-2.8-3.69-0.426-4.25-0.385-6.74-0.762-6.7,0.175-13.6-0.22-13.9,3.41,0.202,0.306,0.247,0.725,0.891,0.716,0.049,0.015,1.47,0.116,3.25,0.404,3.07,0.572,3.41,0.377,7.08,1.38,3.08,0.839,5.83,1.76,9.17,3.09,3.98,1.91,7.3,2.98,11.5,5.98,5.8,3.92,10.9,8.33,13.6,10.2,3.41,1.66,7.26,6.24,10.6,8.07,4.1,2.05,7.61-3.54,5.13-8.23z" fill="#000"/>
<path d="m-312,1260c0-17.2,31.6-34.8,70.7-39.3,39-4.52,69.6,5.88,70.7,22.9,0.207,3.29-1.56,5.2-1.57,5.37-52.8-22-122-7.69-140,11z" fill="#000"/>
</g>
</g>
</g>
</svg>