<?xml version="1.0" encoding="UTF-8" standalone="no"?>
<!-- Created with Inkscape (http://www.inkscape.org/) -->
<svg xmlns:dc="http://purl.org/dc/elements/1.1/" xmlns:cc="http://creativecommons.org/ns#" xmlns:rdf="http://www.w3.org/1999/02/22-rdf-syntax-ns#" xmlns:svg="http://www.w3.org/2000/svg" xmlns="http://www.w3.org/2000/svg" xmlns:xlink="http://www.w3.org/1999/xlink" version="1.1" width="473.19434" height="967.80371" id="svg7389">
  <defs id="defs3">
    <linearGradient x1="498.18271" y1="518.0517" x2="504.52094" y2="422.34485" id="linearGradient5376" xlink:href="#linearGradient4437" gradientUnits="userSpaceOnUse"/>
    <linearGradient id="linearGradient4437">
      <stop id="stop4439" style="stop-color:#ffff00;stop-opacity:1" offset="0"/>
      <stop id="stop4441" style="stop-color:#ffff00;stop-opacity:0" offset="1"/>
    </linearGradient>
    <filter color-interpolation-filters="sRGB" id="filter4946">
      <feGaussianBlur id="feGaussianBlur4948" stdDeviation="6.8255148"/>
    </filter>
    <linearGradient x1="-1178.1134" y1="929.24261" x2="-1210.4382" y2="953.01086" id="linearGradient7337" xlink:href="#linearGradient7244" gradientUnits="userSpaceOnUse" gradientTransform="matrix(1,0,0.02672233,0.62658022,-26.383499,343.61695)"/>
    <linearGradient id="linearGradient7244">
      <stop id="stop7246" style="stop-color:#f9f9f9;stop-opacity:1" offset="0"/>
      <stop id="stop7248" style="stop-color:#f9f9f9;stop-opacity:0" offset="1"/>
    </linearGradient>
    <linearGradient x1="498.18271" y1="518.0517" x2="504.52094" y2="422.34485" id="linearGradient8411" xlink:href="#linearGradient4437" gradientUnits="userSpaceOnUse"/>
    <linearGradient x1="498.18271" y1="518.0517" x2="504.52094" y2="422.34485" id="linearGradient6581" xlink:href="#linearGradient4437-7" gradientUnits="userSpaceOnUse"/>
    <linearGradient id="linearGradient4437-7">
      <stop id="stop4439-8" style="stop-color:#ffff00;stop-opacity:1" offset="0"/>
      <stop id="stop4441-0" style="stop-color:#ffff00;stop-opacity:0" offset="1"/>
    </linearGradient>
    <filter color-interpolation-filters="sRGB" id="filter4946-4">
      <feGaussianBlur id="feGaussianBlur4948-3" stdDeviation="6.8255148"/>
    </filter>
    <linearGradient id="linearGradient4498-4">
      <stop id="stop4500-6" style="stop-color:#ffffff;stop-opacity:1" offset="0"/>
      <stop id="stop4502-4" style="stop-color:#ffffff;stop-opacity:0" offset="1"/>
    </linearGradient>
    <linearGradient x1="524.80316" y1="69.940788" x2="517.19733" y2="159.94327" id="linearGradient5773" xlink:href="#linearGradient4498-4" gradientUnits="userSpaceOnUse"/>
    <linearGradient x1="498.18271" y1="518.0517" x2="504.52094" y2="422.34485" id="linearGradient5241" xlink:href="#linearGradient4437-9" gradientUnits="userSpaceOnUse"/>
    <linearGradient id="linearGradient4437-9">
      <stop id="stop4439-27" style="stop-color:#ffff00;stop-opacity:1" offset="0"/>
      <stop id="stop4441-5" style="stop-color:#ffff00;stop-opacity:0" offset="1"/>
    </linearGradient>
    <filter color-interpolation-filters="sRGB" id="filter4946-8">
      <feGaussianBlur id="feGaussianBlur4948-00" stdDeviation="6.8255148"/>
    </filter>
    <linearGradient x1="498.18271" y1="518.0517" x2="504.52094" y2="422.34485" id="linearGradient5231" xlink:href="#linearGradient4437-9" gradientUnits="userSpaceOnUse"/>
    <linearGradient x1="498.18271" y1="518.0517" x2="504.52094" y2="422.34485" id="linearGradient5233" xlink:href="#linearGradient4437-9" gradientUnits="userSpaceOnUse"/>
    <linearGradient x1="498.18271" y1="518.0517" x2="504.52094" y2="422.34485" id="linearGradient5235" xlink:href="#linearGradient4437-9" gradientUnits="userSpaceOnUse"/>
    <linearGradient x1="498.18271" y1="518.0517" x2="504.52094" y2="422.34485" id="linearGradient5237" xlink:href="#linearGradient4437-9" gradientUnits="userSpaceOnUse"/>
    <linearGradient x1="498.18271" y1="518.0517" x2="504.52094" y2="422.34485" id="linearGradient5239" xlink:href="#linearGradient4437-9" gradientUnits="userSpaceOnUse"/>
    <filter color-interpolation-filters="sRGB" id="filter4363">
      <feGaussianBlur id="feGaussianBlur4365" stdDeviation="5.5483248"/>
    </filter>
    <radialGradient cx="559.28888" cy="467.44159" r="112.82001" fx="559.28888" fy="467.44159" id="radialGradient5243" xlink:href="#linearGradient4437-9" gradientUnits="userSpaceOnUse" gradientTransform="matrix(0.64399438,1.269063,-1.3033494,0.66138991,827.10486,-583.91265)"/>
    <radialGradient cx="559.28888" cy="467.44159" r="112.82001" fx="559.28888" fy="467.44159" id="radialGradient5245" xlink:href="#linearGradient4437-9" gradientUnits="userSpaceOnUse" gradientTransform="matrix(0.64399438,1.269063,-1.3033494,0.66138991,827.10486,-583.91265)"/>
    <linearGradient x1="524.80316" y1="69.940788" x2="517.19733" y2="159.94327" id="linearGradient5247" xlink:href="#linearGradient4498" gradientUnits="userSpaceOnUse"/>
    <linearGradient id="linearGradient4498">
      <stop id="stop4500" style="stop-color:#ffffff;stop-opacity:1" offset="0"/>
      <stop id="stop4502" style="stop-color:#ffffff;stop-opacity:0" offset="1"/>
    </linearGradient>
    <linearGradient x1="467.75934" y1="416.00662" x2="472.8299" y2="357.69519" id="linearGradient5249" xlink:href="#linearGradient4557" gradientUnits="userSpaceOnUse" gradientTransform="matrix(-1.1853236,0,0,-1.109182,815.85104,899.32617)"/>
    <linearGradient id="linearGradient4557">
      <stop id="stop4559" style="stop-color:#ffcc00;stop-opacity:1" offset="0"/>
      <stop id="stop4561" style="stop-color:#e9a71c;stop-opacity:0" offset="1"/>
    </linearGradient>
    <radialGradient cx="463.95642" cy="402.79358" r="25.399578" fx="463.95642" fy="402.79358" id="radialGradient5251" xlink:href="#linearGradient4585" gradientUnits="userSpaceOnUse" gradientTransform="matrix(2.6674103,0.97164933,-1.0501742,2.882982,-555.96002,-1161.8166)"/>
    <linearGradient id="linearGradient4585">
      <stop id="stop4587" style="stop-color:#ffffff;stop-opacity:1" offset="0"/>
      <stop id="stop4589" style="stop-color:#ffffff;stop-opacity:0" offset="1"/>
    </linearGradient>
    <linearGradient x1="447.07379" y1="363.17584" x2="468.94061" y2="415.01865" id="linearGradient5253" xlink:href="#linearGradient4599" gradientUnits="userSpaceOnUse"/>
    <linearGradient id="linearGradient4599">
      <stop id="stop4601" style="stop-color:#ffffff;stop-opacity:1" offset="0"/>
      <stop id="stop4603" style="stop-color:#ffffff;stop-opacity:0" offset="1"/>
    </linearGradient>
    <linearGradient x1="467.75934" y1="416.00662" x2="472.8299" y2="357.69519" id="linearGradient5255" xlink:href="#linearGradient4557" gradientUnits="userSpaceOnUse" gradientTransform="matrix(-1.1853236,0,0,-1.109182,815.85104,899.32617)"/>
    <radialGradient cx="463.95642" cy="402.79358" r="25.399578" fx="463.95642" fy="402.79358" id="radialGradient5257" xlink:href="#linearGradient4585" gradientUnits="userSpaceOnUse" gradientTransform="matrix(2.6674103,0.97164933,-1.0501742,2.882982,-555.96002,-1161.8166)"/>
    <linearGradient x1="447.07379" y1="363.17584" x2="468.94061" y2="415.01865" id="linearGradient5259" xlink:href="#linearGradient4599" gradientUnits="userSpaceOnUse"/>
    <linearGradient x1="463.6395" y1="330.44092" x2="457.61823" y2="374.17453" id="linearGradient5261" xlink:href="#linearGradient4804" gradientUnits="userSpaceOnUse" gradientTransform="translate(-753.25696,166.9306)"/>
    <linearGradient id="linearGradient4804">
      <stop id="stop4806" style="stop-color:#ffffff;stop-opacity:1" offset="0"/>
      <stop id="stop4808" style="stop-color:#ffffff;stop-opacity:0" offset="1"/>
    </linearGradient>
    <filter color-interpolation-filters="sRGB" id="filter4798">
      <feGaussianBlur id="feGaussianBlur4800" stdDeviation="0.27037152"/>
    </filter>
    <linearGradient x1="463.6395" y1="330.44092" x2="457.61823" y2="374.17453" id="linearGradient5263" xlink:href="#linearGradient4804" gradientUnits="userSpaceOnUse" gradientTransform="translate(-0.31691013,-1.5845506)"/>
    <radialGradient cx="559.28888" cy="467.44159" r="112.82001" fx="559.28888" fy="467.44159" id="radialGradient4962" xlink:href="#linearGradient4437-9" gradientUnits="userSpaceOnUse" gradientTransform="matrix(0.64399438,1.269063,-1.3033494,0.66138991,827.10486,-583.91265)"/>
    <radialGradient cx="559.28888" cy="467.44159" r="112.82001" fx="559.28888" fy="467.44159" id="radialGradient4964" xlink:href="#linearGradient4437-9" gradientUnits="userSpaceOnUse" gradientTransform="matrix(0.64399438,1.269063,-1.3033494,0.66138991,827.10486,-583.91265)"/>
    <linearGradient x1="524.80316" y1="69.940788" x2="517.19733" y2="159.94327" id="linearGradient4966" xlink:href="#linearGradient4498" gradientUnits="userSpaceOnUse"/>
    <linearGradient x1="467.75934" y1="416.00662" x2="472.8299" y2="357.69519" id="linearGradient6136" xlink:href="#linearGradient4557" gradientUnits="userSpaceOnUse" gradientTransform="matrix(0,0.91243743,-0.85382521,0,127.87123,423.73426)"/>
    <radialGradient cx="463.95642" cy="402.79358" r="25.399578" fx="463.95642" fy="402.79358" id="radialGradient6132" xlink:href="#linearGradient4585" gradientUnits="userSpaceOnUse" gradientTransform="matrix(0.74795542,-2.0533169,2.2192595,0.80840223,-1458.7536,1479.7258)"/>
    <linearGradient x1="447.07379" y1="363.17584" x2="468.94061" y2="415.01865" id="linearGradient4688" xlink:href="#linearGradient4599" gradientUnits="userSpaceOnUse"/>
    <linearGradient x1="467.75934" y1="416.00662" x2="472.8299" y2="357.69519" id="linearGradient6125" xlink:href="#linearGradient4557" gradientUnits="userSpaceOnUse" gradientTransform="matrix(0,0.91243743,0.85382521,0,-638.32162,423.73426)"/>
    <radialGradient cx="463.95642" cy="402.79358" r="25.399578" fx="463.95642" fy="402.79358" id="radialGradient6121" xlink:href="#linearGradient4585" gradientUnits="userSpaceOnUse" gradientTransform="matrix(-0.74795542,-2.0533169,-2.2192595,0.80840223,948.30312,1479.7258)"/>
    <linearGradient x1="447.07379" y1="363.17584" x2="468.94061" y2="415.01865" id="linearGradient5016" xlink:href="#linearGradient4599" gradientUnits="userSpaceOnUse"/>
    <linearGradient x1="-125.49641" y1="406.49933" x2="-124.22877" y2="374.17453" id="linearGradient6114" xlink:href="#linearGradient5068" gradientUnits="userSpaceOnUse" gradientTransform="matrix(1.0041888,0,0,0.57073211,-120.07381,719.31315)"/>
    <linearGradient id="linearGradient5068">
      <stop id="stop5070" style="stop-color:#333333;stop-opacity:1" offset="0"/>
      <stop id="stop5072" style="stop-color:#333333;stop-opacity:0" offset="1"/>
    </linearGradient>
    <filter x="-0.055553716" y="-0.17214882" width="1.1111073" height="1.3442976" color-interpolation-filters="sRGB" id="filter5106">
      <feGaussianBlur id="feGaussianBlur5108" stdDeviation="1.1388166"/>
    </filter>
    <linearGradient x1="463.6395" y1="330.44092" x2="457.61823" y2="374.17453" id="linearGradient5132" xlink:href="#linearGradient4804" gradientUnits="userSpaceOnUse" gradientTransform="translate(-630.33424,-116.93984)"/>
    <linearGradient x1="463.6395" y1="330.44092" x2="457.61823" y2="374.17453" id="linearGradient5126" xlink:href="#linearGradient4804" gradientUnits="userSpaceOnUse" gradientTransform="translate(-0.31691013,-1.5845506)"/>
    <linearGradient x1="498.18271" y1="518.0517" x2="504.52094" y2="422.34485" id="linearGradient5590" xlink:href="#linearGradient4437-9" gradientUnits="userSpaceOnUse"/>
    <linearGradient x1="498.18271" y1="518.0517" x2="504.52094" y2="422.34485" id="linearGradient5592" xlink:href="#linearGradient4437-9" gradientUnits="userSpaceOnUse"/>
    <linearGradient x1="498.18271" y1="518.0517" x2="504.52094" y2="422.34485" id="linearGradient5594" xlink:href="#linearGradient4437-9" gradientUnits="userSpaceOnUse"/>
    <linearGradient x1="498.18271" y1="518.0517" x2="504.52094" y2="422.34485" id="linearGradient5596" xlink:href="#linearGradient4437-9" gradientUnits="userSpaceOnUse"/>
    <linearGradient x1="498.18271" y1="518.0517" x2="504.52094" y2="422.34485" id="linearGradient5598" xlink:href="#linearGradient4437-9" gradientUnits="userSpaceOnUse"/>
    <radialGradient cx="559.28888" cy="467.44159" r="112.82001" fx="559.28888" fy="467.44159" id="radialGradient5600" xlink:href="#linearGradient4437-9" gradientUnits="userSpaceOnUse" gradientTransform="matrix(0.64399438,1.269063,-1.3033494,0.66138991,827.10486,-583.91265)"/>
    <radialGradient cx="559.28888" cy="467.44159" r="112.82001" fx="559.28888" fy="467.44159" id="radialGradient5602" xlink:href="#linearGradient4437-9" gradientUnits="userSpaceOnUse" gradientTransform="matrix(0.64399438,1.269063,-1.3033494,0.66138991,827.10486,-583.91265)"/>
    <radialGradient cx="463.95642" cy="402.79358" r="25.399578" fx="463.95642" fy="402.79358" id="radialGradient5604" xlink:href="#linearGradient4585" gradientUnits="userSpaceOnUse" gradientTransform="matrix(2.6674103,0.82906542,-1.0501742,2.4599211,-316.63265,-861.26157)"/>
    <linearGradient x1="447.07379" y1="363.17584" x2="468.94061" y2="415.01865" id="linearGradient5606" xlink:href="#linearGradient4599" gradientUnits="userSpaceOnUse"/>
    <linearGradient x1="467.75934" y1="416.00662" x2="472.8299" y2="357.69519" id="linearGradient5608" xlink:href="#linearGradient4557" gradientUnits="userSpaceOnUse" gradientTransform="matrix(-1.1853236,0,0,-0.97610971,1122.4052,908.78503)"/>
    <radialGradient cx="463.95642" cy="402.79358" r="25.399578" fx="463.95642" fy="402.79358" id="radialGradient5610" xlink:href="#linearGradient4585" gradientUnits="userSpaceOnUse" gradientTransform="matrix(2.6674103,0.8361697,-1.0501742,2.4810002,-249.40586,-873.28916)"/>
    <linearGradient x1="447.07379" y1="363.17584" x2="468.94061" y2="415.01865" id="linearGradient5612" xlink:href="#linearGradient4599" gradientUnits="userSpaceOnUse"/>
    <linearGradient x1="463.6395" y1="330.44092" x2="457.61823" y2="374.17453" id="linearGradient5614" xlink:href="#linearGradient4804" gradientUnits="userSpaceOnUse" gradientTransform="translate(31.951949,105.97831)"/>
    <linearGradient x1="463.6395" y1="330.44092" x2="457.61823" y2="374.17453" id="linearGradient5616" xlink:href="#linearGradient4804" gradientUnits="userSpaceOnUse" gradientTransform="translate(-0.31691013,-1.5845506)"/>
    <linearGradient x1="502.40823" y1="461.66278" x2="500.61551" y2="508.72153" id="linearGradient5618" xlink:href="#linearGradient5438" gradientUnits="userSpaceOnUse" gradientTransform="matrix(1.0814033,0,0,0.9307542,-41.402034,32.599453)"/>
    <linearGradient id="linearGradient5438">
      <stop id="stop5440" style="stop-color:#f9e608;stop-opacity:1" offset="0"/>
      <stop id="stop5442" style="stop-color:#f9e608;stop-opacity:0" offset="1"/>
    </linearGradient>
    <linearGradient x1="505.09726" y1="435.44434" x2="501.06369" y2="500.87842" id="linearGradient5620" xlink:href="#linearGradient5448" gradientUnits="userSpaceOnUse"/>
    <linearGradient id="linearGradient5448">
      <stop id="stop5450" style="stop-color:#ffff00;stop-opacity:1" offset="0"/>
      <stop id="stop5452" style="stop-color:#ffff00;stop-opacity:0" offset="1"/>
    </linearGradient>
    <linearGradient x1="502.40823" y1="461.66278" x2="500.61551" y2="508.72153" id="linearGradient5622" xlink:href="#linearGradient5438" gradientUnits="userSpaceOnUse" gradientTransform="matrix(1.0814033,0,0,0.9307542,-41.402034,32.599453)"/>
    <linearGradient x1="505.09726" y1="435.44434" x2="501.06369" y2="500.87842" id="linearGradient5624" xlink:href="#linearGradient5448" gradientUnits="userSpaceOnUse"/>
    <linearGradient x1="524.80316" y1="69.940788" x2="517.19733" y2="159.94327" id="linearGradient5626" xlink:href="#linearGradient4498" gradientUnits="userSpaceOnUse"/>
    <radialGradient cx="559.28888" cy="467.44159" r="112.82001" fx="559.28888" fy="467.44159" id="radialGradient12406" xlink:href="#linearGradient4437-9" gradientUnits="userSpaceOnUse" gradientTransform="matrix(0.64399438,1.269063,-1.3033494,0.66138991,827.10486,-583.91265)"/>
    <radialGradient cx="559.28888" cy="467.44159" r="112.82001" fx="559.28888" fy="467.44159" id="radialGradient12408" xlink:href="#linearGradient4437-9" gradientUnits="userSpaceOnUse" gradientTransform="matrix(0.64399438,1.269063,-1.3033494,0.66138991,827.10486,-583.91265)"/>
    <linearGradient x1="524.80316" y1="69.940788" x2="517.19733" y2="159.94327" id="linearGradient12410" xlink:href="#linearGradient4498" gradientUnits="userSpaceOnUse"/>
    <linearGradient x1="447.07379" y1="363.17584" x2="468.94061" y2="415.01865" id="linearGradient12412" xlink:href="#linearGradient4599" gradientUnits="userSpaceOnUse"/>
    <linearGradient x1="447.07379" y1="363.17584" x2="468.94061" y2="415.01865" id="linearGradient12414" xlink:href="#linearGradient4599" gradientUnits="userSpaceOnUse"/>
    <linearGradient x1="498.18271" y1="518.0517" x2="504.52094" y2="422.34485" id="linearGradient12416" xlink:href="#linearGradient4437-9" gradientUnits="userSpaceOnUse"/>
    <linearGradient x1="498.18271" y1="518.0517" x2="504.52094" y2="422.34485" id="linearGradient12418" xlink:href="#linearGradient4437-9" gradientUnits="userSpaceOnUse"/>
    <linearGradient x1="498.18271" y1="518.0517" x2="504.52094" y2="422.34485" id="linearGradient12420" xlink:href="#linearGradient4437-9" gradientUnits="userSpaceOnUse"/>
    <linearGradient x1="498.18271" y1="518.0517" x2="504.52094" y2="422.34485" id="linearGradient12422" xlink:href="#linearGradient4437-9" gradientUnits="userSpaceOnUse"/>
    <radialGradient cx="559.28888" cy="467.44159" r="112.82001" fx="559.28888" fy="467.44159" id="radialGradient12424" xlink:href="#linearGradient4437-9" gradientUnits="userSpaceOnUse" gradientTransform="matrix(0.64399438,1.269063,-1.3033494,0.66138991,827.10486,-583.91265)"/>
    <radialGradient cx="559.28888" cy="467.44159" r="112.82001" fx="559.28888" fy="467.44159" id="radialGradient12426" xlink:href="#linearGradient4437-9" gradientUnits="userSpaceOnUse" gradientTransform="matrix(0.64399438,1.269063,-1.3033494,0.66138991,827.10486,-583.91265)"/>
    <linearGradient x1="447.07379" y1="363.17584" x2="468.94061" y2="415.01865" id="linearGradient12428" xlink:href="#linearGradient4599" gradientUnits="userSpaceOnUse"/>
    <linearGradient x1="447.07379" y1="363.17584" x2="468.94061" y2="415.01865" id="linearGradient12430" xlink:href="#linearGradient4599" gradientUnits="userSpaceOnUse"/>
    <linearGradient x1="524.80316" y1="69.940788" x2="517.19733" y2="159.94327" id="linearGradient12432" xlink:href="#linearGradient4498" gradientUnits="userSpaceOnUse"/>
    <linearGradient x1="498.18271" y1="518.0517" x2="504.52094" y2="422.34485" id="linearGradient12434" xlink:href="#linearGradient4437-9" gradientUnits="userSpaceOnUse"/>
    <linearGradient x1="498.18271" y1="518.0517" x2="504.52094" y2="422.34485" id="linearGradient12436" xlink:href="#linearGradient4437-9" gradientUnits="userSpaceOnUse"/>
    <linearGradient x1="498.18271" y1="518.0517" x2="504.52094" y2="422.34485" id="linearGradient12438" xlink:href="#linearGradient4437-9" gradientUnits="userSpaceOnUse"/>
    <linearGradient x1="498.18271" y1="518.0517" x2="504.52094" y2="422.34485" id="linearGradient12440" xlink:href="#linearGradient4437-9" gradientUnits="userSpaceOnUse"/>
    <radialGradient cx="559.28888" cy="467.44159" r="112.82001" fx="559.28888" fy="467.44159" id="radialGradient12442" xlink:href="#linearGradient4437-9" gradientUnits="userSpaceOnUse" gradientTransform="matrix(0.64399438,1.269063,-1.3033494,0.66138991,827.10486,-583.91265)"/>
    <radialGradient cx="559.28888" cy="467.44159" r="112.82001" fx="559.28888" fy="467.44159" id="radialGradient12444" xlink:href="#linearGradient4437-9" gradientUnits="userSpaceOnUse" gradientTransform="matrix(0.64399438,1.269063,-1.3033494,0.66138991,827.10486,-583.91265)"/>
    <linearGradient x1="524.80316" y1="69.940788" x2="517.19733" y2="159.94327" id="linearGradient12446" xlink:href="#linearGradient4498" gradientUnits="userSpaceOnUse"/>
    <linearGradient x1="447.07379" y1="363.17584" x2="468.94061" y2="415.01865" id="linearGradient12448" xlink:href="#linearGradient4599" gradientUnits="userSpaceOnUse"/>
    <linearGradient x1="447.07379" y1="363.17584" x2="468.94061" y2="415.01865" id="linearGradient12450" xlink:href="#linearGradient4599" gradientUnits="userSpaceOnUse"/>
  </defs>
  <metadata id="metadata4">
    <rdf:RDF>
      <cc:Work rdf:about="">
        <dc:format>image/svg+xml</dc:format>
        <dc:type rdf:resource="http://purl.org/dc/dcmitype/StillImage"/>
        <dc:title/>
      </cc:Work>
    </rdf:RDF>
  </metadata>
  <g transform="translate(-36.378788,-30.183518)" id="layer1">
    <g transform="matrix(1.2070045,0,0,1.2070045,555.48003,-548.73695)" id="g11202">
      <g transform="translate(-757.93333,446.86084)" id="g4950">
        <path d="m 690.86407,537.70013 c 0,62.30877 -50.51123,112.82001 -112.82,112.82001 -62.30877,0 -112.82001,-50.51124 -112.82001,-112.82001 0,-62.30877 50.51124,-112.82 112.82001,-112.82 62.30877,0 112.82,50.51123 112.82,112.82 z" transform="translate(-78.593716,-111.55234)" id="path4952" style="fill:#eaa81c;fill-opacity:1;stroke:none"/>
        <path d="m 690.86407,537.70013 c 0,62.30877 -50.51123,112.82001 -112.82,112.82001 -62.30877,0 -112.82001,-50.51124 -112.82001,-112.82001 0,-62.30877 50.51124,-112.82 112.82001,-112.82 62.30877,0 112.82,50.51123 112.82,112.82 z" transform="matrix(1,0,0,1.005618,-78.593716,-114.57314)" id="path4954" style="fill:url(#radialGradient12406);fill-opacity:1;stroke:none"/>
        <path d="m 690.86407,537.70013 c 0,62.30877 -50.51123,112.82001 -112.82,112.82001 -62.30877,0 -112.82001,-50.51124 -112.82001,-112.82001 0,-62.30877 50.51124,-112.82 112.82001,-112.82 62.30877,0 112.82,50.51123 112.82,112.82 z" transform="matrix(1,0,0,1.005618,-78.593716,-114.57314)" id="path4956" style="fill:url(#radialGradient12408);fill-opacity:1;stroke:none"/>
        <path d="m 585.64992,109.23765 c 0,19.60276 -30.64727,35.49393 -68.45259,35.49393 -37.80533,0 -68.45259,-15.89117 -68.45259,-35.49393 0,-19.602761 30.64726,-35.493937 68.45259,-35.493937 37.80532,0 68.45259,15.891176 68.45259,35.493937 z" transform="matrix(0.87962964,0,0,1,45.775894,245.92228)" id="path4958" style="fill:url(#linearGradient12410);fill-opacity:1;stroke:none"/>
        <path d="m 494.46879,315.88513 c -44.64486,0.7251 -86.72321,31.11724 -101.28125,73.15625 -13.41801,36.45605 -5.86936,80.07388 19.59375,109.28125 24.45484,29.36708 64.79043,44.66734 102.72108,37.95981 33.18723,-5.38656 63.53888,-26.59245 79.33243,-56.17249 16.36591,-29.63054 18.32531,-67.00913 4.32149,-97.94357 -15.13354,-34.67069 -48.83239,-60.70739 -86.72663,-65.29644 -5.94776,-0.83309 -11.95729,-1.15455 -17.96087,-0.98481 z m 3.34375,2.53125 c 45.74786,-0.91102 89.4817,31.35854 102.21875,75.1875 11.13961,36.15611 1.66793,78.09562 -24.96875,105.03125 -24.66454,25.85514 -62.89845,38.15299 -98.05718,30.66605 -38.22286,-7.6514 -71.07255,-37.4631 -81.25532,-75.1973 -9.74582,-33.90659 -1.50741,-72.57936 21.81152,-98.84883 19.93872,-22.85706 49.7019,-37.11491 80.25098,-36.83867 z" id="path4960" style="opacity:0.22000002;fill:#2b1100;fill-opacity:1;stroke:none;filter:url(#filter4363)"/>
      </g>
      <path d="m 494.37979,402.69641 c 0,22.0531 -12.20215,39.93068 -27.25427,39.93068 -15.05212,0 -27.25427,-17.87758 -27.25427,-39.93068 0,-22.0531 12.20215,-39.93067 27.25427,-39.93067 15.05212,0 27.25427,17.87757 27.25427,39.93067 z" transform="matrix(0,-0.76977918,0.76977918,0,-527.33081,1209.8395)" id="path4609" style="fill:#e9a71c;fill-opacity:1;stroke:none"/>
      <path d="m -186.20304,849.12966 c -2.31131,-13.54652 -16.82626,-19.20998 -28.30964,-19.38929 -12.2062,-0.5235 -27.47915,4.38733 -31.11125,18.41982 -0.74544,11.86235 10.90005,19.44123 20.65863,21.03955 13.89051,3.30196 32.4077,-0.76108 38.38871,-15.9641 0.31214,-1.3715 0.4598,-2.76468 0.37355,-4.10598 z" id="path4611" style="fill:url(#linearGradient6136);fill-opacity:1;stroke:none"/>
      <path d="m -186.69074,849.40454 c -2.29235,-13.05775 -16.68824,-18.51687 -28.07742,-18.68971 -12.10608,-0.50462 -27.25375,4.22903 -30.85605,17.75522 -0.73932,11.43436 10.81064,18.73978 20.48918,20.28044 13.77657,3.18282 32.14185,-0.73363 38.07381,-15.38812 0.30957,-1.32201 0.45602,-2.66492 0.37048,-3.95783 z" id="path4613" style="fill:#999999;fill-opacity:1;stroke:none"/>
      <path d="m -186.69074,849.40454 c -2.29235,-13.05775 -16.68824,-18.51687 -28.07742,-18.68971 -12.10608,-0.50462 -27.25375,4.22903 -30.85605,17.75522 -0.73932,11.43436 10.81064,18.73978 20.48918,20.28044 13.77657,3.18282 32.14185,-0.73363 38.07381,-15.38812 0.30957,-1.32201 0.45602,-2.66492 0.37048,-3.95783 z" id="path4615" style="fill:url(#radialGradient6132);fill-opacity:1;stroke:none"/>
      <g transform="translate(-108.9074,576.35768)" id="g5008">
        <path d="m 485.5063,400.16113 c 0,10.15143 -6.52673,18.38079 -14.57786,18.38079 -8.05114,0 -14.57787,-8.22936 -14.57787,-18.38079 0,-10.15143 6.52673,-18.38078 14.57787,-18.38078 8.05113,0 14.57786,8.22935 14.57786,18.38078 z" transform="matrix(0,-0.90365379,0.76977918,0,-403.47462,702.14367)" id="path4617" style="fill:#000000;fill-opacity:1;stroke:none"/>
        <path d="m 485.5063,400.16113 c 0,10.15143 -6.52673,18.38079 -14.57786,18.38079 -8.05114,0 -14.57787,-8.22936 -14.57787,-18.38079 0,-10.15143 6.52673,-18.38078 14.57787,-18.38078 8.05113,0 14.57786,8.22935 14.57786,18.38078 z" transform="matrix(0,-0.36815522,0.48467576,0,-292.92912,448.01056)" id="path4619" style="fill:url(#linearGradient12412);fill-opacity:1;stroke:none"/>
      </g>
      <path d="m 494.37979,402.69641 c 0,22.0531 -12.20215,39.93068 -27.25427,39.93068 -15.05212,0 -27.25427,-17.87758 -27.25427,-39.93068 0,-22.0531 12.20215,-39.93067 27.25427,-39.93067 15.05212,0 27.25427,17.87757 27.25427,39.93067 z" transform="matrix(0,-0.76977918,-0.76977918,0,16.88042,1209.8395)" id="path4970" style="fill:#e9a71c;fill-opacity:1;stroke:none"/>
      <path d="m -324.24735,849.12966 c 2.31131,-13.54652 16.82626,-19.20998 28.30964,-19.38929 12.2062,-0.5235 27.47915,4.38733 31.11125,18.41982 0.74544,11.86235 -10.90005,19.44123 -20.65863,21.03955 -13.89051,3.30196 -32.4077,-0.76108 -38.38871,-15.9641 -0.31214,-1.3715 -0.4598,-2.76468 -0.37355,-4.10598 z" id="path4972" style="fill:url(#linearGradient6125);fill-opacity:1;stroke:none"/>
      <path d="m -323.75965,849.40454 c 2.29235,-13.05775 16.68824,-18.51687 28.07742,-18.68971 12.10608,-0.50462 27.25375,4.22903 30.85605,17.75522 0.73932,11.43436 -10.81064,18.73978 -20.48918,20.28044 -13.77657,3.18282 -32.14185,-0.73363 -38.07381,-15.38812 -0.30957,-1.32201 -0.45602,-2.66492 -0.37048,-3.95783 z" id="path4974" style="fill:#999999;fill-opacity:1;stroke:none"/>
      <path d="m -323.75965,849.40454 c 2.29235,-13.05775 16.68824,-18.51687 28.07742,-18.68971 12.10608,-0.50462 27.25375,4.22903 30.85605,17.75522 0.73932,11.43436 -10.81064,18.73978 -20.48918,20.28044 -13.77657,3.18282 -32.14185,-0.73363 -38.07381,-15.38812 -0.30957,-1.32201 -0.45602,-2.66492 -0.37048,-3.95783 z" id="path4976" style="fill:url(#radialGradient6121);fill-opacity:1;stroke:none"/>
      <g transform="translate(-112.04465,578.1504)" id="g5012">
        <path d="m 485.5063,400.16113 c 0,10.15143 -6.52673,18.38079 -14.57786,18.38079 -8.05114,0 -14.57787,-8.22936 -14.57787,-18.38079 0,-10.15143 6.52673,-18.38078 14.57787,-18.38078 8.05113,0 14.57786,8.22935 14.57786,18.38078 z" transform="matrix(0,-0.90365379,-0.76977918,0,136.83339,702.14367)" id="path4978" style="fill:#000000;fill-opacity:1;stroke:none"/>
        <path d="m 485.5063,400.16113 c 0,10.15143 -6.52673,18.38079 -14.57786,18.38079 -8.05114,0 -14.57787,-8.22936 -14.57787,-18.38079 0,-10.15143 6.52673,-18.38078 14.57787,-18.38078 8.05113,0 14.57786,8.22935 14.57786,18.38078 z" transform="matrix(0,-0.36815522,-0.48467576,0,26.287893,448.01056)" id="path4980" style="fill:url(#linearGradient12414);fill-opacity:1;stroke:none"/>
      </g>
      <path d="m -287.23356,929.20682 c -22.16751,21.1332 49.45284,28.53454 66.95163,10.21796 12.32374,-19.2132 -50.82668,-23.37034 -66.95163,-10.21796 z" id="path5064" style="fill:#000000;stroke:#000000;stroke-width:0.94563138px;stroke-linecap:butt;stroke-linejoin:miter;stroke-opacity:1"/>
      <path d="m -287.23356,929.20682 c -22.16751,21.1332 49.45284,28.53454 66.95163,10.21796 12.32374,-19.2132 -50.82668,-23.37034 -66.95163,-10.21796 z" id="path5066" style="fill:url(#linearGradient6114);fill-opacity:1;stroke:#000000;stroke-width:0.94563138px;stroke-linecap:butt;stroke-linejoin:miter;stroke-opacity:1"/>
      <path d="m -155.43762,361.5542 c -14.99095,11.87782 33.44282,16.03771 45.2765,5.74296 8.33401,-10.79869 -34.37189,-13.13519 -45.2765,-5.74296 z" transform="matrix(1.0041888,0,0,0.57073211,-120.07381,719.31315)" id="path5076" style="fill:#550000;fill-opacity:1;stroke:none;filter:url(#filter5106)"/>
      <g transform="translate(-134.90176,577.25404)" id="g5128">
        <path d="m -190.86053,250.21952 c 1.58455,-10.14113 16.84084,-16.99218 27.75114,-16.99218 10.91031,0 14.70555,3.15221 14.54709,5.21213 0,0 -0.39124,6.31073 -6.06129,2.72937 -3.85961,-2.43784 -14.09547,-3.59083 -24.24513,3.60977 -5.6813,4.03055 -4.24289,7.94149 -7.27354,7.94149 -3.03064,0 -4.40136,-0.91603 -4.71827,-2.50058 z" id="path5110" style="fill:#000000;stroke:#000000;stroke-width:0.52184433px;stroke-linecap:butt;stroke-linejoin:miter;stroke-opacity:1"/>
        <path d="m -163.74049,234.21641 c -9.67413,0.553 -21.03226,4.29004 -24.6875,14.09375 2.39866,1.5748 2.97755,-2.46976 4.21875,-3.59375 7.26541,-9.05906 21.31341,-12.13258 31.75,-6.84375 2.09323,0.32042 0.1104,-2.68336 -1.1875,-2.46875 -3.23273,-0.68353 -6.6947,-1.46308 -10.09375,-1.1875 z" id="path5112" style="fill:url(#linearGradient5132);fill-opacity:1;stroke:none;filter:url(#filter4798)"/>
      </g>
      <g transform="matrix(-1,0,0,1,-317.6707,577.70222)" id="g5122">
        <path d="m -65.527111,250.85334 c -1.58455,-10.14113 -16.84084,-16.99218 -27.75114,-16.99218 -10.910309,0 -14.705549,3.15221 -14.547089,5.21213 0,0 0.39124,6.31073 6.06129,2.72937 3.859609,-2.43784 14.095469,-3.59083 24.245129,3.60977 5.6813,4.03055 4.24289,7.94149 7.27354,7.94149 3.03064,0 4.40136,-0.91603 4.71827,-2.50058 z" id="path5114" style="fill:#000000;stroke:#000000;stroke-width:0.52184433px;stroke-linecap:butt;stroke-linejoin:miter;stroke-opacity:1"/>
        <path d="m 466.27684,349.5717 c -9.67413,0.553 -21.03226,4.29004 -24.6875,14.09375 2.39866,1.5748 2.97755,-2.46976 4.21875,-3.59375 7.26541,-9.05906 21.31341,-12.13258 31.75,-6.84375 2.09323,0.32042 0.1104,-2.68336 -1.1875,-2.46875 -3.23273,-0.68353 -6.6947,-1.46308 -10.09375,-1.1875 z" transform="matrix(-1,0,0,1,373.62967,-114.72147)" id="path5116" style="fill:url(#linearGradient5126);fill-opacity:1;stroke:none;filter:url(#filter4798)"/>
      </g>
    </g>
    <g transform="matrix(1.2070045,0,0,1.2070045,537.73306,-520.84886)" id="g5265">
      <g transform="matrix(0.76279008,0,0,0.61507197,-630.79057,292.57144)" id="g5165" style="opacity:0.33000004;fill:url(#linearGradient5241);fill-opacity:1;filter:url(#filter4946-8)">
        <path d="m 690.86407,537.70013 c 0,62.30877 -50.51123,112.82001 -112.82,112.82001 -62.30877,0 -112.82001,-50.51124 -112.82001,-112.82001 0,-62.30877 50.51124,-112.82 112.82001,-112.82 62.30877,0 112.82,50.51123 112.82,112.82 z" transform="translate(-78.593716,-111.55234)" id="path5167" style="fill:url(#linearGradient12434);stroke:none"/>
        <path d="m 690.86407,537.70013 c 0,62.30877 -50.51123,112.82001 -112.82,112.82001 -62.30877,0 -112.82001,-50.51124 -112.82001,-112.82001 0,-62.30877 50.51124,-112.82 112.82001,-112.82 62.30877,0 112.82,50.51123 112.82,112.82 z" transform="matrix(1,0,0,1.005618,-78.593716,-114.57314)" id="path5169" style="fill:url(#linearGradient12436);stroke:none"/>
        <path d="m 690.86407,537.70013 c 0,62.30877 -50.51123,112.82001 -112.82,112.82001 -62.30877,0 -112.82001,-50.51124 -112.82001,-112.82001 0,-62.30877 50.51124,-112.82 112.82001,-112.82 62.30877,0 112.82,50.51123 112.82,112.82 z" transform="matrix(1,0,0,1.005618,-78.593716,-114.57314)" id="path5171" style="fill:url(#linearGradient12438);stroke:none"/>
        <path d="m 585.64992,109.23765 c 0,19.60276 -30.64727,35.49393 -68.45259,35.49393 -37.80533,0 -68.45259,-15.89117 -68.45259,-35.49393 0,-19.602761 30.64726,-35.493937 68.45259,-35.493937 37.80532,0 68.45259,15.891176 68.45259,35.493937 z" transform="matrix(0.87962964,0,0,1,45.775894,245.92228)" id="path5173" style="fill:url(#linearGradient12440);stroke:none"/>
        <path d="m 494.46879,315.88513 c -44.64486,0.7251 -86.72321,31.11724 -101.28125,73.15625 -13.41801,36.45605 -5.86936,80.07388 19.59375,109.28125 24.45484,29.36708 64.79043,44.66734 102.72108,37.95981 33.18723,-5.38656 63.53888,-26.59245 79.33243,-56.17249 16.36591,-29.63054 18.32531,-67.00913 4.32149,-97.94357 -15.13354,-34.67069 -48.83239,-60.70739 -86.72663,-65.29644 -5.94776,-0.83309 -11.95729,-1.15455 -17.96087,-0.98481 z m 3.34375,2.53125 c 45.74786,-0.91102 89.4817,31.35854 102.21875,75.1875 11.13961,36.15611 1.66793,78.09562 -24.96875,105.03125 -24.66454,25.85514 -62.89845,38.15299 -98.05718,30.66605 -38.22286,-7.6514 -71.07255,-37.4631 -81.25532,-75.1973 -9.74582,-33.90659 -1.50741,-72.57936 21.81152,-98.84883 19.93872,-22.85706 49.7019,-37.11491 80.25098,-36.83867 z" id="path5175" style="opacity:0.22000002;fill:url(#linearGradient5239);fill-opacity:1;stroke:none;filter:url(#filter4363)"/>
      </g>
      <g transform="translate(-752.94005,168.51515)" id="g5177">
        <path d="m 690.86407,537.70013 c 0,62.30877 -50.51123,112.82001 -112.82,112.82001 -62.30877,0 -112.82001,-50.51124 -112.82001,-112.82001 0,-62.30877 50.51124,-112.82 112.82001,-112.82 62.30877,0 112.82,50.51123 112.82,112.82 z" transform="translate(-78.593716,-111.55234)" id="path5179" style="fill:#eaa81c;fill-opacity:1;stroke:none"/>
        <path d="m 690.86407,537.70013 c 0,62.30877 -50.51123,112.82001 -112.82,112.82001 -62.30877,0 -112.82001,-50.51124 -112.82001,-112.82001 0,-62.30877 50.51124,-112.82 112.82001,-112.82 62.30877,0 112.82,50.51123 112.82,112.82 z" transform="matrix(1,0,0,1.005618,-78.593716,-114.57314)" id="path5181" style="fill:url(#radialGradient12442);fill-opacity:1;stroke:none"/>
        <path d="m 690.86407,537.70013 c 0,62.30877 -50.51123,112.82001 -112.82,112.82001 -62.30877,0 -112.82001,-50.51124 -112.82001,-112.82001 0,-62.30877 50.51124,-112.82 112.82001,-112.82 62.30877,0 112.82,50.51123 112.82,112.82 z" transform="matrix(1,0,0,1.005618,-78.593716,-114.57314)" id="path5183" style="fill:url(#radialGradient12444);fill-opacity:1;stroke:none"/>
        <path d="m 585.64992,109.23765 c 0,19.60276 -30.64727,35.49393 -68.45259,35.49393 -37.80533,0 -68.45259,-15.89117 -68.45259,-35.49393 0,-19.602761 30.64726,-35.493937 68.45259,-35.493937 37.80532,0 68.45259,15.891176 68.45259,35.493937 z" transform="matrix(0.87962964,0,0,1,45.775894,245.92228)" id="path5185" style="fill:url(#linearGradient12446);fill-opacity:1;stroke:none"/>
        <path d="m 494.46879,315.88513 c -44.64486,0.7251 -86.72321,31.11724 -101.28125,73.15625 -13.41801,36.45605 -5.86936,80.07388 19.59375,109.28125 24.45484,29.36708 64.79043,44.66734 102.72108,37.95981 33.18723,-5.38656 63.53888,-26.59245 79.33243,-56.17249 16.36591,-29.63054 18.32531,-67.00913 4.32149,-97.94357 -15.13354,-34.67069 -48.83239,-60.70739 -86.72663,-65.29644 -5.94776,-0.83309 -11.95729,-1.15455 -17.96087,-0.98481 z m 3.34375,2.53125 c 45.74786,-0.91102 89.4817,31.35854 102.21875,75.1875 11.13961,36.15611 1.66793,78.09562 -24.96875,105.03125 -24.66454,25.85514 -62.89845,38.15299 -98.05718,30.66605 -38.22286,-7.6514 -71.07255,-37.4631 -81.25532,-75.1973 -9.74582,-33.90659 -1.50741,-72.57936 21.81152,-98.84883 19.93872,-22.85706 49.7019,-37.11491 80.25098,-36.83867 z" id="path5187" style="opacity:0.22000002;fill:#2b1100;fill-opacity:1;stroke:none;filter:url(#filter4363)"/>
      </g>
      <g transform="translate(-545.88154,120.11186)" id="g5189">
        <path d="m 494.37979,402.69641 c 0,22.0531 -2.37949,34.44286 -26.30354,34.2263 -22.02552,-0.19938 -28.205,-12.1732 -28.205,-34.2263 0,-22.0531 12.20215,-39.93067 27.25427,-39.93067 15.05212,0 27.25427,17.87757 27.25427,39.93067 z" transform="translate(-205.35776,48.170339)" id="path5191" style="fill:#e9a71c;fill-opacity:1;stroke:none"/>
        <path d="m 263.46863,485.06154 c 17.59793,-3.00257 24.7175,-15.59959 24.95044,-30.51735 0.68007,-15.85676 -5.69946,-35.69745 -23.92871,-40.41581 -15.41007,-0.96838 -25.25559,14.15997 -27.33193,26.83709 -4.28949,18.0448 -0.67507,35.84102 19.07477,43.6108 1.78168,0.40549 3.90057,-2.58753 7.23543,0.48527 z" id="path5193" style="fill:url(#linearGradient5249);fill-opacity:1;stroke:none"/>
        <path d="m 268.49901,483.23956 c 16.96299,-2.97794 18.42964,-16.8089 18.65417,-29.02726 0.65554,-15.72669 -5.49382,-35.40463 -23.06535,-40.08428 -14.85407,-0.96044 -24.34436,14.04381 -26.34578,26.61695 -4.13472,17.89678 3.32987,42.38846 17.29656,42.33021 1.71739,0.40216 11.38469,0.0378 13.4604,0.16438 z" id="path5195" style="fill:#999999;fill-opacity:1;stroke:none"/>
        <path d="m 266.99369,483.08111 c 16.56685,-0.20498 19.93496,-14.07342 20.15949,-28.86881 0.65554,-15.72669 -5.49382,-35.40463 -23.06535,-40.08428 -14.85407,-0.96044 -24.34436,14.04381 -26.34578,26.61695 -4.13472,17.89678 2.53759,42.07155 17.77193,42.17176 1.71739,0.40216 9.80013,0.2755 11.47971,0.16438 z" id="path5197" style="fill:url(#radialGradient5251);fill-opacity:1;stroke:none"/>
        <path d="m 485.5063,400.16113 c 0,10.15143 -6.52673,18.38079 -14.57786,18.38079 -8.05114,0 -14.57787,-8.22936 -14.57787,-18.38079 0,-10.15143 6.52673,-18.38078 14.57787,-18.38078 8.05113,0 14.57786,8.22935 14.57786,18.38078 z" transform="matrix(1.173913,0,0,1,-291.06128,50.70562)" id="path5199" style="fill:#000000;fill-opacity:1;stroke:none"/>
        <path d="m 485.5063,400.16113 c 0,10.15143 -6.52673,18.38079 -14.57786,18.38079 -8.05114,0 -14.57787,-8.22936 -14.57787,-18.38079 0,-10.15143 6.52673,-18.38078 14.57787,-18.38078 8.05113,0 14.57786,8.22935 14.57786,18.38078 z" transform="matrix(0.47826082,0,0,0.62962961,39.076388,194.31239)" id="path5201" style="fill:url(#linearGradient12448);fill-opacity:1;stroke:none"/>
      </g>
      <g transform="translate(-478.65475,120.11186)" id="g5203">
        <path d="m 494.37979,402.69641 c 0,22.0531 -2.37949,34.44286 -26.30354,34.2263 -22.02552,-0.19938 -28.205,-12.1732 -28.205,-34.2263 0,-22.0531 12.20215,-39.93067 27.25427,-39.93067 15.05212,0 27.25427,17.87757 27.25427,39.93067 z" transform="translate(-205.35776,48.170339)" id="path5205" style="fill:#e9a71c;fill-opacity:1;stroke:none"/>
        <path d="m 263.46863,485.06154 c 17.59793,-3.00257 24.7175,-15.59959 24.95044,-30.51735 0.68007,-15.85676 -5.69946,-35.69745 -23.92871,-40.41581 -15.41007,-0.96838 -25.25559,14.15997 -27.33193,26.83709 -4.28949,18.0448 -0.67507,35.84102 19.07477,43.6108 1.78168,0.40549 3.90057,-2.58753 7.23543,0.48527 z" id="path5207" style="fill:url(#linearGradient5255);fill-opacity:1;stroke:none"/>
        <path d="m 268.49901,483.23956 c 16.96299,-2.97794 18.42964,-16.8089 18.65417,-29.02726 0.65554,-15.72669 -5.49382,-35.40463 -23.06535,-40.08428 -14.85407,-0.96044 -24.34436,14.04381 -26.34578,26.61695 -4.13472,17.89678 3.32987,42.38846 17.29656,42.33021 1.71739,0.40216 11.38469,0.0378 13.4604,0.16438 z" id="path5209" style="fill:#999999;fill-opacity:1;stroke:none"/>
        <path d="m 266.99369,483.08111 c 16.56685,-0.20498 19.93496,-14.07342 20.15949,-28.86881 0.65554,-15.72669 -5.49382,-35.40463 -23.06535,-40.08428 -14.85407,-0.96044 -24.34436,14.04381 -26.34578,26.61695 -4.13472,17.89678 2.53759,42.07155 17.77193,42.17176 1.71739,0.40216 9.80013,0.2755 11.47971,0.16438 z" id="path5211" style="fill:url(#radialGradient5257);fill-opacity:1;stroke:none"/>
        <path d="m 485.5063,400.16113 c 0,10.15143 -6.52673,18.38079 -14.57786,18.38079 -8.05114,0 -14.57787,-8.22936 -14.57787,-18.38079 0,-10.15143 6.52673,-18.38078 14.57787,-18.38078 8.05113,0 14.57786,8.22935 14.57786,18.38078 z" transform="matrix(1.173913,0,0,1,-291.06128,50.70562)" id="path5213" style="fill:#000000;fill-opacity:1;stroke:none"/>
        <path d="m 485.5063,400.16113 c 0,10.15143 -6.52673,18.38079 -14.57786,18.38079 -8.05114,0 -14.57787,-8.22936 -14.57787,-18.38079 0,-10.15143 6.52673,-18.38078 14.57787,-18.38078 8.05113,0 14.57786,8.22935 14.57786,18.38078 z" transform="matrix(0.47826082,0,0,0.62962961,39.076388,194.31239)" id="path5215" style="fill:url(#linearGradient12450);fill-opacity:1;stroke:none"/>
      </g>
      <path d="m 566.63529,482.55777 c 0,19.25271 -30.07972,34.86011 -67.18494,34.86011 -37.10522,0 -67.18495,-15.6074 -67.18495,-34.86011 0,0 0,0 0,0" transform="matrix(0.77916392,0,0,1.0033228,-640.42502,161.78325)" id="path5217" style="fill:none;stroke:#000000;stroke-width:3.39302063;stroke-miterlimit:4"/>
      <path d="m 566.63529,482.55777 c 0,19.25271 -30.07972,34.86011 -67.18494,34.86011 -37.10522,0 -67.18495,-15.6074 -67.18495,-34.86011 0,0 0,0 0,0" transform="matrix(0.77999106,0,0,0.92937212,-640.83813,197.41315)" id="path5219" style="fill:none;stroke:#000000;stroke-width:3.39302063;stroke-miterlimit:4"/>
      <path d="m 566.63529,482.55777 c 0,19.25271 -30.07972,34.86011 -67.18494,34.86011 -37.10522,0 -67.18495,-15.6074 -67.18495,-34.86011 0,0 0,0 0,0" transform="matrix(0.78070541,0,0,0.8678432,-641.19491,227.05641)" id="path5221" style="fill:none;stroke:#000000;stroke-width:3.39302063;stroke-miterlimit:4"/>
      <path d="m -313.78325,534.08996 c 1.58455,-10.14113 16.84084,-16.99218 27.75114,-16.99218 10.91031,0 14.70555,3.15221 14.54709,5.21213 0,0 -0.39124,6.31073 -6.06129,2.72937 -3.85961,-2.43784 -14.09547,-3.59083 -24.24513,3.60977 -5.6813,4.03055 -4.24289,7.94149 -7.27354,7.94149 -3.03064,0 -4.40136,-0.91603 -4.71827,-2.50058 z" id="path5223" style="fill:#000000;stroke:#000000;stroke-width:0.52184433px;stroke-linecap:butt;stroke-linejoin:miter;stroke-opacity:1"/>
      <path d="m -286.66321,518.08685 c -9.67413,0.553 -21.03226,4.29004 -24.6875,14.09375 2.39866,1.5748 2.97755,-2.46976 4.21875,-3.59375 7.26541,-9.05906 21.31341,-12.13258 31.75,-6.84375 2.09323,0.32042 0.1104,-2.68336 -1.1875,-2.46875 -3.23273,-0.68353 -6.6947,-1.46308 -10.09375,-1.1875 z" id="path5225" style="fill:url(#linearGradient5261);fill-opacity:1;stroke:none;filter:url(#filter4798)"/>
      <path d="m -188.44983,534.72378 c -1.58455,-10.14113 -16.84084,-16.99218 -27.75114,-16.99218 -10.91031,0 -14.70555,3.15221 -14.54709,5.21213 0,0 0.39124,6.31073 6.06129,2.72937 3.85961,-2.43784 14.09547,-3.59083 24.24513,3.60977 5.6813,4.03055 4.24289,7.94149 7.27354,7.94149 3.03064,0 4.40136,-0.91603 4.71827,-2.50058 z" id="path5227" style="fill:#000000;stroke:#000000;stroke-width:0.52184433px;stroke-linecap:butt;stroke-linejoin:miter;stroke-opacity:1"/>
      <path d="m 466.27684,349.5717 c -9.67413,0.553 -21.03226,4.29004 -24.6875,14.09375 2.39866,1.5748 2.97755,-2.46976 4.21875,-3.59375 7.26541,-9.05906 21.31341,-12.13258 31.75,-6.84375 2.09323,0.32042 0.1104,-2.68336 -1.1875,-2.46875 -3.23273,-0.68353 -6.6947,-1.46308 -10.09375,-1.1875 z" transform="matrix(-1,0,0,1,250.70695,169.14897)" id="path5229" style="fill:url(#linearGradient5263);fill-opacity:1;stroke:none;filter:url(#filter4798)"/>
    </g>
    <g transform="matrix(1.2070045,0,0,1.2070045,-390.17833,177.55535)" id="g5553">
      <path d="m 690.86407,537.70013 c 0,62.30877 -50.51123,112.82001 -112.82,112.82001 -62.30877,0 -112.82001,-50.51124 -112.82001,-112.82001 0,-62.30877 50.51124,-112.82 112.82001,-112.82 62.30877,0 112.82,50.51123 112.82,112.82 z" transform="matrix(0.76279008,0,0,0.61507197,94.467833,163.00643)" id="path5483" style="opacity:0.33000004;fill:url(#linearGradient12416);fill-opacity:1;stroke:none;filter:url(#filter4946-8)"/>
      <path d="m 690.86407,537.70013 c 0,62.30877 -50.51123,112.82001 -112.82,112.82001 -62.30877,0 -112.82001,-50.51124 -112.82001,-112.82001 0,-62.30877 50.51124,-112.82 112.82001,-112.82 62.30877,0 112.82,50.51123 112.82,112.82 z" transform="matrix(0.76279008,0,0,0.61852744,94.467833,161.14842)" id="path5485" style="opacity:0.33000004;fill:url(#linearGradient12418);fill-opacity:1;stroke:none;filter:url(#filter4946-8)"/>
      <path d="m 690.86407,537.70013 c 0,62.30877 -50.51123,112.82001 -112.82,112.82001 -62.30877,0 -112.82001,-50.51124 -112.82001,-112.82001 0,-62.30877 50.51124,-112.82 112.82001,-112.82 62.30877,0 112.82,50.51123 112.82,112.82 z" transform="matrix(0.76279008,0,0,0.61852744,94.467833,161.14842)" id="path5487" style="opacity:0.33000004;fill:url(#linearGradient12420);fill-opacity:1;stroke:none;filter:url(#filter4946-8)"/>
      <path d="m 585.64992,109.23765 c 0,19.60276 -30.64727,35.49393 -68.45259,35.49393 -37.80533,0 -68.45259,-15.89117 -68.45259,-35.49393 0,-19.602761 30.64726,-35.493937 68.45259,-35.493937 37.80532,0 68.45259,15.891176 68.45259,35.493937 z" transform="matrix(0.67097276,0,0,0.61507197,189.33574,382.87905)" id="path5489" style="opacity:0.33000004;fill:url(#linearGradient12422);fill-opacity:1;stroke:none;filter:url(#filter4946-8)"/>
      <path d="m 494.46879,315.88513 c -44.64486,0.7251 -86.72321,31.11724 -101.28125,73.15625 -13.41801,36.45605 -5.86936,80.07388 19.59375,109.28125 24.45484,29.36708 64.79043,44.66734 102.72108,37.95981 33.18723,-5.38656 63.53888,-26.59245 79.33243,-56.17249 16.36591,-29.63054 18.32531,-67.00913 4.32149,-97.94357 -15.13354,-34.67069 -48.83239,-60.70739 -86.72663,-65.29644 -5.94776,-0.83309 -11.95729,-1.15455 -17.96087,-0.98481 z m 3.34375,2.53125 c 45.74786,-0.91102 89.4817,31.35854 102.21875,75.1875 11.13961,36.15611 1.66793,78.09562 -24.96875,105.03125 -24.66454,25.85514 -62.89845,38.15299 -98.05718,30.66605 -38.22286,-7.6514 -71.07255,-37.4631 -81.25532,-75.1973 -9.74582,-33.90659 -1.50741,-72.57936 21.81152,-98.84883 19.93872,-22.85706 49.7019,-37.11491 80.25098,-36.83867 z" transform="matrix(0.76279008,0,0,0.61507197,154.41834,231.61915)" id="path5491" style="opacity:0.0726;fill:url(#linearGradient5598);fill-opacity:1;stroke:none;filter:url(#filter4363)"/>
      <path d="m 690.86407,537.70013 c 0,62.30877 -50.51123,112.82001 -112.82,112.82001 -62.30877,0 -112.82001,-50.51124 -112.82001,-112.82001 0,-62.30877 50.51124,-112.82 112.82001,-112.82 62.30877,0 112.82,50.51123 112.82,112.82 z" transform="translate(-46.324857,-3.98948)" id="path5493" style="fill:#eaa81c;fill-opacity:1;stroke:none"/>
      <path d="m 690.86407,537.70013 c 0,62.30877 -50.51123,112.82001 -112.82,112.82001 -62.30877,0 -112.82001,-50.51124 -112.82001,-112.82001 0,-62.30877 50.51124,-112.82 112.82001,-112.82 62.30877,0 112.82,50.51123 112.82,112.82 z" transform="matrix(1,0,0,1.005618,-46.324857,-7.01028)" id="path5495" style="fill:url(#radialGradient12424);fill-opacity:1;stroke:none"/>
      <path d="m 690.86407,537.70013 c 0,62.30877 -50.51123,112.82001 -112.82,112.82001 -62.30877,0 -112.82001,-50.51124 -112.82001,-112.82001 0,-62.30877 50.51124,-112.82 112.82001,-112.82 62.30877,0 112.82,50.51123 112.82,112.82 z" transform="matrix(1,0,0,1.005618,-46.324857,-7.01028)" id="path5497" style="fill:url(#radialGradient12426);fill-opacity:1;stroke:none"/>
      <path d="m 526.73765,423.44799 c -44.64486,0.7251 -86.72321,31.11724 -101.28125,73.15625 -13.41801,36.45605 -5.86936,80.07388 19.59375,109.28125 24.45484,29.36708 64.79043,44.66734 102.72108,37.95981 33.18723,-5.38656 63.53888,-26.59245 79.33243,-56.17249 16.36591,-29.63054 18.32531,-67.00913 4.32149,-97.94357 -15.13354,-34.67069 -48.83239,-60.70739 -86.72663,-65.29644 -5.94776,-0.83309 -11.95729,-1.15455 -17.96087,-0.98481 z m 3.34375,2.53125 c 45.74786,-0.91102 89.4817,31.35854 102.21875,75.1875 11.13961,36.15611 1.66793,78.09562 -24.96875,105.03125 -24.66454,25.85514 -62.89845,38.15299 -98.05718,30.66605 -38.22286,-7.6514 -71.07255,-37.4631 -81.25532,-75.1973 -9.74582,-33.90659 -1.50741,-72.57936 21.81152,-98.84883 19.93872,-22.85706 49.7019,-37.11491 80.25098,-36.83867 z" id="path5499" style="opacity:0.22000002;fill:#2b1100;fill-opacity:1;stroke:none;filter:url(#filter4363)"/>
      <path d="m 528.3494,510.02632 c 0,22.0531 -2.37949,34.44286 -26.30354,34.2263 -22.02552,-0.19938 -28.205,-12.1732 -28.205,-34.2263 0,-22.0531 12.20215,-39.93067 27.25427,-39.93067 15.05212,0 27.25427,17.87757 27.25427,39.93067 z" id="path5501" style="fill:#e9a71c;fill-opacity:1;stroke:none"/>
      <path d="m 507.82638,542.40335 c 16.96299,-2.57284 18.42964,-14.52231 18.65417,-25.07855 0.65554,-13.58731 -5.49382,-30.58837 -23.06535,-34.63142 -14.85407,-0.82979 -24.34436,12.13337 -26.34578,22.99612 -4.13472,15.4622 3.32987,36.62216 17.29656,36.57183 1.71739,0.34745 11.38469,0.0327 13.4604,0.14202 z" id="path5503" style="fill:#999999;fill-opacity:1;stroke:none"/>
      <path d="m 506.32106,542.2569 c 16.56685,-0.1749 19.93496,-12.00821 20.15949,-24.63247 0.65554,-13.41889 -5.49382,-30.2092 -23.06535,-34.20214 -14.85407,-0.8195 -24.34436,11.98296 -26.34578,22.71107 -4.13472,15.27053 2.53759,35.89778 17.77193,35.98329 1.71739,0.34315 9.80013,0.23508 11.47971,0.14025 z" id="path5505" style="fill:url(#radialGradient5604);fill-opacity:1;stroke:none"/>
      <g transform="translate(0,5.8263218)" id="g5507">
        <path d="m 485.5063,400.16113 c 0,10.15143 -6.52673,18.38079 -14.57786,18.38079 -8.05114,0 -14.57787,-8.22936 -14.57787,-18.38079 0,-10.15143 6.52673,-18.38078 14.57787,-18.38078 8.05113,0 14.57786,8.22935 14.57786,18.38078 z" transform="matrix(1.173913,0,0,1,-51.73391,109.8652)" id="path5509" style="fill:#000000;fill-opacity:1;stroke:none"/>
        <path d="m 485.5063,400.16113 c 0,10.15143 -6.52673,18.38079 -14.57786,18.38079 -8.05114,0 -14.57787,-8.22936 -14.57787,-18.38079 0,-10.15143 6.52673,-18.38078 14.57787,-18.38078 8.05113,0 14.57786,8.22935 14.57786,18.38078 z" transform="matrix(0.47826082,0,0,0.62962961,278.40376,253.47196)" id="path5511" style="fill:url(#linearGradient12428);fill-opacity:1;stroke:none"/>
      </g>
      <path d="m 595.57619,510.02632 c 0,22.0531 -2.37949,34.44286 -26.30354,34.2263 -22.02552,-0.19938 -28.205,-12.1732 -28.205,-34.2263 0,-22.0531 12.20215,-39.93067 27.25427,-39.93067 15.05212,0 27.25427,17.87757 27.25427,39.93067 z" id="path5513" style="fill:#e9a71c;fill-opacity:1;stroke:none"/>
      <path d="m 570.02279,544.22111 c 17.59793,-2.64234 24.7175,-13.72805 24.95044,-26.85608 0.68007,-13.95437 -5.69946,-31.41471 -23.92871,-35.56699 -15.41007,-0.8522 -25.25559,12.46115 -27.33193,23.61735 -4.28949,15.87991 -0.67507,31.54106 19.07477,38.37867 1.78168,0.35684 3.90057,-2.2771 7.23543,0.42705 z" id="path5515" style="fill:url(#linearGradient5608);fill-opacity:1;stroke:none"/>
      <path d="m 575.05317,542.40325 c 16.96299,-2.58248 18.42964,-14.57675 18.65417,-25.17256 0.65554,-13.63826 -5.49382,-30.70305 -23.06535,-34.76126 -14.85407,-0.8329 -24.34436,12.17886 -26.34578,23.08233 -4.13472,15.52016 3.32987,36.75945 17.29656,36.70894 1.71739,0.34875 11.38469,0.0328 13.4604,0.14255 z" id="path5517" style="fill:#999999;fill-opacity:1;stroke:none"/>
      <path d="m 573.54785,542.2561 c 16.56685,-0.1764 19.93496,-12.11112 20.15949,-24.84355 0.65554,-13.53388 -5.49382,-30.46807 -23.06535,-34.49522 -14.85407,-0.82653 -24.34436,12.08564 -26.34578,22.90567 -4.13472,15.40139 2.53759,36.2054 17.77193,36.29164 1.71739,0.34609 9.80013,0.23709 11.47971,0.14146 z" id="path5519" style="fill:url(#radialGradient5610);fill-opacity:1;stroke:none"/>
      <path d="m 485.5063,400.16113 c 0,10.15143 -6.52673,18.38079 -14.57786,18.38079 -8.05114,0 -14.57787,-8.22936 -14.57787,-18.38079 0,-10.15143 6.52673,-18.38078 14.57787,-18.38078 8.05113,0 14.57786,8.22935 14.57786,18.38078 z" transform="matrix(1.173913,0,0,1,15.49288,109.8652)" id="path5521" style="fill:#000000;fill-opacity:1;stroke:none"/>
      <path d="m 485.5063,400.16113 c 0,10.15143 -6.52673,18.38079 -14.57786,18.38079 -8.05114,0 -14.57787,-8.22936 -14.57787,-18.38079 0,-10.15143 6.52673,-18.38078 14.57787,-18.38078 8.05113,0 14.57786,8.22935 14.57786,18.38078 z" transform="matrix(0.47826082,0,0,0.62962961,345.63055,253.47196)" id="path5523" style="fill:url(#linearGradient12430);fill-opacity:1;stroke:none"/>
      <path d="m 575.41148,602.2164 c 0,-7.92718 -4.63979,-15.19694 -11.88494,-20.45866 -7.24514,-5.26173 -17.19589,-8.59926 -28.30978,-8.59926 -11.11389,0 -21.30919,3.32179 -28.7896,8.57563 -7.48041,5.25384 -12.38322,12.51899 -12.38322,20.48229 l 2.01158,0 c 0,-6.59133 4.09135,-8.43808 11.21119,-13.43868 7.11984,-5.0006 17.03113,-8.29214 27.82995,-8.29214 10.79882,0 20.4385,3.2758 27.31322,8.26851 6.87472,4.99272 10.99002,6.83485 10.99002,13.46231 z" id="path5525" style="font-size:medium;font-style:normal;font-variant:normal;font-weight:normal;font-stretch:normal;text-indent:0;text-align:start;text-decoration:none;line-height:normal;letter-spacing:normal;word-spacing:normal;text-transform:none;direction:ltr;block-progression:tb;writing-mode:lr-tb;text-anchor:start;baseline-shift:baseline;color:#000000;fill:#000000;fill-opacity:1;fill-rule:nonzero;stroke:none;stroke-width:3.39302063;marker:none;visibility:visible;display:inline;overflow:visible;enable-background:accumulate;font-family:Sans;-inkscape-font-specification:Sans"/>
      <path d="m 471.42566,473.13767 c 1.58455,-10.14113 16.84084,-16.99218 27.75114,-16.99218 10.91031,0 14.70555,3.15221 14.54709,5.21213 0,0 -0.39124,6.31073 -6.06129,2.72937 -3.85961,-2.43784 -14.09547,-3.59083 -24.24513,3.60977 -5.6813,4.03055 -4.24289,7.94149 -7.27354,7.94149 -3.03064,0 -4.40136,-0.91603 -4.71827,-2.50058 z" id="path5527" style="fill:#000000;stroke:#000000;stroke-width:0.52184433px;stroke-linecap:butt;stroke-linejoin:miter;stroke-opacity:1"/>
      <path d="m 498.5457,457.13456 c -9.67413,0.553 -21.03226,4.29004 -24.6875,14.09375 2.39866,1.5748 2.97755,-2.46976 4.21875,-3.59375 7.26541,-9.05906 21.31341,-12.13258 31.75,-6.84375 2.09323,0.32042 0.1104,-2.68336 -1.1875,-2.46875 -3.23273,-0.68353 -6.6947,-1.46308 -10.09375,-1.1875 z" id="path5529" style="fill:url(#linearGradient5614);fill-opacity:1;stroke:none;filter:url(#filter4798)"/>
      <path d="m 596.75908,473.77149 c -1.58455,-10.14113 -16.84084,-16.99218 -27.75114,-16.99218 -10.91031,0 -14.70555,3.15221 -14.54709,5.21213 0,0 0.39124,6.31073 6.06129,2.72937 3.85961,-2.43784 14.09547,-3.59083 24.24513,3.60977 5.6813,4.03055 4.24289,7.94149 7.27354,7.94149 3.03064,0 4.40136,-0.91603 4.71827,-2.50058 z" id="path5531" style="fill:#000000;stroke:#000000;stroke-width:0.52184433px;stroke-linecap:butt;stroke-linejoin:miter;stroke-opacity:1"/>
      <path d="m 466.27684,349.5717 c -9.67413,0.553 -21.03226,4.29004 -24.6875,14.09375 2.39866,1.5748 2.97755,-2.46976 4.21875,-3.59375 7.26541,-9.05906 21.31341,-12.13258 31.75,-6.84375 2.09323,0.32042 0.1104,-2.68336 -1.1875,-2.46875 -3.23273,-0.68353 -6.6947,-1.46308 -10.09375,-1.1875 z" transform="matrix(-1,0,0,1,1035.9159,108.19668)" id="path5533" style="fill:url(#linearGradient5616);fill-opacity:1;stroke:none;filter:url(#filter4798)"/>
      <g transform="matrix(1,0,0,0.89984199,0,47.264603)" id="g5535">
        <path d="m 502.74806,508.36682 c 34.93523,-2.28315 17.08682,-10.50211 17.27636,-18.40221 -5.27296,-8.3974 -2.95685,-13.97463 -17.78955,-16.47337 -12.5388,-0.51283 -19.20532,4.80973 -20.89479,11.52327 1.43971,10.22839 -17.58008,23.15706 15.52068,23.09532 1.44971,0.21473 3.06176,0.1423 5.8873,0.25699 z" id="path5537" style="fill:#e9a71c;fill-opacity:1;stroke:none"/>
        <path d="m 502.27136,509.93545 c 30.02448,-4.71284 24.77834,-11.183 21.95417,-16.83576 -6.18686,-12.55736 -11.07328,-19.69352 -22.2668,-21.17609 -11.86318,-0.53423 -17.37606,8.25992 -21.38404,14.58136 -3.77436,9.95492 -13.67988,20.65924 15.33012,23.16277 1.56772,0.22369 3.43217,-1.42748 6.36655,0.26772 z" id="path5539" style="fill:url(#linearGradient5618);fill-opacity:1;stroke:none"/>
        <path d="m 502.27136,509.93545 c 30.02448,-4.71284 24.77834,-11.183 21.95417,-16.83576 -6.18686,-12.55736 -11.07328,-19.69352 -22.2668,-21.17609 -11.86318,-0.53423 -17.37606,8.25992 -21.38404,14.58136 -3.77436,9.95492 -13.67988,20.65924 15.33012,23.16277 1.56772,0.22369 3.43217,-1.42748 6.36655,0.26772 z" id="path5541" style="fill:url(#linearGradient5620);fill-opacity:1;stroke:none"/>
      </g>
      <g transform="matrix(1.004428,0,0,0.92340858,65.119702,36.14352)" id="g5543">
        <path d="m 502.74806,508.36682 c 34.93523,-2.28315 17.08682,-10.50211 17.27636,-18.40221 -5.27296,-8.3974 -2.95685,-13.97463 -17.78955,-16.47337 -12.5388,-0.51283 -19.20532,4.80973 -20.89479,11.52327 1.43971,10.22839 -17.58008,23.15706 15.52068,23.09532 1.44971,0.21473 3.06176,0.1423 5.8873,0.25699 z" id="path5545" style="fill:#e9a71c;fill-opacity:1;stroke:none"/>
        <path d="m 502.27136,509.93545 c 30.02448,-4.71284 24.77834,-11.183 21.95417,-16.83576 -6.18686,-12.55736 -11.07328,-19.69352 -22.2668,-21.17609 -11.86318,-0.53423 -17.37606,8.25992 -21.38404,14.58136 -3.77436,9.95492 -13.67988,20.65924 15.33012,23.16277 1.56772,0.22369 3.43217,-1.42748 6.36655,0.26772 z" id="path5547" style="fill:url(#linearGradient5622);fill-opacity:1;stroke:none"/>
        <path d="m 502.27136,509.93545 c 30.02448,-4.71284 24.77834,-11.183 21.95417,-16.83576 -6.18686,-12.55736 -11.07328,-19.69352 -22.2668,-21.17609 -11.86318,-0.53423 -17.37606,8.25992 -21.38404,14.58136 -3.77436,9.95492 -13.67988,20.65924 15.33012,23.16277 1.56772,0.22369 3.43217,-1.42748 6.36655,0.26772 z" id="path5549" style="fill:url(#linearGradient5624);fill-opacity:1;stroke:none"/>
      </g>
      <path d="m 585.64992,109.23765 c 0,19.60276 -30.64727,35.49393 -68.45259,35.49393 -37.80533,0 -68.45259,-15.89117 -68.45259,-35.49393 0,-19.602761 30.64726,-35.493937 68.45259,-35.493937 37.80532,0 68.45259,15.891176 68.45259,35.493937 z" transform="matrix(0.87962964,0,0,1,78.044753,353.48514)" id="path5551" style="fill:url(#linearGradient12432);fill-opacity:1;stroke:none"/>
    </g>
  </g>
</svg>