<svg xmlns="http://www.w3.org/2000/svg" viewBox="145 260 450 440" xmlns:xlink="http://www.w3.org/1999/xlink">
<defs>
<radialGradient id="radialGradient3206" xlink:href="#linearGradient4437-4-1" gradientUnits="userSpaceOnUse" cy="467" cx="559" gradientTransform="matrix(0.64399438,1.269063,-1.3033494,0.66138991,827.10486,-583.91265)" r="113"/>
<linearGradient id="linearGradient4437-4-1">
<stop stop-color="#FF0" offset="0"/>
<stop stop-color="#FF0" stop-opacity="0" offset="1"/>
</linearGradient>
<filter id="filter4363-3-0" color-interpolation-filters="sRGB">
<feGaussianBlur id="feGaussianBlur4365-7-9" stdDeviation="5.5483248"/>
</filter>
<linearGradient id="linearGradient3210" y2="358" xlink:href="#linearGradient4557-6-4" gradientUnits="userSpaceOnUse" x2="473" gradientTransform="matrix(-1.1853236,0,0,-1.109182,1021.2088,851.15583)" y1="416" x1="468"/>
<linearGradient id="linearGradient4557-6-4">
<stop stop-color="#FC0" offset="0"/>
<stop stop-color="#e9a71c" stop-opacity="0" offset="1"/>
</linearGradient>
<radialGradient id="radialGradient3212" xlink:href="#linearGradient4585-2-2" gradientUnits="userSpaceOnUse" cy="403" cx="464" gradientTransform="matrix(2.6674103,0.97164933,-1.0501742,2.882982,-350.60226,-1209.9869)" r="25.4"/>
<linearGradient id="linearGradient4585-2-2">
<stop stop-color="#FFF" offset="0"/>
<stop stop-color="#FFF" stop-opacity="0" offset="1"/>
</linearGradient>
<linearGradient id="linearGradient3214" y2="415" xlink:href="#linearGradient4585-2-2" gradientUnits="userSpaceOnUse" x2="469" y1="363" x1="447"/>
<linearGradient id="linearGradient3222" y2="1360" gradientUnits="userSpaceOnUse" x2="-78.9" gradientTransform="translate(-1176.0206,-250.98002)" y1="1340" x1="-78.9">
<stop stop-color="#2b0000" offset="0"/>
<stop stop-color="#F00" offset="1"/>
</linearGradient>
<linearGradient id="linearGradient3642" y2="160" gradientUnits="userSpaceOnUse" y1="69.9" x2="517" x1="525">
<stop stop-color="#FFF" offset="0"/>
<stop stop-color="#FFF" stop-opacity="0" offset="1"/>
</linearGradient>
</defs>
<g>
<g transform="matrix(1.7447879,0,0,1.7447879,2511.0681,-1293.2083)">
<path d="m691,538c0,62.3-50.5,113-113,113-62.3,0-113-50.5-113-113,0-62.3,50.5-113,113-113,62.3,0,113,50.5,113,113z" transform="translate(-1805.7469,481.70339)" fill="#eaa81c"/>
<path d="m691,538c0,62.3-50.5,113-113,113-62.3,0-113-50.5-113-113,0-62.3,50.5-113,113-113,62.3,0,113,50.5,113,113z" transform="matrix(1,0,0,1.005618,-1805.7469,478.68259)" fill="url(#radialGradient3206)"/>
<path d="m691,538c0,62.3-50.5,113-113,113-62.3,0-113-50.5-113-113,0-62.3,50.5-113,113-113,62.3,0,113,50.5,113,113z" transform="matrix(1,0,0,1.005618,-1805.7469,478.68259)" fill="url(#radialGradient3206)"/>
<path opacity="0.22000002" d="m-1230,909c-44.6,0.725-86.7,31.1-101,73.2-13.4,36.5-5.87,80.1,19.6,109,24.5,29.4,64.8,44.7,103,38,33.2-5.39,63.5-26.6,79.3-56.2,16.4-29.6,18.3-67,4.32-97.9-15.1-34.7-48.8-60.7-86.7-65.3-5.95-0.833-12-1.15-18-0.985zm3.34,2.53c45.7-0.911,89.5,31.4,102,75.2,11.1,36.2,1.67,78.1-25,105-24.7,25.9-62.9,38.2-98.1,30.7-38.2-7.65-71.1-37.5-81.3-75.2-9.75-33.9-1.51-72.6,21.8-98.8,19.9-22.9,49.7-37.1,80.3-36.8z" filter="url(#filter4363-3-0)" fill="#2b1100"/>
<g transform="matrix(1.1891624,0,0,1.1891624,-1858.7032,517.01466)">
<path d="m494,403c0,22.1-12.2,39.9-27.3,39.9s-27.3-17.9-27.3-39.9c0-22.1,12.2-39.9,27.3-39.9s27.3,17.9,27.3,39.9z" fill="#e9a71c"/>
<path d="m469,443c17.6-3,25-21.9,25.2-36.8,0.68-15.9-5.7-35.7-23.9-40.4-15.4-0.968-25.3,14.2-27.3,26.8-4.29,18,0.989,42.1,20.7,49.9,1.78,0.405,3.59,0.597,5.33,0.485z" fill="url(#linearGradient3210)"/>
<path d="m468,443c17-2.98,24.1-21.7,24.3-36.5,0.656-15.7-5.49-35.4-23.1-40.1-14.9-0.96-24.3,14-26.3,26.6-4.13,17.9,0.953,41.8,20,49.5,1.72,0.402,3.46,0.592,5.14,0.481z" fill="#999"/>
<path d="m468,443c17-2.98,24.1-21.7,24.3-36.5,0.656-15.7-5.49-35.4-23.1-40.1-14.9-0.96-24.3,14-26.3,26.6-4.13,17.9,0.953,41.8,20,49.5,1.72,0.402,3.46,0.592,5.14,0.481z" fill="url(#radialGradient3212)"/>
<path d="m486,400c0,10.2-6.53,18.4-14.6,18.4-8.05,0-14.6-8.23-14.6-18.4s6.53-18.4,14.6-18.4c8.05,0,14.6,8.23,14.6,18.4z" transform="matrix(1.173913,0,0,1,-85.703521,2.535281)" fill="#000"/>
<path d="m486,400c0,10.2-6.53,18.4-14.6,18.4-8.05,0-14.6-8.23-14.6-18.4s6.53-18.4,14.6-18.4c8.05,0,14.6,8.23,14.6,18.4z" transform="matrix(0.47826082,0,0,0.62962961,234.12604,150.17566)" fill="url(#linearGradient3214)"/>
</g>
<g transform="matrix(1.2837436,0,0,1.2837436,-1832.82,479.79728)">
<path d="m494,403c0,22.1-12.2,39.9-27.3,39.9s-27.3-17.9-27.3-39.9c0-22.1,12.2-39.9,27.3-39.9s27.3,17.9,27.3,39.9z" fill="#e9a71c"/>
<path d="m469,443c17.6-3,25-21.9,25.2-36.8,0.68-15.9-5.7-35.7-23.9-40.4-15.4-0.968-25.3,14.2-27.3,26.8-4.29,18,0.989,42.1,20.7,49.9,1.78,0.405,3.59,0.597,5.33,0.485z" fill="url(#linearGradient3210)"/>
<path d="m468,443c17-2.98,24.1-21.7,24.3-36.5,0.656-15.7-5.49-35.4-23.1-40.1-14.9-0.96-24.3,14-26.3,26.6-4.13,17.9,0.953,41.8,20,49.5,1.72,0.402,3.46,0.592,5.14,0.481z" fill="#999"/>
<path d="m468,443c17-2.98,24.1-21.7,24.3-36.5,0.656-15.7-5.49-35.4-23.1-40.1-14.9-0.96-24.3,14-26.3,26.6-4.13,17.9,0.953,41.8,20,49.5,1.72,0.402,3.46,0.592,5.14,0.481z" fill="url(#radialGradient3212)"/>
<path d="m486,400c0,10.2-6.53,18.4-14.6,18.4-8.05,0-14.6-8.23-14.6-18.4s6.53-18.4,14.6-18.4c8.05,0,14.6,8.23,14.6,18.4z" transform="matrix(1.173913,0,0,1,-85.703521,2.535281)" fill="#000"/>
<path d="m486,400c0,10.2-6.53,18.4-14.6,18.4-8.05,0-14.6-8.23-14.6-18.4s6.53-18.4,14.6-18.4c8.05,0,14.6,8.23,14.6,18.4z" transform="matrix(0.47826082,0,0,0.62962961,233.67786,149.2793)" fill="url(#linearGradient3214)"/>
</g>
<path d="m-1260,942c2.64-3.16,4.58-4.6,6.34-6.4,1.86-1.28,4.41-3.86,6.46-4.75,3.06-1.86,4.42-2.01,7.05-3.27,2.13-0.84,4.81-1.39,7.45-1.89,2.48-0.287,2.86-0.259,4.54-0.512,4.51,0.118,9.18-0.148,9.35,2.3-0.136,0.206-0.166,0.488-0.6,0.482-0.033,0.01-0.987,0.078-2.19,0.272-2.07,0.385-2.3,0.254-4.76,0.928-2.07,0.564-3.92,1.18-6.17,2.08-2.68,1.29-4.91,2-7.75,4.02-3.9,2.64-7.34,5.61-9.15,6.85-2.3,1.11-4.88,4.2-7.12,5.43-2.76,1.38-5.12-2.39-3.45-5.54z" fill="#000"/>
<path d="m-1280,939c-2.64-3.16-4.58-4.6-6.34-6.4-1.86-1.28-4.41-3.86-6.46-4.75-3.06-1.86-4.42-2.01-7.05-3.27-2.13-0.84-4.81-1.39-7.45-1.89-2.48-0.287-2.86-0.259-4.54-0.512-4.51,0.118-9.18-0.148-9.35,2.3,0.136,0.206,0.166,0.488,0.6,0.482,0.033,0.01,0.987,0.078,2.19,0.272,2.07,0.385,2.3,0.254,4.76,0.928,2.07,0.564,3.92,1.18,6.17,2.08,2.68,1.29,4.91,2,7.75,4.02,3.9,2.64,7.34,5.61,9.15,6.85,2.3,1.11,4.88,4.2,7.12,5.43,2.76,1.38,5.12-2.39,3.45-5.54z" fill="#000"/>
<path d="m-1200,1060c0,22.6-25.7,45.7-57.4,51.6-31.7,5.94-56.5-7.73-57.4-30.1-0.168-4.32,1.27-6.84,1.27-7.05,42.9,28.9,99.2,10.1,113-14.5z" fill="#000"/>
<path d="m-1200,1060c0,22.6-25.7,45.7-57.4,51.6-31.7,5.94-56.5-7.73-57.4-30.1-0.168-4.32,1.27-6.84,1.27-7.05,42.9,28.9,99.2,10.1,113-14.5z" fill="url(#linearGradient3222)"/>
<path d="m586,109c0,19.6-30.6,35.5-68.5,35.5-37.8,0-68.5-15.9-68.5-35.5s30.6-35.5,68.5-35.5c37.8,0,68.5,15.9,68.5,35.5z" transform="matrix(1.0452339,0,0,1.1882658,-1770.806,825.29459)" fill="url(#linearGradient3642)"/>
</g>
</g>
</svg>