<svg xmlns="http://www.w3.org/2000/svg">

<symbol viewBox="0 0 800 1313" id="r2d2">
<g transform="matrix(1.25,0,0,-1.25,282.23873,778.4986)">
<g>
<path d="M-116.44281,-214.86294L-225.79099,-379.94669L53.675414,-427.72112L178.18767,-398.04502L153.57637,-343.01458L308.50777,-368.33859L414.20898,-341.56641L344.72717,-187.34772L301.98721,-186.63501L299.11362,-147.54201L307.79506,-141.02904C307.79506,-141.02904 334.59757,-114.25686 357.01766,-81.646504L314.30803,390.3658L309.24323,432.36271C309.24323,432.36271 317.92466,448.30016 332.40636,462.03882C332.40636,462.03882 345.43988,470.00754 340.37508,486.65012C335.31028,503.33061 319.37283,516.35655 319.37283,516.35655C319.37283,516.35655 315.02074,522.8771 305.63418,514.16534C296.21728,505.49149 286.79281,506.2042 286.79281,506.2042C286.79281,506.2042 254.95582,595.26284 126.06115,618.41839C-2.8031999,641.58152-111.37801,569.19578-146.86195,488.10587C-146.86195,488.10587-158.43973,467.10362-158.43973,417.88102C-158.43973,368.65842-147.60499,281.76066-147.60499,281.76066L-106.31321,-112.05807L-83.862786,-136.67695L-83.157657,-142.47721C-83.157657,-142.47721-104.86504,-159.11979-96.896313,-213.41477L-116.44281,-214.86294z" id="p1" style="fill:#000;fill-opacity:1;fill-rule:nonzero;stroke:none"/>
<path d="M-187.4107,-342.27912L-138.89323,-348.79209C-138.89323,-348.79209-125.8597,-295.24773-104.86504,-267.7325C-83.862786,-240.21728-61.442695,-246.73025-47.673711,-291.60077C-33.927473,-336.5016-34.640185,-369.08163-34.640185,-369.08163L40.64947,-382.82028L48.610611,-414.69518L-206.9572,-370.5298L-187.4107,-342.27912z" id="p2" style="fill:#e0e1e6;fill-opacity:1;fill-rule:nonzero;stroke:none"/>
<path d="M-183.05103,-335.75856L-108.50442,-223.56712L5.1655239,-228.63193L38.481006,-376.30731L-28.127212,-363.27379C-28.127212,-363.27379-2.06016,-310.44213-27.414501,-248.89114L-85.318538,-243.82633C-85.318538,-243.82633-131.66755,-250.34689-143.24532,-343.72729L-183.05103,-335.75856z" id="p3" style="fill:#e0e1e6;fill-opacity:1;fill-rule:nonzero;stroke:none"/>
<path d="M-63.603576,-251.79506C-63.603576,-251.79506-35.383224,-276.40636-29.575382,-352.43905C-29.575382,-352.43905-12.189765,-311.14726-30.318422,-253.25081L-63.603576,-251.79506z" id="p4" style="fill:#e0e1e6;fill-opacity:1;fill-rule:nonzero;stroke:none"/>
<path d="M10.965784,-230.08768L54.388126,-413.23943L161.54509,-388.62813L89.872071,-232.96127L62.356849,-231.53585L91.320241,-295.95286L60.195968,-298.85678L31.968034,-230.08768L10.965784,-230.08768z" id="p5" style="fill:#fff;fill-opacity:1;fill-rule:nonzero;stroke:none"/>
<path d="M38.481006,-230.80039L56.579335,-230.80039L83.351517,-291.60077L63.805019,-293.79197L38.481006,-230.80039z" id="p6" style="fill:#bdc0c9;fill-opacity:1;fill-rule:nonzero;stroke:none"/>
<path d="M-83.862786,-159.86283C-83.862786,-159.86283-83.862786,-204.02062-67.220209,-217.76686L-89.670629,-217.05415C-89.670629,-217.05415-92.57455,-172.15331-83.862786,-159.86283z" id="p7" style="fill:#e0e1e6;fill-opacity:1;fill-rule:nonzero;stroke:none"/>
<path d="M-76.637102,-114.25686C-76.637102,-114.25686-82.444945,-201.12429-52.025802,-217.76686L-14.380974,-220.67078C-14.380974,-220.67078 15.295129,-219.21503 9.5176146,-117.12287L-76.637102,-114.25686z" id="p8" style="fill:#e0e1e6;fill-opacity:1;fill-rule:nonzero;stroke:none"/>
<path d="M16.030587,-117.86591L47.162442,-118.57862C47.162442,-118.57862 51.514533,-211.24631 20.39026,-222.11895L-4.9640812,-219.92774C-4.9640812,-219.92774 20.39026,-212.70206 16.030587,-117.86591z" id="p9" style="fill:#fff;fill-opacity:1;fill-rule:nonzero;stroke:none"/>
<path d="M52.227244,-151.8941C52.227244,-151.8941 56.579335,-194.60373 34.128916,-222.11895L75.390376,-223.56712C75.390376,-223.56712 70.325573,-171.4406 91.320241,-149.70289L52.227244,-151.8941z" id="p10" style="fill:#e0e1e6;fill-opacity:1;fill-rule:nonzero;stroke:none"/>
<path d="M81.903348,-225.73559L97.840795,-225.73559L120.99634,-274.95819L120.99634,-188.80347C120.99634,-188.80347 121.73938,-159.86283 108.70586,-150.44593C95.672332,-141.02904 77.581585,-169.24939 81.903348,-225.73559z" id="p11" style="fill:#fff;fill-opacity:1;fill-rule:nonzero;stroke:none"/>
<path d="M129.70811,-176.5054L130.41324,-290.88805L260.73334,-306.08246C260.73334,-306.08246 249.86069,-287.279 252.0519,-161.28825C252.0519,-161.28825 176.02679,-179.40932 129.70811,-176.5054z" id="p12" style="fill:#e0e1e6;fill-opacity:1;fill-rule:nonzero;stroke:none"/>
<path d="M259.27758,-159.11979L288.96127,-151.15864C288.96127,-151.15864 294.76153,-262.6677 284.63193,-297.40861C284.63193,-297.40861 273.76686,-316.21207 265.08543,-295.24773C256.38125,-274.24548 256.38125,-168.54426 259.27758,-159.11979z" id="p13" style="fill:#fff;fill-opacity:1;fill-rule:nonzero;stroke:none"/>
<path d="M299.82633,-197.50765L299.82633,-222.83167L317.21195,-264.82858L334.59757,-262.6677L308.50777,-196.76461L299.82633,-197.50765z" id="p14" style="fill:#bdc0c9;fill-opacity:1;fill-rule:nonzero;stroke:none"/>
<path d="M315.76378,-196.76461L343.98413,-268.43763L315.02074,-271.34156L299.82633,-237.31336C299.82633,-237.31336 300.53904,-280.02299 294.76153,-297.40861L308.50777,-356.76081L399.72729,-334.34072L336.75845,-195.31644L315.76378,-196.76461z" id="p15" style="fill:#ebeeee;fill-opacity:1;fill-rule:nonzero;stroke:none"/>
<path d="M132.5817,-299.56949L260.02062,-313.33847C260.02062,-313.33847 285.34464,-319.85903 290.40944,-306.8255L301.28208,-356.0481L147.79885,-331.4368L132.5817,-299.56949z" id="p16" style="fill:#fff;fill-opacity:1;fill-rule:nonzero;stroke:none"/>
<path d="M54.388126,-124.37888L54.388126,-142.47721L89.15936,-141.02904C89.15936,-141.02904 119.54817,-135.2212 127.5169,-164.92763C127.5169,-164.92763 181.83463,-167.80122 301.98721,-138.12512L341.08779,-86.741635C341.08779,-86.741635 191.96424,-122.93071 54.388126,-124.37888z" id="p17" style="fill:#e0e1e6;fill-opacity:1;fill-rule:nonzero;stroke:none"/>
<path d="M58.740216,-44.001677L55.131165,-117.12287C55.131165,-117.12287 136.22108,-118.57862 187.60456,-109.16173L178.93071,-32.423902C178.93071,-32.423902 60.901098,-41.840796 58.740216,-44.001677z" id="p18" style="fill:#fff;fill-opacity:1;fill-rule:nonzero;stroke:none"/>
<path d="M183.2828,-31.71119L191.25152,-108.44901C191.25152,-108.44901 284.63193,-98.319409 347.60076,-80.933792L341.82325,-12.869822C341.82325,-12.869822 203.54201,-30.968151 183.2828,-31.71119z" id="p19" style="fill:#fff;fill-opacity:1;fill-rule:nonzero;stroke:none"/>
<path d="M16.030587,-110.6099L47.162442,-111.35294L53.675414,82.67146L55.131165,86.318422L21.808101,87.736263L16.030587,-110.6099z" id="p20" style="fill:#fff;fill-opacity:1;fill-rule:nonzero;stroke:none"/>
<path d="M-9.316172,-109.16173L10.230326,-110.6099L16.743298,88.479303L42.097639,126.12413L41.354599,244.11583C41.354599,244.11583 49.323323,351.2728-34.640185,346.95104C-118.63402,342.59136-105.60808,252.08456-105.60808,247.76279C-105.60808,243.40312-105.60808,121.76446-105.60808,121.76446L-66.507497,89.192015L-74.476221,-106.99326L-56.347564,-107.7363L-48.416751,101.51283L-70.836842,125.41142L-71.5723,226.0175C-71.5723,226.0175-86.053996,258.59753-61.442695,286.11275C-36.831394,313.62797-2.06016,303.49837 9.5176146,267.30929C21.095389,231.08231-2.06016,210.8231-2.06016,210.8231L-9.316172,-109.16173z" id="p21" style="fill:#e0e1e6;fill-opacity:1;fill-rule:nonzero;stroke:none"/>
<path d="M-65.77204,211.53581L-65.77204,129.02047L-7.8680024,126.82926L-6.4122508,204.31012C-6.4122508,204.31012-36.831394,175.34673-65.77204,211.53581z" id="p22" style="fill:currentColor;fill-opacity:1;fill-rule:nonzero;stroke:none"/>
<path d="M-61.442695,122.5075L-44.76979,105.12188L-7.8680024,105.86492L-7.8680024,121.76446L-61.442695,122.5075z" id="p23" style="fill:currentColor;fill-opacity:1;fill-rule:nonzero;stroke:none"/>
<path d="M-41.896197,100.05708L-8.5807141,100.76979L-13.645517,-109.16173L-50.577632,-107.7363L-41.896197,100.05708z" id="p24" style="fill:currentColor;fill-opacity:1;fill-rule:nonzero;stroke:none"/>
<path d="M-93.287262,-109.16173L-83.862786,-109.16173L-81.701905,-49.809519L-100.54327,-49.809519L-93.287262,-109.16173z" id="p25" style="fill:#fff;fill-opacity:1;fill-rule:nonzero;stroke:none"/>
<path d="M-101.99144,-45.449846L-82.444945,-46.192886L-74.476221,84.86267L-111.37801,117.44269L-113.56922,264.40537C-113.56922,264.40537-117.89856,299.88932-96.896313,323.75758C-96.896313,323.75758-130.92451,316.53189-139.63627,309.27588L-101.99144,-45.449846z" id="p26" style="fill:#fff;fill-opacity:1;fill-rule:nonzero;stroke:none"/>
<path d="M-71.5723,248.11157C-71.5723,275.51306-54.072952,297.69811-32.479303,297.69811C-10.885654,297.69811 6.6136934,275.51306 6.6136934,248.11157C6.6136934,220.71766-10.885654,198.50228-32.479303,198.50228C-54.072952,198.50228-71.5723,220.71766-71.5723,248.11157z" id="p27" style="fill:#7a828d;fill-opacity:1;fill-rule:nonzero;stroke:none"/>
<path d="M47.162442,126.82926L82.646388,126.12413L59.483256,92.088354L23.99931,93.544105L47.162442,126.82926z" id="p28" style="fill:#fff;fill-opacity:1;fill-rule:nonzero;stroke:none"/>
<path d="M48.610611,131.18893L82.646388,130.47622L82.646388,273.82226C82.646388,273.82226 83.351517,326.6615 45.00156,341.85591L2.2616027,346.208C2.2616027,346.208 37.745548,331.01359 44.258521,281.76066L48.610611,131.18893z" id="p29" style="fill:#fff;fill-opacity:1;fill-rule:nonzero;stroke:none"/>
<path d="M22.551141,352.01584C22.551141,352.01584 105.80194,369.37113 137.66925,369.37113L178.93071,-28.807269L58.035087,-38.936874L61.644138,81.958749L89.872071,123.95567L89.872071,273.82226C89.872071,273.82226 94.936874,352.01584 22.551141,352.01584z" id="p30" style="fill:#fff;fill-opacity:1;fill-rule:nonzero;stroke:none"/>
<path d="M141.28588,371.56234L159.38421,202.14924C159.38421,202.14924 247.69981,216.63094 320.82858,216.63094L304.17842,382.39707C304.17842,382.39707 210.76769,380.9489 141.28588,371.56234z" id="p31" style="fill:#fff;fill-opacity:1;fill-rule:nonzero;stroke:none"/>
<path d="M159.38421,197.79715L223.80122,206.471L247.69981,-20.125834L182.53976,-27.3591L159.38421,197.79715z" id="p32" style="fill:#fff;fill-opacity:1;fill-rule:nonzero;stroke:none"/>
<path d="M227.4406,205.76587C227.4406,205.76587 275.21503,211.53581 297.66545,210.8231L319.37283,-12.869822L249.86069,-20.125834L227.4406,205.76587z" id="p33" style="fill:#fff;fill-opacity:1;fill-rule:nonzero;stroke:none"/>
<path d="M301.28208,210.11797L321.53371,210.11797L341.08779,-9.2607709L323.72492,-11.45198L301.28208,210.11797z" id="p34" style="fill:#fff;fill-opacity:1;fill-rule:nonzero;stroke:none"/>
<path d="M302.73025,388.91763C302.73025,388.91763 144.90252,388.20491 3.7097722,353.46401C3.7097722,353.46401-50.577632,367.91538-89.670629,332.46176C-89.670629,332.46176-133.11572,321.5967-139.63627,316.53189L-143.24532,347.65617C-143.24532,347.65617-126.60274,355.62489-96.896313,362.14544L-100.54327,450.46104C-100.54327,450.46104-128.76363,443.23536-143.95803,437.42752C-143.95803,437.42752-143.24532,491.71492-91.83151,540.23239C-91.83151,540.23239-72.285012,548.90625-52.738513,554.00138C-52.738513,554.00138-35.383224,581.5166-27.414501,583.67748C-27.414501,583.67748-36.831394,567.74761-36.095936,559.06618L53.675414,580.06843L45.714272,603.93669L54.388126,605.39244C54.388126,605.39244 66.70894,595.96797 76.838545,584.39019C76.838545,584.39019 143.44676,595.26284 171.6747,593.80708C171.6747,593.80708 192.66937,588.00682 199.92538,582.94202C199.92538,582.94202 108.70586,574.26059 89.15936,567.0349C89.15936,567.0349 129.70811,523.58223 147.79885,458.42977C147.79885,458.42977 261.44605,472.16842 289.69673,468.55937C289.69673,468.55937 303.44297,415.72014 302.73025,388.91763z" id="p35" style="fill:#bac1d1;fill-opacity:1;fill-rule:nonzero;stroke:none"/>
<path d="M-78.092854,457.71705C-78.092854,457.71705-80.989193,394.71789-73.028052,368.65842C-73.028052,368.65842 14.582417,388.20491 39.936758,392.55701C39.936758,392.55701 26.903232,461.33369 26.903232,477.97626C26.903232,477.97626-37.544106,470.75058-78.092854,457.71705z" id="p36" style="fill:#000;fill-opacity:1;fill-rule:nonzero;stroke:none"/>
<path d="M-73.028052,451.90921C-73.028052,451.90921-73.028052,392.55701-68.668379,377.33227C-68.668379,377.33227 13.134248,396.17364 34.128916,399.07756C34.128916,399.07756 24.712022,430.91454 21.095389,471.45571C21.095389,471.45571-52.025802,458.42977-73.028052,451.90921z" id="p37" style="fill:currentColor;fill-opacity:1;fill-rule:nonzero;stroke:none"/>
<path d="M-143.95803,429.45879C-143.95803,429.45879-128.76363,438.14023-106.31321,443.23536C-106.31321,443.23536-106.31321,399.78269-102.70415,367.91538C-102.70415,367.91538-133.11572,359.24152-142.50986,354.17672C-142.50986,354.17672-146.14924,405.59053-143.95803,429.45879z" id="p38" style="fill:currentColor;fill-opacity:1;fill-rule:nonzero;stroke:none"/>
<path d="M58.740216,489.55404C58.740216,489.55404 80.455178,442.49232 82.646388,401.23844C82.646388,401.23844 124.64331,407.75141 137.66925,409.91229C137.66925,409.91229 123.90027,472.91146 110.86674,498.97093C110.86674,498.97093 69.612861,496.07459 58.740216,489.55404z" id="p39" style="fill:#000;fill-opacity:1;fill-rule:nonzero;stroke:none"/>
<path d="M66.70894,487.39316L80.455178,448.30016C80.455178,448.30016 100.73713,453.36496 118.83546,455.52584C118.83546,455.52584 114.48337,472.91146 107.25769,492.45796C107.25769,492.45796 88.41632,493.17067 66.70894,487.39316z" id="p40" style="fill:#94c6eb;fill-opacity:1;fill-rule:nonzero;stroke:none"/>
<path d="M80.455178,443.94807L88.41632,408.46412C88.41632,408.46412 115.21883,414.9771 130.41324,414.27197C130.41324,414.27197 126.80419,436.7148 120.99634,449.74833C120.99634,449.74833 102.19289,449.74833 80.455178,443.94807z" id="p41" style="fill:#94c6eb;fill-opacity:1;fill-rule:nonzero;stroke:none"/>
<path d="M207.8941,409.91229C207.8941,409.91229 237.5702,407.00837 259.27758,412.1035C281.02287,417.16831 283.18376,423.68886 286.08768,433.07543C288.96127,442.49232 283.18376,462.78186 262.89422,459.87794C262.89422,459.87794 226.70514,456.26888 214.41466,455.52584C202.09384,454.81313 188.43859,446.84441 189.79577,429.45879C191.25152,410.65533 207.8941,409.91229 207.8941,409.91229z" id="p42" style="fill:#000;fill-opacity:1;fill-rule:nonzero;stroke:none"/>
<path d="M254.22036,452.62192C254.22036,452.62192 242.63501,430.91454 257.82941,419.32919C257.82941,419.32919 233.21811,412.1035 208.60681,415.72014C208.60681,415.72014 189.79577,420.0419 197.73417,441.04415C197.73417,441.04415 199.92538,449.01287 218.73642,450.46104C237.5702,451.90921 239.02596,449.74833 254.22036,452.62192z" id="p43" style="fill:#7a828d;fill-opacity:1;fill-rule:nonzero;stroke:none"/>
<path d="M255.66853,438.52691C255.66853,447.49646 261.17309,454.81313 267.98935,454.81313C274.76769,454.81313 280.27983,447.49646 280.27983,438.52691C280.27983,429.51945 274.76769,422.23311 267.98935,422.23311C261.17309,422.23311 255.66853,429.51945 255.66853,438.52691z" id="p44" style="fill:#de192b;fill-opacity:1;fill-rule:nonzero;stroke:none"/>
<path d="M289.69673,499.68364C289.69673,499.68364 305.63418,456.97401 306.34689,443.94807C306.34689,443.94807 319.37283,467.10362 327.34155,470.00754C327.34155,470.00754 307.79506,485.20195 308.50777,506.2042C308.50777,506.2042 297.66545,496.81005 289.69673,499.68364z" id="p45" style="fill:#7a828d;fill-opacity:1;fill-rule:nonzero;stroke:none"/>
<path d="M315.76378,509.84358C314.1943,511.50404 310.69898,489.55404 333.1494,474.35963C333.1494,474.35963 338.2142,485.94499 315.76378,509.84358z" id="p46" style="fill:#576370;fill-opacity:1;fill-rule:nonzero;stroke:none"/>
<path d="M97.840795,564.84369C97.840795,564.84369 107.96282,567.0349 110.86674,567.0349C110.86674,567.0349 140.54284,526.48615 160.83238,470.00754C160.83238,470.00754 244.79589,479.42443 286.79281,478.68898L287.53585,473.62417C287.53585,473.62417 176.02679,466.39849 152.15853,462.78186C152.15853,462.78186 133.31716,522.13406 97.840795,564.84369z" id="p47" style="fill:#3b3e67;fill-opacity:1;fill-rule:nonzero;stroke:none"/>
<path d="M115.21883,568.45274C115.21883,568.45274 149.25461,514.90838 164.44901,472.91146C164.44901,472.91146 275.21503,483.04107 286.79281,480.88019C286.79281,480.88019 276.6632,533.71184 206.44593,579.32539C206.44593,579.32539 132.5817,572.09971 115.21883,568.45274z" id="p48" style="fill:currentColor;fill-opacity:1;fill-rule:nonzero;stroke:none"/>
<path d="M155.17618,554.85815C165.27546,573.60853 194.8075,577.36922 221.193,563.18323C247.58608,549.02756 260.82432,522.33878 250.72504,503.56565C240.64851,484.78494 211.09372,481.05457 184.70822,495.21024C158.34547,509.36591 145.10723,536.08502 155.17618,554.85815z" id="p49" style="fill:#000;fill-opacity:1;fill-rule:nonzero;stroke:none"/>
<path d="M217.28067,520.73897C217.28067,523.52916 220.54094,525.7507 224.53668,525.7507C228.54,525.7507 231.76994,523.52916 231.76994,520.73897C231.76994,517.98669 228.54,515.73482 224.53668,515.73482C220.54094,515.73482 217.28067,517.98669 217.28067,520.73897z" id="p50" style="fill:#ebeeee;fill-opacity:1;fill-rule:nonzero;stroke:none"/>
<path d="M178.96104,558.97519C181.15225,565.91276 192.22961,568.60438 203.74673,564.96501C215.27143,561.34837 222.82314,552.78825 220.63193,545.85827C218.44072,538.92828 207.36336,536.2594 195.83866,539.87604C184.32154,543.51542 176.76983,552.07554 178.96104,558.97519z" id="p51" style="fill:#ebeeee;fill-opacity:1;fill-rule:nonzero;stroke:none"/>
<path d="M-47.673711,574.26059C-47.673711,574.26059-54.929723,563.38794-55.642435,558.33072C-55.642435,558.33072-74.476221,556.16226-79.541024,552.55321C-79.541024,552.55321-54.186683,571.35667-47.673711,574.26059z" id="p52" style="fill:currentColor;fill-opacity:1;fill-rule:nonzero;stroke:none"/>
<path d="M-18.710319,588.00682C-18.710319,588.00682-26.671461,572.09971-28.127212,567.0349C-28.127212,567.0349 28.351401,583.67748 47.162442,584.39019L39.193718,603.22398C39.193718,603.22398 7.3567333,602.48852-18.710319,588.00682z" id="p53" style="fill:currentColor;fill-opacity:1;fill-rule:nonzero;stroke:none"/>
<path d="M63.805019,605.39244L79.742466,590.19803C79.742466,590.19803 139.83771,598.87189 155.02454,596.71101C155.02454,596.71101 101.44985,613.35358 63.805019,605.39244z" id="p54" style="fill:currentColor;fill-opacity:1;fill-rule:nonzero;stroke:none"/>
</g>
</g>
</symbol>



<symbol id="darth" viewBox="0 0 864 864">
<path fill-rule="evenodd" clip-rule="evenodd" d="M420.868,842.299c-41.137,1.361-81.958-1.146-121.869-11.782
	c-21.13-5.633-41.454-13.006-54.609-32.774c-2.804-4.214-9.064-6.501-14.137-8.769c-27.695-12.383-54.314-26.567-78.007-45.722
	c-14.093-11.396-26.625-24.109-33.338-41.497c-4.061-10.518-4.875-21.165,0.894-31.062c36.34-62.341,54.514-131.804,79.113-198.803
	c10.863-29.587,16.127-59.948,21.433-90.58c3.274-18.902,3.53-19.225-15.546-19.739c-53.532-1.441-94.101-25.489-121.809-70.707
	c-18.176-29.66-23.661-62.662-21.436-97.161c1.249-19.378,5.653-37.91,12.996-55.856c16.17-39.518,45.841-63.722,85.886-76.31
	c20.208-6.353,40.929-6.104,61.769-5.198c2.709,0.117,6.737-1.649,8.124-3.832c15.004-23.634,35.977-30.804,62.427-21.327
	c24.748,8.868,42.711,26.055,58.334,46.315c20.161,26.146,35.978,54.724,46.982,85.815c2.723,7.695,6.353,8.823,13.896,7.615
	c7.817-1.252,16.176-0.856,24.035,0.424c6.436,1.047,9.591,0.64,13.165-5.918c15.335-28.142,30.261-56.68,48.045-83.261
	c16.195-24.207,36.729-45.443,66.497-53.075c10.972-2.813,23.054-3.343,34.372-2.25c14.907,1.439,25.476,10.651,30.12,25.161
	c2.13,6.656,5.089,7.812,11.699,6.247c31.848-7.536,63.251-6.997,92.908,8.578c36.672,19.257,56.07,51.772,65.402,90.501
	c17.476,72.511-15.184,151.65-78.021,191.329c-23.74,14.991-49.73,20.765-77.707,17.617c-11.428-1.286-12.052-0.377-10.401,10.879
	c3.007,20.507,3.954,41.549,9.256,61.436c8.498,31.886,18.886,63.36,30.23,94.366c13.717,37.487,29.214,74.323,44.091,111.38
	c1.629,4.058,3.726,8.152,6.499,11.488c14.205,17.089,11.648,35.205,2.898,53.148c-17.491,35.881-46.11,59.274-83.798,71.557
	c-8.15,2.657-14.56,6.209-19.279,13.744c-8.616,13.754-22.519,20.88-37.218,26.021c-47.529,16.629-96.768,22.337-146.877,22.004
	C432.214,842.268,426.542,842.299,420.868,842.299z"/>
<g id="Layer_3">
	<path fill="#D02027" d="M401.378,217.376l-0.243-0.261c4.707,1.251,9.413,2.501,14.119,3.752c0.063,0.335,0.128,0.669,0.192,1.003
		c-6.98,0-13.959,0-21,0c0.621,7.223,1.42,13.077,1.561,18.948c0.217,9.164-1.352,17.219,12.259,20.352
		c13.993,3.221,26.826,1.389,40.085-0.249c-2.382-0.78,14.26-6.55,6.415-36.659c-3.31-12.708-7.135-25.467-8.625-38.433
		c-1.035-8.989-7.39-11.281-12.852-12.682c-6.175-1.583-14.486-1.593-19.767,1.408c-14.128,8.03-17.599,22.543-17.677,37.764
		C395.837,213.995,399.446,215.69,401.378,217.376z"/>
	<path fill="#D02027" d="M262.199,274.912l-0.224-0.257c4.817,11.061,16.163,10.396,24.668,11.026
		c12.842,0.951,25.976-1.992,38.979-3.351c0.811-0.084,1.526-0.866,2.338-1.188c10.74-4.267,21.487-8.509,30.577-12.102
		c5.014-3.65,16.208-6.488,18.14-4.462c0.484-1.312,6.133-3.607,8.125-8.796c0.557-11.195,0.234-21.154,1.742-30.828
		c1.866-11.98,0.223-23.285-6.436-25.037c-5.901-1.554-12.6,0.091-18.645-1.147c-5.029-1.032-9.621-4.201-14.408-6.423
		c0.394-0.78,0.786-1.562,1.18-2.343c1.496-0.091,2.993-0.182,4.49-0.272c5.419,0.05,10.839,0.101,16.259,0.152
		c3.279-2.233,6.558-4.468,9.749-6.641c-0.338,2.365-0.739,5.164-1.308,9.137c5.687-0.764,13.943-0.286,14.568-2.245
		c2.15-6.729,8.392-12.973,3.494-21.538c-5.528-9.667-9.258-20.343-14.337-30.291c-5.822-11.404-12.783-22.244-18.27-33.795
		c-4.026-8.475-12.842-13.313-15-23.42c-2.104-9.855-18.191-21.013-26.077-20.328c0.277-7.882-15.632-20.789-24.18-19.513
		c-0.234,2.364-0.469,4.752-0.706,7.14c-0.471-8.12-1.682-15.097-11.284-17.388c-14.969-3.574-20.557-2.24-25.219,5.528
		c-4.006,0.488-8.317-0.24-9.562,1.384c-5.072,6.614-11.183,13.404-13.311,21.121c-6.365,23.073-0.399,45.465,7.611,67.14
		c6.616,17.9,14.253,35.423,21.905,54.265c1.496,0.113,5.146,0.387,8.796,0.662c-10.078-0.222-13.461,6.081-14.174,14.368
		c-0.6,6.978,2.66,16.737-0.873,20.521c-8.331,8.927-7.049,19.37-7.212,28.807C253.419,255,251.01,267.348,262.199,274.912z"/>
	<path fill="#D02027" d="M525.602,58.566c-6.299,6.312-16.824,10.148-13.914,21.771c-2.042,1.403-4.719,2.674-6.651,4.667
		c-10.206,10.519-18.311,22.357-22.068,36.783c-0.273,1.05-0.894,2.762-1.534,2.851c-8.399,1.158-8.927,8.538-11.542,14.266
		c-1.244,2.468-2.488,4.937-3.732,7.406c-1.646,4.786-2.082,10.63-5.166,14.152c-8.165,9.315-11.77,18.485-4.528,29.848
		c0.868,1.362,0.738,3.36,0.838,3.871c10.298,0,19.675,0,29.049,0c0.209,1.107,0.418,2.216,0.629,3.324
		c-6.74,3.017-13.668,5.687-20.12,9.225c-2.497,1.37-5.614,4.764-5.531,7.133c0.351,9.881,1.632,19.748,2.937,29.571
		c0.759,5.712,0.646,11.106,8.423,14.193c4.503,1.788,8.271,5.604,14.014,6.54c5.183,0.844,9.753,4.985,14.938,6.485
		c2.201,0.637,5.276-1.758,8.215-2.874c4.908,12.479,21.167,17.785,34.761,10.101c2.697,4.779,15.686,7.516,30.867,4.365
		c10.723-2.226,27.698-13.916,29.931-32.299c1.634-13.443,2.435-13.346-2.822-16.555c-0.142-13.519,1.388-5.777-0.142-13.519
		c-1.959-9.92-3.068-20.586-7.657-29.287c-8.9-16.868,0.096-30.86,5.046-45.312c2.895-8.442,9.525-15.537,13.337-23.764
		c1.49-3.212-0.142-7.87-0.335-11.513c1.444-2.029,3.818-4.271,4.835-7.017c2.564-6.917,4.985-13.956,6.612-21.14
		c3.048-13.453,0.128-26.224-6.805-37.844c-2.01-3.37-6.102-5.782-9.695-7.839c-3.212-1.842-7.395-2.019-10.556-3.919
		c-15.62-9.388-29.971-3.17-43.237,4.538c-6.39,3.711-15.067,8.222-13.336,18.85c-6.831-6.989-7.634-6.819-15.318,3.155
		L525.602,58.566z"/>
</g>
<g>
	<path fill="#FFFFFF" d="M712.601,666.543c0.843-0.518,1.683-1.035,2.522-1.555c-0.25-1.119-0.238-2.391-0.789-3.338
		c-27.919-48.044-43.432-100.987-60.923-153.19c-7.086-21.147-15.671-41.788-23.451-62.707c-4.108-11.046-9.453-21.908-11.598-33.35
		c-4.245-22.666-7.56-45.451-19.455-65.731c-3.099-5.284-7.234-9.958-10.892-14.913c-1.008,0.448-2.015,0.896-3.022,1.345
		c-0.125,2.633-0.504,5.283-0.332,7.897c0.676,10.354,1.95,20.687,2.182,31.047c0.209,9.443-2.119,10.101-10.655,6.331
		c-9.439-4.167-19.146-8.507-29.182-10.392c-32.183-6.041-62.521,0.797-91.428,15.439c-10.308,5.221-12.941,4.023-13.278-7.746
		c-0.854-29.92-0.942-59.862-1.32-89.795c-0.054-4.321-0.007-8.643-0.007-13.505c-8.789,0-16.469,1.043-23.731-0.257
		c-9.683-1.734-11.149,2.272-11.128,10.566c0.07,27.731-0.336,55.468-0.859,83.197c-0.105,5.608-1.434,11.205-2.355,16.782
		c-0.869,5.254-3.874,6.154-8.087,3.4c-2.365-1.545-4.566-3.374-6.693-5.241c-15.387-13.506-33.422-20.728-53.729-19.132
		c-16.146,1.269-32.171,4.708-48.093,7.952c-9.232,1.881-12.856-0.317-9.797-8.97c4.488-12.687,10.117-25.003,15.919-37.162
		c1.128-2.362,6.188-5.277,7.883-4.51c6.609,2.99,9.225-1.208,12.428-5.138c4.973-6.098,10.074-12.095,14.949-18.271
		c1.336-1.693,2.062-3.868,2.64-4.992c-18.425,0.738-36.188,1.293-53.923,2.347c-2.355,0.139-4.783,2.562-6.792,4.359
		c-5.373,4.805-10.091,10.462-15.885,14.655c-9.39,6.794-19.43,12.688-30.64,19.89c20.084-0.761,33.362-14.164,49.643-20.443
		c-0.376,3.324-1.273,5.599-2.59,7.598c-15.493,23.507-25.45,48.946-29.38,77.021c-1.806,12.897-3.977,26.85-10.338,37.792
		c-16.807,28.911-26.907,60.233-37.803,91.412c-10.897,31.185-21.399,62.555-33.756,93.164
		c-7.626,18.895-18.456,36.49-27.726,54.733c-3.01,5.921-4.831,12.018,0.878,19.719c2.498-5.791,4.07-10.333,6.332-14.504
		c6.149-11.343,13.699-22.059,18.702-33.865c13.495-31.86,25.965-64.152,38.822-96.281c13.205-33,24.794-66.766,40.054-98.781
		c13.431-28.179,34.144-51.066,66.542-58.676c29.258-6.87,57.195-7.452,84.079,11.477c9.906,6.977,25.994,8.078,38.92,7.137
		c16.801-1.221,34.461-3.558,48.262-15.836c1.794-1.597,4.577-2.047,6.833-3.163c15.875-7.858,32.955-5.26,49.351-4.256
		c32.894,2.014,59.979,16.207,77.974,44.622c20.076,31.702,30.354,67.675,42.585,102.674c14.037,40.164,27,80.7,50.107,116.916
		C704.183,655.979,708.571,661.146,712.601,666.543z"/>
	<path fill="#FFFFFF" d="M401.251,495.371c0.685,0.636,1.368,1.271,2.052,1.907c1.303-2.804,2.612-5.607,3.908-8.416
		c3.796-8.233,8.098-16.698,18.638-16.272c11.231,0.455,15.318,9.65,18.892,18.662c0.924,2.327,1.686,4.741,2.844,6.944
		c0.687,1.305,1.794,2.749,3.072,3.32c8.978,3.992,17.772,8.748,27.148,11.408c17.173,4.867,34.62,8.959,52.174,12.148
		c3.458,0.629,8.172-3.951,11.862-6.72c4.827-3.623,8.597-9.266,13.896-11.547c29.94-12.896,40.712-43.572,24.611-71.925
		c-20.267-35.69-57.864-48.627-95.693-32.577c-7.729,3.279-14.903,7.857-22.335,11.836c0.516,1.093,1.03,2.185,1.546,3.278
		c3.117-0.943,6.354-1.603,9.326-2.879c15.966-6.863,32.565-9.096,49.877-8.208c23.869,1.225,39.438,13.98,48.351,34.972
		c9.442,22.245,2.245,50.846-24.389,62.24c-15.627,6.687-31.235,6.188-47.201,6.141c-19.831-0.058-36.104-8.994-48.868-23.084
		c-4.939-5.45-8.514-14.946-7.804-22.115c1.421-14.337,0.711-18.114-19.432-22.485c-12.167-2.639-19.398,3.323-20.442,15.727
		c-2.284,27.147-19.471,43.962-47.138,45.194c-14.467,0.643-29.088,1.169-43.454-0.198c-16.114-1.533-30.668-7.712-38.626-23.348
		c-7.757-15.244-1.179-40.411,14.418-53.917c22.706-19.664,48.872-20.89,76.395-12.972c5.298,1.525,10.465,3.505,15.693,5.273
		c0.504-1.358,1.008-2.716,1.513-4.073c-7.447-3.444-14.705-7.399-22.375-10.245c-41.722-15.472-84.837,5.987-97.757,48.413
		c-5.191,17.047,1.137,36.681,15.131,47.381c7.434,5.684,14.626,11.687,22.143,17.255c1.884,1.395,4.673,2.522,6.921,2.327
		c27.613-2.401,55.194-4.886,80.119-19.002C390.684,497.314,396.228,496.802,401.251,495.371z"/>
	<path fill="#FFFFFF" d="M424.625,511.627c10.644-0.306,20.411,1.052,23.853,12.046c8.769,28.008,24.841,52.171,39.456,77.107
		c6.192,10.567,11.528,22.333,20.133,30.53c5.303,5.053,7.479,7.404,6.069,14.644c-0.689,3.537,3.163,10.514,6.44,11.642
		c4.4,1.521,11.164,0.253,15.118-2.446c2.591-1.767,3.886-8.982,2.458-12.361c-3.259-7.708-8.209-14.796-13.071-21.715
		c-23.335-33.202-47.123-66.088-70.244-99.436c-14.836-21.403-42.173-22.955-56.779-3.277
		c-29.231,39.38-59.142,78.257-88.404,117.613c-2.387,3.21-3.76,9.254-2.353,12.621c1.428,3.412,6.915,7.096,10.582,7.054
		c3.699-0.044,9.76-3.925,10.557-7.165c2.243-9.126,8.936-14.775,13.487-22.081c20.211-32.445,46.849-61.049,58.758-98.528
		C404.287,516.541,412.691,510.355,424.625,511.627z"/>
	<path fill="#FFFFFF" d="M269.64,541.371c3.457,4.465,5.453,7.596,7.98,10.219c12.663,13.132,25.407,26.19,38.239,39.157
		c9.589,9.69,10.984,9.567,19.44-1.118c15.228-19.244,30.401-38.526,45.608-57.783c2.604-3.299,5.261-6.555,7.893-9.827
		c-0.449-0.699-0.898-1.396-1.347-2.094C348.782,526.965,310.11,534.004,269.64,541.371z"/>
	<path fill="#FFFFFF" d="M463.841,519.851c-0.661,1.044-1.32,2.091-1.979,3.136c6.106,7.404,12.231,14.794,18.319,22.217
		c14.543,17.728,29.077,35.462,43.59,53.215c3.537,4.324,7.116,7.794,11.844,1.397c10.447-14.14,20.938-28.249,31.25-42.485
		c3.505-4.837,1.685-7.745-4.062-7.934c-27.274-0.894-51.983-10.969-76.704-21.113C478.763,525.272,471.264,522.649,463.841,519.851
		z"/>
	<path fill="#FFFFFF" d="M130.042,295.512c-38.99-73.168-34.471-141.904,18.035-206.887
		c-39.229,26.801-61.647,64.727-63.845,112.041C82.439,239.255,99.724,271.414,130.042,295.512z"/>
	<path fill="#FFFFFF" d="M472.577,610.51c-0.195,4.194-0.318,7.809-0.546,11.415c-0.369,5.84-3.534,8.158-9.344,8.033
		c-6.821-0.151-8.21-4.081-8.43-9.871c-0.551-14.437-1.247-28.873-2.391-43.268c-0.19-2.387-2.953-4.568-4.524-6.843
		c-1.413,2.126-3.279,4.092-4.103,6.427c-0.692,1.966-0.19,4.359-0.188,6.562c0.014,12.596,0.142,25.191,0.005,37.785
		c-0.054,4.938-0.796,9.451-7.685,9.384c-6.357-0.06-7.967-3.34-8.11-8.944c-0.241-9.431-0.961-18.847-1.438-28.272
		c-0.302-5.972-0.19-11.992-0.988-17.893c-0.248-1.831-2.87-3.342-4.405-4.999c-1.483,1.418-3.708,2.59-4.281,4.312
		c-0.967,2.906-1.264,6.174-1.177,9.27c0.313,11.312,0.967,22.616,1.359,33.929c0.197,5.679-0.71,11.475-7.625,12.018
		c-7.222,0.568-8.619-5.257-8.769-10.903c-0.283-10.702-0.04-21.414-0.335-32.113c-0.083-3.006-1.283-5.983-1.97-8.973
		c-1.1-0.079-2.2-0.158-3.299-0.237c-1.355,4.152-3.506,8.228-3.908,12.471c-1.008,10.64-1.203,21.355-1.767,32.039
		c-0.277,5.245-3.078,9.096-8.252,7.52c-2.692-0.821-4.732-5.238-6.11-8.443c-1.067-2.479-0.649-5.599-1.115-11.055
		c-3.689,4.052-5.958,5.795-7.218,8.093c-2.181,3.979-3.737,8.298-5.555,12.473c4.642,1.107,9.277,3.129,13.927,3.169
		c30.514,0.243,61.036,0.275,91.545-0.16c6.438-0.091,12.845-2.412,19.265-3.707c-3.229-6.243-6.45-12.491-9.714-18.719
		C475.346,610.838,474.842,610.889,472.577,610.51z"/>
	<path fill="#FFFFFF" d="M662.49,334.264c14.059,2.083,26.84-0.746,38.763-7.493c39.972-22.623,64.899-56.811,75.901-101
		c2.248-9.029,4.765-19.063,0.076-30.829C752.598,254.374,722.347,306.312,662.49,334.264z"/>
	<path fill="#FFFFFF" d="M504.235,665.334c-1.165-1.216-2.331-2.43-3.493-3.644c-3.282,2.659-6.836,5.046-9.793,8.025
		c-14.388,14.506-27.877,29.999-43.084,43.572c-19.022,16.978-31.612,16.553-50.646-0.226c-15.58-13.735-30.295-28.446-45.643-42.45
		c-2.893-2.64-6.96-3.99-10.485-5.938c-0.721,1.14-1.44,2.277-2.16,3.417c21.446,23.808,40.659,50,70.661,64.743
		c13.023,6.401,25.752,4.431,36.146-4.774c15.485-13.71,30.156-28.383,44.572-43.235
		C495.808,679.16,499.642,671.879,504.235,665.334z"/>
	<path fill="#FFFFFF" d="M337.911,650.498c0.061,1.446,0.122,2.893,0.183,4.338c4.047,0.553,8.09,1.569,12.138,1.581
		c33.998,0.1,67.998,0.144,101.995-0.067c15.704-0.098,31.407-0.654,47.093-1.411c2.094-0.103,4.071-2.611,6.1-4.004
		c-1.971-1.165-3.816-2.822-5.946-3.37c-2.372-0.61-5.002-0.243-7.521-0.243c-45.011,0.03-90.019-0.049-135.025,0.241
		C350.582,647.604,344.249,649.475,337.911,650.498z"/>
	<path fill="#FFFFFF" d="M516.005,496.32c0.03,0.217,0.058,0.433,0.088,0.649c5.26-0.766,10.616-1.128,15.76-2.369
		c19.301-4.656,22.339-14.244,9.3-28.992c-2.27-2.566-5.014-4.716-7.511-7.084c-6.03-5.717-10.198-4.027-13.907,2.874
		c-4.117,7.654-8.964,14.915-13.332,22.44c-1.757,3.027-3.089,6.303-4.613,9.466c3.168,1.005,6.301,2.149,9.521,2.953
		C512.788,496.625,514.436,496.32,516.005,496.32z"/>
	<path fill="#FFFFFF" d="M323.083,488.279c1.02-0.262,5.363-0.243,7.937-2.366c2.427-2.001,4.854-6.85,4.042-9.424
		c-3.11-9.85-18.615-19.21-29.025-18.797c-7.942,0.315-10.236,5.006-9.224,12C298.395,480.62,308.154,488.218,323.083,488.279z"/>
	<path fill="#FFFFFF" d="M541.456,616.466c18.909-19.67,32.396-43.121,48.929-66.628
		C578.966,550.777,539.702,605.067,541.456,616.466z"/>
	<path fill="#FFFFFF" d="M261.186,544.562c-0.726,0.666-1.453,1.332-2.179,2c1.871,9.741,50.655,60.865,61.574,60.905
		C300.782,586.497,280.984,565.529,261.186,544.562z"/>
	<path fill="#E8E9EC" d="M379.327,180.862c0,0-9.562,5.886-11.755,7.436c-2.192,1.55-15.673,3.517-18.721,0
		c-3.047-3.518-6.481-7.872-4.982-10.048c1.499-2.176,10.085-10.884,17.547-10.013C368.878,169.107,373.638,169.914,379.327,180.862
		z"/>
	<path fill="#E8E9EC" d="M456.622,234.244c1.829,2.199-1.956,18.393-5.114,22.535c-3.157,4.142-5.214,4.404-7.359,4.662
		s-7.787-0.168-9.094-8.592s1.742-12.841,5.225-15.639S448.979,225.053,456.622,234.244z"/>
	<path fill-rule="evenodd" clip-rule="evenodd" fill="#E8E9EC" d="M468.98,141.25c2.944-3.47,3.79-8.202,6.815-11.769
		c12.136,7.162,15.251,10.36,11.717,20.378c-3.148,8.918-10.004,12.734-19.246,10.241c-7.216-1.947-2.419-7.505-3.019-11.444
		C466.492,146.187,467.736,143.718,468.98,141.25z"/>
	<path fill-rule="evenodd" clip-rule="evenodd" fill="#E8E9EC" d="M553.311,205.524c-8.935-0.057-16.372-7.09-16.373-15.48
		c-0.001-7.84,7.807-15.2,16.203-15.271c7.858-0.067,16.83,9.045,16.429,16.688C569.25,197.539,559.968,205.567,553.311,205.524z"/>
	<path fill-rule="evenodd" clip-rule="evenodd" fill="#E8E9EC" d="M548.627,126.248c0.041,8.989-4.43,12.811-15.096,12.903
		c-7.949,0.068-15.22-6.011-15.498-12.961c-0.351-8.737,7.702-17.012,16.891-17.355C543.04,108.53,548.577,115.567,548.627,126.248z
		"/>
	<path fill-rule="evenodd" clip-rule="evenodd" fill="#E8E9EC" d="M584.088,55.849c11.766-0.282,19.163,6.714,19.367,14.725
		c0.2,7.858-7.195,16.84-14.084,17.102c-5.215,0.199-17.871-12.363-15.95-17.898C575.489,63.821,581.377,59.191,584.088,55.849z"/>
	<path fill-rule="evenodd" clip-rule="evenodd" fill="#E8E9EC" d="M514.568,268.481c-0.68-7.435,5.442-14.86,12.227-15.592
		c6.659-0.718,16.582,8.555,15.829,16.167c-0.392,3.952-3.173,9.156-6.424,10.895C533.211,281.55,514.516,278.385,514.568,268.481z"
		/>
	<path fill-rule="evenodd" clip-rule="evenodd" fill="#E8E9EC" d="M503.887,209.361c1.313,10.477-6.938,13.888-13.451,14.469
		c-4.548,0.405-10.029-5.16-14.277-8.967c-1.102-0.986-3.561-10.641-2.965-11.3c5.33-5.911,18.284-9.24,27.959-3.596
		C503.196,201.158,503.034,206.131,503.887,209.361z"/>
	<path fill-rule="evenodd" clip-rule="evenodd" fill="#E8E9EC" d="M613.175,121.509c-2.203,5.795-8.041,10.624-10.431,16.91
		C594.384,129.508,598.54,122.252,613.175,121.509z"/>
	<path fill-rule="evenodd" clip-rule="evenodd" fill="#E8E9EC" d="M265.579,91.445c8.198-0.125,14.295,7.427,14.438,17.881
		c0.077,5.513-7.449,12.802-13.34,12.921c-10.389,0.208-17.065-5.566-17.176-14.859C249.388,97.803,255.647,91.595,265.579,91.445z"
		/>
	<path fill-rule="evenodd" clip-rule="evenodd" fill="#E8E9EC" d="M323.313,154.079c-3.437,3.53-10.124,6.623-13.523,5.29
		c-5.103-2.001-10.418-7.429-12.216-12.593c-1.344-3.858,1.369-11.213,4.756-14.056c3.493-2.931,10.478-3.993,15.02-2.688
		c3.931,1.13,9.566,4.71,9.501,10.527C326.84,141.559,328.698,148.55,323.313,154.079z"/>
	<path fill-rule="evenodd" clip-rule="evenodd" fill="#E8E9EC" d="M275.309,32.359c13.855-0.12,17.146,2.167,17.321,12.038
		c0.176,9.969-4.058,14.501-13.704,14.668c-9.729,0.17-16.774-5.604-16.951-13.893C261.753,34.77,264.162,32.456,275.309,32.359z"/>
	<path fill-rule="evenodd" clip-rule="evenodd" fill="#E8E9EC" d="M329.104,243.053c-7.039,2.823-8.115,0.089-13.221-4.021
		c-4.893-3.938-5.84-7.253-5.976-12.556c-0.238-9.306,7.362-11.379,13.173-11.906c4.321-0.39,10.561,3.441,13.334,7.28
		c3.349,4.635,8.558,11.694-0.073,16.72C333.472,240.243,330.803,241.377,329.104,243.053z"/>
	<path fill-rule="evenodd" clip-rule="evenodd" fill="#E8E9EC" d="M275.357,221.724c-6.029,0-9.646-3.447-12.043-6.122
		c-1.484-1.657,0.108-5.961,0.083-9.075c-0.017-2.039-0.53-4.209-0.566-6.065c-0.166-8.394,2.671-10.659,5.449-11.515
		c4.428-1.365,11.588-0.577,14.732,2.362c3.631,3.394,6.89,11.114,5.4,15.139C286.168,212.511,284.391,217.519,275.357,221.724z"/>
	<path fill-rule="evenodd" clip-rule="evenodd" fill="#E8E9EC" d="M328.178,64.896c16.801,4.997,18.555,20.056,12.526,26.853
		c-4.738,5.342-12.097,6.66-18.444,1.787C309.667,83.865,309.902,64.896,328.178,64.896z"/>
	<path fill-rule="evenodd" clip-rule="evenodd" fill="#E8E9EC" d="M262.306,274.383c-2.879-2.254-4.128-3.467-5.727-6.727
		c10.425-3.541,16.613,0.811,18.694,16.555c-0.762-0.175-2.56,0.571-7.646-2.942C267.631,281.271,262.306,274.383,262.306,274.383z"
		/>
	<path fill-rule="evenodd" clip-rule="evenodd" fill="#E8E9EC" d="M397.318,212.212c-2.181-5.942,1.208-15.596,2.176-19.707
		c0.354-1.754,2.367-6.685,3.641-6.685c6.012-1.912,12.235-0.801,14.29,1.956c3.377,4.535,4.635,11.804,4.18,17.719
		c-0.476,6.19-10.515,12.549-18.546,10.48C403.044,215.958,397.318,212.212,397.318,212.212z"/>
	<path fill="#FFFFFF" d="M524.638,60.969c-3.729,4.916-6.616-0.269-12.48,16.484c4.82,1.391,9.933,4.754,13.621,3.593
		c13.143-4.137,12.877-13.707,6.064-25.401L524.638,60.969z"/>
	<path fill="#FFFFFF" d="M597.012,266.936c0,0-10.04,4.737-12.85-15.842s18.352-12.816,19.297-10.224
		C609.202,256.617,597.012,266.936,597.012,266.936z"/>
</g>
</symbol>


</svg>