<?xml version="1.0" encoding="UTF-8"?>
<svg viewBox="0 150 794 820" xmlns="http://www.w3.org/2000/svg" xmlns:xlink="http://www.w3.org/1999/xlink">
 <title>Thumbs up, Modified original with blue borders</title>
 <defs>
  <linearGradient id="linearGradient1683">
   <stop id="stop1684" offset="0" stop-color="#e9b487"/>
   <stop id="stop1685" offset="1" stop-color="#ffdc84"/>
  </linearGradient>
  <radialGradient cx="701.69128" cy="159.29361" fx="701.69128" fy="159.29361" gradientTransform="matrix(0.674688, 0, 0, 1.48217, -4, 59)" gradientUnits="userSpaceOnUse" id="radialGradient1686" r="2.278786" spreadMethod="reflect" xlink:href="#linearGradient1683"/>
  <radialGradient cx="309.89297" cy="496.57455" fx="309.89297" fy="496.57455" gradientTransform="matrix(0.911683, 0, 0, 1.09687, -4, 56)" gradientUnits="userSpaceOnUse" id="radialGradient1692" r="1.969047" spreadMethod="reflect" xlink:href="#linearGradient1683"/>
 </defs>
 <g>
  <title>Layer 1</title>
  <path d="m173.119385,738.80072c-14.602692,14.246521 -26.342621,38.371704 -28.501968,59.039795c-2.590973,24.799377 3.16066,54.824097 14.250977,77.362488c9.946854,20.214539 28.772675,40.565491 48.860535,50.896362c27.415421,14.099365 68.439194,32.090637 93.649307,22.394409c27.722107,-10.662354 37.892487,-64.781006 65.147369,-83.470032c20.248413,-13.884644 55.737457,-3.022644 77.362488,-14.250977c13.663116,-7.09436 27.331268,-24.473572 28.501984,-40.717102c9.687195,-134.409729 -0.702179,-274.391479 4.071716,-411.242737c1.333679,-38.23233 19.172821,-77.662018 14.250977,-114.007874c-3.900208,-28.801514 -19.892578,-62.345078 -40.717102,-81.434219c-19.892578,-18.234863 -48.080048,-45.145859 -81.434204,-30.537811c-38.096497,16.685043 -26.864319,69.481522 -24.430267,85.505905c5.709351,37.586456 19.671753,74.336456 24.430267,111.972046c2.706299,21.404205 3.373413,44.261566 -2.035858,65.147339c-19.020996,73.442169 -38.344696,151.048096 -71.254913,217.836487c-13.235809,26.860962 -42.414917,45.773682 -67.183228,63.111511c-15.948807,11.164185 -41.747406,9.496216 -54.968079,22.394409z" id="path1061" stroke-miterlimit="4" stroke-width="12.5" stroke="#385460" fill-rule="evenodd" fill="url(#radialGradient1686)"/>
  <path d="m388.920013,426.350739c-33.869659,9.86496 -65.634094,16.291901 -93.649323,34.609558c-7.272919,4.755371 -14.27243,26.674225 -12.215118,34.609528c2.693024,10.38739 17.297455,26.539001 16.286804,36.645386c-1.703827,17.03833 -25.097229,27.447388 -24.430237,44.788818c0.690247,17.946716 31.356232,33.737793 34.609528,52.932251c3.532898,20.844055 -18.468567,46.798157 -14.250977,67.183167c3.925842,18.974854 30.229797,32.303223 38.681244,50.896423c5.120911,11.265991 -5.861176,30.78418 2.035858,38.681213c14.497375,14.497375 42.234833,26.235901 65.147369,28.501953c38.841736,3.841492 84.092529,2.51062 120.115448,-10.17926c23.695496,-8.34729 49.370605,-32.714844 59.039795,-52.932251c5.260376,-10.999023 -3.710571,-35.58197 -14.250977,-40.717102c-15.925659,-7.758606 -43.440796,2.337341 -65.1474,2.035889c-27.1539,-0.377136 -90.02356,-4.071716 -81.434174,-4.071716c16.51947,0 118.014801,18.422058 156.760834,4.071716c16.222046,-6.008179 13.696106,-46.268127 8.143433,-65.147339c-4.626587,-15.730286 -21.805359,-36.124329 -38.681274,-38.681274c-50.307281,-7.622314 -162.868408,7.804016 -162.868408,8.143433c0,0.339233 111.091492,-12.642517 162.868408,-6.107544c18.120789,2.287048 36.283752,37.693542 46.824646,32.573669c13.210754,-6.416626 24.018982,-45.385681 24.430298,-67.183228c0.267334,-14.169189 -12.818298,-28.829468 -22.394409,-40.717102c-10.103821,-12.542664 -21.591431,-29.855621 -36.645386,-32.5737c-33.806519,-6.103943 -73.559387,2.227386 -109.936188,6.107574c-14.519592,1.548767 -28.361084,9.072205 -42.75296,10.179321c-12.074249,0.928711 -24.430237,-2.714478 -36.645386,-4.071777c0,0 28.501984,8.143433 38.681244,6.107605c10.179291,-2.035828 63.111511,-16.286835 63.111511,-16.286835c28.501984,0 59.130951,-6.381042 85.50589,0c15.699402,3.798218 32.804321,32.421783 40.717102,30.537811c6.338196,-1.509094 6.309204,-28.371948 2.035889,-40.717102c-7.941833,-22.942993 -23.633911,-45.231781 -38.681274,-65.147369c-8.025696,-10.622223 -18.463135,-24.169861 -30.537781,-26.466095c-16.331238,-3.105743 -104.446014,11.900787 -140.47403,22.394379z" id="path1687" stroke-miterlimit="4" stroke-width="12.5" stroke="#385460" fill-rule="evenodd" fill="url(#radialGradient1692)"/>
 </g>
</svg>