<svg xmlns="http://www.w3.org/2000/svg" stroke="#000" stroke-width="0">
<style>
  .s{stroke-width:2}
  .a{fill:#799025}
  .b{fill:#C78A16}
  .w{fill:#FFF}
</style>
<path class="b s" d="M119.8,63.4c-3.2,0.4-16.2-2.3-17.1-12.5-0.8-10.2,3.3-14.6-15-25.6-18.3-10.9-53.9,0.9-65.9,6-11.9,5.1-26.5,23.7-18.9,36.1,7.6,12.5,20.5,15.2,29.6,14.6,9-0.6,6.669-0.3088,6.669-0.3088s-8.67,5.31-2.87,11.11,15.6,3.6,19.9,0c4.3-3.7,19.9-11.6,23.5-14.5,3.6-3,5-1.2,5-1.2s-4.7-3.2,8,6.2,21,14.8,31.5,20.2c10.5,5.5,16.6,5.5,30.4,10.9,13.7,5.5,32.2,8.4,49.5,9.1,17.4,0.7,47.1-5.8,47.1-5.8l35.1-8.7,5.5-12.7s-5.5-39.5-56.2-43.1c-50.5-3.4-115.8,10.2-115.8,10.2z"/>
<circle cx="23" cy="28" r="19" class="w s"/>
<circle cx="53" cy="34.3" r="19.1" class="w s"/>
<circle cx="62" cy="27.5" r="4.5"/>
<circle cx="29.3" cy="21.5" r="4"/>
<circle cx="63.9" cy="26.1" r="2.2" class="w"/>
<circle cx="30.8" cy="20.3" r="2.2" class="w"/>
<path d="M70.2,6.2c-0.3,0.5-2.9-0.8-1.6,1.8s5.1,6.3,6.4,6.6c1.4,0.2,1.9-0.6,1.7-2.4-0.3-1.8-6.2-6.5-6.5-6z"/>
<path d="M17.8,0.1c-0.7-0.1-9,0.4-10.2,3.2-1,2.7,1.5,1.9,2.2,1.5s2.6-0.7,3.5-0.6,3.2,0,4.4-0.4c1.1-0.4,1.2-0.9,1.4-1.7s-0.6-1.8-1.3-2z"/>
<path d="M11.7,72.8c0.8,0,1.4-0.6,1.4-1.3s-0.6-1.4-1.4-1.4-1.4,0.6-1.4,1.4c0,0.8,0.6,1.3,1.4,1.3z"/>
<path d="M47.8,80.9l1.2-2.3s0.1-0.3,2.4-1.1c2.2-0.8,5.3-3.6,5.3-3.6l5.2-4.5,0.8,0.1s-2.8,4.9-3.5,6.3c-0.6,1.4-1.4,5.3-1.4,5.3l-5.5,0.2-4.5-0.4z"/>
<path d="M60.6,64.7c0,0.4-0.9,1.4,0.5,3.5,1.3,2,1.5,1.5,2.9,2.4s2.7,1,2.4-0.1c-0.4-1-3.5-2.2-3.3-3.4,0.3-1.2,1.2-2.4-0.1-3.5-1.6-1.1-2.4,0.7-2.4,1.1z"/>
<path stroke-width="1" fill="#fa9aa3" d="m41.6,87.2c0.4-0.5,4.3-5,5.5-5.9,1.1-0.9,2.2-1.4,3.5-0.6,1.2,0.8,1.8,0.6,1.8,0.6s1.6-1.1,2.4-1.1,2.8,0.4,2.8,0.4l0.21,1.3-4.21,5.5-4.2,1.4s-4,0.1-4.3,0c-0.4-0.1-3.5-0.7-3.5-0.7z"/>
<path d="M52.9,80.3c-1.3,0.6-2.4,2.7-2.7,3.6-0.2,0.9-0.1,0.9,0.5,0.6,0.6-0.2,0.3-1.2,0.8-2.2,0.5-1.1,2.3-1.7,2.3-1.7s0.4-0.9-0.9-0.3z"/>
<path d="M37.3,87.9c0.2,0.9,4.4,0.3,5.8,0.9s4,0.8,5.3,0.8,3.7-0.6,5.3-1.7c1.7-1,4.3-4.3,4.8-6s1.6-3.8,1.6-5.5,0.7-2.7,1.5-4.8,1.1-2.3,1.1-2.3-3.5,2.8-4.2,7.2c-0.6,4.4-1.9,6.6-2.9,7.6-1.1,1-4.7,4.5-7,4.4-2.4-0.1-3-0.5-4.7-0.8-1.7-0.4-3.2-0.6-4.7-0.6-1.3-0.2-2.2,0.1-1.9,0.8z"/>
<path d="M35.9,81.3c-0.1,0.1,7.2-0.7,9.6-1.4s5.7-2.4,5.7-2.4l9.1-6.9,1.3-1.6s1.5-0.6,0.9,0.4c-0.7,0.9-4.2,4.8-4.2,4.8l-7.8,5.3s-2.2,0.9-2.4,1.2c-0.3,0.3-5,1.7-9.1,1.5-2.7-0.2-3-1-3.1-0.9z"/>
<path d="M22.6,76.2c0.8,0,1.4-0.6,1.4-1.3s-0.6-1.3-1.4-1.3-1.4,0.6-1.4,1.3c-0.1,0.7,0.6,1.3,1.4,1.3z"/>
<path class="b" d="M237.3,120.8c0.4,0.2-4.5,2.5-6.8,6.8-2.4,4.3-4.1,7.3-0.9,7.9s7.6,1.5,7.6,1.5-1.7,1.7-0.2,4c1.5,2.4,1.5,1.9,1.5,1.9s-1.9,0.8,0,3.4c1.9,2.5,16.8,5.5,20.9,5.5s29.2-2.4,33.9-6,7.5-5.8,4.9-11.7c-2.5-6-14.5-11.5-14.5-16s-0.6-7.6,2.3-10.2c3-2.5-9.4-7.9-9.4-7.9l-22-0.1s-15.8,3.2-15.8,5.3c0.2,2.1-2,15.4-1.5,15.6z"/>
<path d="M83.5,32c1.2,0,2.2-0.8,2.2-1.8,0-0.9-1-1.8-2.2-1.8s-2.2,0.9-2.2,1.8c-0.1,1,1,1.8,2.2,1.8z"/>
<path d="M90,32.6c0.9,0,1.7-0.8,1.7-1.7s-0.8-1.7-1.7-1.7c-0.9,0-1.7,0.7-1.7,1.7s0.8,1.7,1.7,1.7z"/>
<path d="M89.6,36.2c0.6,0,1-0.4,1-0.8s-0.4-0.7-1-0.7c-0.6,0-1,0.3-1,0.7s0.4,0.8,1,0.8z"/>
<path d="M93.4,44.8c1.2,0,2.1-0.6,2.1-1.3,0-0.8-0.9-1.4-2.1-1.4-1.1,0-2,0.6-2,1.4,0,0.7,0.9,1.3,2,1.3z"/>
<path d="M97.9,43.5c0.9,0,1.6-1,1.6-2.2s-0.7-2.2-1.6-2.2-1.6,1-1.6,2.2,0.7,2.2,1.6,2.2z"/>
<path d="M78,25.5c-0.7-0.2-4.3,0.7-3.2,2,1.1,1.4,0.6,0.9,2.4,0.4,2-0.6,1.6-2.3,0.8-2.4z"/>
<path d="M86.5,32s-4.5-0.7-2.8,1.3c1.7,2.1,3,0.4,3,0.4l-0.2-1.7z"/>
<path d="M97.7,48.2c-1.7,0.2-2.9,0.5-3.1,2.9-0.1,2.4-0.6,3.4,1.4,2.4,2.1-1,2.9-2.1,2.4-3.2s0.8-2.2-0.7-2.1z"/>
<path d="M97.9,58.9c-1.3,1.4-0.8,3.4,0.6,3.2s3.7,0.1,3.4-1.4c-0.3-1.6-2.7-3.2-4-1.8z"/>
<path d="M94.8,56.6c-0.8-0.6-2.1-0.5-1.6,1.4,0.4,1.9,0.4,1.4,1.7,0.6,1.3-0.7,0.7-1.4-0.1-2z"/>
<path d="M89.1,41c0.6,0,1.2-0.4,1.2-0.9s-0.6-0.9-1.2-0.9-1.2,0.4-1.2,0.9,0.5,0.9,1.2,0.9z"/>
<path d="M94.3,39.6c0.9,0,1.7-0.6,1.7-1.3,0-0.8-0.7-1.4-1.7-1.4s-1.7,0.6-1.7,1.4c0.1,0.7,0.8,1.3,1.7,1.3z"/>
<path d="M93.9,34.8c0.4,0,0.9-0.3,0.9-0.6s-0.4-0.6-0.9-0.6c-0.5,0-0.9,0.3-0.9,0.6s0.4,0.6,0.9,0.6z"/>
<path d="M105.1,64.5c0.9,0,1.6-0.6,1.6-1.4s-0.7-1.4-1.6-1.4c-0.9,0-1.6,0.6-1.6,1.4s0.8,1.4,1.6,1.4z"/>
<path d="M167.3,113.8c1.5,0,2.7-1,2.7-2.2s-1.2-2.2-2.7-2.2-2.7,0.9-2.7,2.2c-0.1,1.2,1.2,2.2,2.7,2.2z"/>
<path d="M175.1,113.1c0.8,0,1.4-0.6,1.4-1.2s-0.6-1.2-1.4-1.2-1.4,0.5-1.4,1.2,0.6,1.2,1.4,1.2z"/>
<path d="M173.9,117.8c1.2,0,2.2-0.5,2.2-1.2s-1-1.2-2.2-1.2-2.2,0.5-2.2,1.2,1,1.2,2.2,1.2z"/>
<path d="M179.7,114.6c0.5,0,0.9-0.4,0.9-0.9s-0.4-0.9-0.9-0.9-0.9,0.4-0.9,0.9,0.4,0.9,0.9,0.9z"/>
<path d="M190,115.5c1.2,0,2.2-0.6,2.2-1.5s-0.9-1.5-2.2-1.5c-1.2,0-2.2,0.6-2.2,1.5,0.1,0.9,1.1,1.5,2.2,1.5z"/>
<path d="M190,120.8c1.2,0,2.2-0.8,2.2-1.7s-1-1.7-2.2-1.7c-1.2,0-2.2,0.8-2.2,1.7s0.9,1.7,2.2,1.7z"/>
<path d="M182,118.9c1.6,0,2.9-0.8,2.9-1.7s-1.3-1.7-2.9-1.7-2.9,0.8-2.9,1.7c0,0.9,1.3,1.7,2.9,1.7z"/>
<path d="M196.9,119.6c1.2,0,2.2-0.9,2.2-1.9,0-1.1-1-1.9-2.2-1.9-1.3,0-2.2,0.9-2.2,1.9-0.1,1,0.9,1.9,2.2,1.9z"/>
<path d="M200.8,114.1c0.6,0,1.2-0.5,1.2-1.1s-0.6-1.2-1.2-1.2-1.2,0.5-1.2,1.2c-0.1,0.6,0.5,1.1,1.2,1.1z"/>
<path d="M203.1,119.7c0.9,0,1.7-0.8,1.7-1.7s-0.8-1.7-1.7-1.7-1.7,0.8-1.7,1.7c0.1,0.9,0.8,1.7,1.7,1.7z"/>
<path d="M208.8,117.3c0.7,0,1.3-0.6,1.3-1.3s-0.6-1.3-1.3-1.3-1.3,0.6-1.3,1.3,0.6,1.3,1.3,1.3z"/>
<path d="M215.3,115.5c1.1,0,2-0.8,2-1.7,0-1-0.9-1.8-2-1.8s-2,0.8-2,1.8c0,0.9,0.9,1.7,2,1.7z"/>
<path d="M213.5,119.7c1.3,0,2.4-0.8,2.4-1.7s-1.1-1.7-2.4-1.7c-1.4,0-2.4,0.8-2.4,1.7s1,1.7,2.4,1.7z"/>
<path d="M208,122.1c0.9,0,1.6-0.6,1.6-1.4s-0.7-1.4-1.6-1.4c-0.9,0-1.6,0.6-1.6,1.4s0.8,1.4,1.6,1.4z"/>
<path d="M221.6,117c1,0,1.8-0.7,1.8-1.6s-0.8-1.6-1.8-1.6-1.9,0.7-1.9,1.6c0,0.8,0.9,1.6,1.9,1.6z"/>
<path d="M221.7,121.6c0.9,0,1.7-0.5,1.7-1.1s-0.7-1-1.7-1-1.7,0.4-1.7,1c0.1,0.6,0.8,1.1,1.7,1.1z"/>
<path d="M227.5,117.9c1.1,0,2-0.9,2-1.9,0-1.2-0.9-2-2-2s-2,0.9-2,2c0,1,0.9,1.9,2,1.9z"/>
<path d="M234.3,118.4c1.2,0,2.2-0.9,2.2-1.9s-0.9-1.9-2.2-1.9c-1.2,0-2.2,0.9-2.2,1.9,0.1,1,1.1,1.9,2.2,1.9z"/>
<path d="M242,116.3c1.1,0,2-0.4,2-0.9s-0.9-0.9-2-0.9-2,0.4-2,0.9c0,0.5,0.9,0.9,2,0.9z"/>
<path d="M247.8,115.4c1,0,1.8-0.9,1.8-1.9s-0.8-1.9-1.8-1.9-1.9,0.9-1.9,1.9,0.9,1.9,1.9,1.9z"/>
<path d="M256.9,116.8c1.1,0,1.9-0.8,1.9-1.7s-0.9-1.7-1.9-1.7-1.9,0.8-1.9,1.7c0.1,0.9,0.9,1.7,1.9,1.7z"/>
<path d="M259.4,120.8c0.8,0,1.4-0.4,1.4-1s-0.6-1-1.4-1-1.4,0.4-1.4,1c-0.1,0.5,0.6,1,1.4,1z"/>
<path d="M261.2,114.9c0.6,0,1-0.6,1-1.4,0-0.7-0.4-1.3-1-1.3-0.5,0-0.9,0.6-0.9,1.3,0,0.8,0.4,1.4,0.9,1.4z"/>
<path d="m235.2,120.9c-2.9,3.6-9.5,7.5-8.1,12.3s2.9,4,5.8,4.6,3.3,0,3.3,0-1.3,3-0.1,4.5,1.2,1.8,1.2,1.8-1.7,4.8,7,7.2c8.6,2.4,29.7,0.4,34.1,0,4.3-0.5,18.9-3,20.8-8.3s2.4-5-1.7-10.7c-4-5.6-10.7-8.8-11.8-11.2-1.2-2.4-1.9-3.9-1-6.1s1-5.3,1-5.3-3.2-1.7-3.7,0.6c-0.4,2.2-2.2,4.2-1.6,7,0.6,2.7,3.4,8,7.1,10.7s9.6,6.6,9.6,9.4c0,2.9-2.6,4.2-6.4,6.1s-11,4.6-21.1,5.9-21.36,1.794-24.86-0.9059-3.344-2.894-3.444-5.494c-0.1-2.5,1.4-3.8,4-5.8,2.5-1.9,7.2-4.9,9.1-5.1,1.9-0.1,1.8-1.9-1.1-1.2-2.9,0.6-11.5,5.9-12.7,7.3-1.1,1.4-2.5,2.5-2.5,2.5s-0.5-2.5,1.7-5c2.2-2.4,5.9-7.1,9.3-8.6,3.4-1.4,4.2-2.6,4.2-2.6s4.1,5.4,6,5.4,2.6-0.3,1.2-2c-1.4-1.8-4.7-3.5-6.4-8-1.8-4.5-3.7-7-3.2-9.1s-4-3.7-3.5-0.4c0.5,3.4,0.6,6,2.6,8.4,1.9,2.4,1.8,3,1.8,3s-1.2,2.2-4.7,4c-3.5,1.7-10.1,9.4-10.1,9.4s-0.1,1.6-2.5,0.9-4.8-0.6-4.7-3.7c0.2-3,0.4-5.3,3.9-7.8s4.2-3,4.3-3.8c1.2-0.7,0.1-3.5-2.8,0.1z"/>
<path d="M101.3,54.6s-4.5-0.7-2.8,1.4c1.7,2,3,0.4,3,0.4l-0.2-1.8z"/>
<path d="M100,47.6c0.5,0,0.9-0.3,0.9-0.6,0-0.4-0.4-0.6-0.9-0.6s-0.9,0.3-0.9,0.6c0.1,0.3,0.4,0.6,0.9,0.6z"/>
<path class="b s" d="M290.6,110s-2.8,1.8-0.3,4.6,6.7,5.8,10.7,5.8,7.9-1.1,10.7-2.5c2.8-1.5,8.1-6.3,8.1-9.4s-1.5-1-5.1,0c-3.5,1.1-7.1,1.1-7.6,0-0.4-1-2.8-0.1-6.1,1.1-3.3,1.1-10.4,0.4-10.4,0.4z"/>
<path class="b" d="m132.3,106.1s-3.8,2.2-2.4,8.1,0.1,6.3,0.1,6c0-0.2-18.09,8.999-18.19,14.6-0.1,5.6,0.2912,7.701,0.2912,7.701l1.7,0.6s-1.5,2,1,2.9c2.4,0.9,16.3,6.6,32.1,5.6s19.6-6.3,19.4-8.9c-0.3-2.4-3.5-6.7-2.7-7.2,0.7-0.5,8.1-2.7,9.1-4.7,1.2-2-0.1-2.8-1.9-5.8-1.9-3-2.3-5.6-1.7-7.3s-3-1.2-3-1.2l-13-5.2z"/>
<path d="M138.4,107.4c0.9,0,1.6-0.9,1.6-2.1s-0.7-2.1-1.6-2.1-1.6,0.9-1.6,2.1,0.7,2.1,1.6,2.1z"/>
<path d="M136.8,116.2c1,0,1.9-0.6,1.9-1.4,0-0.7-0.9-1.4-1.9-1.4-1.1,0-1.9,0.6-1.9,1.4s0.8,1.4,1.9,1.4z"/>
<path d="M137.7,111.2c0.9,0,1.5-0.6,1.5-1.3,0-0.6-0.6-1.2-1.5-1.2s-1.5,0.6-1.5,1.2c0,0.7,0.6,1.3,1.5,1.3z"/>
<path d="M133.9,112.5c0.8,0,1.5-0.6,1.5-1.4s-0.7-1.4-1.5-1.4c-0.9,0-1.5,0.6-1.5,1.4s0.6,1.4,1.5,1.4z"/>
<path d="M138.9,101.4c-0.1-0.3-6.6-1.1-8.4,4.7-1.7,5.8-3,8.9-1.6,12.7,1.4,3.9-2.5-5.1-13.1,9.3-10.5,14.4-4.8,13.1-3.4,15.2s0.9,0.3,0.9,0.3-1.9,1.2,0.1,2.6,14.8,5.8,20.6,6c5.8,0.4,22.2-0.1,28.4-4.1,6.3-4,6.1-6.1,4.2-8.6-1.9-2.6-1.9-3.4-1.9-3.4s1.1-0.3,3.7-1.4c2.5-1.1,4.8-1.7,4.8-4.8,0-3-3-5.7-3.3-7.6-0.4-1.9,1.1-4.3-0.9-4.3-1.9,0-2.4,1.9-1.2,3.8,1.1,1.9,4,5.8,3,7.2s-4.8,6.3-7.7,4.8-4.8-5.3-5.5-9.6c-0.6-4.3-2.9-6-1.7-8.5,1.3-2.6,6.2-7.8,6.2-8.8s-3.6-0.6-6,2.9-3.4,6.8-2.7,9.7c0.6,2.9,3,11,5.1,13.6,2,2.5,5.2,6.4,4.4,9.1s-5.7,5.3-8.7,6c-3,0.6-11,3.3-23.5,0.9s-13.1-4-14.1-5.1c-0.9-1.2-2.1-1.2-3.7-2.4-1.6-1.3-0.8-3.7,0.4-5.6,1.1-1.9,4.5-6.7,7.3-9.8,2.9-3,8.4-5.4,11-4.9,2.5,0.4-0.4-1.3-0.5-3.1-0.1-1.7,0.5-6.3,1-8.4,0.4-2.1,0.6-5.6,2.5-5.8,2.1-0.1,4.5-2.2,4.3-2.6z"/>
<path d="M131,128.1c-0.6-1.5-7.7,1.7-12,6.8-4.2,5.1-4.9,7.4-4.9,7.4s-2.4,1.3,0.2,2.2c2.6,0.9,1.7,1.1,2.7-2.2,1.1-3.2,4.1-6.8,6.8-8.9,2.8-2.2,7.1-3.5,5.5-3.2,0.2,0,2.3-0.6,1.7-2.1z"/>
<g id="shell" class="a s">
<path d="M155.4,42.7c0.7,0.2,11.5-14.3,23.9-17.3,12.5-3,24-0.5,25.8,2.4s-1.6,12.7-4.1,14.5c-2.6,1.9-1.9,0.7-6.4,3.7s-6,4.5-6,4.5-0.4-7.9-9.8-6.8c-9.4,1.1-17.3,1.9-17.3,1.9s-6.9-3-6.1-2.9z"/>
<path d="M205.2,28.9c1.7-2.2,2.2-5.3,12.5-4.8,10.4,0.6,9.5,2.5,10.1,7.1,0.6,4.5-3.5,13.8-3.5,13.8s0.9,1.4-3.6,3.2c-4.5,1.9-7.7,5.8-7.7,5.8s-4.5-7.7-8.5-8.1c-3.9-0.4-3.7-3.2-3.7-3.2,1.8-3.5,2.8-11.6,4.4-13.8z"/>
<path d="M228,32.5c-0.9-6.5,4.2-6,9.1-6.1,5-0.1,7.4,1.9,9.9,6.2,2.4,4.2,4,11.3,4,11.3s0.9,3.5-3.6,5.8c-4.5,2.2-6.2,3.6-6.2,3.6s-4.4-6.6-9.4-6.3c-5.1,0.4-7.1-1.9-7.1-1.9-0.4,0.4,4.1-6,3.3-12.6z"/>
<path d="M246.3,29.3c0.4-1.4,9.1-2.3,14.3,1.1,5,3.4,14.1,14.3,14.1,14.3l0.6,2.7s-6.3,2.1-8.5,4.5-3.7,3-4,2c-0.1-0.9-9-5.3-11.4-6-2.4-0.8,0.6-5.5-1.7-9.4-1.3-5.4-3.8-7.8-3.4-9.2z"/>
<path d="M273.3,69.4c-0.9-0.4-4-14.6-7.4-16.1-3.4-1.4,8.4-7.2,12.7-6.3s11.4,8.3,14.1,10.7c2.7,2.5,7.1,10.4,4,11.5-3.2,1-0.9,0.4-5.3,1.1-4.4,0.8-4.8,4-6,3.4-1.3-0.4-11.1-3.8-12.1-4.3z"/>
<path d="M243.6,67c0-0.1-1.2-11.8-2.3-13s5.7-6,12.5-5.3,12,4.2,14.8,8.4c2.9,4.1,3.4,10.4,3.4,10.4s1.7,4-3.2,4.3c-4.9,0.4-7.9,5.7-8.5,6-0.6,0.4-0.4-4-4.9-6.6-4.5-2.5-11.8-4-11.8-4.2z"/>
<path d="M213.1,53.5s5.3-8.6,15.9-8.1c10.7,0.6,13.5,7.2,14.4,10.4s1.5,10.2,1.5,10.2-4.7,3.2-8.1,5.5c-3.4,2.2-5,5.7-5,5.7s-3.6-7.6-7-8.9c-3.4-1.4-10.7-1.2-10.7-1.2l-1-13.6z"/>
<path d="M187.9,50.6c0.8-2.3,3.2-9.9,14.5-7.3s10.5,6.7,11.5,12.3c1,5.7,0.7,8.6,0.5,8.9l-2.2,3.1s-6.8,2.7-7.9,4.8c-1.2,2-2.7-5.7-7.7-5.8-5.1-0.2-13.4,0.5-11.5-1.2,2-1.8,2-12.6,2.8-14.8z"/>
<path d="M144.1,63.3s12.7-19.9,24.3-21.7c11.7-1.9,18.7,2.2,19.7,6.7,0.9,4.5,1.6,10.4,0.6,13.6-0.9,3.2-1.2,2.7-2.4,3.5-1.2,0.7-9.6,5.8-9.6,5.8s-0.2-7.9-6.4-7.7c-6.3,0.1-14,4.9-14,4.9s-3-4.8-6-4.5-6.2-0.6-6.2-0.6z"/>
<path d="M121.5,63c0.2-0.5,18.1-21.5,28.4-21.7,10.2-0.1,9.4,3.2,9.4,3.2s-1.9,2.4-4.7,5.5c-2.8,3-8.3,11.9-8.3,11.9l-1.2,2.4s-9.9,0.9-10.2,3.2c-0.1,2.3,0-4-5-3.5-5,0.4-8.6-0.4-8.4-1z"/>
<path d="M100,80c-1.5,0,17.2-22.3,27.7-19.1s7,5.5,6.6,8.7c-0.5,3.1-4.2,10.9-5.8,11.4-1.8,0.7-27-1-28.5-1z"/>
<path d="M135,67.8c-0.4-1.5,7-8.4,13.5-6.7,6.6,1.8,8.5,3.3,7.6,8s-3.7,12-3.7,12-7.6,2.1-13.8,1.5-9.8-2-9.8-2,6.6-11.3,6.2-12.8z"/>
<path d="M157.8,67.2s4.6-5.7,12.2-4.2c7.6,1.6,10.2,2.7,9.4,7-0.7,4.3,0.4,8.9-2.6,12.5-3,3.5-3.8,4-7.2,2.6-3.4-1.3-16.8-3.2-16.8-3.2s0.7-4,2.4-7.7c1.4-3.3,2.6-7,2.6-7z"/>
<path d="M179.7,69.9c0.8-1.2,7.9-7.1,15.3-5.5,7.3,1.5,10,4.7,10.4,9.4,0.4,4.8,0.6,16.4-4,16.4s-8.3-1.5-11.3-1.9-16.2-1.5-15.4-3.2c0.7-1.7,5-15.2,5-15.2z"/>
<path d="M204.8,71.7c-0.4-0.8,8.5-9.4,15.8-6.3,7.3,3.2,8.4,5.3,9.8,8.5,1.3,3.2,1.1,8.5,1.1,9.8s0.9,9,0,9-14.8,1-19.9,0.2c-5-0.7-9.4-0.6-9.4-2.8s3-17.6,2.6-18.4z"/>
<path d="M231.1,75.5s3.1-9.4,13.6-8.3c10.4,1.1,11.4,3,13.7,6.8,2.3,3.7,4.5,15,4.5,15s4.5,3.7-2.3,4.2c-6.8,0.4-28.9,1.7-28.9,0.4s-0.6-9.1-0.6-9.1v-9z"/>
<path d="M260.3,75.5c0.6-2.4,2.6-7.6,12.5-6.9s10.9,2.9,13.5,6.3c2.7,3.5,3.6,13.2,3.6,13.2s3,3-0.6,3c-3.6,0-16,0.9-18.3,0.9-2.2,0-9.2,0.9-9.2,0.9s-0.7-6-1.2-9c-0.3-2.9-0.9-6-0.3-8.4z"/>
<path d="M287.5,73.8c-0.4-2.9,1.9-8.9,10.8-6.6,8.9,2.4,9.4,9.5,10.4,12.5,1.2,3,4.2,12.3-1.2,12.1-5.3-0.1-18.1-0.9-18.1-0.9s1.2-6-0.4-9.4c-1.7-3.4-1.3-4.8-1.5-7.7z"/>
<path d="M102.8,80.4s-5.4-2.3-8.1,0.5c-2.7,2.9-8.5,8.9-7.8,12.8s2.3,8.4,9.4,9.1,18.1-3.7,22.8-3.7c4.6,0,21.8-3.9,30.2-1.4s32.6,2.5,44,7.8,37.5,1.9,40.8,1.8c3.2-0.2,37.2-3,44.8,0.5s15.3,3.5,21.2,2.4c5.8-1,14.5-9.9,13.7-14-0.9-4-2.7-6.7-22.4-5.1s-54.4,2.7-62.4,2.3-29.7-2.7-39.1-4.5c-9.4-1.7-35.6-7.8-48.5-7.4-12.9,0.3-38.6-1.1-38.6-1.1z"/>
</g>
</svg>