<?xml version="1.0" encoding="UTF-8" standalone="no"?>
<!-- Created with Inkscape (http://www.inkscape.org/) -->
<svg xmlns:dc="http://purl.org/dc/elements/1.1/" xmlns:cc="http://creativecommons.org/ns#" xmlns:rdf="http://www.w3.org/1999/02/22-rdf-syntax-ns#" xmlns:svg="http://www.w3.org/2000/svg" xmlns="http://www.w3.org/2000/svg" xmlns:xlink="http://www.w3.org/1999/xlink" xmlns:sodipodi="http://sodipodi.sourceforge.net/DTD/sodipodi-0.dtd" xmlns:inkscape="http://www.inkscape.org/namespaces/inkscape" viewBox="0 0 391 211" inkscape:version="0.48.1 r9760" sodipodi:docname="New document 1">
  <defs id="defs4">
    <linearGradient id="linearGradient3841">
      <stop id="stop3843" offset="0" style="stop-color:#000000;stop-opacity:1;"/>
      <stop id="stop3845" offset="1" style="stop-color:#f7f7f7;stop-opacity:1;"/>
    </linearGradient>
    <radialGradient r="15.7572" fy="39.5928" fx="25.0527" cy="39.5928" cx="25.0527" gradientTransform="matrix(1.25,0,0,1.25,8.2048813,-12.847228)" gradientUnits="userSpaceOnUse" id="radialGradient4949" xlink:href="#aigrd2" inkscape:collect="always"/>
    <inkscape:perspective sodipodi:type="inkscape:persp3d" inkscape:vp_x="0 : 24 : 1" inkscape:vp_y="0 : 1000 : 0" inkscape:vp_z="48 : 24 : 1" inkscape:persp3d-origin="24 : 16 : 1" id="perspective39"/>
    <linearGradient id="linearGradient3290">
      <stop id="stop3292" offset="0.0000000" style="stop-color:#fffcde;stop-opacity:1.0000000;"/>
      <stop style="stop-color:#f6e76a;stop-opacity:1.0000000;" offset="0.64485979" id="stop3294"/>
      <stop id="stop3296" offset="1.0000000" style="stop-color:#ffb738;stop-opacity:1.0000000;"/>
    </linearGradient>
    <radialGradient r="8.9020796" fy="15.755712" fx="29.158466" cy="15.720984" cx="29.288071" gradientUnits="userSpaceOnUse" id="radialGradient2714" xlink:href="#linearGradient3290" inkscape:collect="always"/>
    <linearGradient id="linearGradient2509">
      <stop style="stop-color:#fffbd5;stop-opacity:1.0000000;" offset="0.0000000" id="stop2511"/>
      <stop style="stop-color:#edd400;stop-opacity:1.0000000;" offset="1.0000000" id="stop2513"/>
    </linearGradient>
    <radialGradient gradientTransform="matrix(1.25,0,0,1.25,-6.479446,-13.37211)" id="aigrd2" cx="25.0527" cy="39.5928" r="15.7572" fx="25.0527" fy="39.5928" gradientUnits="userSpaceOnUse">
      <stop offset="0.0000000" style="stop-color:#777777;stop-opacity:1.0000000;" id="stop8602"/>
      <stop offset="1" style="stop-color:#000000" id="stop8604"/>
    </radialGradient>
    <linearGradient id="linearGradient4565" inkscape:collect="always">
      <stop id="stop4567" offset="0" style="stop-color:#000000;stop-opacity:1;"/>
      <stop id="stop4569" offset="1" style="stop-color:#000000;stop-opacity:0;"/>
    </linearGradient>
    <linearGradient id="linearGradient3824">
      <stop id="stop3826" offset="0" style="stop-color:#ffffff;stop-opacity:1;"/>
      <stop id="stop3828" offset="1.0000000" style="stop-color:#c9c9c9;stop-opacity:1.0000000;"/>
    </linearGradient>
    <linearGradient id="linearGradient3800">
      <stop id="stop3802" offset="0.0000000" style="stop-color:#ffeed6;stop-opacity:1.0000000;"/>
      <stop style="stop-color:#e49c2f;stop-opacity:1.0000000;" offset="0.50000000" id="stop8664"/>
      <stop id="stop3804" offset="1.0000000" style="stop-color:#ffc66c;stop-opacity:1.0000000;"/>
    </linearGradient>
    <radialGradient gradientUnits="userSpaceOnUse" gradientTransform="matrix(1,0,0,0.333333,0,25.71429)" r="19.714285" fy="38.57143" fx="24.714285" cy="38.57143" cx="24.714285" id="radialGradient4571" xlink:href="#linearGradient4565" inkscape:collect="always"/>
    <linearGradient inkscape:collect="always" xlink:href="#linearGradient3841" id="linearGradient3839" x1="460" y1="622.36218" x2="420" y2="522.36218" gradientUnits="userSpaceOnUse"/>
    <linearGradient inkscape:collect="always" xlink:href="#linearGradient3841" id="linearGradient3863" gradientUnits="userSpaceOnUse" x1="460" y1="622.36218" x2="420" y2="522.36218"/>
    <radialGradient inkscape:collect="always" xlink:href="#linearGradient4565" id="radialGradient3883" gradientUnits="userSpaceOnUse" gradientTransform="matrix(1,0,0,0.333333,0,25.71429)" cx="24.714285" cy="38.57143" fx="24.714285" fy="38.57143" r="19.714285"/>
    <radialGradient inkscape:collect="always" xlink:href="#linearGradient3290" id="radialGradient3885" gradientUnits="userSpaceOnUse" cx="29.288071" cy="15.720984" fx="29.158466" fy="15.755712" r="8.9020796"/>
    <radialGradient inkscape:collect="always" xlink:href="#aigrd2" id="radialGradient3887" gradientUnits="userSpaceOnUse" gradientTransform="matrix(1.25,0,0,1.25,8.2048813,-12.847228)" cx="25.0527" cy="39.5928" fx="25.0527" fy="39.5928" r="15.7572"/>
    <radialGradient inkscape:collect="always" xlink:href="#linearGradient4565" id="radialGradient3907" gradientUnits="userSpaceOnUse" gradientTransform="matrix(1,0,0,0.333333,0,25.71429)" cx="24.714285" cy="38.57143" fx="24.714285" fy="38.57143" r="19.714285"/>
    <radialGradient inkscape:collect="always" xlink:href="#linearGradient3290" id="radialGradient3909" gradientUnits="userSpaceOnUse" cx="29.288071" cy="15.720984" fx="29.158466" fy="15.755712" r="8.9020796"/>
    <radialGradient inkscape:collect="always" xlink:href="#aigrd2" id="radialGradient3911" gradientUnits="userSpaceOnUse" gradientTransform="matrix(1.25,0,0,1.25,8.2048813,-12.847228)" cx="25.0527" cy="39.5928" fx="25.0527" fy="39.5928" r="15.7572"/>
    <linearGradient inkscape:collect="always" xlink:href="#linearGradient3841" id="linearGradient3913" gradientUnits="userSpaceOnUse" x1="460" y1="622.36218" x2="420" y2="522.36218"/>
  </defs>
  <sodipodi:namedview id="base" pagecolor="#ffffff" bordercolor="#666666" borderopacity="1.0" inkscape:pageopacity="0.0" inkscape:pageshadow="2" inkscape:zoom="1.4" inkscape:cx="165.30187" inkscape:cy="136.64826" inkscape:document-units="px" inkscape:current-layer="layer1" showgrid="true" fit-margin-top="0" fit-margin-left="0" fit-margin-right="0" fit-margin-bottom="0" inkscape:window-width="1403" inkscape:window-height="762" inkscape:window-x="69" inkscape:window-y="111" inkscape:window-maximized="0">
    <inkscape:grid type="xygrid" id="grid3055" empspacing="5" visible="true" enabled="true" snapvisiblegridlinesonly="true"/>
  </sodipodi:namedview>
  <metadata id="metadata7">
    <rdf:RDF>
      <cc:Work rdf:about="">
        <dc:format>image/svg+xml</dc:format>
        <dc:type rdf:resource="http://purl.org/dc/dcmitype/StillImage"/>
        <dc:title/>
      </cc:Work>
    </rdf:RDF>
  </metadata>
  <g inkscape:label="Layer 1" inkscape:groupmode="layer" id="layer1" transform="translate(-109.5,-441.86218)">
    <g transform="translate(-142.85714,269.99484)" id="layer1-7" inkscape:label="Layer 1">
      <g transform="translate(438.14286,250.36734)" inkscape:label="Layer 1" id="layer1-3">
        <path d="m 44.42857,38.57143 c 0,3.6293 -8.826386,6.571429 -19.714285,6.571429 C 13.826386,45.142859 5,42.20073 5,38.57143 c 0,-3.6293 8.826386,-6.571429 19.714285,-6.571429 10.887899,0 19.714285,2.942129 19.714285,6.571429 z" sodipodi:ry="6.5714288" sodipodi:rx="19.714285" sodipodi:cy="38.57143" sodipodi:cx="24.714285" id="path4563" style="opacity:0.53164559;color:#000000;fill:url(#radialGradient4571);fill-opacity:1;fill-rule:evenodd;stroke:none;stroke-width:0.40487173;marker:none;visibility:visible;display:inline;overflow:visible" sodipodi:type="arc"/>
        <path transform="matrix(2.083142,0,0,2.083142,-40.54715,-16.49224)" d="m 39.774755,19.008621 c 0,4.783923 -3.878135,8.662058 -8.662057,8.662058 -4.783923,0 -8.662058,-3.878135 -8.662058,-8.662058 0,-4.783922 3.878135,-8.662058 8.662058,-8.662058 4.783922,0 8.662057,3.878136 8.662057,8.662058 z" sodipodi:ry="8.6620579" sodipodi:rx="8.6620579" sodipodi:cy="19.008621" sodipodi:cx="31.112698" id="path4320" style="color:#000000;fill:url(#radialGradient2714);fill-opacity:1;fill-rule:evenodd;stroke:#9c8c0a;stroke-width:0.48004404;stroke-linecap:round;stroke-linejoin:round;stroke-miterlimit:4;stroke-opacity:1;stroke-dasharray:none;stroke-dashoffset:0;marker:none;visibility:visible;display:inline;overflow:visible" sodipodi:type="arc"/>
        <path inkscape:connector-curvature="0" sodipodi:nodetypes="zcccz" id="path2659" d="m 38.26877,32.094945 c -0.333203,0.539442 -0.514155,0.78255 -0.834475,1.240275 -6.100017,0 -8.853013,-3.44003 -11.639952,-8.267149 2.549413,3.05592 6.148771,6.274314 12.95315,6.274314 -0.385067,0.639237 -0.14552,0.213119 -0.478723,0.75256 z" style="opacity:0.36000001;color:#000000;fill:#ffffff;fill-opacity:1;fill-rule:nonzero;stroke:none;stroke-width:1;marker:none;visibility:visible;display:inline;overflow:visible"/>
        <path inkscape:connector-curvature="0" style="fill:url(#radialGradient4949);fill-rule:nonzero;stroke:none" d="m 38.355581,31.979727 c -0.166628,0.271221 -0.277398,0.411635 -0.858152,1.232383 -6.100017,0 -8.916147,-4.024024 -11.703086,-8.851143 2.549413,3.05592 6.338175,6.613663 13.142554,6.613663 -0.235122,0.402488 -0.414689,0.733876 -0.581316,1.005097 z" id="path8606" sodipodi:nodetypes="zcccz"/>
        <path id="path8610" d="m 38.292959,18.471749 c 0,2.5 -1.125,4.5 -2.5,4.5 -1.375,0 -2.625,-2 -2.625,-4.5 0,-2.5 1.125,-4.5 2.5,-4.5 1.375,0 2.5,2 2.5,4.5 l 0.125,0 z" style="opacity:0.36000001;fill:#ffffff;fill-rule:nonzero;stroke:none" inkscape:connector-curvature="0"/>
        <path id="path8614" d="m 38.292959,17.846749 c 0,2.5 -1.125,4.5 -2.5,4.5 -1.375,0 -2.5,-2 -2.5,-4.5 0,-2.5 1.125,-4.5 2.5,-4.5 1.375,0 2.5,2 2.5,4.5 z" style="fill:#000000;fill-rule:nonzero;stroke:none" inkscape:connector-curvature="0"/>
        <path transform="matrix(1.979782,0,0,1.979782,-37.33128,-14.52746)" sodipodi:type="arc" style="opacity:0.67721522;color:#000000;fill:none;stroke:#ffffff;stroke-width:0.50510609;stroke-linecap:round;stroke-linejoin:round;stroke-miterlimit:4;stroke-opacity:1;stroke-dasharray:none;stroke-dashoffset:0;marker:none;visibility:visible;display:inline;overflow:visible" id="path4322" sodipodi:cx="31.112698" sodipodi:cy="19.008621" sodipodi:rx="8.6620579" sodipodi:ry="8.6620579" d="m 39.774755,19.008621 c 0,4.783923 -3.878135,8.662058 -8.662057,8.662058 -4.783923,0 -8.662058,-3.878135 -8.662058,-8.662058 0,-4.783922 3.878135,-8.662058 8.662058,-8.662058 4.783922,0 8.662057,3.878136 8.662057,8.662058 z"/>
      </g>
    </g>
    <g id="g3847">
      <path inkscape:connector-curvature="0" id="path3827" d="m 370,452.36218 110,70 0,120 0,10 -110,-70 z" style="fill:#a05a2c;stroke:#000000;stroke-width:1px;stroke-linecap:butt;stroke-linejoin:miter;stroke-opacity:1"/>
      <path inkscape:connector-curvature="0" id="path3057" d="m 380,472.36218 80,50 0,100 -80,-50 z" style="fill:url(#linearGradient3913);fill-opacity:1;stroke:#000000;stroke-width:1px;stroke-linecap:butt;stroke-linejoin:miter;stroke-opacity:1"/>
      <path inkscape:connector-curvature="0" id="path3829" d="m 480,522.36218 20,-10 -110,-70 -20,10 110,70 z" style="fill:#c87137;stroke:#000000;stroke-width:1px;stroke-linecap:butt;stroke-linejoin:miter;stroke-opacity:1"/>
      <path inkscape:connector-curvature="0" id="path3831" d="m 480,652.36218 0,-130 20,-10 0,130 z" style="fill:#784421;fill-opacity:1;stroke:#000000;stroke-width:1px;stroke-linecap:butt;stroke-linejoin:miter;stroke-opacity:1"/>
    </g>
    <g id="g3853" transform="matrix(-1,0,0,1,610,0)">
      <path style="fill:#a05a2c;stroke:#000000;stroke-width:1px;stroke-linecap:butt;stroke-linejoin:miter;stroke-opacity:1" d="m 370,452.36218 110,70 0,120 0,10 -110,-70 z" id="path3855" inkscape:connector-curvature="0"/>
      <path style="fill:url(#linearGradient3863);fill-opacity:1;stroke:#000000;stroke-width:1px;stroke-linecap:butt;stroke-linejoin:miter;stroke-opacity:1" d="m 380,472.36218 80,50 0,100 -80,-50 z" id="path3857" inkscape:connector-curvature="0"/>
      <path style="fill:#c87137;stroke:#000000;stroke-width:1px;stroke-linecap:butt;stroke-linejoin:miter;stroke-opacity:1" d="m 480,522.36218 20,-10 -110,-70 -20,10 110,70 z" id="path3859" inkscape:connector-curvature="0"/>
      <path style="fill:#784421;fill-opacity:1;stroke:#000000;stroke-width:1px;stroke-linecap:butt;stroke-linejoin:miter;stroke-opacity:1" d="m 480,652.36218 0,-130 20,-10 0,130 z" id="path3861" inkscape:connector-curvature="0"/>
    </g>
    <g inkscape:label="Layer 1" id="g3865" transform="matrix(-1,0,0,1,883.9372,269.99484)">
      <g id="g3867" inkscape:label="Layer 1" transform="translate(438.14286,250.36734)">
        <path sodipodi:type="arc" style="opacity:0.53164559;color:#000000;fill:url(#radialGradient3883);fill-opacity:1;fill-rule:evenodd;stroke:none;stroke-width:0.40487173;marker:none;visibility:visible;display:inline;overflow:visible" id="path3869" sodipodi:cx="24.714285" sodipodi:cy="38.57143" sodipodi:rx="19.714285" sodipodi:ry="6.5714288" d="m 44.42857,38.57143 c 0,3.6293 -8.826386,6.571429 -19.714285,6.571429 C 13.826386,45.142859 5,42.20073 5,38.57143 c 0,-3.6293 8.826386,-6.571429 19.714285,-6.571429 10.887899,0 19.714285,2.942129 19.714285,6.571429 z"/>
        <path sodipodi:type="arc" style="color:#000000;fill:url(#radialGradient3885);fill-opacity:1;fill-rule:evenodd;stroke:#9c8c0a;stroke-width:0.48004404;stroke-linecap:round;stroke-linejoin:round;stroke-miterlimit:4;stroke-opacity:1;stroke-dasharray:none;stroke-dashoffset:0;marker:none;visibility:visible;display:inline;overflow:visible" id="path3871" sodipodi:cx="31.112698" sodipodi:cy="19.008621" sodipodi:rx="8.6620579" sodipodi:ry="8.6620579" d="m 39.774755,19.008621 c 0,4.783923 -3.878135,8.662058 -8.662057,8.662058 -4.783923,0 -8.662058,-3.878135 -8.662058,-8.662058 0,-4.783922 3.878135,-8.662058 8.662058,-8.662058 4.783922,0 8.662057,3.878136 8.662057,8.662058 z" transform="matrix(2.083142,0,0,2.083142,-40.54715,-16.49224)"/>
        <path style="opacity:0.36000001;color:#000000;fill:#ffffff;fill-opacity:1;fill-rule:nonzero;stroke:none;stroke-width:1;marker:none;visibility:visible;display:inline;overflow:visible" d="m 38.26877,32.094945 c -0.333203,0.539442 -0.514155,0.78255 -0.834475,1.240275 -6.100017,0 -8.853013,-3.44003 -11.639952,-8.267149 2.549413,3.05592 6.148771,6.274314 12.95315,6.274314 -0.385067,0.639237 -0.14552,0.213119 -0.478723,0.75256 z" id="path3873" sodipodi:nodetypes="zcccz" inkscape:connector-curvature="0"/>
        <path sodipodi:nodetypes="zcccz" id="path3875" d="m 38.355581,31.979727 c -0.166628,0.271221 -0.277398,0.411635 -0.858152,1.232383 -6.100017,0 -8.916147,-4.024024 -11.703086,-8.851143 2.549413,3.05592 6.338175,6.613663 13.142554,6.613663 -0.235122,0.402488 -0.414689,0.733876 -0.581316,1.005097 z" style="fill:url(#radialGradient3887);fill-rule:nonzero;stroke:none" inkscape:connector-curvature="0"/>
        <path inkscape:connector-curvature="0" style="opacity:0.36000001;fill:#ffffff;fill-rule:nonzero;stroke:none" d="m 38.292959,18.471749 c 0,2.5 -1.125,4.5 -2.5,4.5 -1.375,0 -2.625,-2 -2.625,-4.5 0,-2.5 1.125,-4.5 2.5,-4.5 1.375,0 2.5,2 2.5,4.5 l 0.125,0 z" id="path3877"/>
        <path inkscape:connector-curvature="0" style="fill:#000000;fill-rule:nonzero;stroke:none" d="m 38.292959,17.846749 c 0,2.5 -1.125,4.5 -2.5,4.5 -1.375,0 -2.5,-2 -2.5,-4.5 0,-2.5 1.125,-4.5 2.5,-4.5 1.375,0 2.5,2 2.5,4.5 z" id="path3879"/>
        <path d="m 39.774755,19.008621 c 0,4.783923 -3.878135,8.662058 -8.662057,8.662058 -4.783923,0 -8.662058,-3.878135 -8.662058,-8.662058 0,-4.783922 3.878135,-8.662058 8.662058,-8.662058 4.783922,0 8.662057,3.878136 8.662057,8.662058 z" sodipodi:ry="8.6620579" sodipodi:rx="8.6620579" sodipodi:cy="19.008621" sodipodi:cx="31.112698" id="path3881" style="opacity:0.67721522;color:#000000;fill:none;stroke:#ffffff;stroke-width:0.50510609;stroke-linecap:round;stroke-linejoin:round;stroke-miterlimit:4;stroke-opacity:1;stroke-dasharray:none;stroke-dashoffset:0;marker:none;visibility:visible;display:inline;overflow:visible" sodipodi:type="arc" transform="matrix(1.979782,0,0,1.979782,-37.33128,-14.52746)"/>
      </g>
    </g>
    <g transform="matrix(-1,0,0,1,643.9372,269.99484)" id="g3889" inkscape:label="Layer 1">
      <g transform="translate(438.14286,250.36734)" inkscape:label="Layer 1" id="g3891">
        <path d="m 44.42857,38.57143 c 0,3.6293 -8.826386,6.571429 -19.714285,6.571429 C 13.826386,45.142859 5,42.20073 5,38.57143 c 0,-3.6293 8.826386,-6.571429 19.714285,-6.571429 10.887899,0 19.714285,2.942129 19.714285,6.571429 z" sodipodi:ry="6.5714288" sodipodi:rx="19.714285" sodipodi:cy="38.57143" sodipodi:cx="24.714285" id="path3893" style="opacity:0.53164559;color:#000000;fill:url(#radialGradient3907);fill-opacity:1;fill-rule:evenodd;stroke:none;stroke-width:0.40487173;marker:none;visibility:visible;display:inline;overflow:visible" sodipodi:type="arc"/>
        <path transform="matrix(2.083142,0,0,2.083142,-40.54715,-16.49224)" d="m 39.774755,19.008621 c 0,4.783923 -3.878135,8.662058 -8.662057,8.662058 -4.783923,0 -8.662058,-3.878135 -8.662058,-8.662058 0,-4.783922 3.878135,-8.662058 8.662058,-8.662058 4.783922,0 8.662057,3.878136 8.662057,8.662058 z" sodipodi:ry="8.6620579" sodipodi:rx="8.6620579" sodipodi:cy="19.008621" sodipodi:cx="31.112698" id="path3895" style="color:#000000;fill:url(#radialGradient3909);fill-opacity:1;fill-rule:evenodd;stroke:#9c8c0a;stroke-width:0.48004404;stroke-linecap:round;stroke-linejoin:round;stroke-miterlimit:4;stroke-opacity:1;stroke-dasharray:none;stroke-dashoffset:0;marker:none;visibility:visible;display:inline;overflow:visible" sodipodi:type="arc"/>
        <path inkscape:connector-curvature="0" sodipodi:nodetypes="zcccz" id="path3897" d="m 38.26877,32.094945 c -0.333203,0.539442 -0.514155,0.78255 -0.834475,1.240275 -6.100017,0 -8.853013,-3.44003 -11.639952,-8.267149 2.549413,3.05592 6.148771,6.274314 12.95315,6.274314 -0.385067,0.639237 -0.14552,0.213119 -0.478723,0.75256 z" style="opacity:0.36000001;color:#000000;fill:#ffffff;fill-opacity:1;fill-rule:nonzero;stroke:none;stroke-width:1;marker:none;visibility:visible;display:inline;overflow:visible"/>
        <path inkscape:connector-curvature="0" style="fill:url(#radialGradient3911);fill-rule:nonzero;stroke:none" d="m 38.355581,31.979727 c -0.166628,0.271221 -0.277398,0.411635 -0.858152,1.232383 -6.100017,0 -8.916147,-4.024024 -11.703086,-8.851143 2.549413,3.05592 6.338175,6.613663 13.142554,6.613663 -0.235122,0.402488 -0.414689,0.733876 -0.581316,1.005097 z" id="path3899" sodipodi:nodetypes="zcccz"/>
        <path id="path3901" d="m 38.292959,18.471749 c 0,2.5 -1.125,4.5 -2.5,4.5 -1.375,0 -2.625,-2 -2.625,-4.5 0,-2.5 1.125,-4.5 2.5,-4.5 1.375,0 2.5,2 2.5,4.5 l 0.125,0 z" style="opacity:0.36000001;fill:#ffffff;fill-rule:nonzero;stroke:none" inkscape:connector-curvature="0"/>
        <path id="path3903" d="m 38.292959,17.846749 c 0,2.5 -1.125,4.5 -2.5,4.5 -1.375,0 -2.5,-2 -2.5,-4.5 0,-2.5 1.125,-4.5 2.5,-4.5 1.375,0 2.5,2 2.5,4.5 z" style="fill:#000000;fill-rule:nonzero;stroke:none" inkscape:connector-curvature="0"/>
        <path transform="matrix(1.979782,0,0,1.979782,-37.33128,-14.52746)" sodipodi:type="arc" style="opacity:0.67721522;color:#000000;fill:none;stroke:#ffffff;stroke-width:0.50510609;stroke-linecap:round;stroke-linejoin:round;stroke-miterlimit:4;stroke-opacity:1;stroke-dasharray:none;stroke-dashoffset:0;marker:none;visibility:visible;display:inline;overflow:visible" id="path3905" sodipodi:cx="31.112698" sodipodi:cy="19.008621" sodipodi:rx="8.6620579" sodipodi:ry="8.6620579" d="m 39.774755,19.008621 c 0,4.783923 -3.878135,8.662058 -8.662057,8.662058 -4.783923,0 -8.662058,-3.878135 -8.662058,-8.662058 0,-4.783922 3.878135,-8.662058 8.662058,-8.662058 4.783922,0 8.662057,3.878136 8.662057,8.662058 z"/>
      </g>
    </g>
  </g>
</svg>