<svg version="1.1" id="loga" xmlns="http://www.w3.org/2000/svg" xmlns:xlink="http://www.w3.org/1999/xlink" width="100%" height="100%" viewBox="0 0 179 43">
<style>
	.st0{fill:#951B81;stroke:#951B81}
	.st1{fill:#C7017F;stroke:#C7017F}
	.st2{fill:#702673;stroke:#702673}
	.st3{fill:#444749}
</style>
<g>
	<g stroke-width="0">
		<g class="st1">
			<polygon points="14.6,35 23.6,29.8 14.6,24.7"/>
			<polygon points="32.5,35 41.5,29.8 32.5,24.7"/>
			<polygon points="23.6,13.6 14.6,18.8 23.6,24"/>
			<polygon points="32.5,8.5 23.6,13.6 32.5,18.8"/>
			<polygon points="14.6,8.5 5.7,13.6 14.6,18.8"/>
		</g>
		<g class="st0">
			<polygon points="14.6,35 5.7,29.8 14.6,24.7"/>
			<polygon points="32.5,35 23.6,29.8 32.5,24.7"/>
			<polygon points="23.6,40.2 14.6,35 23.6,29.8"/>
			<polygon points="23.6,13.6 32.5,18.8 23.6,24"/>
			<polygon points="14.6,8.5 23.6,13.6 14.6,18.8"/>
			<polygon points="32.5,8.5 41.5,13.6 32.5,18.8"/>
		</g>
		<g class="st2">
			<polygon points="5.7,29.8 14.6,24.7 5.7,19.5"/>
			<polygon points="41.5,29.8 32.5,24.7 41.5,19.5"/>
			<polygon points="23.6,40.2 32.5,35 23.6,29.8"/>
			<polygon points="41.5,3.3 32.5,8.5 41.5,13.6"/>
			<polygon points="5.7,3.3 14.6,8.5 5.7,13.6"/>
		</g>
	</g>
    <g stroke-width="0.03">
        <polygon class="st2" points="6,4 6,14 15,9"/>
        <polygon class="st1" points="15,19 6,14 15,9"/>
        
        <polygon class="st0" points="15,19 24,14 15,9"/>
        <polygon class="st1" points="15,19 24,14 24,24"/>
        
        <polygon class="st0" points="33,19 24,14 24,24"/>
        <polygon class="st1" points="33,19 24,14 33,9"/>
        
        <polygon class="st0" points="33,19 42,14 33,9"/>
        <polygon class="st2" points="42,4 42,14 33,9"/>
    </g>
    <g stroke-width="0.03">
        <polygon class="st2" points="6,20 6,30 15,25"/>
        <polygon class="st0" points="15,35 6,30 15,25"/>
        
        <polygon class="st1" points="15,35 24,30 15,25"/>
        <polygon class="st0" points="15,35 24,30 24,40"/>
        
        <polygon class="st2" points="33,35 24,30 24,40"/>
        <polygon class="st0" points="33,35 24,30 33,25"/>
        
        <polygon class="st1" points="33,35 42,30 33,25"/>
        <polygon class="st2" points="42,20 42,30 33,25"/>
    </g>
	<g>
		<path class="st3" d="M67.6,9.3h4.1v21.1c0,3.4-2.2,5.6-6.4,5.6h-7.1c-4.2,0-6.4-2.2-6.4-5.6V9.3H56v21.1c0,1.5,1.1,2.6,2.6,2.6H65
			c1.5,0,2.6-1.1,2.6-2.6V9.3z"/>
		<path class="st3" d="M83.1,36c-3.6,0-5.8-2.3-5.8-4.9V9.3h3.9v21.8c0,1.3,0.9,2.3,2.3,2.3h1.1V36H83.1z"/>
		<path class="st3" d="M105.8,31.1c0,2.6-2.3,4.9-5.8,4.9h-5.8c-3.6,0-5.8-2.3-5.8-4.9V20.2c0-2.6,2.3-4.9,5.8-4.9h5.8
			c3.6,0,5.8,2.3,5.8,4.9V31.1z M92.3,31.1c0,1.3,0.9,2.3,2.3,2.3h5.1c1.3,0,2.3-0.9,2.3-2.3V20.2c0-1.3-0.9-2.3-2.3-2.3h-5.1
			c-1.3,0-2.3,0.9-2.3,2.3V31.1z"/>
		<path class="st3" d="M120.9,18.3h-10l-1.1-1.3v-1.3h16v2.4l-11.1,14.5V33h11.5v2.6h-16.4v-2.4l11.1-14.5V18.3z M124.6,7.4
			l-4.9,5.6h-3.4l-4.9-5.6h3.6l3,3.4l3-3.4H124.6z"/>
		<path class="st3" d="M134.5,35.6h-3.9v-4.5h3.9V35.6z"/>
		<path class="st3" d="M139.8,17.8h-3.4v-2.1h3.4l1.3-5.3h1.3v5.3h6v2.1h-6v13.2c0,1.7,1.3,3,3,3h5.8V36h-5.8
			c-3.6,0-5.6-2.1-5.6-5.1V17.8z"/>
		<path class="st3" d="M160.5,36c-3.6,0-5.6-2.1-5.6-5.1V20.4c0-3,2-5.1,5.6-5.1h5.6c3.6,0,5.6,2.1,5.6,5.1v10.5c0,3-2,5.1-5.6,5.1
			H160.5z M157.5,30.9c0,1.7,1.3,3,3,3h5.6c1.7,0,3-1.3,3-3V20.4c0-1.7-1.3-3-3-3h-5.6c-1.7,0-3,1.3-3,3V30.9z"/>
	</g>
</g>
</svg>